<svg width="224" height="68" viewBox="0 0 224 68" fill="none" xmlns="http://www.w3.org/2000/svg">
<g clip-path="url(#clip0_1418_6288)">
<path fill-rule="evenodd" clip-rule="evenodd" d="M27.7673 64.9685C28.0625 64.9685 28.3075 65.2044 28.3075 65.5023C28.3075 65.794 28.0688 66.036 27.7673 66.036C27.472 66.036 27.2271 65.8002 27.2271 65.5023C27.2271 65.2106 27.472 64.9685 27.7673 64.9685Z" fill="#097CF6"/>
<path fill-rule="evenodd" clip-rule="evenodd" d="M30.7825 58.886C31.0778 58.886 31.3228 59.1218 31.3228 59.4198C31.3228 59.7115 31.0841 59.9535 30.7825 59.9535C30.4873 59.9535 30.2423 59.7177 30.2423 59.4198C30.2423 59.128 30.4873 58.886 30.7825 58.886Z" fill="#097CF6"/>
<path fill-rule="evenodd" clip-rule="evenodd" d="M40.5694 49.5203C40.8646 49.5203 41.1096 49.7561 41.1096 50.054C41.1096 50.3457 40.8709 50.5878 40.5694 50.5878C40.2742 50.5878 40.0292 50.3519 40.0292 50.054C40.0355 49.7623 40.2742 49.5203 40.5694 49.5203Z" fill="#097CF6"/>
<path fill-rule="evenodd" clip-rule="evenodd" d="M40.2051 51.8354C40.5004 51.8354 40.7454 52.0713 40.7454 52.3692C40.7454 52.6609 40.5067 52.903 40.2051 52.903C39.9099 52.903 39.6649 52.6671 39.6649 52.3692C39.6649 52.0713 39.9036 51.8354 40.2051 51.8354Z" fill="#097CF6"/>
<path fill-rule="evenodd" clip-rule="evenodd" d="M32.3217 46.7212C32.617 46.7212 32.8619 46.957 32.8619 47.255C32.8619 47.5467 32.6232 47.7887 32.3217 47.7887C32.0265 47.7887 31.7815 47.5529 31.7815 47.255C31.7815 46.9632 32.0265 46.7212 32.3217 46.7212Z" fill="#097CF6"/>
<path fill-rule="evenodd" clip-rule="evenodd" d="M34.9096 49.2783C35.2048 49.2783 35.4498 49.5142 35.4498 49.8121C35.4498 50.1038 35.2111 50.3458 34.9096 50.3458C34.6144 50.3458 34.3694 50.11 34.3694 49.8121C34.3694 49.5142 34.6081 49.2783 34.9096 49.2783Z" fill="#097CF6"/>
<path fill-rule="evenodd" clip-rule="evenodd" d="M32.5667 49.6445C32.862 49.6445 33.1069 49.8804 33.1069 50.1783C33.1069 50.47 32.8682 50.7121 32.5667 50.7121C32.2715 50.7121 32.0265 50.4762 32.0265 50.1783C32.0328 49.8804 32.2715 49.6445 32.5667 49.6445Z" fill="#097CF6"/>
<path fill-rule="evenodd" clip-rule="evenodd" d="M39.5832 53.9021C39.8784 53.9021 40.1234 54.1379 40.1234 54.4359C40.1234 54.7276 39.8847 54.9696 39.5832 54.9696C39.288 54.9696 39.043 54.7338 39.043 54.4359C39.0493 54.1379 39.288 53.9021 39.5832 53.9021Z" fill="#097CF6"/>
<path fill-rule="evenodd" clip-rule="evenodd" d="M38.7226 55.845C39.0178 55.845 39.2628 56.0808 39.2628 56.3787C39.2628 56.6704 39.0241 56.9125 38.7226 56.9125C38.4274 56.9125 38.1824 56.6766 38.1824 56.3787C38.1824 56.087 38.4274 55.845 38.7226 55.845Z" fill="#097CF6"/>
<path fill-rule="evenodd" clip-rule="evenodd" d="M36.7501 53.7781C37.0453 53.7781 37.2903 54.0139 37.2903 54.3118C37.2903 54.6035 37.0516 54.8456 36.7501 54.8456C36.4548 54.8456 36.2098 54.6098 36.2098 54.3118C36.2161 54.0201 36.4548 53.7781 36.7501 53.7781Z" fill="#097CF6"/>
<path fill-rule="evenodd" clip-rule="evenodd" d="M37.7364 57.5518C38.0316 57.5518 38.2766 57.7876 38.2766 58.0855C38.2766 58.3772 38.0379 58.6193 37.7364 58.6193C37.4412 58.6193 37.1962 58.3834 37.1962 58.0855C37.2024 57.7876 37.4412 57.5518 37.7364 57.5518Z" fill="#097CF6"/>
<path fill-rule="evenodd" clip-rule="evenodd" d="M32.3217 52.1953C32.617 52.1953 32.8619 52.4312 32.8619 52.7291C32.8619 53.0208 32.6232 53.2628 32.3217 53.2628C32.0265 53.2628 31.7815 53.027 31.7815 52.7291C31.7815 52.4374 32.0265 52.1953 32.3217 52.1953Z" fill="#097CF6"/>
<path fill-rule="evenodd" clip-rule="evenodd" d="M31.951 54.6284C32.2462 54.6284 32.4912 54.8643 32.4912 55.1622C32.4912 55.4539 32.2525 55.6959 31.951 55.6959C31.6558 55.6959 31.4108 55.4601 31.4108 55.1622C31.417 54.8705 31.6558 54.6284 31.951 54.6284Z" fill="#097CF6"/>
<path fill-rule="evenodd" clip-rule="evenodd" d="M35.3996 57.9177C35.6948 57.9177 35.9398 58.1536 35.9398 58.4515C35.9398 58.7432 35.7011 58.9853 35.3996 58.9853C35.1044 58.9853 34.8594 58.7494 34.8594 58.4515C34.8594 58.1536 35.1044 57.9177 35.3996 57.9177Z" fill="#097CF6"/>
<path fill-rule="evenodd" clip-rule="evenodd" d="M36.5052 59.0103C36.8004 59.0103 37.0454 59.2461 37.0454 59.544C37.0454 59.8357 36.8067 60.0778 36.5052 60.0778C36.21 60.0778 35.965 59.8419 35.965 59.544C35.9712 59.2461 36.21 59.0103 36.5052 59.0103Z" fill="#097CF6"/>
<path fill-rule="evenodd" clip-rule="evenodd" d="M35.1546 60.4688C35.4498 60.4688 35.6948 60.7046 35.6948 61.0025C35.6948 61.3004 35.4561 61.5363 35.1546 61.5363C34.8594 61.5363 34.6144 61.3004 34.6144 61.0025C34.6144 60.7046 34.8594 60.4688 35.1546 60.4688Z" fill="#097CF6"/>
<path fill-rule="evenodd" clip-rule="evenodd" d="M33.6784 61.6853C33.9736 61.6853 34.2186 61.9212 34.2186 62.2191C34.2186 62.5108 33.9799 62.7528 33.6784 62.7528C33.3832 62.7528 33.1382 62.517 33.1382 62.2191C33.1382 61.9274 33.3769 61.6853 33.6784 61.6853Z" fill="#097CF6"/>
<path fill-rule="evenodd" clip-rule="evenodd" d="M32.0767 62.7776C32.372 62.7776 32.617 63.0134 32.617 63.3114C32.617 63.6031 32.3782 63.8451 32.0767 63.8451C31.7815 63.8451 31.5365 63.6093 31.5365 63.3114C31.5365 63.0196 31.7752 62.7776 32.0767 62.7776Z" fill="#097CF6"/>
<path fill-rule="evenodd" clip-rule="evenodd" d="M29.9786 60.8352C30.2738 60.8352 30.5188 61.0711 30.5188 61.369C30.5188 61.6607 30.2801 61.9027 29.9786 61.9027C29.6833 61.9027 29.4384 61.6669 29.4384 61.369C29.4446 61.0711 29.6833 60.8352 29.9786 60.8352Z" fill="#097CF6"/>
<path fill-rule="evenodd" clip-rule="evenodd" d="M29.118 62.6597C29.4132 62.6597 29.6582 62.8955 29.6582 63.1934C29.6582 63.4851 29.4195 63.7272 29.118 63.7272C28.8227 63.7272 28.5778 63.4913 28.5778 63.1934C28.584 62.8955 28.8227 62.6597 29.118 62.6597Z" fill="#097CF6"/>
<path fill-rule="evenodd" clip-rule="evenodd" d="M30.3491 63.8762C30.6443 63.8762 30.8893 64.1121 30.8893 64.41C30.8893 64.7017 30.6506 64.9437 30.3491 64.9437C30.0538 64.9437 29.8088 64.7079 29.8088 64.41C29.8151 64.1121 30.0538 63.8762 30.3491 63.8762Z" fill="#097CF6"/>
<path fill-rule="evenodd" clip-rule="evenodd" d="M31.461 56.8191C31.7562 56.8191 32.0012 57.0549 32.0012 57.3529C32.0012 57.6446 31.7625 57.8866 31.461 57.8866C31.1658 57.8866 30.9208 57.6508 30.9208 57.3529C30.9208 57.0611 31.1658 56.8191 31.461 56.8191Z" fill="#097CF6"/>
<path fill-rule="evenodd" clip-rule="evenodd" d="M40.5694 44.0464C40.8646 44.0464 41.1096 44.2822 41.1096 44.5801C41.1096 44.8718 40.8709 45.1139 40.5694 45.1139C40.2742 45.1139 40.0292 44.8781 40.0292 44.5801C40.0292 44.2822 40.2742 44.0464 40.5694 44.0464Z" fill="#097CF6"/>
<path fill-rule="evenodd" clip-rule="evenodd" d="M35.6446 44.5366C35.9398 44.5366 36.1848 44.7725 36.1848 45.0704C36.1848 45.3621 35.9461 45.6041 35.6446 45.6041C35.3494 45.6041 35.1044 45.3683 35.1044 45.0704C35.1107 44.7725 35.3494 44.5366 35.6446 44.5366Z" fill="#097CF6"/>
<path fill-rule="evenodd" clip-rule="evenodd" d="M31.706 43.438C32.0012 43.438 32.2462 43.6738 32.2462 43.9718C32.2462 44.2635 32.0075 44.5055 31.706 44.5055C31.4108 44.5055 31.1658 44.2697 31.1658 43.9718C31.1658 43.68 31.4108 43.438 31.706 43.438Z" fill="#097CF6"/>
<path fill-rule="evenodd" clip-rule="evenodd" d="M33.3078 45.0205C33.603 45.0205 33.848 45.2564 33.848 45.5543C33.848 45.846 33.6093 46.088 33.3078 46.088C33.0126 46.088 32.7676 45.8522 32.7676 45.5543C32.7676 45.2564 33.0063 45.0205 33.3078 45.0205Z" fill="#097CF6"/>
<path fill-rule="evenodd" clip-rule="evenodd" d="M39.4639 45.5046C39.7592 45.5046 40.0042 45.7405 40.0042 46.0384C40.0042 46.3301 39.7655 46.5722 39.4639 46.5722C39.1687 46.5722 38.9237 46.3363 38.9237 46.0384C38.9237 45.7467 39.1687 45.5046 39.4639 45.5046Z" fill="#097CF6"/>
<path fill-rule="evenodd" clip-rule="evenodd" d="M40.8144 46.8452C41.1096 46.8452 41.3546 47.0811 41.3546 47.379C41.3546 47.6707 41.1159 47.9127 40.8144 47.9127C40.5192 47.9127 40.2742 47.6769 40.2742 47.379C40.2805 47.0811 40.5192 46.8452 40.8144 46.8452Z" fill="#097CF6"/>
<path fill-rule="evenodd" clip-rule="evenodd" d="M30.3491 39.4224C30.6443 39.4224 30.8893 39.6582 30.8893 39.9561C30.8893 40.2478 30.6506 40.4899 30.3491 40.4899C30.0538 40.4899 29.8088 40.254 29.8088 39.9561C29.8151 39.6644 30.0538 39.4224 30.3491 39.4224Z" fill="#097CF6"/>
<path fill-rule="evenodd" clip-rule="evenodd" d="M40.1988 40.9307C40.494 40.9307 40.739 41.1665 40.739 41.4644C40.739 41.7561 40.5003 41.9982 40.1988 41.9982C39.9036 41.9982 39.6586 41.7623 39.6586 41.4644C39.6649 41.1665 39.9036 40.9307 40.1988 40.9307Z" fill="#097CF6"/>
<path fill-rule="evenodd" clip-rule="evenodd" d="M36.7501 40.2788C37.0453 40.2788 37.2903 40.5147 37.2903 40.8126C37.2903 41.1043 37.0516 41.3463 36.7501 41.3463C36.4548 41.3463 36.2098 41.1105 36.2098 40.8126C36.2161 40.5147 36.4548 40.2788 36.7501 40.2788Z" fill="#097CF6"/>
<path fill-rule="evenodd" clip-rule="evenodd" d="M33.1822 39.3479C33.4774 39.3479 33.7224 39.5837 33.7224 39.8817C33.7224 40.1734 33.4837 40.4154 33.1822 40.4154C32.887 40.4154 32.642 40.1796 32.642 39.8817C32.642 39.5837 32.887 39.3479 33.1822 39.3479Z" fill="#097CF6"/>
<path fill-rule="evenodd" clip-rule="evenodd" d="M29.7336 35.897C30.0288 35.897 30.2738 36.1328 30.2738 36.4307C30.2738 36.7224 30.0351 36.9645 29.7336 36.9645C29.4383 36.9645 29.1934 36.7287 29.1934 36.4307C29.1996 36.1328 29.4383 35.897 29.7336 35.897Z" fill="#097CF6"/>
<path fill-rule="evenodd" clip-rule="evenodd" d="M30.4121 33.8364C30.7073 33.8364 30.9523 34.0723 30.9523 34.3702C30.9523 34.6619 30.7136 34.9039 30.4121 34.9039C30.1168 34.9039 29.8718 34.6681 29.8718 34.3702C29.8718 34.0785 30.1168 33.8364 30.4121 33.8364Z" fill="#097CF6"/>
<path fill-rule="evenodd" clip-rule="evenodd" d="M39.1561 37.2375C39.4513 37.2375 39.6963 37.4734 39.6963 37.7713C39.6963 38.063 39.4576 38.3051 39.1561 38.3051C38.8608 38.3051 38.6158 38.0692 38.6158 37.7713C38.6158 37.4734 38.8608 37.2375 39.1561 37.2375Z" fill="#097CF6"/>
<path fill-rule="evenodd" clip-rule="evenodd" d="M34.4134 35.1646C34.7086 35.1646 34.9536 35.4004 34.9536 35.6983C34.9536 35.99 34.7149 36.2321 34.4134 36.2321C34.1182 36.2321 33.8732 35.9962 33.8732 35.6983C33.8795 35.4066 34.1182 35.1646 34.4134 35.1646Z" fill="#097CF6"/>
<path fill-rule="evenodd" clip-rule="evenodd" d="M30.9395 31.7634C31.2348 31.7634 31.4797 31.9993 31.4797 32.2972C31.4797 32.5889 31.241 32.831 30.9395 32.831C30.6443 32.831 30.3993 32.5951 30.3993 32.2972C30.3993 31.9993 30.638 31.7634 30.9395 31.7634Z" fill="#097CF6"/>
<path fill-rule="evenodd" clip-rule="evenodd" d="M37.4097 32.5952C37.705 32.5952 37.95 32.8311 37.95 33.129C37.95 33.4207 37.7113 33.6627 37.4097 33.6627C37.1145 33.6627 36.8695 33.4269 36.8695 33.129C36.8695 32.8311 37.1082 32.5952 37.4097 32.5952Z" fill="#097CF6"/>
<path fill-rule="evenodd" clip-rule="evenodd" d="M31.4799 29.5291C31.7752 29.5291 32.0201 29.7649 32.0201 30.0628C32.0201 30.3545 31.7814 30.5966 31.4799 30.5966C31.1847 30.5966 30.9397 30.3607 30.9397 30.0628C30.9397 29.7649 31.1847 29.5291 31.4799 29.5291Z" fill="#097CF6"/>
<path fill-rule="evenodd" clip-rule="evenodd" d="M33.0628 31.1553C33.358 31.1553 33.603 31.3911 33.603 31.689C33.603 31.9807 33.3643 32.2228 33.0628 32.2228C32.7676 32.2228 32.5226 31.987 32.5226 31.689C32.5226 31.3911 32.7613 31.1553 33.0628 31.1553Z" fill="#097CF6"/>
<path fill-rule="evenodd" clip-rule="evenodd" d="M35.7955 29.9387C36.0907 29.9387 36.3357 30.1746 36.3357 30.4725C36.3357 30.7642 36.097 31.0062 35.7955 31.0062C35.5002 31.0062 35.2552 30.7704 35.2552 30.4725C35.2552 30.1746 35.5002 29.9387 35.7955 29.9387Z" fill="#097CF6"/>
<path fill-rule="evenodd" clip-rule="evenodd" d="M32.0137 27.3198C32.309 27.3198 32.554 27.5557 32.554 27.8536C32.554 28.1453 32.3153 28.3873 32.0137 28.3873C31.7185 28.3873 31.4735 28.1515 31.4735 27.8536C31.4735 27.5619 31.7185 27.3198 32.0137 27.3198Z" fill="#097CF6"/>
<path fill-rule="evenodd" clip-rule="evenodd" d="M34.4134 27.7478C34.7086 27.7478 34.9536 27.9837 34.9536 28.2816C34.9536 28.5733 34.7149 28.8153 34.4134 28.8153C34.1182 28.8153 33.8732 28.5795 33.8732 28.2816C33.8795 27.9837 34.1182 27.7478 34.4134 27.7478Z" fill="#097CF6"/>
<path fill-rule="evenodd" clip-rule="evenodd" d="M32.4472 25.3147C32.7424 25.3147 32.9874 25.5505 32.9874 25.8485C32.9874 26.1402 32.7487 26.3822 32.4472 26.3822C32.152 26.3822 31.907 26.1464 31.907 25.8485C31.907 25.5505 32.1457 25.3147 32.4472 25.3147Z" fill="#097CF6"/>
<path fill-rule="evenodd" clip-rule="evenodd" d="M18.4077 21.5413C18.7029 21.5413 18.9479 21.7771 18.9479 22.075C18.9479 22.3667 18.7092 22.6088 18.4077 22.6088C18.1124 22.6088 17.8674 22.3729 17.8674 22.075C17.8737 21.7833 18.1124 21.5413 18.4077 21.5413Z" fill="#097CF6"/>
<path fill-rule="evenodd" clip-rule="evenodd" d="M18.9039 22.9998C19.1991 22.9998 19.4441 23.2356 19.4441 23.5335C19.4441 23.8252 19.2054 24.0673 18.9039 24.0673C18.6086 24.0673 18.3636 23.8314 18.3636 23.5335C18.3636 23.2418 18.6024 22.9998 18.9039 22.9998Z" fill="#097CF6"/>
<path fill-rule="evenodd" clip-rule="evenodd" d="M17.1765 22.3916C17.4717 22.3916 17.7167 22.6275 17.7167 22.9254C17.7167 23.2171 17.478 23.4591 17.1765 23.4591C16.8812 23.4591 16.6362 23.2233 16.6362 22.9254C16.6425 22.6337 16.8812 22.3916 17.1765 22.3916Z" fill="#097CF6"/>
<path fill-rule="evenodd" clip-rule="evenodd" d="M15.8259 23.7322C16.1211 23.7322 16.3661 23.968 16.3661 24.2659C16.3661 24.5576 16.1274 24.7997 15.8259 24.7997C15.5306 24.7997 15.2856 24.5639 15.2856 24.2659C15.2856 23.968 15.5306 23.7322 15.8259 23.7322Z" fill="#097CF6"/>
<path fill-rule="evenodd" clip-rule="evenodd" d="M18.5333 24.7065C18.8285 24.7065 19.0735 24.9424 19.0735 25.2403C19.0735 25.532 18.8348 25.7741 18.5333 25.7741C18.238 25.7741 17.993 25.5382 17.993 25.2403C17.993 24.9424 18.238 24.7065 18.5333 24.7065Z" fill="#097CF6"/>
<path fill-rule="evenodd" clip-rule="evenodd" d="M14.3434 25.0728C14.6387 25.0728 14.8837 25.3086 14.8837 25.6065C14.8837 25.8982 14.645 26.1403 14.3434 26.1403C14.0482 26.1403 13.8032 25.9044 13.8032 25.6065C13.8095 25.3086 14.0482 25.0728 14.3434 25.0728Z" fill="#097CF6"/>
<path fill-rule="evenodd" clip-rule="evenodd" d="M18.037 25.9231C18.3323 25.9231 18.5773 26.1589 18.5773 26.4569C18.5773 26.7486 18.3386 26.9906 18.037 26.9906C17.7418 26.9906 17.4968 26.7548 17.4968 26.4569C17.5031 26.1589 17.7418 25.9231 18.037 25.9231Z" fill="#097CF6"/>
<path fill-rule="evenodd" clip-rule="evenodd" d="M17.0822 27.7478C17.3775 27.7478 17.6224 27.9837 17.6224 28.2816C17.6224 28.5733 17.3837 28.8153 17.0822 28.8153C16.787 28.8153 16.542 28.5795 16.542 28.2816C16.542 27.9837 16.787 27.7478 17.0822 27.7478Z" fill="#097CF6"/>
<path fill-rule="evenodd" clip-rule="evenodd" d="M16.0709 29.4485C16.3661 29.4485 16.6111 29.6843 16.6111 29.9823C16.6111 30.274 16.3724 30.516 16.0709 30.516C15.7756 30.516 15.5306 30.2802 15.5306 29.9823C15.5306 29.6843 15.7756 29.4485 16.0709 29.4485Z" fill="#097CF6"/>
<path fill-rule="evenodd" clip-rule="evenodd" d="M12.9929 26.5315C13.2881 26.5315 13.5331 26.7673 13.5331 27.0653C13.5331 27.357 13.2944 27.599 12.9929 27.599C12.6976 27.599 12.4526 27.3632 12.4526 27.0653C12.4526 26.7673 12.6976 26.5315 12.9929 26.5315Z" fill="#097CF6"/>
<path fill-rule="evenodd" clip-rule="evenodd" d="M11.6359 28.114C11.9312 28.114 12.1762 28.3499 12.1762 28.6478C12.1762 28.9395 11.9374 29.1815 11.6359 29.1815C11.3407 29.1815 11.0957 28.9457 11.0957 28.6478C11.102 28.3499 11.3407 28.114 11.6359 28.114Z" fill="#097CF6"/>
<path fill-rule="evenodd" clip-rule="evenodd" d="M13.7277 29.0823C14.023 29.0823 14.2679 29.3181 14.2679 29.616C14.2679 29.9077 14.0292 30.1498 13.7277 30.1498C13.4325 30.1498 13.1875 29.914 13.1875 29.616C13.1938 29.3243 13.4325 29.0823 13.7277 29.0823Z" fill="#097CF6"/>
<path fill-rule="evenodd" clip-rule="evenodd" d="M14.8395 31.3972C15.1348 31.3972 15.3798 31.6331 15.3798 31.931C15.3798 32.2227 15.1411 32.4647 14.8395 32.4647C14.5443 32.4647 14.2993 32.2289 14.2993 31.931C14.2993 31.6331 14.5443 31.3972 14.8395 31.3972Z" fill="#097CF6"/>
<path fill-rule="evenodd" clip-rule="evenodd" d="M10.5682 29.9016C10.8634 29.9016 11.1084 30.1375 11.1084 30.4354C11.1084 30.7271 10.8697 30.9691 10.5682 30.9691C10.2729 30.9691 10.028 30.7333 10.028 30.4354C10.028 30.1375 10.2667 29.9016 10.5682 29.9016Z" fill="#097CF6"/>
<path fill-rule="evenodd" clip-rule="evenodd" d="M12.8673 32.1235C13.1625 32.1235 13.4075 32.3594 13.4075 32.6573C13.4075 32.949 13.1688 33.1911 12.8673 33.1911C12.572 33.1911 12.327 32.9552 12.327 32.6573C12.3333 32.3656 12.572 32.1235 12.8673 32.1235Z" fill="#097CF6"/>
<path fill-rule="evenodd" clip-rule="evenodd" d="M13.9791 33.2219C14.2743 33.2219 14.5193 33.4578 14.5193 33.7557C14.5193 34.0474 14.2806 34.2895 13.9791 34.2895C13.6838 34.2895 13.4388 34.0536 13.4388 33.7557C13.4388 33.4578 13.6838 33.2219 13.9791 33.2219Z" fill="#097CF6"/>
<path fill-rule="evenodd" clip-rule="evenodd" d="M13.1185 35.1646C13.4137 35.1646 13.6587 35.4004 13.6587 35.6983C13.6587 35.99 13.42 36.2321 13.1185 36.2321C12.8232 36.2321 12.5782 35.9962 12.5782 35.6983C12.5782 35.4066 12.817 35.1646 13.1185 35.1646Z" fill="#097CF6"/>
<path fill-rule="evenodd" clip-rule="evenodd" d="M9.66986 31.7634C9.9651 31.7634 10.2101 31.9993 10.2101 32.2972C10.2101 32.5889 9.97139 32.831 9.66986 32.831C9.37462 32.831 9.12964 32.5951 9.12964 32.2972C9.12964 31.9993 9.36834 31.7634 9.66986 31.7634Z" fill="#097CF6"/>
<path fill-rule="evenodd" clip-rule="evenodd" d="M9.17353 34.4387C9.46877 34.4387 9.71375 34.6746 9.71375 34.9725C9.71375 35.2642 9.47505 35.5062 9.17353 35.5062C8.87829 35.5062 8.6333 35.2704 8.6333 34.9725C8.63958 34.6746 8.87829 34.4387 9.17353 34.4387Z" fill="#097CF6"/>
<path fill-rule="evenodd" clip-rule="evenodd" d="M12.3773 37.5974C12.6725 37.5974 12.9175 37.8333 12.9175 38.1312C12.9175 38.4229 12.6788 38.6649 12.3773 38.6649C12.082 38.6649 11.837 38.4291 11.837 38.1312C11.837 37.8395 12.082 37.5974 12.3773 37.5974Z" fill="#097CF6"/>
<path fill-rule="evenodd" clip-rule="evenodd" d="M9.29914 37.2375C9.59438 37.2375 9.83936 37.4734 9.83936 37.7713C9.83936 38.063 9.60066 38.3051 9.29914 38.3051C9.0039 38.3051 8.75891 38.0692 8.75891 37.7713C8.75891 37.4734 9.0039 37.2375 9.29914 37.2375Z" fill="#097CF6"/>
<path fill-rule="evenodd" clip-rule="evenodd" d="M10.5303 38.4541C10.8256 38.4541 11.0706 38.69 11.0706 38.9879C11.0706 39.2796 10.8319 39.5216 10.5303 39.5216C10.2351 39.5216 9.99011 39.2858 9.99011 38.9879C9.99011 38.69 10.2351 38.4541 10.5303 38.4541Z" fill="#097CF6"/>
<path fill-rule="evenodd" clip-rule="evenodd" d="M11.1459 43.9282C11.4412 43.9282 11.6862 44.1641 11.6862 44.462C11.6862 44.7537 11.4475 44.9958 11.1459 44.9958C10.8507 44.9958 10.6057 44.7599 10.6057 44.462C10.6057 44.1641 10.8507 43.9282 11.1459 43.9282Z" fill="#097CF6"/>
<path fill-rule="evenodd" clip-rule="evenodd" d="M11.7617 39.6704C12.0569 39.6704 12.3019 39.9063 12.3019 40.2042C12.3019 40.4959 12.0632 40.7379 11.7617 40.7379C11.4664 40.7379 11.2214 40.5021 11.2214 40.2042C11.2214 39.9063 11.4664 39.6704 11.7617 39.6704Z" fill="#097CF6"/>
<path d="M37.4851 33.0295C37.5479 33.0916 37.5479 33.1971 37.4851 33.2591C37.4223 33.3212 37.3155 33.3212 37.2527 33.2591L35.7765 31.8006C35.7137 31.7385 35.7137 31.633 35.7765 31.571C35.8393 31.5089 35.9461 31.5089 36.0089 31.571L37.4851 33.0295Z" fill="#097CF6"/>
<path d="M31.9573 28.0269C31.8945 27.9649 31.8945 27.8593 31.9573 27.7973C32.0201 27.7352 32.1269 27.7352 32.1897 27.7973L35.1421 30.7144C35.1735 30.7454 35.1923 30.7888 35.1923 30.8323V33.4452L39.332 37.6533C39.3948 37.7154 39.3948 37.8209 39.332 37.8829C39.2692 37.945 39.1624 37.945 39.0996 37.8829L34.9222 33.6314C34.8845 33.6004 34.8657 33.557 34.8657 33.5073V30.9006L31.9573 28.0269Z" fill="#097CF6"/>
<path d="M40.3181 41.303C40.3809 41.365 40.3809 41.4705 40.3181 41.5326C40.2553 41.5947 40.1485 41.5947 40.0857 41.5326L36.5616 38.0507H33.7977C33.7475 38.0507 33.7035 38.0321 33.6721 37.9949L30.2297 34.4695C30.1669 34.4013 30.1669 34.302 30.236 34.2399C30.2988 34.1778 30.4056 34.1778 30.4684 34.2461L33.8668 37.7218H36.6307C36.6747 37.7218 36.7187 37.7404 36.7501 37.7714L40.3181 41.303Z" fill="#097CF6"/>
<path d="M40.6888 49.9422C40.7517 50.0042 40.7517 50.1097 40.6826 50.1718C40.6197 50.2339 40.513 50.2339 40.4501 50.1656L37.2465 46.8823C37.2151 46.8513 37.2025 46.8079 37.2025 46.7706V44.1639L35.4562 42.4384H32.8179C32.7676 42.4384 32.7237 42.4198 32.6922 42.3826L30.2424 40.0799C30.1796 40.0179 30.1733 39.9124 30.2361 39.8503C30.2989 39.7882 30.4057 39.782 30.4685 39.8441L32.8807 42.1095H35.5253C35.5693 42.1095 35.6132 42.1281 35.6446 42.1591L37.4915 43.9839C37.5229 44.0149 37.5417 44.0584 37.5417 44.1018V46.7147L40.6888 49.9422Z" fill="#097CF6"/>
<path d="M40.6889 44.462C40.7517 44.524 40.7517 44.6296 40.6889 44.6916C40.6261 44.7537 40.5193 44.7537 40.4565 44.6916L36.6372 40.918C36.5744 40.856 36.5744 40.7505 36.6372 40.6884C36.7 40.6263 36.8068 40.6263 36.8696 40.6884L40.6889 44.462Z" fill="#097CF6"/>
<path d="M39.7025 54.3182C39.7653 54.3802 39.7653 54.4857 39.7025 54.5478C39.6397 54.6099 39.5329 54.6099 39.4701 54.5478L37.1835 52.2824H34.5452C34.495 52.2824 34.451 52.2576 34.4196 52.2266L32.4597 50.2901C32.3969 50.228 32.3969 50.1225 32.4597 50.0605C32.5225 49.9984 32.6293 49.9984 32.6921 50.0605L34.6143 51.9597H37.2526C37.2966 51.9597 37.3406 51.9783 37.372 52.0093L39.7025 54.3182Z" fill="#097CF6"/>
<path d="M40.3182 52.2513C40.381 52.3133 40.381 52.4189 40.3182 52.4871C40.2554 52.5492 40.1486 52.5492 40.0858 52.4871L35.5316 47.9874C35.5002 47.9563 35.4813 47.9129 35.4813 47.8695V45.0703C35.4813 44.9772 35.5567 44.9089 35.6446 44.9089C35.7389 44.9089 35.808 44.9834 35.808 45.0703V47.8012L40.3182 52.2513Z" fill="#097CF6"/>
<path d="M38.8419 56.2669C38.9047 56.3352 38.8984 56.4345 38.8356 56.4966C38.7665 56.5587 38.666 56.5586 38.6032 56.4904L36.6308 54.4236C36.5679 54.3553 36.5742 54.256 36.637 54.194C36.7061 54.1319 36.8066 54.1381 36.8695 54.2002L38.8419 56.2669Z" fill="#097CF6"/>
<path d="M40.9339 47.2609C40.9967 47.323 40.9967 47.4285 40.9339 47.4906C40.871 47.5527 40.7643 47.5527 40.7014 47.4906L39.3446 46.15C39.2818 46.0879 39.2818 45.9824 39.3446 45.9203C39.4074 45.8583 39.5142 45.8583 39.577 45.9203L40.9339 47.2609Z" fill="#097CF6"/>
<path d="M35.2741 60.8846C35.3369 60.9467 35.3369 61.0522 35.2741 61.1142C35.2112 61.1763 35.1045 61.1763 35.0416 61.1142L33.8104 59.8978C33.779 59.8667 33.7602 59.8233 33.7602 59.786V57.0614L31.8443 55.2863C31.7752 55.2242 31.7752 55.1187 31.838 55.0566C31.9008 54.9884 32.0076 54.9884 32.0704 55.0504L34.0303 56.869C34.068 56.9 34.0931 56.9434 34.0931 56.9931V59.724L35.2741 60.8846Z" fill="#097CF6"/>
<path d="M36.6245 59.426C36.6873 59.4881 36.6873 59.5936 36.6245 59.6557C36.5617 59.7177 36.4549 59.7177 36.3921 59.6557L35.2865 58.5633C35.2237 58.5012 35.2237 58.3957 35.2865 58.3337C35.3493 58.2716 35.4561 58.2716 35.5189 58.3337L36.6245 59.426Z" fill="#097CF6"/>
<path d="M33.1821 31.5709C33.2449 31.6391 33.2386 31.7384 33.1695 31.8005C33.1004 31.8626 32.9999 31.8564 32.9371 31.7881L31.4609 30.2054C31.3981 30.1371 31.4044 30.0316 31.4735 29.9758C31.5426 29.9137 31.6431 29.9199 31.7059 29.9882L33.1821 31.5709Z" fill="#097CF6"/>
<path d="M33.3015 39.7201C33.3644 39.7821 33.3644 39.8876 33.3015 39.9497C33.2387 40.0118 33.1319 40.0118 33.0691 39.9497L29.6205 36.5423C29.5577 36.4802 29.5577 36.3747 29.6205 36.3127C29.6833 36.2506 29.7901 36.2506 29.8529 36.3127L33.3015 39.7201Z" fill="#097CF6"/>
<path d="M33.7915 62.1011C33.8543 62.1631 33.8543 62.2686 33.7915 62.3307C33.7287 62.3928 33.6219 62.3928 33.5591 62.3307L31.9573 60.748C31.9259 60.717 31.907 60.6736 31.907 60.6301V58.0234L31.3417 57.4648C31.2789 57.4027 31.2789 57.2972 31.3417 57.2289C31.4045 57.1669 31.5113 57.1669 31.5741 57.2289L32.1897 57.8372C32.2211 57.8682 32.24 57.9116 32.24 57.9551V60.5618L33.7915 62.1011Z" fill="#097CF6"/>
<path d="M30.4688 64.2918C30.5316 64.3539 30.5316 64.4594 30.4688 64.5215C30.4059 64.5836 30.2991 64.5836 30.2363 64.5215L29.0051 63.305C28.9423 63.2429 28.9423 63.1374 29.0051 63.0754C29.0679 63.0133 29.1747 63.0133 29.2375 63.0754L30.4688 64.2918Z" fill="#097CF6"/>
<path d="M32.1897 63.1933C32.2588 63.2554 32.2588 63.3609 32.196 63.423C32.1331 63.4913 32.0264 63.4913 31.9635 63.4292L29.8717 61.4803C29.8026 61.4183 29.8026 61.3128 29.8654 61.2507C29.9283 61.1886 30.0351 61.1824 30.0979 61.2445L32.1897 63.1933Z" fill="#097CF6"/>
<path d="M34.5327 35.5804C34.5956 35.6425 34.5956 35.748 34.5327 35.8163C34.4699 35.8783 34.3631 35.8783 34.3003 35.8163L30.8517 32.4089C30.7889 32.3468 30.7889 32.2413 30.8517 32.173C30.9145 32.1109 31.0213 32.1109 31.0841 32.173L34.5327 35.5804Z" fill="#097CF6"/>
<path d="M37.8558 57.9674C37.9187 58.0295 37.9187 58.135 37.8558 58.197C37.793 58.2591 37.6862 58.2591 37.6234 58.197L32.2086 52.847C32.1458 52.7849 32.1458 52.6794 32.2086 52.6173C32.2714 52.5553 32.3782 52.5553 32.441 52.6173L37.8558 57.9674Z" fill="#097CF6"/>
<path d="M35.0227 49.6942C35.0856 49.7563 35.0856 49.8618 35.0227 49.9239C34.9599 49.9859 34.8531 49.9859 34.7903 49.9239L32.2023 47.3668C32.1394 47.3047 32.1394 47.1992 32.2023 47.1371C32.2651 47.0751 32.3719 47.0751 32.4347 47.1371L35.0227 49.6942Z" fill="#097CF6"/>
<path d="M33.4209 45.4364C33.4837 45.4984 33.4837 45.6039 33.4209 45.666C33.3581 45.7281 33.2513 45.7281 33.1885 45.666L31.5867 44.0833C31.5238 44.0213 31.5238 43.9157 31.5867 43.8537C31.6495 43.7916 31.7563 43.7916 31.8191 43.8537L33.4209 45.4364Z" fill="#097CF6"/>
<path d="M18.5333 25.0727C18.6275 25.0727 18.6966 25.1472 18.6966 25.2341C18.6966 25.3272 18.6212 25.3955 18.5333 25.3955H16.6865C16.6299 25.3955 16.586 25.3706 16.5545 25.3272L15.7002 24.3652C15.6374 24.2969 15.65 24.1914 15.7128 24.1355C15.7819 24.0735 15.8887 24.0859 15.9452 24.1479L16.7618 25.0727H18.5333Z" fill="#097CF6"/>
<path d="M18.037 26.2893C18.1312 26.2893 18.2003 26.3638 18.2003 26.4569C18.2003 26.55 18.1249 26.6183 18.037 26.6183H15.2039C15.16 26.6183 15.116 26.5997 15.0846 26.5686L14.224 25.7183C14.1612 25.6563 14.1612 25.5508 14.224 25.4887C14.2868 25.4266 14.3936 25.4266 14.4564 25.4887L15.2668 26.2893H18.037Z" fill="#097CF6"/>
<path d="M14.959 31.8131C15.0218 31.8752 15.0218 31.9807 14.959 32.0428C14.8962 32.1048 14.7894 32.1048 14.7266 32.0428L13.7843 31.118H11.0204C10.9639 31.118 10.9073 31.087 10.8822 31.0435L10.3985 30.4477C10.342 30.3794 10.3545 30.2739 10.4236 30.218C10.4927 30.1622 10.5995 30.1746 10.6561 30.2429L11.0958 30.789H13.8472C13.8911 30.789 13.9351 30.8077 13.9665 30.8387L14.959 31.8131Z" fill="#097CF6"/>
<path d="M18.9039 23.3719C18.9982 23.3719 19.0673 23.4464 19.0673 23.5395C19.0673 23.6263 18.9919 23.7008 18.9039 23.7008H17.7984C17.7481 23.7008 17.7041 23.676 17.6727 23.645L17.0697 23.0491C17.0069 22.9871 17.0069 22.8816 17.0697 22.8195C17.1325 22.7574 17.2393 22.7574 17.3021 22.8195L17.8675 23.3781H18.9039V23.3719Z" fill="#097CF6"/>
<path d="M10.6497 38.8698C10.7125 38.9319 10.7125 39.0374 10.6497 39.0995C10.5868 39.1615 10.4801 39.1615 10.4172 39.0995L9.18603 37.883C9.12321 37.8209 9.12321 37.7154 9.18603 37.6471C9.24885 37.5851 9.35563 37.5851 9.41845 37.6471L10.6497 38.8698Z" fill="#097CF6"/>
<path d="M11.5103 42.3952C11.5731 42.4573 11.5731 42.5628 11.5103 42.6311C11.4475 42.6931 11.3407 42.6931 11.2779 42.6311L9.92101 41.2905C9.8582 41.2284 9.8582 41.1229 9.92101 41.0546C9.98383 40.9925 10.0906 40.9925 10.1534 41.0546L11.5103 42.3952Z" fill="#097CF6"/>
<path d="M13.2316 35.5804C13.2944 35.6425 13.2944 35.748 13.2316 35.8163C13.1688 35.8783 13.062 35.8783 12.9992 35.8163L9.55053 32.4089C9.48771 32.3468 9.48771 32.2413 9.55053 32.173C9.61335 32.1109 9.72014 32.1109 9.78295 32.173L13.2316 35.5804Z" fill="#097CF6"/>
<path d="M12.4966 38.0136C12.5594 38.0757 12.5594 38.1812 12.4966 38.2433C12.4338 38.3054 12.327 38.3054 12.2642 38.2433L9.06054 35.078C8.99772 35.0159 8.99772 34.9104 9.06054 34.8483C9.12336 34.7862 9.23015 34.7862 9.29296 34.8483L12.4966 38.0136Z" fill="#097CF6"/>
<path d="M16.1839 29.8642C16.2467 29.9263 16.253 30.0318 16.1902 30.0938C16.1274 30.1559 16.0206 30.1621 15.9577 30.1001L12.8797 27.183C12.8169 27.1209 12.8106 27.0154 12.8734 26.9533C12.9363 26.8913 13.043 26.8851 13.1059 26.9471L16.1839 29.8642Z" fill="#097CF6"/>
<path fill-rule="evenodd" clip-rule="evenodd" d="M11.3909 41.9795C11.6862 41.9795 11.9312 42.2153 11.9312 42.5133C11.9312 42.805 11.6925 43.047 11.3909 43.047C11.0957 43.047 10.8507 42.8112 10.8507 42.5133C10.8507 42.2153 11.0957 41.9795 11.3909 41.9795Z" fill="#097CF6"/>
<path fill-rule="evenodd" clip-rule="evenodd" d="M10.0341 40.6387C10.3294 40.6387 10.5743 40.8745 10.5743 41.1724C10.5743 41.4641 10.3356 41.7062 10.0341 41.7062C9.73888 41.7062 9.4939 41.4704 9.4939 41.1724C9.50018 40.8807 9.73888 40.6387 10.0341 40.6387Z" fill="#097CF6"/>
<path d="M13.6083 29.4546C13.7026 29.4546 13.7717 29.5291 13.7717 29.6222C13.7717 29.7091 13.6963 29.7836 13.6083 29.7836H12.5028C12.4525 29.7836 12.4085 29.7587 12.3771 29.7277L11.5228 28.8836C11.46 28.8215 11.46 28.716 11.5228 28.654C11.5856 28.5919 11.6924 28.5919 11.7552 28.654L12.5656 29.4546H13.6083Z" fill="#097CF6"/>
<path d="M159.953 12.9451C159.394 12.9451 159.092 13.2182 158.929 13.7272L156.228 22.9935C155.996 23.7507 155.832 24.421 155.669 25.1534H155.248C155.085 24.4397 154.921 23.7507 154.714 23.0122L151.988 13.7209C151.825 13.212 151.548 12.9389 151.008 12.9389H148.426C147.823 12.9389 147.496 13.2865 147.471 13.8823L146.868 28.8091H149.174L149.708 14.8505H150.147L153.433 26.1403C153.571 26.6678 153.923 26.9223 154.457 26.9223H156.479C157.013 26.9223 157.34 26.6678 157.478 26.1403L160.738 14.8505H161.203L161.762 28.8091H164.093L163.439 13.8823C163.414 13.2865 163.088 12.9389 162.485 12.9389H159.953V12.9451ZM143.256 28.8153V12.9451H140.838L134.135 24.1914C133.783 24.7686 133.482 25.3644 133.224 25.9851H133.105C133.199 25.321 133.243 24.6941 133.243 24.03V12.9451H131.007V28.8153H133.407L140.159 17.5194C140.436 17.0104 140.762 16.3463 140.995 15.7257H141.133C141.014 16.3463 140.995 16.967 140.995 17.6125V28.8153H143.256ZM122.137 21.4543L125.975 28.8153H128.513L124.091 20.604L128.212 12.9451H125.674L122.181 19.7041H121.553L118.035 12.9451H115.548L119.643 20.604L115.246 28.8153H117.759L121.578 21.4543H122.137ZM107.325 14.6954C110.353 14.6954 111.308 16.1912 111.308 20.8833C111.308 25.5755 110.353 27.0712 107.325 27.0712C104.322 27.0712 103.368 25.5755 103.368 20.8833C103.368 16.1912 104.322 14.6954 107.325 14.6954ZM107.325 12.6472C102.601 12.6472 100.924 14.6457 100.924 20.8833C100.924 27.1209 102.601 29.1194 107.325 29.1194C112.074 29.1194 113.751 27.1209 113.751 20.8833C113.751 14.6457 112.074 12.6472 107.325 12.6472ZM88.1219 14.9002C89.2149 14.7823 90.5655 14.6271 92.3118 14.6271C94.6423 14.6271 95.4338 15.1112 95.4338 17.178C95.4338 19.1579 94.7114 19.6854 92.5944 19.6854H89.8493V21.504H92.5944C95.0129 21.504 95.8546 22.1494 95.8546 24.4707C95.8546 26.6306 95.0631 27.1147 92.7578 27.1147C90.8042 27.1147 89.0579 26.9533 87.7513 26.7919L87.544 28.4491C89.1709 28.8401 90.8984 29.0015 93.1535 29.0015C96.7843 29.0015 98.2291 28.1264 98.2291 24.8617C98.2291 22.3294 97.4376 20.8399 95.0631 20.6288V20.5357C96.9728 20.3495 97.7643 19.1765 97.7643 16.9049C97.7643 13.6403 96.3886 12.7651 92.4562 12.7651C90.666 12.7651 89.3594 12.8831 87.9397 13.1313L88.1219 14.9002ZM82.0224 22.0315H76.8525L78.737 16.005L79.1077 14.714H79.7358C79.8552 15.1298 80.0122 15.5891 80.1316 16.005L82.0224 22.0315ZM82.6317 24.0362L84.1204 28.8215H86.52L81.4696 13.572C81.3753 13.181 81.0299 12.9513 80.6341 12.9513H78.2596C77.8388 12.9513 77.5121 13.181 77.399 13.572L72.3737 28.8215H74.7482L76.2369 24.0362H82.6317ZM63.8557 28.8153H66.1862V16.4642C66.1862 15.2664 66.582 14.8754 67.675 14.8754H73.473L73.5672 13.1065C71.4942 12.9017 69.1198 12.9017 66.8835 12.9017C65.1372 12.9017 63.8557 14.1678 63.8557 16.0298V28.8153Z" fill="#2874C8"/>
<path d="M210.345 55.0939H212.675V42.7428C212.675 41.545 213.071 41.154 214.164 41.154H219.962L220.056 39.3851C217.983 39.1803 215.609 39.1803 213.372 39.1803C211.626 39.1803 210.345 40.4464 210.345 42.3084V55.0939ZM206.488 39.2237H204.138V45.6413H197.134V39.2237H194.804V55.0939H197.134V47.6212H204.138V55.0939H206.488V39.2237ZM190.878 55.0939V39.2237H188.459L181.757 50.47C181.405 51.0472 181.103 51.643 180.846 52.2637H180.727C180.821 51.5996 180.865 50.9727 180.865 50.3086V39.2237H178.628V55.0939H181.028L187.781 43.7979C188.057 43.289 188.384 42.6249 188.616 42.0043H188.755C188.635 42.6249 188.616 43.2456 188.616 43.8911V55.0939H190.878ZM167.208 47.0874V41.0174C168.069 40.9926 169.162 40.9926 170.399 40.9926C172.636 40.9926 173.358 41.6132 173.358 44.0276C173.358 46.4419 172.636 47.0626 170.399 47.0874H167.208ZM164.859 55.0939H167.208V48.8625C168.188 48.9804 169.445 49.0673 170.726 49.0673C174.401 49.0673 175.707 47.9874 175.707 44.0276C175.707 40.1175 174.401 39.0127 170.469 39.0127C167.818 39.0127 166.63 39.0375 164.859 39.2175V55.0939ZM160.939 55.0939V39.2237H158.521L151.818 50.47C151.466 51.0472 151.165 51.643 150.907 52.2637H150.788C150.882 51.5996 150.926 50.9727 150.926 50.3086V39.2237H148.69V55.0939H151.09L157.842 43.7979C158.119 43.289 158.445 42.6249 158.678 42.0043H158.816C158.697 42.6249 158.678 43.2456 158.678 43.8911V55.0939H160.939ZM144.789 39.2237H142.44V45.6413H135.436V39.2237H133.105V55.0939H135.436V47.6212H142.44V55.0939H144.789V39.2237ZM129.185 55.0939V39.2237H126.767L120.064 50.47C119.712 51.0472 119.411 51.643 119.153 52.2637H119.034C119.128 51.5996 119.172 50.9727 119.172 50.3086V39.2237H116.936V55.0939H119.336L126.088 43.7979C126.365 43.289 126.691 42.6249 126.924 42.0043H127.062C126.943 42.6249 126.924 43.2456 126.924 43.8911V55.0939H129.185ZM108.694 46.7709C111.534 46.473 112.375 43.5993 113.883 39.2299H111.509C110.064 43.1649 109.203 45.902 106.804 45.902H105.359C105.453 45.3248 105.478 44.7289 105.478 44.1083V39.2299H103.267V44.1083C103.267 44.7289 103.311 45.3248 103.405 45.902H101.822C99.4477 45.902 98.5872 43.1649 97.1675 39.2299H94.793C96.3069 43.5993 97.0984 46.473 99.9628 46.7709V46.864C96.9351 47.1619 96.1687 49.9238 94.3784 55.1001H96.822C98.6123 50.2466 99.2907 47.7391 101.872 47.7639H103.43C103.336 48.3163 103.267 48.8687 103.267 49.3963V55.1001H105.478V49.3963C105.478 48.8687 105.434 48.3163 105.34 47.7639H106.785C109.392 47.7391 110.07 50.2466 111.835 55.1001H114.304C112.514 49.9238 111.741 47.1681 108.694 46.864V46.7709ZM91.7527 39.2237H89.4033V45.6413H82.3992V39.2237H80.0687V55.0939H82.3992V47.6212H89.4033V55.0939H91.7527V39.2237ZM76.149 55.0939V39.2237H73.7305L67.0279 50.47C66.6762 51.0472 66.3746 51.643 66.1171 52.2637H65.9977C66.092 51.5996 66.1359 50.9727 66.1359 50.3086V39.2237H63.8997V55.0939H66.2993L73.0521 43.7979C73.3285 43.289 73.6551 42.6249 73.8875 42.0043H74.0257C73.9064 42.6249 73.8875 43.2456 73.8875 43.8911V55.0939H76.149Z" fill="#2874C8"/>
<mask id="mask0_1418_6288" style="mask-type:luminance" maskUnits="userSpaceOnUse" x="6" y="-1" width="26" height="67">
<path d="M19.5007 19.2573C21.9066 22.1868 21.3224 29.0016 17.7607 39.6892C13.0494 54.9139 15.5432 63.5224 25.2045 65.434C21.3412 62.7776 22.1704 53.2692 27.6983 36.8963C33.2325 20.5607 32.9247 8.22202 26.7058 -0.0637207C23.2195 6.8752 18.4642 13.7334 12.4338 20.511C6.40337 27.2948 5.28523 35.0033 9.08565 43.649C7.34562 35.9653 8.04917 30.2863 11.2528 26.5624C14.4565 22.8385 17.2079 20.4179 19.5007 19.2573Z" fill="white"/>
</mask>
<g mask="url(#mask0_1418_6288)">
<path d="M33.2262 -0.0637207H5.28528V65.4278H33.2262V-0.0637207Z" fill="url(#paint0_linear_1418_6288)"/>
</g>
<mask id="mask1_1418_6288" style="mask-type:luminance" maskUnits="userSpaceOnUse" x="6" y="-1" width="26" height="67">
<path d="M19.5007 19.2573C21.9066 22.1868 21.3224 29.0016 17.7607 39.6892C13.0494 54.9139 15.5432 63.5224 25.2045 65.434C21.3412 62.7776 22.1704 53.2692 27.6983 36.8963C33.2325 20.5607 32.9247 8.22202 26.7058 -0.0637207C23.2195 6.8752 18.4642 13.7334 12.4338 20.511C6.40337 27.2948 5.28523 35.0033 9.08565 43.649C7.34562 35.9653 8.04917 30.2863 11.2528 26.5624C14.4565 22.8385 17.2079 20.4179 19.5007 19.2573Z" fill="white"/>
</mask>
<g mask="url(#mask1_1418_6288)">
<path d="M33.2262 -0.0637207H5.28528V65.4278H33.2262V-0.0637207Z" fill="url(#paint1_linear_1418_6288)"/>
</g>
<mask id="mask2_1418_6288" style="mask-type:luminance" maskUnits="userSpaceOnUse" x="6" y="-1" width="26" height="45">
<path d="M17.7544 39.6892C21.3224 29.0016 21.9003 22.1868 19.4944 19.2573C17.2016 20.4179 14.4565 22.8447 11.2528 26.5624C8.04917 30.2863 7.34562 35.9653 9.08565 43.649C5.28523 35.0033 6.40337 27.2948 12.4338 20.511C18.4642 13.7334 23.2195 6.8752 26.7058 -0.0637207C32.9247 8.22202 33.2262 20.5544 27.6983 36.8963C25.3427 38.9072 20.0912 39.5961 17.7544 39.6892Z" fill="white"/>
</mask>
<g mask="url(#mask2_1418_6288)">
<path d="M33.2262 -0.0637207H5.28528V43.6428H33.2262V-0.0637207Z" fill="url(#paint2_linear_1418_6288)"/>
</g>
</g>
<defs>
<linearGradient id="paint0_linear_1418_6288" x1="12.5442" y1="62.4293" x2="25.9953" y2="1.38116" gradientUnits="userSpaceOnUse">
<stop stop-color="#097CF6"/>
<stop offset="1" stop-color="#8FB5E2"/>
</linearGradient>
<linearGradient id="paint1_linear_1418_6288" x1="19.2934" y1="32.2835" x2="16.4475" y2="64.8739" gradientUnits="userSpaceOnUse">
<stop stop-color="#5098FC"/>
<stop offset="1" stop-color="#2968FA"/>
</linearGradient>
<linearGradient id="paint2_linear_1418_6288" x1="19.2574" y1="-0.0616105" x2="19.2574" y2="43.2291" gradientUnits="userSpaceOnUse">
<stop stop-color="#8DD6FE"/>
<stop offset="1" stop-color="#67A1FB"/>
</linearGradient>
<clipPath id="clip0_1418_6288">
<rect width="223" height="68" fill="white" transform="translate(0.592773)"/>
</clipPath>
</defs>
</svg>
