<svg width="36" height="36" viewBox="0 0 36 36" fill="none" xmlns="http://www.w3.org/2000/svg">
<path d="M4.3249 4.32725L6.27486 4.32597L9.79166 4.32589L11.4922 4.32629C11.8019 4.32637 12.1402 4.29985 12.4455 4.34809C12.6577 4.38161 12.8468 4.44045 13.0263 4.56285C13.3373 4.77505 13.5778 5.10717 13.6416 5.48269C13.7081 5.87457 13.6269 6.27625 13.3963 6.60065C13.2215 6.84633 12.9399 7.04605 12.6501 7.12913C12.2661 7.23913 11.7925 7.18945 11.3952 7.18945L9.88274 7.18949C9.67586 7.18973 9.43686 7.16837 9.23394 7.20121L9.80738 7.77953L11.0896 9.06141L13.9429 11.9168L14.927 12.9003C15.1403 13.1118 15.3845 13.3208 15.5617 13.5633C15.7218 13.7822 15.8164 14.0456 15.823 14.3175C15.834 14.7736 15.6999 15.1063 15.3852 15.4366C15.3054 15.507 15.225 15.5731 15.1333 15.6277C14.8093 15.8208 14.4287 15.8725 14.0627 15.7853C13.8525 15.7353 13.6573 15.6444 13.4894 15.5065C13.3151 15.3634 13.1609 15.1869 12.9995 15.0292L11.7232 13.7512L9.18942 11.2253L7.2069 9.24205C7.17698 9.52509 7.18934 9.81713 7.18818 10.1015L7.18854 11.666C7.18826 11.9535 7.2167 12.2857 7.15106 12.5653C7.06278 12.9411 6.8339 13.2648 6.50262 13.4643C6.19986 13.6466 5.7925 13.7218 5.44706 13.6339L5.41434 13.6251C5.11898 13.5489 4.91142 13.4021 4.68382 13.2054C4.6371 13.1651 4.5819 13.1327 4.53902 13.0883C4.47602 13.0231 4.3753 12.8533 4.3853 12.765C4.40278 12.6112 4.33346 12.4157 4.32834 12.2532L4.32422 10.7708L4.3249 4.32725Z" fill="#215B94"/>
<path d="M14.2259 20.1714L14.2781 20.1688C14.3844 20.1656 14.5089 20.1585 14.6135 20.1751C14.8926 20.2192 15.1845 20.3766 15.3889 20.5682C15.6524 20.8153 15.8166 21.1528 15.8244 21.5158C15.8315 21.8449 15.7685 22.1402 15.5787 22.4136C15.4069 22.6611 15.1547 22.871 14.9413 23.0846L13.8642 24.1666L9.23514 28.8027C9.39314 28.7936 9.55274 28.804 9.7111 28.8042L10.6958 28.8043L11.8293 28.8044C12.0493 28.8048 12.3045 28.7839 12.5187 28.8333C12.7825 28.8941 13.0351 29.0122 13.2321 29.2018C13.5087 29.4681 13.6686 29.823 13.6722 30.2079C13.6761 30.6226 13.5198 30.9876 13.2254 31.2782C13.0332 31.4679 12.7662 31.5977 12.5015 31.6447C12.2315 31.6926 11.9395 31.674 11.6658 31.6743L10.4185 31.6746L5.86982 31.6736L4.32566 31.676L4.3331 29.5623L4.33322 25.6015L4.33126 24.3014C4.32998 24.0404 4.30762 23.7542 4.3499 23.4963C4.39458 23.2238 4.5405 22.963 4.72846 22.7636C4.9803 22.4965 5.34334 22.344 5.70762 22.3366C6.12718 22.328 6.4933 22.4702 6.7925 22.7664C6.96782 22.9399 7.09722 23.1794 7.15214 23.4193C7.25102 23.8508 7.2015 24.3667 7.20078 24.8085L7.20414 26.7531C7.75862 26.2581 8.27258 25.6958 8.79854 25.17L11.9291 22.0396L12.9594 21.0093C13.1385 20.8303 13.3166 20.6228 13.5187 20.4703C13.7241 20.3152 13.9734 20.215 14.2259 20.1714Z" fill="#215B94"/>
<path d="M21.4475 20.1708L21.558 20.1668C21.8613 20.166 22.1703 20.251 22.4193 20.4295C22.697 20.6284 22.9401 20.9132 23.1813 21.1553L24.428 22.4029L28.7969 26.7678C28.8123 26.7045 28.8024 26.6228 28.8026 26.5566L28.8038 26.1506L28.8026 24.5164C28.8021 24.1673 28.7655 23.7724 28.8422 23.4322C28.8955 23.1955 29.0272 22.9526 29.1949 22.7779C29.4488 22.5134 29.8162 22.3406 30.1845 22.3359C30.5921 22.3307 30.9653 22.4633 31.2557 22.7549C31.4655 22.9655 31.6097 23.2358 31.6579 23.5301C31.7034 23.8076 31.6786 24.1184 31.6787 24.3998L31.6786 25.9517L31.6766 31.6758L30.3646 31.6746L25.6424 31.6737L24.3182 31.674C24.0512 31.6738 23.7635 31.6942 23.5007 31.6489C23.2221 31.6008 22.9591 31.4592 22.7573 31.2627C22.4896 31.002 22.3322 30.6329 22.3279 30.2608C22.3234 29.8712 22.4741 29.4937 22.7528 29.2192C22.9269 29.0478 23.1716 28.9075 23.4087 28.8508C23.6137 28.8018 23.8235 28.8064 24.033 28.8057L24.8318 28.8059L26.7693 28.8041L25.3023 27.331L22.1243 24.1548L21.0345 23.0628C20.8517 22.8795 20.6422 22.6997 20.4822 22.4973C20.3341 22.31 20.2306 22.0751 20.1865 21.8408C20.1193 21.4837 20.2055 21.1028 20.4101 20.8034C20.6623 20.4345 21.0172 20.2528 21.4475 20.1708Z" fill="#215B94"/>
<path d="M23.6891 4.33162L31.6768 4.32178L31.6741 10.002L31.679 11.5769C31.6798 11.8531 31.702 12.1493 31.6645 12.4223C31.628 12.6875 31.5102 12.9612 31.3346 13.1638C31.087 13.4495 30.7227 13.6383 30.3444 13.6624C29.9495 13.6875 29.5627 13.5627 29.2686 13.2949C29.0696 13.1137 28.9136 12.856 28.8492 12.595C28.7633 12.2473 28.8024 11.8361 28.8024 11.4778L28.7946 9.2353L25.173 12.856L23.3658 14.6624L22.8358 15.1913C22.6906 15.3365 22.5557 15.4833 22.3821 15.5961C22.1581 15.7417 21.9095 15.8157 21.6429 15.8244C21.257 15.8369 20.9033 15.7076 20.6213 15.4423C20.3502 15.1871 20.1694 14.8081 20.1642 14.4329C20.1597 14.1085 20.2628 13.809 20.4492 13.5449C20.5958 13.3372 20.8134 13.1547 20.9939 12.9743L22.0632 11.9044L25.4274 8.53994L26.766 7.1989L24.5112 7.18974C24.1467 7.18978 23.7431 7.22602 23.3875 7.13818C23.1831 7.0877 23.0001 6.98642 22.8372 6.85374C22.5462 6.6167 22.3729 6.2585 22.3349 5.88958C22.2945 5.49654 22.4266 5.11798 22.6781 4.8171C22.9322 4.51306 23.3038 4.36766 23.6891 4.33162Z" fill="#215B94"/>
</svg>
