<svg width="44" height="44" viewBox="0 0 44 44" fill="none" xmlns="http://www.w3.org/2000/svg">
<rect width="44" height="44" rx="8" fill="white"/>
<path d="M32.0004 26.92V29.92C32.0016 30.1985 31.9445 30.4741 31.8329 30.7293C31.7214 30.9845 31.5577 31.2136 31.3525 31.4018C31.1473 31.5901 30.905 31.7335 30.6412 31.8227C30.3773 31.9119 30.0978 31.945 29.8204 31.92C26.7433 31.5856 23.7874 30.5341 21.1904 28.85C18.7742 27.3146 16.7258 25.2661 15.1904 22.85C13.5004 20.2412 12.4487 17.271 12.1204 14.18C12.0954 13.9034 12.1283 13.6247 12.2169 13.3616C12.3055 13.0985 12.448 12.8567 12.6352 12.6516C12.8224 12.4465 13.0502 12.2827 13.3042 12.1705C13.5582 12.0583 13.8328 12.0002 14.1104 12H17.1104C17.5957 11.9952 18.0662 12.1671 18.4342 12.4835C18.8022 12.8 19.0425 13.2394 19.1104 13.72C19.237 14.68 19.4719 15.6227 19.8104 16.53C19.945 16.8879 19.9741 17.2769 19.8943 17.6509C19.8146 18.0248 19.6293 18.3681 19.3604 18.64L18.0904 19.91C19.514 22.4135 21.5869 24.4864 24.0904 25.91L25.3604 24.64C25.6323 24.3711 25.9756 24.1858 26.3495 24.1061C26.7235 24.0263 27.1125 24.0554 27.4704 24.19C28.3777 24.5285 29.3204 24.7634 30.2804 24.89C30.7662 24.9585 31.2098 25.2032 31.527 25.5775C31.8441 25.9518 32.0126 26.4296 32.0004 26.92Z" stroke="#215B94" stroke-width="2" stroke-linecap="round" stroke-linejoin="round"/>
</svg>
