<svg width="87" height="86" viewBox="0 0 87 86" fill="none" xmlns="http://www.w3.org/2000/svg">
<path d="M75.032 43.3901L81.3332 43.9261L81.2468 44.9424L78.4848 44.7075L78.2163 47.8641L80.9783 48.099L80.8919 49.1153L74.5906 48.5794L74.6771 47.5631L77.3195 47.7878L77.588 44.6312L74.9455 44.4065L75.032 43.3901Z" fill="#424242"/>
<path d="M73.8857 50.9159C73.9599 50.6377 74.0669 50.3764 74.2066 50.1322C74.352 49.8978 74.526 49.6958 74.7285 49.5263C74.9368 49.3666 75.1695 49.2548 75.4266 49.191C75.6895 49.137 75.9716 49.1502 76.273 49.2306C76.6209 49.3235 76.8981 49.4637 77.1047 49.6513C77.3092 49.8467 77.4522 50.0711 77.5335 50.3247C77.6149 50.5783 77.6483 50.8563 77.6338 51.1588C77.6193 51.4613 77.5708 51.7671 77.4883 52.0763L77.0086 53.8734C77.3564 53.9662 77.6713 53.9964 77.9532 53.964C78.233 53.9394 78.4713 53.8374 78.6682 53.6581C78.8729 53.4809 79.0226 53.2145 79.1175 52.8589C79.1753 52.6425 79.2058 52.4354 79.2089 52.2375C79.212 52.0396 79.1809 51.8615 79.1155 51.7033C79.0501 51.5451 78.9406 51.4124 78.7871 51.3052L79.0687 50.2501C79.3325 50.3785 79.5404 50.5457 79.6924 50.7519C79.85 50.9679 79.9608 51.2044 80.0246 51.4616C80.0941 51.7286 80.1247 52.0017 80.1164 52.281C80.1081 52.5603 80.0688 52.8313 79.9987 53.0941C79.8419 53.6816 79.5962 54.1211 79.2617 54.4127C78.9349 54.7063 78.5334 54.8766 78.0573 54.9233C77.5888 54.9722 77.0609 54.9182 76.4735 54.7614L73.1691 53.8794L73.3889 53.0562L74.1812 53.2056C73.9947 52.9737 73.8716 52.7214 73.8118 52.4488C73.7521 52.1761 73.737 51.9071 73.7664 51.6417C73.7861 51.382 73.8258 51.1401 73.8857 50.9159ZM74.7304 51.2408C74.6273 51.6273 74.6004 51.9761 74.6498 52.2874C74.7049 52.6085 74.8354 52.8793 75.0415 53.0999C75.2476 53.3205 75.5284 53.4783 75.884 53.5732L76.1854 53.6536L76.4732 52.5754C76.5413 52.3203 76.6045 52.0681 76.6628 51.8187C76.7211 51.5693 76.75 51.3369 76.7495 51.1215C76.7491 50.9061 76.6996 50.719 76.6012 50.5602C76.5008 50.4092 76.3269 50.3007 76.0796 50.2347C75.8477 50.1728 75.6428 50.1802 75.465 50.257C75.2852 50.3414 75.1308 50.47 75.0019 50.6426C74.8787 50.825 74.7882 51.0244 74.7304 51.2408Z" fill="#424242"/>
<path d="M73.1302 54.2641L78.7555 57.1536L78.2895 58.0609L73.4541 55.5772L72.3684 57.6906L77.2038 60.1744L76.7378 61.0817L71.9024 58.598L70.8058 60.7328L75.6412 63.2165L75.1752 64.1238L69.5499 61.2344L73.1302 54.2641Z" fill="#424242"/>
<path d="M66.6867 64.4209L70.6589 68.1144L72.1379 66.5238L72.797 67.1367L69.1444 71.0649L68.4853 70.452L69.9643 68.8614L65.9922 65.1679L66.6867 64.4209Z" fill="#424242"/>
<path d="M62.2239 68.408C62.7541 67.9951 63.2763 67.7607 63.7906 67.7049C64.3098 67.6555 64.8045 67.7569 65.2748 68.0091C65.7451 68.2614 66.1719 68.6337 66.5553 69.126C66.9437 69.6246 67.197 70.132 67.3152 70.6484C67.4321 71.1759 67.4029 71.6854 67.2279 72.1766C67.0528 72.6679 66.7128 73.1102 66.2079 73.5034C65.8355 73.7935 65.4539 73.9741 65.0632 74.0452C64.671 74.1276 64.29 74.1201 63.9202 74.0228C63.544 73.9305 63.1994 73.7679 62.8863 73.5352C62.5669 73.3074 62.2906 73.0308 62.0574 72.7054C62.0195 72.6436 61.9784 72.5844 61.9342 72.5276C61.8899 72.4708 61.8489 72.4115 61.8109 72.3498L65.5126 69.4666C65.2612 69.196 64.9846 68.9906 64.6828 68.8505C64.381 68.7103 64.0656 68.6569 63.7365 68.6901C63.4124 68.7296 63.0862 68.8772 62.758 69.1328C62.5939 69.2606 62.4446 69.4074 62.31 69.573C62.174 69.7499 62.0791 69.9405 62.0252 70.1447C61.965 70.3539 61.9728 70.5658 62.0488 70.7804L61.2251 71.4219C61.0501 71.041 60.9857 70.6654 61.0317 70.2949C61.0827 69.9307 61.214 69.585 61.4257 69.2579C61.6423 68.9371 61.9084 68.6538 62.2239 68.408ZM66.0393 70.182L63.1518 72.431C63.3794 72.7101 63.6366 72.9102 63.9237 73.0314C64.2108 73.1526 64.5051 73.192 64.8068 73.1497C65.1022 73.1123 65.3919 72.983 65.6759 72.7618C65.9851 72.5209 66.1954 72.2507 66.3068 71.951C66.4118 71.6562 66.4376 71.3573 66.3841 71.0542C66.3305 70.7511 66.2156 70.4604 66.0393 70.182Z" fill="#424242"/>
<path d="M60.4573 69.8771L60.8717 70.6624C60.7302 70.7371 60.6178 70.8326 60.5345 70.949C60.4549 71.0724 60.4044 71.2166 60.383 71.3817C60.3586 71.5755 60.3891 71.8217 60.4744 72.1205C60.5597 72.4192 60.672 72.7263 60.8113 73.0417C60.9622 73.3962 61.1165 73.74 61.2741 74.0729C61.4355 74.4129 61.5985 74.7475 61.7632 75.0767C61.9208 75.4096 62.0892 75.7459 62.2685 76.0855L58.3842 78.1355L55.4325 72.5426L56.3346 72.0665L58.8662 76.8634L60.9675 75.7544C60.8477 75.5101 60.7294 75.2604 60.6129 75.0053C60.493 74.761 60.3748 74.5114 60.2583 74.2563C60.1384 74.012 60.0202 73.7623 59.9036 73.5072C59.7613 73.2204 59.6216 72.8871 59.4844 72.5072C59.3473 72.1273 59.2835 71.7494 59.2931 71.3735C59.3031 71.0154 59.3971 70.7306 59.5749 70.5191C59.7457 70.3114 60.0398 70.0974 60.4573 69.8771Z" fill="#424242"/>
<path d="M52.3406 73.4569C52.9805 73.2518 53.5515 73.2117 54.0535 73.3365C54.558 73.4689 54.9875 73.7345 55.3421 74.1334C55.6967 74.5322 55.9692 75.0287 56.1595 75.623C56.3524 76.2248 56.4153 76.7885 56.3485 77.314C56.2764 77.8495 56.0736 78.3177 55.74 78.7186C55.4064 79.1195 54.9349 79.4175 54.3254 79.6128C53.8759 79.7568 53.4555 79.7949 53.0641 79.7271C52.6676 79.6693 52.3125 79.531 51.9988 79.3123C51.6775 79.096 51.4099 78.8247 51.1962 78.4984C50.9748 78.1745 50.8107 77.8196 50.7039 77.4338C50.6896 77.3628 50.6714 77.293 50.6494 77.2245C50.6275 77.1559 50.6093 77.0861 50.595 77.0151L55.0632 75.5836C54.9205 75.2429 54.7316 74.9548 54.4965 74.7193C54.2615 74.4838 53.9838 74.3249 53.6634 74.2427C53.3455 74.1682 52.9885 74.1943 52.5923 74.3213C52.3942 74.3847 52.2035 74.471 52.02 74.5802C51.8314 74.6995 51.6766 74.8456 51.5557 75.0188C51.4271 75.1944 51.3615 75.396 51.3589 75.6237L50.3646 75.9422C50.3316 75.5244 50.4005 75.1495 50.5713 74.8175C50.7447 74.4932 50.987 74.2139 51.2984 73.9798C51.6123 73.7532 51.9596 73.5789 52.3406 73.4569ZM55.3113 76.4366L51.8258 77.5532C51.9433 77.8936 52.1159 78.1701 52.3436 78.3828C52.5714 78.5955 52.8341 78.7339 53.1319 78.7981C53.4221 78.8647 53.7386 78.8431 54.0814 78.7333C54.4547 78.6137 54.7453 78.4324 54.953 78.1894C55.1532 77.9489 55.2803 77.6772 55.3345 77.3742C55.3886 77.0712 55.3809 76.7587 55.3113 76.4366Z" fill="#424242"/>
<path d="M49.5614 74.2934L50.4836 80.5498L46.1623 81.1868L46.0311 80.2964L49.3433 79.8082L48.5523 74.4422L49.5614 74.2934Z" fill="#424242"/>
<path d="M44.8515 72.6969L44.5859 81.2968L43.6143 81.2668L43.5964 80.2937C43.3698 80.6309 43.0699 80.8818 42.6967 81.0463C42.3154 81.2106 41.9089 81.2861 41.4771 81.2728C40.8374 81.253 40.3181 81.0929 39.9192 80.7925C39.52 80.5 39.232 80.1069 39.0552 79.6132C38.8704 79.1193 38.7874 78.5645 38.8065 77.9488C38.8255 77.333 38.9425 76.7844 39.1574 76.3028C39.3724 75.8212 39.6921 75.4469 40.1166 75.1799C40.541 74.9129 41.0771 74.7893 41.7248 74.8093C42.0446 74.8192 42.3315 74.8601 42.5854 74.932C42.8391 75.0118 43.0599 75.1187 43.2478 75.2526C43.4358 75.3864 43.5992 75.5356 43.7382 75.6999L43.832 72.6654L44.8515 72.6969ZM41.7809 75.7115C41.3172 75.6972 40.9461 75.7898 40.6678 75.9893C40.3893 76.1968 40.1846 76.4746 40.0538 76.8227C39.915 77.1706 39.8391 77.5564 39.826 77.9802C39.8126 78.412 39.8645 78.8058 39.9816 79.1616C40.0907 79.5171 40.2819 79.8032 40.5554 80.0197C40.8288 80.2363 41.1974 80.3517 41.6612 80.366C42.077 80.3789 42.4362 80.2819 42.7387 80.0752C43.033 79.8762 43.2616 79.5991 43.4247 79.2439C43.5875 78.8968 43.6754 78.5113 43.6885 78.0875C43.7021 77.6477 43.6423 77.2497 43.5093 76.8934C43.3762 76.5372 43.1648 76.2545 42.8752 76.0455C42.5855 75.8364 42.2207 75.7251 41.7809 75.7115Z" fill="#424242"/>
<path d="M36.3853 74.1424C36.6664 74.2049 36.9319 74.3009 37.1818 74.4303C37.4221 74.5657 37.6312 74.7311 37.809 74.9264C37.9772 75.1278 38.0987 75.3556 38.1732 75.6099C38.2382 75.8702 38.2368 76.1526 38.169 76.4572C38.0908 76.8086 37.9623 77.0914 37.7834 77.3057C37.5968 77.5182 37.3785 77.6704 37.1286 77.7623C36.8787 77.8542 36.6023 77.8992 36.2994 77.8974C35.9966 77.8956 35.689 77.8599 35.3766 77.7904L33.5611 77.3863C33.4829 77.7377 33.4658 78.0535 33.51 78.3338C33.5463 78.6123 33.6582 78.8462 33.8456 79.0355C34.0312 79.2325 34.3036 79.371 34.6628 79.4509C34.8815 79.4996 35.0897 79.5214 35.2876 79.5162C35.4854 79.5111 35.662 79.4725 35.8173 79.4006C35.9727 79.3286 36.1007 79.2137 36.2014 79.0558L37.2673 79.293C37.1501 79.562 36.9917 79.7767 36.792 79.9372C36.5829 80.1037 36.3511 80.2242 36.0969 80.2988C35.8331 80.3794 35.5614 80.4214 35.282 80.4247C35.0026 80.4281 34.7302 80.4003 34.4647 80.3412C33.8712 80.2091 33.4218 79.982 33.1165 79.66C32.8094 79.3458 32.6225 78.9517 32.5559 78.4779C32.4875 78.012 32.5193 77.4822 32.6514 76.8887L33.3945 73.5504L34.2261 73.7355L34.11 74.5334C34.334 74.3373 34.5809 74.2038 34.8507 74.1327C35.1206 74.0617 35.3888 74.0353 35.6552 74.0536C35.9155 74.0624 36.1589 74.092 36.3853 74.1424ZM36.0961 75C35.7056 74.9131 35.3559 74.9008 35.047 74.9632C34.7285 75.0317 34.4634 75.1734 34.2516 75.3886C34.0398 75.6037 33.8939 75.8909 33.814 76.2501L33.7462 76.5546L34.8355 76.7971C35.0932 76.8544 35.3479 76.907 35.5995 76.9548C35.8511 77.0026 36.0845 77.0218 36.2997 77.0123C36.5149 77.0029 36.6998 76.9457 36.8543 76.8407C37.0009 76.734 37.1021 76.5558 37.1577 76.3059C37.2099 76.0716 37.1939 75.8672 37.1098 75.6928C37.0178 75.5166 36.883 75.3678 36.7051 75.2462C36.5177 75.1308 36.3147 75.0487 36.0961 75Z" fill="#424242"/>
<path d="M32.9839 73.4621L30.4122 79.2395L29.1624 78.6832L28.576 74.9545L25.4459 77.0289L24.2181 76.4824L26.7898 70.7049L27.7107 71.1148L25.5977 75.8618L29.091 73.5025L29.3541 73.6196L29.95 77.7991L32.063 73.0521L32.9839 73.4621Z" fill="#424242"/>
<path d="M24.4028 69.0122L20.3554 73.8713L19.5717 73.2185L21.3151 71.1255L20.4668 70.4189L17.285 71.3138L16.3906 70.5689L19.9411 69.6062L20.2998 65.5945L21.2218 66.3625L20.9429 69.6598L21.8834 70.4432L23.6191 68.3594L24.4028 69.0122Z" fill="#424242"/>
<path d="M18.9017 63.7728C19.0876 63.9927 19.2409 64.2298 19.3615 64.484C19.4708 64.7373 19.5372 64.9955 19.5605 65.2585C19.5726 65.5207 19.5314 65.7755 19.4369 66.023C19.331 66.2696 19.159 66.4936 18.9207 66.695C18.6458 66.9275 18.3723 67.0748 18.1003 67.1372C17.8231 67.1934 17.5572 67.1825 17.3026 67.1044C17.048 67.0263 16.8008 66.8949 16.5608 66.7102C16.3208 66.5254 16.0976 66.3109 15.891 66.0665L14.6902 64.646C14.4152 64.8784 14.2105 65.1196 14.0761 65.3694C13.9364 65.6132 13.8839 65.8671 13.9186 66.1311C13.9471 66.4003 14.0802 66.6754 14.3177 66.9565C14.4624 67.1275 14.615 67.2709 14.7756 67.3865C14.9362 67.5021 15.1001 67.5783 15.2673 67.615C15.4345 67.6518 15.606 67.6378 15.7817 67.573L16.4867 68.407C16.2306 68.5501 15.9746 68.6252 15.7185 68.6321C15.4512 68.6381 15.1938 68.5938 14.9463 68.4993C14.6875 68.4038 14.4458 68.2728 14.2214 68.1064C13.9969 67.94 13.7969 67.7529 13.6213 67.5452C13.2287 67.0809 13.0084 66.6282 12.9602 66.187C12.9059 65.7511 12.9956 65.3243 13.2293 64.9068C13.4568 64.4944 13.8028 64.092 14.2671 63.6995L16.8789 61.4916L17.429 62.1422L16.8537 62.7071C17.1506 62.6866 17.428 62.7297 17.6858 62.8364C17.9437 62.9432 18.1731 63.0845 18.3741 63.2603C18.576 63.4248 18.7519 63.5956 18.9017 63.7728ZM18.1524 64.2805C17.8941 63.975 17.6232 63.7536 17.3395 63.6163C17.0445 63.4781 16.7477 63.4305 16.4489 63.4736C16.1501 63.5167 15.8601 63.657 15.5791 63.8946L15.3408 64.096L16.0613 64.9483C16.2317 65.1499 16.4027 65.3459 16.574 65.5362C16.7454 65.7265 16.9196 65.883 17.0967 66.0057C17.2737 66.1284 17.4555 66.1948 17.642 66.2047C17.8233 66.2086 18.0117 66.1278 18.2072 65.9626C18.3905 65.8076 18.5015 65.6353 18.5401 65.4455C18.5735 65.2496 18.5562 65.0495 18.4882 64.8451C18.4089 64.6398 18.297 64.4516 18.1524 64.2805Z" fill="#424242"/>
<path d="M16.63 61.0754L11.1733 64.2719L10.6577 63.3918L13.0495 61.9907L11.4483 59.2571L9.05643 60.6582L8.54087 59.7781L13.9976 56.5817L14.5131 57.4618L12.2248 58.8022L13.8261 61.5358L16.1144 60.1953L16.63 61.0754Z" fill="#424242"/>
<path d="M13.2337 54.2538C13.3328 54.5242 13.3954 54.7994 13.4215 55.0796C13.4373 55.355 13.411 55.6203 13.3426 55.8754C13.264 56.1257 13.1378 56.351 12.9641 56.551C12.7801 56.7463 12.5416 56.8976 12.2487 57.0051C11.9107 57.129 11.6032 57.1736 11.3263 57.1388C11.0467 57.0965 10.8007 56.9949 10.5884 56.8342C10.376 56.6735 10.1889 56.4652 10.0269 56.2093C9.86491 55.9534 9.72883 55.6753 9.61867 55.3748L8.97833 53.6285C8.64034 53.7525 8.36531 53.9087 8.15325 54.0972C7.93844 54.2782 7.80199 54.4987 7.74391 54.7586C7.67832 55.0212 7.70887 55.3253 7.83556 55.6708C7.91267 55.8811 8.00681 56.0681 8.11798 56.2318C8.22914 56.3956 8.35696 56.5234 8.50142 56.6153C8.64588 56.7072 8.81175 56.7529 8.99903 56.7523L9.37497 57.7776C9.08529 57.8242 8.81903 57.8068 8.57617 57.7254C8.32305 57.6393 8.09646 57.5093 7.89642 57.3356C7.68611 57.1571 7.50409 56.9512 7.35036 56.7178C7.19663 56.4845 7.07295 56.2401 6.9793 55.9848C6.76999 55.4139 6.71841 54.9131 6.82456 54.4822C6.9232 54.054 7.15391 53.684 7.51668 53.372C7.87195 53.0628 8.335 52.8036 8.90583 52.5943L12.1168 51.4169L12.4101 52.2168L11.6759 52.5499C11.9618 52.6325 12.2076 52.7682 12.4131 52.957C12.6187 53.1458 12.7857 53.3572 12.9141 53.5913C13.0473 53.8151 13.1538 54.0359 13.2337 54.2538ZM12.3557 54.4735C12.218 54.0979 12.0394 53.797 11.8201 53.5706C11.5905 53.3396 11.328 53.193 11.0326 53.1309C10.7372 53.0688 10.4167 53.1011 10.0712 53.2278L9.77825 53.3352L10.1625 54.383C10.2533 54.6308 10.3466 54.8736 10.4422 55.1112C10.5379 55.3488 10.6478 55.5556 10.772 55.7316C10.8962 55.9076 11.0441 56.0323 11.2159 56.1056C11.3849 56.1715 11.5896 56.1603 11.8299 56.0722C12.0552 55.9896 12.2186 55.8658 12.32 55.7008C12.4186 55.5283 12.4711 55.3343 12.4774 55.119C12.4733 54.899 12.4328 54.6838 12.3557 54.4735Z" fill="#424242"/>
<path d="M12.1406 51.5217L11.2665 51.678C11.2383 51.5205 11.1815 51.3844 11.0959 51.2697C11.0025 51.1563 10.8804 51.0644 10.7296 50.9939C10.5524 50.9118 10.3086 50.866 9.99804 50.8565C9.68752 50.8471 9.36083 50.8608 9.01798 50.8977C8.63435 50.9339 8.26 50.9764 7.89493 51.0255C7.52198 51.0759 7.15368 51.1296 6.79002 51.1865C6.42496 51.2356 6.05342 51.2939 5.67542 51.3615L4.90209 47.0382L11.1273 45.9246L11.3069 46.9287L5.96763 47.8837L6.38599 50.2226C6.65515 50.1826 6.92895 50.1458 7.20739 50.1123C7.47655 50.0723 7.75035 50.0355 8.02879 50.0019C8.29795 49.9619 8.57175 49.9251 8.8502 49.8916C9.1666 49.8431 9.52661 49.8112 9.93023 49.7959C10.3338 49.7806 10.7133 49.8346 11.0686 49.958C11.4067 50.0763 11.6495 50.2523 11.7969 50.486C11.9429 50.7118 12.0575 51.057 12.1406 51.5217Z" fill="#424242"/>
<path d="M11.0292 42.8425L4.72406 42.3552L4.80267 41.3382L7.56642 41.5518L7.81058 38.3932L5.04682 38.1796L5.12544 37.1626L11.4306 37.65L11.352 38.667L8.7079 38.4626L8.46375 41.6212L11.1079 41.8256L11.0292 42.8425Z" fill="#424242"/>
<path d="M12.0818 35.4473C12.0107 35.7264 11.9067 35.9888 11.7697 36.2346C11.627 36.4707 11.4554 36.6746 11.2548 36.8464C11.0484 37.0085 10.8169 37.1229 10.5605 37.1897C10.2983 37.2467 10.0161 37.2367 9.71372 37.1597C9.36486 37.0708 9.08607 36.9337 8.87735 36.7485C8.6706 36.5555 8.5251 36.3326 8.44086 36.08C8.35662 35.8274 8.32002 35.5498 8.33108 35.2472C8.34213 34.9445 8.38716 34.6381 8.46616 34.3281L8.92535 32.5256C8.57649 32.4367 8.26131 32.4101 7.9798 32.4457C7.70028 32.4736 7.46309 32.5783 7.26825 32.7598C7.06565 32.9393 6.91893 33.2074 6.82808 33.564C6.77278 33.7811 6.74469 33.9886 6.7438 34.1865C6.74292 34.3844 6.77608 34.5621 6.84329 34.7195C6.91049 34.877 7.02147 35.0085 7.17622 35.1139L6.90664 36.1721C6.64138 36.0468 6.43159 35.8819 6.27728 35.6774C6.11719 35.4633 6.00377 35.228 5.93701 34.9716C5.86446 34.7054 5.83076 34.4327 5.83589 34.1533C5.84102 33.8739 5.87716 33.6024 5.94431 33.3389C6.09441 32.7497 6.33504 32.3074 6.66622 32.012C6.98964 31.7146 7.38915 31.5399 7.86476 31.4877C8.33262 31.4335 8.86114 31.4815 9.45032 31.6315L12.7645 32.4759L12.5541 33.3015L11.7602 33.1611C11.9493 33.3909 12.0753 33.6418 12.1381 33.9137C12.2009 34.1857 12.2191 34.4545 12.1927 34.7202C12.176 34.9801 12.139 35.2225 12.0818 35.4473ZM11.2333 35.1321C11.3321 34.7445 11.355 34.3953 11.302 34.0846C11.2433 33.7642 11.1097 33.4949 10.9011 33.2766C10.6925 33.0584 10.4099 32.9038 10.0533 32.813L9.75097 32.736L9.47546 33.8174C9.41029 34.0732 9.34998 34.3262 9.29453 34.5762C9.23908 34.8263 9.21282 35.059 9.21574 35.2744C9.21865 35.4898 9.27021 35.6763 9.3704 35.8339C9.47256 35.9838 9.64768 36.0903 9.89576 36.1535C10.1283 36.2127 10.3331 36.203 10.51 36.1242C10.6889 36.0377 10.8418 35.9074 10.9687 35.7334C11.0898 35.5496 11.178 35.3491 11.2333 35.1321Z" fill="#424242"/>
<path d="M12.7784 32.1113L7.12134 29.2845L7.57727 28.3721L12.44 30.8019L13.502 28.6765L8.63933 26.2467L9.09526 25.3342L13.958 27.7641L15.0307 25.6172L10.168 23.1873L10.624 22.2749L16.281 25.1017L12.7784 32.1113Z" fill="#424242"/>
<path d="M19.0783 21.8892L15.0661 18.2393L13.6045 19.8459L12.9388 19.2403L16.5484 15.2725L17.2141 15.8781L15.7525 17.4848L19.7647 21.1347L19.0783 21.8892Z" fill="#424242"/>
<path d="M23.5775 17.7726C23.0504 18.1894 22.5299 18.4275 22.016 18.4871C21.4972 18.5403 21.0018 18.4425 20.5297 18.1937C20.0576 17.9449 19.628 17.5757 19.241 17.0862C18.849 16.5905 18.592 16.0849 18.47 15.5694C18.3494 15.0427 18.3748 14.5331 18.5463 14.0406C18.7177 13.548 19.0545 13.1033 19.5565 12.7063C19.9268 12.4136 20.307 12.2302 20.6973 12.1563C21.0888 12.071 21.4699 12.0757 21.8404 12.1703C22.2172 12.2599 22.563 12.4199 22.8778 12.6504C23.1989 12.8759 23.4772 13.1504 23.7127 13.4741C23.7511 13.5356 23.7926 13.5945 23.8372 13.651C23.8819 13.7075 23.9234 13.7665 23.9618 13.8279L20.2813 16.738C20.5346 17.0068 20.8127 17.2102 21.1155 17.3481C21.4183 17.486 21.7341 17.5372 22.0629 17.5016C22.3868 17.4597 22.7118 17.3097 23.0382 17.0517C23.2013 16.9227 23.3496 16.7749 23.483 16.6082C23.6177 16.4303 23.7112 16.2391 23.7636 16.0345C23.8223 15.8249 23.8129 15.6131 23.7354 15.399L24.5544 14.7515C24.7321 15.1311 24.7993 15.5063 24.7559 15.8771C24.7076 16.2417 24.5788 16.5883 24.3695 16.9169C24.1553 17.2393 23.8913 17.5245 23.5775 17.7726ZM19.7493 16.0265L22.6203 13.7565C22.3908 13.4791 22.132 13.2808 21.8441 13.1617C21.5562 13.0426 21.2615 13.0053 20.9602 13.0498C20.6651 13.0894 20.3763 13.2208 20.0939 13.4441C19.7864 13.6872 19.5781 13.959 19.4689 14.2595C19.3661 14.555 19.3425 14.8541 19.3982 15.1568C19.454 15.4595 19.571 15.7494 19.7493 16.0265Z" fill="#424242"/>
<path d="M25.1824 16.3661L24.7593 15.5854C24.8999 15.5091 25.0113 15.4124 25.0933 15.2951C25.1715 15.1708 25.2204 15.026 25.24 14.8607C25.2622 14.6667 25.2291 14.4208 25.1405 14.123C25.0519 13.8252 24.9361 13.5194 24.7933 13.2056C24.6385 12.8527 24.4804 12.5107 24.3191 12.1796C24.154 11.8414 23.9872 11.5086 23.8189 11.1813C23.6576 10.8501 23.4855 10.5157 23.3025 10.1781L27.1637 8.08521L30.1773 13.645L29.2806 14.1311L26.6959 9.36251L24.607 10.4948C24.7296 10.7377 24.8506 10.9861 24.9699 11.2399C25.0925 11.4828 25.2135 11.7312 25.3328 11.985C25.4554 12.2279 25.5764 12.4763 25.6958 12.73C25.8412 13.0152 25.9846 13.3469 26.126 13.7253C26.2674 14.1036 26.3354 14.4808 26.3299 14.8569C26.3239 15.215 26.2331 15.5008 26.0576 15.7143C25.8891 15.9239 25.5974 16.1411 25.1824 16.3661Z" fill="#424242"/>
<path d="M33.4328 12.6128C32.7944 12.8226 32.2237 12.8671 31.7208 12.7461C31.2154 12.6175 30.7839 12.3551 30.4263 11.959C30.0687 11.5628 29.7925 11.0684 29.5976 10.4756C29.4002 9.87517 29.333 9.312 29.3959 8.78605C29.4639 8.25001 29.6632 7.78028 29.9938 7.37689C30.3243 6.97349 30.7936 6.67186 31.4016 6.472C31.85 6.32461 32.2701 6.28335 32.662 6.34823C33.0589 6.40301 33.4151 6.53857 33.7304 6.75492C34.0533 6.96877 34.3229 7.23806 34.5391 7.56278C34.7629 7.885 34.9297 8.23861 35.0394 8.6236C35.0543 8.6945 35.073 8.76415 35.0955 8.83254C35.1179 8.90094 35.1366 8.97059 35.1515 9.04149L30.6941 10.5067C30.8395 10.8463 31.0305 11.133 31.2674 11.3667C31.5042 11.6004 31.7831 11.7572 32.1041 11.8369C32.4225 11.9091 32.7793 11.8802 33.1745 11.7503C33.3721 11.6854 33.5622 11.5976 33.7449 11.4871C33.9326 11.3664 34.0862 11.219 34.2059 11.045C34.3331 10.8684 34.3972 10.6663 34.3981 10.4386L35.3899 10.1126C35.4261 10.5302 35.3601 10.9056 35.1917 11.2388C35.0208 11.5645 34.7806 11.8455 34.471 12.0821C34.1589 12.311 33.8128 12.4879 33.4328 12.6128ZM30.4396 9.6556L33.9166 8.51267C33.7966 8.17317 33.6219 7.89796 33.3926 7.68703C33.1632 7.47609 32.8994 7.33965 32.6012 7.27769C32.3105 7.21324 31.9942 7.23722 31.6522 7.34964C31.2798 7.47205 30.9906 7.65552 30.7847 7.90006C30.5864 8.1421 30.4613 8.4148 30.4094 8.71817C30.3575 9.02153 30.3676 9.33401 30.4396 9.6556Z" fill="#424242"/>
<path d="M36.2027 11.7447L35.2325 5.49559L39.5488 4.82549L39.6869 5.71484L36.3785 6.22846L37.2106 11.5883L36.2027 11.7447Z" fill="#424242"/>
<path d="M40.9191 13.2951L41.1184 4.69336L42.0901 4.71587L42.1156 5.68872C42.3395 5.34982 42.6374 5.09665 43.0094 4.92922C43.3894 4.76197 43.7953 4.68335 44.2272 4.69335C44.867 4.70818 45.3875 4.86427 45.7888 5.16164C46.1902 5.45102 46.4812 5.84186 46.6618 6.33417C46.8505 6.82668 46.9377 7.38084 46.9234 7.99668C46.9092 8.61251 46.7964 9.16205 46.5851 9.64529C46.3739 10.1285 46.0571 10.5053 45.6347 10.7756C45.2123 11.0459 44.6772 11.1735 44.0294 11.1585C43.7095 11.1511 43.4223 11.1124 43.1679 11.0425C42.9136 10.9646 42.692 10.8595 42.503 10.727C42.314 10.5946 42.1494 10.4468 42.0091 10.2835L41.9388 13.3187L40.9191 13.2951ZM43.9663 10.2568C44.4302 10.2676 44.8005 10.1721 45.0772 9.97045C45.3541 9.76081 45.5567 9.48143 45.6848 9.1323C45.8209 8.78336 45.8939 8.39694 45.9037 7.97306C45.9137 7.54117 45.8588 7.1478 45.739 6.79293C45.6272 6.43824 45.4337 6.15369 45.1586 5.93926C44.8835 5.72483 44.514 5.61224 44.0501 5.6015C43.6342 5.59186 43.2758 5.69159 42.9749 5.90068C42.6822 6.10195 42.4556 6.38078 42.2953 6.73717C42.1352 7.08555 42.0503 7.47169 42.0404 7.89558C42.0303 8.33546 42.0931 8.73302 42.2289 9.08826C42.3647 9.4435 42.5782 9.72452 42.8695 9.93132C43.1608 10.1381 43.5264 10.2466 43.9663 10.2568Z" fill="#424242"/>
<path d="M49.216 11.74C48.9342 11.6806 48.6677 11.5877 48.4163 11.4612C48.1745 11.3285 47.9635 11.1655 47.7835 10.9723C47.6129 10.7729 47.4889 10.5464 47.4115 10.293C47.3435 10.0335 47.3417 9.75102 47.406 9.44572C47.4802 9.09345 47.6055 8.80916 47.7818 8.59286C47.966 8.37821 48.1825 8.22351 48.4314 8.12877C48.6803 8.03402 48.9561 7.98583 49.259 7.98421C49.5618 7.98258 49.8698 8.01474 50.1829 8.08069L52.003 8.464C52.0772 8.11172 52.0906 7.79571 52.0432 7.51594C52.0037 7.23782 51.8892 7.00523 51.6997 6.81816C51.5118 6.62326 51.2378 6.48789 50.8777 6.41205C50.6585 6.36589 50.45 6.34651 50.2523 6.35391C50.0545 6.36131 49.8783 6.40189 49.7238 6.47563C49.5693 6.54937 49.4426 6.66575 49.3437 6.82479L48.2752 6.59975C48.3893 6.32947 48.5453 6.11296 48.7431 5.95023C48.9503 5.78132 49.1806 5.65814 49.434 5.5807C49.6969 5.49707 49.968 5.45198 50.2474 5.44541C50.5267 5.43883 50.7995 5.46357 51.0656 5.51963C51.6606 5.64492 52.1126 5.86683 52.4216 6.18534C52.7322 6.49603 52.9236 6.88788 52.9956 7.36088C53.0693 7.82606 53.0436 8.35612 52.9183 8.95107L52.2135 12.2977L51.3797 12.1221L51.4867 11.323C51.265 11.5216 51.0197 11.6579 50.7506 11.7321C50.4816 11.8062 50.2137 11.8356 49.9472 11.8204C49.6868 11.8146 49.4431 11.7878 49.216 11.74ZM49.4955 10.8791C49.8869 10.9615 50.2367 10.9698 50.5449 10.9039C50.8625 10.8318 51.126 10.687 51.3354 10.4695C51.5447 10.2519 51.6873 9.96311 51.7631 9.60301L51.8274 9.29771L50.7354 9.06772C50.477 9.01332 50.2218 8.96365 49.9696 8.91872C49.7175 8.87379 49.4839 8.8573 49.2688 8.86923C49.0537 8.88116 48.8695 8.94048 48.7163 9.04718C48.5708 9.15553 48.4717 9.33496 48.4189 9.58547C48.3695 9.82032 48.3878 10.0245 48.4739 10.1979C48.5678 10.3731 48.7044 10.5204 48.8836 10.6399C49.0723 10.7532 49.2763 10.8329 49.4955 10.8791Z" fill="#424242"/>
<path d="M52.7791 12.4093L55.3077 6.61279L56.5616 7.15977L57.1757 10.884L60.2903 8.78632L61.5222 9.3237L58.9936 15.1202L58.0697 14.7172L60.1472 9.95457L56.6716 12.3398L56.4076 12.2247L55.7806 8.04974L53.7031 12.8123L52.7791 12.4093Z" fill="#424242"/>
<path d="M61.2775 16.6832L65.2716 11.7801L66.0625 12.4243L64.342 14.5363L65.198 15.2335L68.3698 14.3039L69.2722 15.0391L65.7325 16.0404L65.4177 20.0558L64.4873 19.2979L64.7302 15.9978L63.7812 15.2247L62.0683 17.3274L61.2775 16.6832Z" fill="#424242"/>
<path d="M66.88 21.881C66.6917 21.6631 66.5359 21.4277 66.4125 21.1748C66.3004 20.9228 66.2312 20.6654 66.205 20.4025C66.19 20.1406 66.2285 19.8853 66.3203 19.6367C66.4234 19.389 66.593 19.1632 66.8291 18.9591C67.1015 18.7237 67.3733 18.5734 67.6446 18.5081C67.9212 18.4488 68.1872 18.4568 68.4426 18.5321C68.698 18.6075 68.9467 18.7362 69.1887 18.9183C69.4307 19.1004 69.6563 19.3125 69.8655 19.5546L71.0817 20.9619C71.3541 20.7265 71.5562 20.4831 71.6879 20.2318C71.8249 19.9865 71.8746 19.7321 71.8371 19.4685C71.8056 19.1996 71.6696 18.9259 71.4289 18.6475C71.2825 18.478 71.1283 18.3364 70.9664 18.2225C70.8046 18.1086 70.6398 18.0342 70.4722 17.9993C70.3046 17.9644 70.1333 17.9803 69.9583 18.047L69.2443 17.2208C69.4988 17.0748 69.754 16.997 70.0099 16.9873C70.2772 16.9784 70.535 17.0198 70.7836 17.1117C71.0434 17.2043 71.2865 17.3326 71.5128 17.4966C71.739 17.6605 71.9411 17.8454 72.119 18.0512C72.5165 18.5112 72.7418 18.9615 72.7948 19.4021C72.8538 19.8374 72.7688 20.2651 72.5397 20.6852C72.3167 21.1 71.9751 21.5062 71.5151 21.9038L68.9276 24.14L68.3704 23.4954L68.9395 22.9243C68.6429 22.9481 68.365 22.908 68.106 22.804C67.847 22.7001 67.6161 22.5613 67.4132 22.3878C67.2095 22.2255 67.0317 22.0565 66.88 21.881ZM67.6238 21.3651C67.8853 21.6678 68.1587 21.8862 68.4438 22.0204C68.7403 22.1554 69.0377 22.1998 69.336 22.1534C69.6343 22.1071 69.9226 21.9636 70.2011 21.723L70.4371 21.519L69.7074 20.6746C69.5348 20.4749 69.3617 20.2808 69.1883 20.0923C69.0148 19.9039 68.8389 19.7493 68.6605 19.6285C68.4822 19.5077 68.2997 19.4434 68.1131 19.4355C67.9317 19.4336 67.7442 19.5164 67.5505 19.6838C67.3689 19.8407 67.2599 20.0143 67.2233 20.2045C67.192 20.4007 67.2115 20.6006 67.2818 20.8043C67.3633 21.0087 67.4773 21.1957 67.6238 21.3651Z" fill="#424242"/>
<path d="M69.2523 24.628L74.6853 21.3915L75.2073 22.2678L72.8259 23.6864L74.4472 26.4081L76.8287 24.9894L77.3507 25.8657L71.9177 29.1023L71.3956 28.226L73.674 26.8687L72.0527 24.147L69.7743 25.5043L69.2523 24.628Z" fill="#424242"/>
<path d="M72.6864 31.3502C72.5842 31.0809 72.5186 30.8064 72.4894 30.5265C72.4705 30.2513 72.4938 29.9858 72.5593 29.7299C72.635 29.4787 72.7587 29.2521 72.9302 29.0501C73.112 28.8527 73.3487 28.6987 73.6404 28.588C73.977 28.4602 74.2839 28.4122 74.5612 28.4439C74.8413 28.4831 75.0884 28.5818 75.3026 28.7401C75.5167 28.8985 75.7062 29.1046 75.871 29.3587C76.0359 29.6127 76.1751 29.8893 76.2886 30.1885L76.9486 31.9275C77.2852 31.7997 77.5584 31.6404 77.7683 31.4495C77.9811 31.2661 78.115 31.0441 78.1702 30.7836C78.2328 30.5202 78.1989 30.2165 78.0683 29.8725C77.9888 29.6631 77.8926 29.4771 77.7796 29.3146C77.6666 29.1522 77.5373 29.0258 77.3918 28.9355C77.2463 28.8453 77.08 28.8015 76.8927 28.8041L76.5052 27.7831C76.7944 27.7333 77.0608 27.7477 77.3046 27.8263C77.5587 27.9096 77.7867 28.037 77.9887 28.2085C78.201 28.3846 78.3853 28.5884 78.5417 28.82C78.698 29.0516 78.8244 29.2946 78.9209 29.5489C79.1367 30.1173 79.1939 30.6176 79.0926 31.0496C78.9988 31.4788 78.7723 31.8515 78.413 32.1675C78.0613 32.4807 77.6012 32.7451 77.0327 32.9609L73.8352 34.1743L73.5329 33.3778L74.2633 33.0364C73.9765 32.957 73.7292 32.8241 73.5216 32.6376C73.3139 32.4512 73.1445 32.2417 73.0135 32.009C72.8778 31.7867 72.7688 31.5671 72.6864 31.3502ZM73.5619 31.1206C73.7039 31.4946 73.8858 31.7935 74.1076 32.0173C74.3398 32.2458 74.6039 32.3895 74.9001 32.4482C75.1962 32.507 75.5163 32.4711 75.8603 32.3405L76.152 32.2298L75.756 31.1864C75.6624 30.9396 75.5664 30.6979 75.4681 30.4614C75.3697 30.2249 75.2575 30.0193 75.1314 29.8447C75.0052 29.6702 74.8558 29.5471 74.6833 29.4757C74.5135 29.4118 74.309 29.4252 74.0697 29.5161C73.8453 29.6012 73.6833 29.7269 73.5838 29.893C73.4871 30.0666 73.4368 30.2611 73.433 30.4765C73.4395 30.6965 73.4825 30.9112 73.5619 31.1206Z" fill="#424242"/>
<path d="M73.8538 34.1986L74.7267 34.0356C74.7561 34.1928 74.814 34.3285 74.9004 34.4426C74.9946 34.5552 75.1174 34.6462 75.2688 34.7156C75.4466 34.7963 75.6908 34.8402 76.0014 34.8473C76.312 34.8544 76.6385 34.8382 76.9811 34.7986C77.3645 34.7596 77.7385 34.7141 78.1031 34.6623C78.4757 34.609 78.8436 34.5525 79.2068 34.4928C79.5715 34.4409 79.9425 34.3798 80.32 34.3093L81.1264 38.6266L74.9099 39.7877L74.7226 38.785L80.0544 37.7892L79.6182 35.4536C79.3493 35.4956 79.0758 35.5345 78.7977 35.5702C78.5288 35.6123 78.2553 35.6512 77.9771 35.6868C77.7083 35.7289 77.4348 35.7678 77.1566 35.8035C76.8406 35.8544 76.4808 35.889 76.0773 35.9074C75.6738 35.9258 75.294 35.8747 74.9378 35.754C74.5988 35.6383 74.3547 35.4641 74.2054 35.2316C74.0577 35.0069 73.9404 34.6626 73.8538 34.1986Z" fill="#424242"/>
</svg>
