<svg width="35" height="28" viewBox="0 0 35 28" fill="none" xmlns="http://www.w3.org/2000/svg">
<path d="M32.0315 0.247266C27.4142 2.09849 7.61594 10.037 2.14569 12.2007C-1.52291 13.5865 0.624738 14.886 0.624738 14.886C0.624738 14.886 3.75633 15.9253 6.44098 16.7049C9.12526 17.4844 10.5569 16.6184 10.5569 16.6184L23.1733 8.38961C27.6473 5.44457 26.5736 7.86977 25.4996 8.90945C23.1733 11.1617 19.3257 14.7127 16.1045 17.5713C14.6728 18.7839 15.3884 19.8232 16.0151 20.343C18.3414 22.2487 24.6947 26.1466 25.0523 26.4064C26.9425 27.7018 30.6606 29.5664 31.2262 25.6268L33.4631 12.0278C34.1791 7.43711 34.8948 3.19266 34.9841 1.98007C35.2528 -0.96533 32.0315 0.247266 32.0315 0.247266Z" fill="url(#paint0_linear_1490_8278)"/>
<defs>
<linearGradient id="paint0_linear_1490_8278" x1="0" y1="0" x2="40.418" y2="11.7859" gradientUnits="userSpaceOnUse">
<stop stop-color="#5ECAFB"/>
<stop offset="0.365" stop-color="#3B79FF"/>
<stop offset="0.77" stop-color="#9747FF"/>
</linearGradient>
</defs>
</svg>
