<svg width="101" height="101" viewBox="0 0 101 101" fill="none" xmlns="http://www.w3.org/2000/svg">
<path d="M88.3847 50.5615L94.686 51.0974L94.5995 52.1138L91.8375 51.8788L91.569 55.0354L94.331 55.2704L94.2446 56.2867L87.9433 55.7507L88.0298 54.7344L90.6722 54.9592L90.9407 51.8026L88.2983 51.5778L88.3847 50.5615Z" fill="#424242"/>
<path d="M87.1434 59.1668C87.2176 58.8886 87.3246 58.6273 87.4643 58.3831C87.6097 58.1487 87.7837 57.9467 87.9862 57.7772C88.1945 57.6175 88.4272 57.5057 88.6843 57.4419C88.9472 57.3878 89.2293 57.4011 89.5307 57.4815C89.8786 57.5744 90.1558 57.7146 90.3624 57.9022C90.5669 58.0976 90.7099 58.322 90.7912 58.5756C90.8726 58.8292 90.906 59.1072 90.8915 59.4097C90.877 59.7122 90.8285 60.018 90.746 60.3272L90.2663 62.1243C90.6141 62.2171 90.929 62.2473 91.2109 62.2149C91.4907 62.1903 91.729 62.0883 91.9259 61.909C92.1306 61.7318 92.2803 61.4654 92.3752 61.1098C92.433 60.8934 92.4635 60.6863 92.4666 60.4884C92.4697 60.2905 92.4386 60.1124 92.3732 59.9542C92.3078 59.796 92.1983 59.6633 92.0448 59.5561L92.3264 58.501C92.5902 58.6294 92.7981 58.7966 92.9501 59.0028C93.1077 59.2188 93.2185 59.4553 93.2823 59.7125C93.3518 59.9794 93.3824 60.2526 93.3741 60.5319C93.3658 60.8112 93.3265 61.0822 93.2564 61.345C93.0996 61.9325 92.8539 62.372 92.5194 62.6636C92.1926 62.9572 91.7911 63.1275 91.315 63.1742C90.8465 63.2231 90.3186 63.1691 89.7312 63.0123L86.4269 62.1303L86.6466 61.3071L87.4389 61.4565C87.2524 61.2245 87.1293 60.9723 87.0696 60.6996C87.0098 60.427 86.9947 60.158 87.0241 59.8926C87.0438 59.6329 87.0835 59.391 87.1434 59.1668ZM87.9882 59.4917C87.885 59.8782 87.8581 60.227 87.9075 60.5383C87.9626 60.8594 88.0931 61.1302 88.2992 61.3508C88.5053 61.5714 88.7861 61.7292 89.1417 61.8241L89.4431 61.9045L89.7309 60.8263C89.799 60.5712 89.8622 60.319 89.9205 60.0696C89.9788 59.8202 90.0077 59.5878 90.0072 59.3724C90.0068 59.157 89.9573 58.9699 89.8589 58.8111C89.7585 58.6601 89.5846 58.5516 89.3373 58.4856C89.1054 58.4237 88.9005 58.4311 88.7227 58.5078C88.5429 58.5923 88.3885 58.7209 88.2596 58.8935C88.1364 59.0759 88.0459 59.2753 87.9882 59.4917Z" fill="#424242"/>
<path d="M86.1264 63.5733L91.7517 66.4628L91.2857 67.3701L86.4503 64.8864L85.3647 66.9999L90.2001 69.4836L89.734 70.3909L84.8986 67.9072L83.802 70.042L88.6374 72.5257L88.1714 73.4331L82.5461 70.5436L86.1264 63.5733Z" fill="#424242"/>
<path d="M78.6754 75.4512L82.6475 79.1446L84.1265 77.554L84.7856 78.1669L81.133 82.0951L80.4739 81.4822L81.9529 79.8916L77.9808 76.1981L78.6754 75.4512Z" fill="#424242"/>
<path d="M73.5843 80.1181C74.1145 79.7052 74.6367 79.4708 75.151 79.415C75.6701 79.3656 76.1649 79.467 76.6351 79.7192C77.1054 79.9715 77.5323 80.3438 77.9157 80.8361C78.3041 81.3347 78.5574 81.8421 78.6756 82.3585C78.7924 82.886 78.7633 83.3954 78.5882 83.8867C78.4132 84.378 78.0732 84.8203 77.5683 85.2135C77.1959 85.5036 76.8143 85.6842 76.4235 85.7553C76.0314 85.8377 75.6504 85.8302 75.2805 85.7329C74.9044 85.6406 74.5598 85.478 74.2467 85.2453C73.9273 85.0175 73.651 84.7409 73.4178 84.4155C73.3799 84.3537 73.3388 84.2945 73.2946 84.2377C73.2503 84.1809 73.2092 84.1216 73.1713 84.0599L76.873 81.1767C76.6216 80.9061 76.345 80.7007 76.0432 80.5606C75.7414 80.4204 75.426 80.367 75.0969 80.4002C74.7728 80.4397 74.4466 80.5873 74.1184 80.8429C73.9543 80.9707 73.805 81.1175 73.6704 81.2831C73.5344 81.46 73.4394 81.6506 73.3855 81.8548C73.3253 82.064 73.3332 82.2758 73.4091 82.4905L72.5855 83.132C72.4105 82.7511 72.3461 82.3755 72.3921 82.005C72.4431 81.6408 72.5744 81.2951 72.7861 80.968C73.0027 80.6472 73.2687 80.3639 73.5843 80.1181ZM77.3997 81.8921L74.5122 84.1411C74.7397 84.4202 74.997 84.6203 75.2841 84.7415C75.5711 84.8627 75.8655 84.9021 76.1672 84.8598C76.4625 84.8224 76.7522 84.6931 77.0362 84.4719C77.3455 84.231 77.5558 83.9608 77.6672 83.6611C77.7722 83.3663 77.798 83.0674 77.7444 82.7643C77.6909 82.4612 77.576 82.1705 77.3997 81.8921Z" fill="#424242"/>
<path d="M70.961 82.249L71.3755 83.0344C71.2339 83.1091 71.1215 83.2046 71.0382 83.3209C70.9586 83.4443 70.9081 83.5886 70.8867 83.7537C70.8623 83.9475 70.8928 84.1937 70.9781 84.4924C71.0634 84.7912 71.1757 85.0982 71.315 85.4137C71.4659 85.7682 71.6202 86.1119 71.7778 86.4449C71.9392 86.7849 72.1022 87.1195 72.2669 87.4486C72.4245 87.7816 72.5929 88.1178 72.7722 88.4574L68.888 90.5074L65.9362 84.9146L66.8383 84.4385L69.3699 89.2354L71.4712 88.1264C71.3514 87.8821 71.2332 87.6324 71.1166 87.3773C70.9967 87.133 70.8785 86.8833 70.762 86.6282C70.6421 86.3839 70.5239 86.1342 70.4073 85.8791C70.265 85.5924 70.1253 85.2591 69.9881 84.8792C69.851 84.4993 69.7872 84.1214 69.7968 83.7454C69.8068 83.3873 69.9008 83.1026 70.0786 82.8911C70.2494 82.6834 70.5435 82.4694 70.961 82.249Z" fill="#424242"/>
<path d="M61.8868 86.3297C62.5267 86.1247 63.0977 86.0846 63.5997 86.2094C64.1042 86.3418 64.5337 86.6074 64.8883 87.0062C65.2429 87.4051 65.5154 87.9016 65.7058 88.4958C65.8986 89.0977 65.9616 89.6614 65.8947 90.1868C65.8226 90.7223 65.6198 91.1906 65.2862 91.5914C64.9526 91.9923 64.4811 92.2904 63.8716 92.4857C63.4221 92.6297 63.0017 92.6678 62.6103 92.5999C62.2138 92.5422 61.8587 92.4039 61.545 92.1852C61.2237 91.9689 60.9561 91.6976 60.7424 91.3713C60.521 91.0474 60.3569 90.6925 60.2501 90.3067C60.2358 90.2357 60.2176 90.1659 60.1956 90.0973C60.1737 90.0288 60.1555 89.959 60.1412 89.888L64.6095 88.4564C64.4667 88.1158 64.2778 87.8277 64.0427 87.5921C63.8077 87.3566 63.53 87.1978 63.2096 87.1156C62.8917 87.041 62.5347 87.0672 62.1385 87.1941C61.9404 87.2576 61.7497 87.3439 61.5662 87.4531C61.3776 87.5723 61.2228 87.7185 61.1019 87.8917C60.9734 88.0673 60.9077 88.2689 60.9051 88.4966L59.9109 88.8151C59.8778 88.3973 59.9467 88.0224 60.1176 87.6904C60.2909 87.3661 60.5332 87.0868 60.8446 86.8526C61.1585 86.6261 61.5059 86.4518 61.8868 86.3297ZM64.8575 89.3094L61.372 90.4261C61.4895 90.7665 61.6621 91.043 61.8898 91.2557C62.1176 91.4683 62.3803 91.6068 62.6781 91.671C62.9683 91.7376 63.2848 91.716 63.6276 91.6062C64.0009 91.4866 64.2915 91.3053 64.4993 91.0623C64.6994 90.8218 64.8266 90.55 64.8807 90.2471C64.9349 89.9441 64.9271 89.6316 64.8575 89.3094Z" fill="#424242"/>
<path d="M58.0792 87.4858L59.0014 93.7422L54.6801 94.3791L54.5488 93.4888L57.861 93.0005L57.0701 87.6345L58.0792 87.4858Z" fill="#424242"/>
<path d="M52.4263 86.035L52.1607 94.6349L51.1891 94.6049L51.1712 93.6319C50.9447 93.969 50.6448 94.2199 50.2715 94.3845C49.8903 94.5488 49.4837 94.6242 49.0519 94.6109C48.4122 94.5912 47.8929 94.431 47.494 94.1306C47.0949 93.8381 46.8069 93.445 46.63 92.9513C46.4452 92.4574 46.3623 91.9026 46.3813 91.2869C46.4003 90.6712 46.5173 90.1225 46.7323 89.6409C46.9472 89.1593 47.2669 88.785 47.6914 88.518C48.1158 88.251 48.6519 88.1275 49.2996 88.1475C49.6194 88.1574 49.9063 88.1982 50.1602 88.2701C50.4139 88.35 50.6347 88.4568 50.8226 88.5907C51.0106 88.7246 51.1741 88.8737 51.3131 89.0381L51.4068 86.0035L52.4263 86.035ZM49.3558 89.0496C48.892 89.0353 48.521 89.1279 48.2427 89.3274C47.9641 89.5349 47.7594 89.8127 47.6286 90.1608C47.4898 90.5087 47.4139 90.8946 47.4008 91.3184C47.3875 91.7502 47.4393 92.1439 47.5564 92.4997C47.6655 92.8553 47.8567 93.1413 48.1302 93.3579C48.4036 93.5744 48.7722 93.6898 49.236 93.7042C49.6518 93.717 50.011 93.62 50.3135 93.4133C50.6078 93.2143 50.8365 92.9372 50.9995 92.5821C51.1623 92.2349 51.2502 91.8495 51.2633 91.4257C51.2769 90.9859 51.2172 90.5878 51.0841 90.2316C50.951 89.8753 50.7397 89.5926 50.45 89.3836C50.1603 89.1745 49.7956 89.0632 49.3558 89.0496Z" fill="#424242"/>
<path d="M42.7288 87.4321C43.0099 87.4947 43.2754 87.5907 43.5253 87.72C43.7656 87.8555 43.9746 88.0209 44.1525 88.2162C44.3207 88.4175 44.4421 88.6454 44.5167 88.8996C44.5817 89.16 44.5803 89.4424 44.5125 89.7469C44.4343 90.0983 44.3057 90.3812 44.1269 90.5954C43.9403 90.808 43.722 90.9602 43.4721 91.0521C43.2221 91.144 42.9458 91.189 42.6429 91.1872C42.3401 91.1853 42.0325 91.1496 41.7201 91.0801L39.9046 90.676C39.8263 91.0274 39.8093 91.3433 39.8535 91.6236C39.8898 91.9021 40.0017 92.136 40.189 92.3252C40.3747 92.5223 40.6471 92.6607 41.0063 92.7407C41.2249 92.7894 41.4332 92.8111 41.631 92.806C41.8289 92.8009 42.0055 92.7623 42.1608 92.6903C42.3162 92.6184 42.4442 92.5034 42.5449 92.3455L43.6108 92.5828C43.4936 92.8517 43.3352 93.0665 43.1355 93.2269C42.9263 93.3934 42.6946 93.514 42.4404 93.5885C42.1765 93.6691 41.9049 93.7111 41.6255 93.7145C41.3461 93.7179 41.0737 93.69 40.8082 93.6309C40.2147 93.4988 39.7653 93.2718 39.4599 92.9497C39.1529 92.6355 38.966 92.2415 38.8994 91.7677C38.831 91.3017 38.8628 90.772 38.9949 90.1785L39.738 86.8402L40.5696 87.0253L40.4535 87.8231C40.6774 87.6271 40.9243 87.4936 41.1942 87.4225C41.4641 87.3514 41.7323 87.3251 41.9986 87.3434C42.2589 87.3521 42.5023 87.3817 42.7288 87.4321ZM42.4396 88.2898C42.0491 88.2029 41.6994 88.1906 41.3905 88.253C41.072 88.3214 40.8069 88.4632 40.5951 88.6783C40.3833 88.8934 40.2374 89.1806 40.1575 89.5398L40.0897 89.8444L41.179 90.0868C41.4367 90.1442 41.6914 90.1968 41.943 90.2446C42.1946 90.2924 42.428 90.3116 42.6432 90.3021C42.8584 90.2926 43.0433 90.2354 43.1977 90.1305C43.3444 90.0238 43.4456 89.8455 43.5012 89.5956C43.5533 89.3614 43.5374 89.157 43.4532 88.9826C43.3613 88.8064 43.2265 88.6575 43.0486 88.536C42.8612 88.4205 42.6582 88.3384 42.4396 88.2898Z" fill="#424242"/>
<path d="M38.266 86.5265L35.6943 92.304L34.4445 91.7477L33.8582 88.019L30.7281 90.0934L29.5002 89.5468L32.072 83.7693L32.9929 84.1793L30.8798 88.9262L34.3732 86.5669L34.6363 86.684L35.2321 90.8635L37.3451 86.1166L38.266 86.5265Z" fill="#424242"/>
<path d="M28.0404 81.2448L23.993 86.1039L23.2092 85.4511L24.9526 83.3581L24.1043 82.6515L20.9226 83.5464L20.0282 82.8015L23.5787 81.8389L23.9373 77.8271L24.8594 78.5951L24.5805 81.8924L25.521 82.6758L27.2567 80.592L28.0404 81.2448Z" fill="#424242"/>
<path d="M21.7112 75.3123C21.8972 75.5322 22.0504 75.7693 22.1711 76.0235C22.2804 76.2768 22.3467 76.5349 22.3701 76.798C22.3822 77.0601 22.341 77.315 22.2464 77.5625C22.1406 77.8091 21.9686 78.0331 21.7303 78.2345C21.4554 78.4669 21.1819 78.6143 20.9099 78.6767C20.6327 78.7329 20.3668 78.722 20.1122 78.6439C19.8576 78.5658 19.6104 78.4344 19.3704 78.2496C19.1304 78.0649 18.9071 77.8503 18.7005 77.606L17.4998 76.1855C17.2248 76.4179 17.0201 76.659 16.8857 76.9089C16.746 77.1527 16.6935 77.4065 16.7282 77.6706C16.7567 77.9398 16.8897 78.2149 17.1273 78.4959C17.2719 78.667 17.4245 78.8103 17.5852 78.926C17.7458 79.0416 17.9097 79.1178 18.0769 79.1545C18.2441 79.1912 18.4156 79.1772 18.5913 79.1125L19.2963 79.9464C19.0402 80.0896 18.7842 80.1646 18.5281 80.1716C18.2608 80.1775 18.0034 80.1333 17.7559 80.0387C17.4971 79.9432 17.2554 79.8123 17.031 79.6459C16.8065 79.4795 16.6064 79.2924 16.4308 79.0847C16.0383 78.6204 15.818 78.1676 15.7698 77.7265C15.7155 77.2905 15.8052 76.8638 16.0389 76.4463C16.2664 76.0339 16.6124 75.6315 17.0767 75.2389L19.6885 73.031L20.2385 73.6817L19.6633 74.2466C19.9602 74.226 20.2376 74.2692 20.4954 74.3759C20.7533 74.4827 20.9827 74.6239 21.1837 74.7997C21.3856 74.9642 21.5615 75.1351 21.7112 75.3123ZM20.9619 75.82C20.7037 75.5145 20.4328 75.2931 20.1491 75.1558C19.8541 75.0176 19.5572 74.97 19.2584 75.0131C18.9596 75.0561 18.6697 75.1965 18.3887 75.434L18.1504 75.6355L18.8709 76.4877C19.0413 76.6894 19.2122 76.8853 19.3836 77.0757C19.555 77.266 19.7292 77.4225 19.9063 77.5452C20.0833 77.6679 20.2651 77.7342 20.4516 77.7442C20.6329 77.748 20.8213 77.6673 21.0168 77.502C21.2001 77.3471 21.3111 77.1747 21.3497 76.985C21.3831 76.7891 21.3658 76.589 21.2978 76.3846C21.2185 76.1792 21.1066 75.991 20.9619 75.82Z" fill="#424242"/>
<path d="M18.7506 71.7956L13.2939 74.992L12.7784 74.1119L15.1702 72.7108L13.5689 69.9773L11.1771 71.3784L10.6615 70.4983L16.1182 67.3018L16.6338 68.1819L14.3455 69.5224L15.9468 72.2559L18.2351 70.9154L18.7506 71.7956Z" fill="#424242"/>
<path d="M14.8078 64.0338C14.907 64.3042 14.9696 64.5794 14.9956 64.8596C15.0114 65.135 14.9851 65.4003 14.9168 65.6554C14.8381 65.9057 14.712 66.131 14.5382 66.331C14.3542 66.5263 14.1157 66.6776 13.8228 66.7851C13.4848 66.909 13.1773 66.9536 12.9004 66.9188C12.6208 66.8765 12.3748 66.7749 12.1625 66.6142C11.9502 66.4535 11.763 66.2452 11.601 65.9893C11.439 65.7334 11.303 65.4553 11.1928 65.1548L10.5525 63.4085C10.2145 63.5325 9.93944 63.6887 9.72738 63.8772C9.51256 64.0582 9.37612 64.2787 9.31804 64.5386C9.25244 64.8012 9.28299 65.1053 9.40968 65.4508C9.4868 65.6611 9.58094 65.8481 9.6921 66.0118C9.80327 66.1756 9.93108 66.3034 10.0755 66.3953C10.22 66.4872 10.3859 66.5329 10.5732 66.5323L10.9491 67.5576C10.6594 67.6042 10.3932 67.5868 10.1503 67.5054C9.89717 67.4193 9.67059 67.2893 9.47054 67.1156C9.26023 66.9371 9.07821 66.7312 8.92448 66.4978C8.77076 66.2645 8.64707 66.0201 8.55343 65.7648C8.34412 65.1939 8.29253 64.6931 8.39868 64.2622C8.49732 63.834 8.72803 63.464 9.09081 63.152C9.44608 62.8428 9.90913 62.5836 10.48 62.3743L13.6909 61.1969L13.9842 61.9968L13.25 62.3299C13.5359 62.4125 13.7817 62.5482 13.9872 62.737C14.1928 62.9258 14.3598 63.1372 14.4882 63.3713C14.6214 63.5951 14.728 63.8159 14.8078 64.0338ZM13.9298 64.2535C13.7921 63.8779 13.6136 63.577 13.3942 63.3506C13.1647 63.1196 12.9021 62.973 12.6067 62.9109C12.3113 62.8488 11.9908 62.8811 11.6453 63.0078L11.3524 63.1152L11.7366 64.163C11.8275 64.4108 11.9207 64.6536 12.0164 64.8912C12.112 65.1288 12.2219 65.3356 12.3461 65.5116C12.4703 65.6876 12.6183 65.8123 12.79 65.8856C12.959 65.9515 13.1637 65.9403 13.404 65.8522C13.6294 65.7696 13.7927 65.6458 13.8941 65.4808C13.9928 65.3083 14.0452 65.1144 14.0515 64.899C14.0475 64.679 14.0069 64.4638 13.9298 64.2535Z" fill="#424242"/>
<path d="M13.3484 60.2963L12.4743 60.4526C12.4461 60.2951 12.3892 60.159 12.3037 60.0443C12.2103 59.931 12.0882 59.839 11.9374 59.7685C11.7602 59.6864 11.5163 59.6406 11.2058 59.6311C10.8953 59.6217 10.5686 59.6354 10.2257 59.6723C9.84211 59.7085 9.46776 59.751 9.10269 59.8001C8.72975 59.8505 8.36145 59.9042 7.99779 59.9611C7.63272 60.0102 7.26119 60.0685 6.88319 60.1361L6.10986 55.8128L12.3351 54.6992L12.5147 55.7033L7.17539 56.6584L7.59375 58.9972C7.86291 58.9572 8.13671 58.9204 8.41516 58.8869C8.68431 58.8469 8.95812 58.8101 9.23656 58.7765C9.50572 58.7365 9.77952 58.6997 10.058 58.6662C10.3744 58.6177 10.7344 58.5858 11.138 58.5705C11.5416 58.5552 11.921 58.6092 12.2763 58.7326C12.6144 58.8509 12.8572 59.0269 13.0047 59.2606C13.1507 59.4864 13.2653 59.8316 13.3484 60.2963Z" fill="#424242"/>
<path d="M12.0263 50.0549L5.72108 49.5675L5.79969 48.5505L8.56345 48.7642L8.80761 45.6056L6.04385 45.3919L6.12246 44.375L12.4277 44.8624L12.349 45.8793L9.70493 45.6749L9.46077 48.8335L12.1049 49.0379L12.0263 50.0549Z" fill="#424242"/>
<path d="M13.1599 41.606C13.0888 41.8851 12.9848 42.1476 12.8479 42.3934C12.7052 42.6294 12.5336 42.8334 12.3329 43.0052C12.1265 43.1672 11.8951 43.2816 11.6387 43.3484C11.3765 43.4054 11.0942 43.3954 10.7919 43.3184C10.443 43.2295 10.1643 43.0925 9.95553 42.9072C9.74878 42.7142 9.60328 42.4914 9.51904 42.2388C9.4348 41.9862 9.3982 41.7085 9.40926 41.4059C9.42031 41.1033 9.46534 40.7969 9.54434 40.4868L10.0035 38.6844C9.65467 38.5955 9.33949 38.5689 9.05798 38.6045C8.77845 38.6323 8.54127 38.737 8.34643 38.9185C8.14383 39.0981 7.99711 39.3661 7.90626 39.7227C7.85096 39.9398 7.82287 40.1473 7.82198 40.3452C7.8211 40.5431 7.85426 40.7208 7.92146 40.8783C7.98867 41.0357 8.09965 41.1672 8.2544 41.2727L7.98482 42.3309C7.71956 42.2055 7.50977 42.0406 7.35546 41.8362C7.19537 41.622 7.08195 41.3867 7.01518 41.1303C6.94264 40.8642 6.90894 40.5914 6.91407 40.312C6.9192 40.0327 6.95534 39.7612 7.02249 39.4976C7.17259 38.9084 7.41322 38.4661 7.7444 38.1707C8.06782 37.8734 8.46733 37.6986 8.94294 37.6464C9.4108 37.5922 9.93931 37.6402 10.5285 37.7903L13.8426 38.6346L13.6323 39.4602L12.8384 39.3199C13.0275 39.5497 13.1535 39.8005 13.2163 40.0725C13.2791 40.3444 13.2973 40.6132 13.2709 40.8789C13.2542 41.1388 13.2172 41.3812 13.1599 41.606ZM12.3115 41.2908C12.4102 40.9032 12.4332 40.554 12.3802 40.2434C12.3215 39.9229 12.1879 39.6536 11.9793 39.4354C11.7707 39.2171 11.4881 39.0626 11.1315 38.9717L10.8292 38.8947L10.5536 39.9762C10.4885 40.232 10.4282 40.4849 10.3727 40.735C10.3173 40.985 10.291 41.2177 10.2939 41.4331C10.2968 41.6485 10.3484 41.835 10.4486 41.9926C10.5507 42.1425 10.7259 42.249 10.9739 42.3122C11.2065 42.3715 11.4113 42.3617 11.5882 42.283C11.7671 42.1964 11.92 42.0662 12.0469 41.8921C12.168 41.7083 12.2562 41.5079 12.3115 41.2908Z" fill="#424242"/>
<path d="M14.1031 37.2123L8.44606 34.3855L8.90199 33.4731L13.7647 35.903L14.8267 33.7775L9.96404 31.3477L10.42 30.4353L15.2827 32.8651L16.3555 30.7182L11.4928 28.2884L11.9487 27.376L17.6057 30.2027L14.1031 37.2123Z" fill="#424242"/>
<path d="M21.3866 25.2587L17.3744 21.6087L15.9128 23.2154L15.2471 22.6098L18.8567 18.642L19.5224 19.2476L18.0608 20.8542L22.073 24.5042L21.3866 25.2587Z" fill="#424242"/>
<path d="M26.5205 20.4381C25.9934 20.8549 25.4729 21.0931 24.959 21.1526C24.4402 21.2059 23.9448 21.1081 23.4727 20.8592C23.0005 20.6104 22.571 20.2412 22.184 19.7518C21.792 19.256 21.535 18.7504 21.413 18.2349C21.2923 17.7082 21.3177 17.1986 21.4892 16.7061C21.6607 16.2136 21.9975 15.7688 22.4995 15.3719C22.8698 15.0791 23.25 14.8958 23.6403 14.8218C24.0318 14.7366 24.4128 14.7413 24.7834 14.8358C25.1602 14.9254 25.506 15.0855 25.8208 15.3159C26.1418 15.5414 26.4201 15.816 26.6557 16.1397C26.694 16.2011 26.7356 16.2601 26.7802 16.3166C26.8249 16.373 26.8664 16.432 26.9048 16.4934L23.2242 19.4035C23.4776 19.6723 23.7556 19.8757 24.0585 20.0136C24.3613 20.1515 24.6771 20.2027 25.0059 20.1671C25.3297 20.1252 25.6548 19.9753 25.9811 19.7173C26.1443 19.5882 26.2926 19.4404 26.426 19.2738C26.5607 19.0959 26.6542 18.9046 26.7066 18.7C26.7653 18.4904 26.7559 18.2786 26.6784 18.0645L27.4973 17.417C27.6751 17.7966 27.7423 18.1718 27.6989 18.5426C27.6506 18.9072 27.5218 19.2538 27.3125 19.5824C27.0983 19.9048 26.8343 20.19 26.5205 20.4381ZM22.6923 18.692L25.5633 16.422C25.3338 16.1446 25.075 15.9463 24.7871 15.8273C24.4991 15.7082 24.2045 15.6709 23.9031 15.7154C23.6081 15.7549 23.3193 15.8863 23.0369 16.1096C22.7294 16.3527 22.5211 16.6245 22.4119 16.925C22.309 17.2205 22.2854 17.5196 22.3412 17.8223C22.3969 18.125 22.514 18.4149 22.6923 18.692Z" fill="#424242"/>
<path d="M28.9488 18.3778L28.5256 17.5971C28.6663 17.5209 28.7776 17.4241 28.8596 17.3068C28.9379 17.1825 28.9868 17.0377 29.0064 16.8724C29.0286 16.6784 28.9954 16.4325 28.9068 16.1347C28.8182 15.837 28.7025 15.5312 28.5596 15.2173C28.4048 14.8644 28.2467 14.5224 28.0854 14.1913C27.9203 13.8531 27.7536 13.5203 27.5852 13.193C27.4239 12.8618 27.2518 12.5275 27.0688 12.1899L30.9301 10.0969L33.9437 15.6567L33.0469 16.1428L30.4622 11.3742L28.3733 12.5065C28.4959 12.7494 28.6169 12.9978 28.7363 13.2516C28.8588 13.4945 28.9798 13.7429 29.0992 13.9967C29.2218 14.2396 29.3427 14.488 29.4621 14.7418C29.6076 15.0269 29.751 15.3587 29.8924 15.737C30.0337 16.1154 30.1017 16.4926 30.0962 16.8686C30.0902 17.2268 29.9994 17.5126 29.8239 17.726C29.6554 17.9356 29.3637 18.1529 28.9488 18.3778Z" fill="#424242"/>
<path d="M38.1818 14.0962C37.5434 14.3061 36.9728 14.3505 36.4698 14.2295C35.9644 14.1009 35.5329 13.8386 35.1753 13.4424C34.8177 13.0463 34.5415 12.5518 34.3466 11.959C34.1493 11.3586 34.0821 10.7954 34.145 10.2695C34.213 9.73344 34.4122 9.26372 34.7428 8.86032C35.0734 8.45693 35.5426 8.1553 36.1506 7.95544C36.599 7.80805 37.0192 7.76679 37.411 7.83167C37.808 7.88644 38.1641 8.02201 38.4794 8.23836C38.8024 8.45221 39.0719 8.7215 39.2882 9.04622C39.512 9.36844 39.6787 9.72204 39.7885 10.107C39.8033 10.1779 39.822 10.2476 39.8445 10.316C39.867 10.3844 39.8857 10.454 39.9006 10.5249L35.4432 11.9901C35.5885 12.3297 35.7796 12.6164 36.0164 12.8501C36.2533 13.0839 36.5321 13.2406 36.8531 13.3204C37.1716 13.3925 37.5284 13.3637 37.9236 13.2338C38.1212 13.1688 38.3113 13.081 38.4939 12.9705C38.6816 12.8498 38.8353 12.7025 38.9549 12.5284C39.0821 12.3519 39.1462 12.1497 39.1472 11.9221L40.139 11.596C40.1752 12.0136 40.1091 12.389 39.9407 12.7223C39.7699 13.0479 39.5296 13.329 39.22 13.5655C38.9079 13.7944 38.5618 13.9713 38.1818 14.0962ZM35.1887 11.139L38.6657 9.99611C38.5456 9.65661 38.371 9.3814 38.1416 9.17046C37.9123 8.95953 37.6485 8.82309 37.3502 8.76113C37.0596 8.69667 36.7432 8.72066 36.4012 8.83308C36.0288 8.95549 35.7397 9.13896 35.5337 9.3835C35.3354 9.62554 35.2103 9.89824 35.1584 10.2016C35.1066 10.505 35.1167 10.8175 35.1887 11.139Z" fill="#424242"/>
<path d="M41.9787 12.8994L41.0085 6.65026L45.3248 5.98016L45.4629 6.8695L42.1545 7.38313L42.9866 12.7429L41.9787 12.8994Z" fill="#424242"/>
<path d="M47.6352 14.2948L47.8345 5.6931L48.8062 5.7156L48.8317 6.68846C49.0556 6.34955 49.3535 6.09638 49.7255 5.92895C50.1055 5.7617 50.5114 5.68308 50.9433 5.69309C51.5831 5.70791 52.1036 5.864 52.5049 6.16137C52.9063 6.45075 53.1973 6.84159 53.3779 7.33391C53.5666 7.82641 53.6538 8.38057 53.6395 8.99641C53.6253 9.61224 53.5125 10.1618 53.3012 10.645C53.09 11.1283 52.7732 11.505 52.3508 11.7753C51.9284 12.0456 51.3933 12.1732 50.7455 12.1582C50.4256 12.1508 50.1384 12.1122 49.884 12.0423C49.6297 11.9644 49.4081 11.8592 49.2191 11.7268C49.0301 11.5944 48.8655 11.4465 48.7252 11.2832L48.6549 14.3184L47.6352 14.2948ZM50.6824 11.2565C51.1463 11.2673 51.5166 11.1718 51.7933 10.9702C52.0702 10.7605 52.2728 10.4812 52.4009 10.132C52.537 9.78309 52.61 9.39668 52.6198 8.97279C52.6298 8.54091 52.5749 8.14753 52.4551 7.79266C52.3433 7.43797 52.1498 7.15342 51.8747 6.93899C51.5996 6.72456 51.2301 6.61197 50.7662 6.60123C50.3503 6.5916 49.9919 6.69132 49.691 6.90041C49.3983 7.10169 49.1717 7.38052 49.0114 7.7369C48.8513 8.08529 48.7664 8.47142 48.7565 8.89531C48.7464 9.33519 48.8092 9.73275 48.945 10.088C49.0808 10.4432 49.2943 10.7243 49.5856 10.9311C49.8769 11.1379 50.2425 11.2463 50.6824 11.2565Z" fill="#424242"/>
<path d="M57.1335 12.7722C56.8517 12.7129 56.5851 12.6199 56.3338 12.4934C56.0919 12.3607 55.881 12.1978 55.701 12.0045C55.5304 11.8051 55.4064 11.5787 55.329 11.3253C55.261 11.0657 55.2592 10.7833 55.3235 10.478C55.3976 10.1257 55.5229 9.84141 55.6993 9.62511C55.8835 9.41046 56.1 9.25576 56.3489 9.16101C56.5977 9.06627 56.8736 9.01808 57.1764 9.01645C57.4793 9.01483 57.7872 9.04699 58.1004 9.11293L59.9204 9.49624C59.9946 9.14397 60.008 8.82795 59.9607 8.54819C59.9211 8.27007 59.8066 8.03747 59.6171 7.8504C59.4292 7.6555 59.1553 7.52014 58.7952 7.4443C58.576 7.39814 58.3675 7.37876 58.1697 7.38616C57.9719 7.39356 57.7958 7.43413 57.6413 7.50787C57.4868 7.58161 57.3601 7.698 57.2612 7.85703L56.1926 7.63199C56.3068 7.36171 56.4627 7.14521 56.6605 6.98247C56.8678 6.81356 57.0981 6.69038 57.3515 6.61294C57.6144 6.52932 57.8855 6.48422 58.1648 6.47765C58.4442 6.47108 58.7169 6.49582 58.9831 6.55187C59.578 6.67717 60.03 6.89908 60.339 7.21759C60.6497 7.52828 60.841 7.92012 60.9131 8.39313C60.9868 8.85831 60.961 9.38837 60.8357 9.98332L60.1309 13.3299L59.2972 13.1543L59.4042 12.3552C59.1825 12.5538 58.9371 12.6902 58.6681 12.7643C58.399 12.8384 58.1312 12.8679 57.8646 12.8526C57.6042 12.8468 57.3605 12.82 57.1335 12.7722ZM57.4129 11.9113C57.8043 11.9938 58.1541 12.002 58.4623 11.9361C58.78 11.864 59.0435 11.7192 59.2528 11.5017C59.4621 11.2842 59.6047 10.9954 59.6806 10.6353L59.7449 10.33L58.6528 10.1C58.3945 10.0456 58.1392 9.9959 57.8871 9.95097C57.6349 9.90604 57.4013 9.88954 57.1862 9.90148C56.9712 9.91341 56.787 9.97273 56.6337 10.0794C56.4883 10.1878 56.3892 10.3672 56.3364 10.6177C56.2869 10.8526 56.3053 11.0567 56.3914 11.2302C56.4853 11.4053 56.6219 11.5526 56.8011 11.6721C56.9898 11.7854 57.1937 11.8652 57.4129 11.9113Z" fill="#424242"/>
<path d="M61.7895 13.6603L64.318 7.86385L65.5719 8.41083L66.1861 12.135L69.3006 10.0374L70.5325 10.5748L68.0039 16.3712L67.08 15.9682L69.1575 11.2056L65.6819 13.5909L65.4179 13.4757L64.7909 9.3008L62.7134 14.0634L61.7895 13.6603Z" fill="#424242"/>
<path d="M71.9164 18.7334L75.9106 13.8303L76.7014 14.4745L74.981 16.5865L75.8369 17.2837L79.0087 16.3541L79.9112 17.0893L76.3714 18.0906L76.0566 22.106L75.1262 21.3481L75.3691 18.048L74.4201 17.275L72.7073 19.3776L71.9164 18.7334Z" fill="#424242"/>
<path d="M78.362 24.6186C78.1737 24.4007 78.0178 24.1653 77.8944 23.9125C77.7823 23.6604 77.7132 23.403 77.6869 23.1402C77.672 22.8782 77.7104 22.6229 77.8022 22.3744C77.9054 22.1266 78.075 21.9008 78.311 21.6968C78.5834 21.4614 78.8552 21.311 79.1266 21.2457C79.4031 21.1864 79.6691 21.1944 79.9245 21.2698C80.18 21.3451 80.4287 21.4738 80.6706 21.6559C80.9126 21.838 81.1382 22.0501 81.3475 22.2922L82.5637 23.6995C82.836 23.4641 83.0381 23.2207 83.1698 22.9694C83.3068 22.7242 83.3565 22.4697 83.319 22.2061C83.2875 21.9372 83.1515 21.6636 82.9109 21.3851C82.7644 21.2157 82.6102 21.074 82.4484 20.9601C82.2865 20.8462 82.1218 20.7718 81.9542 20.7369C81.7865 20.7021 81.6152 20.7179 81.4402 20.7846L80.7262 19.9584C80.9807 19.8124 81.2359 19.7346 81.4919 19.7249C81.7591 19.716 82.017 19.7575 82.2655 19.8493C82.5254 19.9419 82.7684 20.0702 82.9947 20.2342C83.221 20.3981 83.423 20.583 83.6009 20.7888C83.9984 21.2488 84.2237 21.6991 84.2767 22.1397C84.3358 22.5751 84.2507 23.0028 84.0216 23.4228C83.7986 23.8376 83.4571 24.2438 82.997 24.6414L80.4095 26.8777L79.8524 26.233L80.4214 25.6619C80.1248 25.6857 79.8469 25.6456 79.5879 25.5417C79.3289 25.4377 79.098 25.299 78.8951 25.1254C78.6914 24.9631 78.5137 24.7942 78.362 24.6186ZM79.1057 24.1028C79.3672 24.4054 79.6406 24.6238 79.9258 24.758C80.2222 24.8931 80.5196 24.9374 80.8179 24.8911C81.1162 24.8447 81.4046 24.7012 81.683 24.4606L81.9191 24.2566L81.1893 23.4122C81.0167 23.2125 80.8437 23.0184 80.6702 22.8299C80.4968 22.6415 80.3209 22.4869 80.1425 22.3661C79.9641 22.2454 79.7816 22.181 79.595 22.1731C79.4137 22.1713 79.2261 22.254 79.0324 22.4214C78.8509 22.5783 78.7418 22.7519 78.7053 22.9421C78.674 23.1383 78.6934 23.3382 78.7637 23.5419C78.8452 23.7463 78.9592 23.9333 79.1057 24.1028Z" fill="#424242"/>
<path d="M81.4459 28.1923L86.8789 24.9557L87.4009 25.832L85.0195 27.2507L86.6408 29.9724L89.0223 28.5537L89.5443 29.43L84.1113 32.6665L83.5893 31.7902L85.8676 30.433L84.2463 27.7113L81.9679 29.0686L81.4459 28.1923Z" fill="#424242"/>
<path d="M85.4285 35.8354C85.3263 35.5661 85.2606 35.2916 85.2314 35.0117C85.2126 34.7365 85.2358 34.471 85.3013 34.2151C85.3771 33.9639 85.5007 33.7372 85.6722 33.5352C85.854 33.3379 86.0908 33.1839 86.3825 33.0732C86.7191 32.9454 87.026 32.8974 87.3033 32.9291C87.5834 32.9682 87.8305 33.067 88.0446 33.2253C88.2587 33.3837 88.4482 33.5898 88.6131 33.8439C88.7779 34.0979 88.9171 34.3745 89.0307 34.6737L89.6906 36.4127C90.0272 36.2849 90.3005 36.1256 90.5104 35.9347C90.7232 35.7513 90.8571 35.5293 90.9123 35.2688C90.9749 35.0054 90.9409 34.7017 90.8103 34.3577C90.7309 34.1482 90.6346 33.9623 90.5216 33.7998C90.4086 33.6373 90.2794 33.511 90.1339 33.4207C89.9884 33.3305 89.822 33.2867 89.6348 33.2893L89.2473 32.2683C89.5364 32.2185 89.8029 32.2329 90.0466 32.3115C90.3007 32.3948 90.5288 32.5222 90.7307 32.6936C90.9431 32.8698 91.1274 33.0736 91.2837 33.3052C91.4401 33.5368 91.5665 33.7798 91.663 34.0341C91.8787 34.6025 91.936 35.1028 91.8347 35.5348C91.7409 35.964 91.5143 36.3366 91.1551 36.6527C90.8033 36.9659 90.3432 37.2303 89.7748 37.446L86.5773 38.6595L86.275 37.863L87.0054 37.5216C86.7186 37.4422 86.4713 37.3093 86.2636 37.1228C86.056 36.9364 85.8866 36.7268 85.7555 36.4942C85.6198 36.2719 85.5108 36.0523 85.4285 35.8354ZM86.304 35.6058C86.4459 35.9798 86.6278 36.2787 86.8497 36.5025C87.0819 36.731 87.346 36.8746 87.6421 36.9334C87.9382 36.9922 88.2583 36.9562 88.6024 36.8257L88.8941 36.715L88.4981 35.6716C88.4044 35.4248 88.3084 35.1831 88.2101 34.9466C88.1118 34.7101 87.9996 34.5045 87.8734 34.3299C87.7473 34.1553 87.5979 34.0323 87.4253 33.9609C87.2556 33.897 87.0511 33.9104 86.8117 34.0013C86.5873 34.0864 86.4254 34.2121 86.3258 34.3782C86.2292 34.5518 86.1789 34.7463 86.1751 34.9616C86.1815 35.1817 86.2245 35.3964 86.304 35.6058Z" fill="#424242"/>
<path d="M86.9819 39.7096L87.8548 39.5465C87.8841 39.7038 87.942 39.8395 88.0285 39.9536C88.1227 40.0662 88.2455 40.1572 88.3968 40.2266C88.5747 40.3073 88.8189 40.3512 89.1295 40.3583C89.4401 40.3654 89.7666 40.3492 90.1092 40.3096C90.4925 40.2706 90.8666 40.2251 91.2312 40.1733C91.6038 40.12 91.9717 40.0635 92.3349 40.0038C92.6996 39.9519 93.0706 39.8908 93.4481 39.8202L94.2545 44.1376L88.038 45.2987L87.8507 44.296L93.1825 43.3002L92.7463 40.9646C92.4774 41.0066 92.2039 41.0455 91.9257 41.0812C91.6569 41.1233 91.3834 41.1621 91.1052 41.1978C90.8364 41.2399 90.5628 41.2788 90.2847 41.3145C89.9686 41.3654 89.6089 41.4 89.2054 41.4184C88.8019 41.4368 88.4221 41.3857 88.0659 41.265C87.7269 41.1493 87.4827 40.9751 87.3335 40.7426C87.1857 40.5179 87.0685 40.1736 86.9819 39.7096Z" fill="#424242"/>
</svg>
