<svg width="29" height="23" viewBox="0 0 29 23" fill="none" xmlns="http://www.w3.org/2000/svg">
<path d="M25.718 0.203112C22.0241 1.72376 6.18553 8.24471 1.80933 10.022C-1.12555 11.1604 0.592564 12.2278 0.592564 12.2278C0.592564 12.2278 3.09784 13.0815 5.24556 13.7219C7.39298 14.3622 8.53829 13.6508 8.53829 13.6508L18.6314 6.89146C22.2106 4.47233 21.3517 6.46445 20.4925 7.31847C18.6314 9.16856 15.5534 12.0854 12.9763 14.4335C11.831 15.4296 12.4035 16.2833 12.9049 16.7103C14.7659 18.2757 19.8485 21.4776 20.1346 21.6909C21.6468 22.755 24.6213 24.2867 25.0737 21.0506L26.8633 9.87994C27.4361 6.10905 28.0086 2.62254 28.08 1.62648C28.295 -0.792949 25.718 0.203112 25.718 0.203112Z" fill="#215B94"/>
</svg>
