<svg width="43" height="35" viewBox="0 0 43 35" fill="none" xmlns="http://www.w3.org/2000/svg">
<path d="M39.353 0.309083C33.6803 2.62311 9.35673 12.5463 2.63613 15.2508C-1.871 16.9832 0.767535 18.6075 0.767535 18.6075C0.767535 18.6075 4.61492 19.9066 7.91321 20.8811C11.211 21.8555 12.9699 20.773 12.9699 20.773L28.4701 10.487C33.9666 6.80572 32.6476 9.83721 31.3281 11.1368C28.4701 13.9522 23.743 18.3909 19.7855 21.9641C18.0266 23.4798 18.9058 24.779 19.6757 25.4288C22.5337 27.8109 30.3392 32.6833 30.7785 33.0079C33.1008 34.6272 37.6688 36.9581 38.3636 32.0335L41.1118 15.0347C41.9915 9.29639 42.8707 3.99083 42.9804 2.47508C43.3105 -1.20666 39.353 0.309083 39.353 0.309083Z" fill="url(#paint0_linear_1368_6149)"/>
<defs>
<linearGradient id="paint0_linear_1368_6149" x1="0" y1="0" x2="49.7891" y2="14.2696" gradientUnits="userSpaceOnUse">
<stop stop-color="#5ECAFB"/>
<stop offset="0.365" stop-color="#3B79FF"/>
<stop offset="0.77" stop-color="#9747FF"/>
</linearGradient>
</defs>
</svg>
