<svg width="316" height="73" viewBox="0 0 316 73" fill="none" xmlns="http://www.w3.org/2000/svg">
<path d="M77.6396 12.6812H90.4587V47.4786H104.192V58.4681H77.6396V12.6812Z" fill="#CDCDCD"/>
<path d="M109.347 39.9556V12.6802H122.166V39.6931C122.166 42.5074 122.691 48.7829 129.491 48.7829C136.296 48.7829 136.821 42.5074 136.821 39.6931V12.6802H149.64V39.9556C149.64 44.8617 148.591 59.7725 129.491 59.7725C110.396 59.7725 109.347 44.8617 109.347 39.9556Z" fill="#CDCDCD"/>
<path d="M157.996 12.6813H170.815V31.9098L184.619 12.6811H199.664L182.265 34.8523L200.118 58.4682H184.095L170.815 38.7796V58.4682H157.996V12.6813ZM258.304 12.6792H271.123V58.4659H258.304V12.6792ZM280.514 12.6813H293.333V47.4788H307.072V58.4682H280.514V12.6813Z" fill="#CDCDCD"/>
<path d="M237.399 35.6063C237.399 26.5689 231.84 22.0881 225.751 22.0881C219.662 22.0881 214.104 26.5689 214.104 35.6063C214.104 44.6436 219.662 49.1245 225.751 49.1245C231.84 49.1245 237.399 44.6436 237.399 35.6063ZM200.585 35.6063C200.585 23.0904 208.621 10.8425 225.751 10.8425C242.888 10.8425 250.917 23.0904 250.917 35.6063C250.917 48.1222 242.888 60.3701 225.751 60.3701C208.621 60.3701 200.585 48.1222 200.585 35.6063Z" fill="#CDCDCD"/>
<path d="M6.97729 6.17627H67.3195V66.6463H6.97729V6.17627Z" fill="#CDCDCD"/>
<path d="M60.6444 17.6522L53.8678 28.6123C53.1278 29.8418 53.2385 30.8089 53.5823 31.7412L63.8724 58.0667H21.2553C17.4329 58.0667 14.4729 54.9961 14.4729 51.3369L14.4321 16.2944C14.537 11.767 21.1329 11.6913 21.2553 16.277V49.1227C21.2436 50.1657 22.1584 51.3369 23.3646 51.3077H54.5787L46.4969 32.2889C46.2871 31.5605 46.1415 30.8382 46.1415 30.1099C46.1415 29.3058 46.4969 28.0181 47.0271 26.9693L54.4446 14.7563C54.9924 13.6608 56.0995 12.9206 57.4163 12.8682C59.2634 12.7866 60.8425 14.0569 60.924 16.0206C60.9299 16.411 60.8366 17.2677 60.6444 17.6522Z" fill="white"/>
<path d="M37.1384 39.7832V16.278C37.1384 11.6923 43.8275 11.6573 43.9033 16.278V40.0396C43.9033 45.476 39.842 49.071 34.8659 49.071C29.8957 49.071 25.8228 45.3886 25.8228 40.0396V16.278C25.8228 11.6923 32.5876 11.6923 32.5876 16.278V39.7832C32.5876 42.9355 37.1384 43.1278 37.1384 39.7832Z" fill="white"/>
</svg>
