<svg width="203" height="72" viewBox="0 0 203 72" fill="none" xmlns="http://www.w3.org/2000/svg">
<g clip-path="url(#clip0_851_4726)">
<path d="M60.7131 35.2571H30.0218C29.6539 35.2571 29.3562 35.5574 29.3562 35.9266V39.9385C29.3562 40.3051 29.6552 40.6054 30.0231 40.6054H40.0295V55.9809C40.0295 56.3476 40.3298 56.6505 40.6964 56.6505H50.0372C50.4038 56.6505 50.7054 56.3489 50.7054 55.9809V40.6054H60.7131C61.0797 40.6054 61.38 40.3064 61.38 39.9385V35.9266C61.38 35.5587 61.0784 35.2571 60.7131 35.2571Z" fill="#CDCDCD"/>
<path d="M130.083 35.2571H99.4074C99.0408 35.2571 98.7405 35.5574 98.7405 35.9266V39.9385C98.7405 40.3051 99.0408 40.6054 99.4074 40.6054H109.411V55.9809C109.411 56.3476 109.711 56.6505 110.078 56.6505H119.411C119.778 56.6505 120.077 56.3489 120.077 55.9809V40.6054H130.084C130.452 40.6054 130.753 40.3064 130.753 39.9385V35.9266C130.751 35.5587 130.451 35.2571 130.083 35.2571Z" fill="#CDCDCD"/>
<path d="M95.4044 35.2571H86.0649C85.6983 35.2571 85.3967 35.5574 85.3967 35.9266V51.3008H80.0601C77.1155 51.2969 74.7221 48.9049 74.7221 45.9538V35.9266C74.7221 35.5587 74.4244 35.2571 74.0565 35.2571H64.7157C64.3478 35.2571 64.0488 35.5574 64.0488 35.9266V45.9538C64.0488 51.8598 68.8278 56.6505 74.7208 56.6505H95.4031C95.771 56.6505 96.0713 56.3489 96.0713 55.9809V35.9266C96.0726 35.5587 95.771 35.2571 95.4044 35.2571Z" fill="#CDCDCD"/>
<path d="M166.112 35.2571H142.761C136.864 35.2571 132.085 40.0464 132.085 45.9538C132.085 51.8598 136.864 56.6505 142.761 56.6505H152.769C153.134 56.6505 153.435 56.3489 153.435 55.9809V51.969C153.435 51.6024 153.135 51.3008 152.769 51.3008H148.097C145.148 51.3008 142.761 48.9049 142.761 45.9538C142.761 43.0001 145.149 40.6054 148.097 40.6054H156.102V55.9809C156.102 56.3476 156.402 56.6505 156.77 56.6505H166.112C166.477 56.6505 166.78 56.3489 166.78 55.9809V35.9266C166.78 35.5587 166.477 35.2571 166.112 35.2571Z" fill="#CDCDCD"/>
<path d="M202.139 35.2571H192.798C192.433 35.2571 192.13 35.5574 192.13 35.9266V43.2783H181.454V35.9266C181.454 35.5587 181.156 35.2571 180.787 35.2571H171.448C171.08 35.2571 170.779 35.5574 170.779 35.9266V55.9809C170.779 56.3476 171.078 56.6505 171.448 56.6505H180.787C181.155 56.6505 181.454 56.3489 181.454 55.9809V48.6279H192.13V55.9809C192.13 56.3476 192.431 56.6505 192.798 56.6505H202.139C202.504 56.6505 202.807 56.3489 202.807 55.9809V35.9266C202.806 35.5587 202.504 35.2571 202.139 35.2571Z" fill="#CDCDCD"/>
<path d="M5.07794 56.6492C5.85926 56.6492 6.57298 55.9069 6.38187 55.0501C5.70196 52.1277 5.33795 49.0843 5.33795 45.9538C5.33795 23.8025 23.2602 5.84509 45.3686 5.84509C50.7092 5.84509 55.8001 6.89942 60.4582 8.80137C60.9548 9.00028 61.3812 8.59987 61.3812 8.18386V3.88074C61.3812 3.58953 61.1953 3.34252 60.9353 3.25022C56.077 1.47177 50.8366 0.498047 45.3673 0.498047C20.3118 0.498047 0 20.8501 0 45.9538C0 49.2598 0.35361 52.4813 1.02443 55.5858C1.15443 56.1864 1.68875 56.6492 2.32836 56.6492" fill="#CDCDCD"/>
<path d="M14.3498 37.9521C14.212 38.5059 13.5178 39.1975 12.6039 38.8621L10.1013 37.9495C9.45779 37.7129 9.09508 37.0304 9.25238 36.379C13.4775 20.3457 28.0405 8.51929 45.3687 8.51929C50.9588 8.51929 56.2578 9.75302 61.0211 11.9579C61.2382 12.0684 61.3812 12.2933 61.3812 12.5546V17.0358C61.3812 17.4869 60.9275 17.8535 60.401 17.626C55.9159 15.2314 50.8028 13.8676 45.3687 13.8676C30.4391 13.8676 17.8976 24.1041 14.3498 37.9521Z" fill="#CDCDCD"/>
<path d="M27.4905 28.1576C28.0066 28.5893 28.7477 28.5672 29.2339 28.1265C33.4967 24.2523 39.1584 21.8902 45.3673 21.8902C51.0082 21.8902 56.1927 23.8402 60.2917 27.1033C60.722 27.4413 61.3799 27.1696 61.3799 26.5859V21.6757C61.3799 21.4313 61.2473 21.2155 61.0509 21.0985C56.5138 18.2176 51.1382 16.5444 45.3673 16.5444C37.6334 16.5444 30.6002 19.5462 25.3559 24.4474C24.65 25.1442 24.9711 26.0438 25.4274 26.426" fill="#CDCDCD"/>
<path d="M62.3913 70.0135H61.4683V64.6717H65.1201V65.323H62.3913V70.0135ZM66.8556 64.6704V65.4049H66.8881C67.4341 64.5976 68.1673 64.4585 68.6497 64.4585C69.9627 64.4585 71.0534 65.3438 71.0534 67.3407C71.0534 69.4246 69.8886 70.2216 68.6718 70.2216C68.4625 70.2216 67.3925 70.1696 66.9193 69.2452V71.9558H65.9963V64.6704H66.8556ZM68.5041 69.5702C69.249 69.5702 70.0784 69.0463 70.0784 67.342C70.0784 65.9756 69.4908 65.1124 68.4533 65.1124C67.9697 65.1124 66.8569 65.3451 66.8569 67.3602C66.8556 69.0138 67.8007 69.5702 68.5041 69.5702ZM72.295 71.2642C72.5667 71.3071 72.6733 71.3162 72.7565 71.3162C73.3025 71.3162 73.439 70.8963 73.5963 70.4127L73.7224 70.0135L71.4135 64.6717H72.5147L74.2268 68.993L75.6438 64.6717H76.5669L74.4465 70.6454C74.2684 71.1589 74.0682 72 73.049 72C72.7552 72 72.4822 71.9896 72.2937 71.9467L72.295 71.2642ZM78.3089 70.0135H77.3859V64.6717H81.9295V70.0135H81.0065V65.323H78.3089V70.0135ZM84.293 70.0135H83.37V64.6717H87.9136V70.0135H86.9906V65.323H84.2943L84.293 70.0135ZM89.2305 66.2473C89.2201 65.5453 89.6179 64.4598 91.4978 64.4598C92.3584 64.4598 93.6493 64.6912 93.6181 66.2577L93.5648 68.7304C93.5544 69.149 93.5648 69.3804 94.1213 69.3596V70.0123C93.9939 70.0435 93.9002 70.0525 93.7013 70.0525C93.1878 70.0525 92.8524 69.9693 92.7471 69.2751C92.3792 69.9485 91.6447 70.2216 90.9206 70.2216C89.8103 70.2216 89.042 69.7366 89.042 68.6147C89.042 67.6982 89.5139 67.1093 91.6551 66.9208C92.4325 66.8584 92.6951 66.8792 92.6951 66.1849C92.6951 65.9431 92.6743 65.1124 91.4978 65.1124C91.1624 65.1124 90.082 65.1345 90.1132 66.2473H89.2305ZM92.6938 67.2783C92.4104 67.5006 92.1049 67.459 91.5173 67.5422C90.6996 67.6683 89.9962 67.7307 89.9962 68.5809C89.9962 69.2036 90.4278 69.5702 91.0259 69.5702C91.75 69.5702 92.5989 69.2231 92.673 67.7307L92.6938 67.2783ZM100.827 64.6704H101.908L99.4124 67.1522L102.045 70.0123H100.944L98.5518 67.3407V70.0123H97.6274V64.6704H98.5518V67.004L100.827 64.6704ZM104.795 64.4598C106.735 64.4598 107.418 65.9236 107.418 67.342C107.418 68.7616 106.737 70.2229 104.795 70.2229C102.855 70.2229 102.172 68.7616 102.172 67.342C102.172 65.9236 102.855 64.4598 104.795 64.4598ZM104.795 69.5702C105.203 69.5702 106.443 69.4662 106.443 67.3303C106.443 65.1956 105.204 65.0903 104.795 65.0903C104.388 65.0903 103.147 65.1956 103.147 67.3303C103.147 69.4662 104.386 69.5702 104.795 69.5702ZM109.533 65.7221H109.512L109.533 66.0081V70.0135H108.61V64.6717H109.88L111.695 69.0151L113.511 64.6717H114.78V70.0135H113.857V66.0081L113.89 65.7221H113.857L112.053 70.0135H111.339L109.533 65.7221ZM117.155 70.0135H116.232V64.6717H120.776V70.0135H119.852V65.323H117.155V70.0135ZM122.094 66.2473C122.084 65.5453 122.482 64.4598 124.36 64.4598C125.219 64.4598 126.51 64.6912 126.479 66.2577L126.426 68.7304C126.417 69.149 126.426 69.3804 126.985 69.3596V70.0123C126.857 70.0435 126.764 70.0525 126.565 70.0525C126.05 70.0525 125.716 69.9693 125.611 69.2751C125.243 69.9485 124.508 70.2216 123.785 70.2216C122.673 70.2216 121.907 69.7366 121.907 68.6147C121.907 67.6982 122.379 67.1093 124.52 66.9208C125.297 66.8584 125.559 66.8792 125.559 66.1849C125.559 65.9431 125.537 65.1124 124.363 65.1124C124.027 65.1124 122.946 65.1345 122.979 66.2473H122.094ZM125.556 67.2783C125.273 67.5006 124.97 67.459 124.381 67.5422C123.563 67.6683 122.86 67.7307 122.86 68.5809C122.86 69.2036 123.29 69.5702 123.888 69.5702C124.612 69.5702 125.463 69.2231 125.535 67.7307L125.556 67.2783ZM128.982 70.0135H128.057V64.6717H128.982V66.8701H131.616V64.6717H132.539V70.0135H131.616V67.5214H128.982V70.0135ZM137.695 64.6704H138.724V70.0123H137.8V65.7429L135.029 70.0123H133.989V64.6704H134.914V68.9293L137.695 64.6704ZM143.879 64.6704H144.906V70.0123H143.983V65.7429L141.211 70.0123H140.172V64.6704H141.097V68.9293L143.879 64.6704ZM144.318 62.6528C144.235 63.1052 143.952 63.8514 142.935 64.01C142.797 64.0308 142.649 64.0412 142.515 64.0412C141.463 64.0412 140.982 63.5251 140.781 62.9349C140.751 62.8413 140.73 62.7463 140.709 62.6514H141.496C141.484 62.7346 141.484 62.9479 141.684 63.1663C141.788 63.2833 141.917 63.3665 142.051 63.4185C142.199 63.4705 142.356 63.4822 142.514 63.4822C143.069 63.4822 143.563 63.1767 143.53 62.6501H144.318V62.6528Z" fill="#CDCDCD"/>
</g>
<defs>
<clipPath id="clip0_851_4726">
<rect width="202.806" height="71.502" fill="white" transform="translate(0 0.498047)"/>
</clipPath>
</defs>
</svg>
