<svg width="197" height="73" viewBox="0 0 197 73" fill="none" xmlns="http://www.w3.org/2000/svg">
<g clip-path="url(#clip0_851_4737)">
<path fill-rule="evenodd" clip-rule="evenodd" d="M19.2347 0.249023V5.96402H13.1244V11.6894H6.96504V17.5394H0.805664V37.0279C0.805664 37.0279 11.6539 46.7998 13.2086 48.2052V68.9467H39.8361V48.316C41.3663 46.9071 52.1548 37.0036 52.1548 37.0036V17.5359H46.0341V11.724H39.8396V5.96402H33.6346V0.249023H19.2347Z" fill="white"/>
<path d="M22.8637 38.7446H17.6414V64.4085H22.8637V38.7446Z" fill="#CDCDCD"/>
<path d="M29.0474 33.4487H23.8286V64.4122H29.0474V33.4487Z" fill="#CDCDCD"/>
<path d="M35.228 38.7446H30.0127V64.4085H35.228V38.7446Z" fill="#CDCDCD"/>
<path fill-rule="evenodd" clip-rule="evenodd" d="M10.4887 39.752L5.27344 35.1759V22.0186H10.4887V39.752Z" fill="#CDCDCD"/>
<path fill-rule="evenodd" clip-rule="evenodd" d="M16.6761 45.4741L11.4573 40.4238V16.2034H16.6761V45.4741Z" fill="#CDCDCD"/>
<path d="M22.8637 10.4849H17.6414V37.9418H22.8637V10.4849Z" fill="#CDCDCD"/>
<path d="M29.0474 4.75952H23.8286V32.3168H29.0474V4.75952Z" fill="#CDCDCD"/>
<path fill-rule="evenodd" clip-rule="evenodd" d="M42.3875 39.752L47.6027 35.1759V22.0186H42.3875V39.752Z" fill="#CDCDCD"/>
<path fill-rule="evenodd" clip-rule="evenodd" d="M36.1965 45.4741L41.4188 40.4238V16.2034H36.1965V45.4741Z" fill="#CDCDCD"/>
<path d="M35.228 10.4849H30.0127V37.9418H35.228V10.4849Z" fill="#CDCDCD"/>
<path fill-rule="evenodd" clip-rule="evenodd" d="M84.7276 63.505C84.0713 64.1593 82.8499 64.4846 81.06 64.4846H75.192C73.4196 64.4846 72.1912 64.1766 71.5069 63.5396C70.8155 62.9131 70.468 61.9612 70.468 60.6908V55.0935C70.468 53.8162 70.8155 52.8712 71.5069 52.2377C72.1912 51.6077 73.4196 51.2927 75.192 51.2927H81.06C82.8499 51.2927 84.0713 51.6181 84.7276 52.2689C85.3909 52.9231 85.7103 53.8646 85.7103 55.09V60.6873C85.7103 61.9162 85.3909 62.8508 84.7276 63.5016V63.505ZM81.7023 56.3916C81.7023 55.6681 81.5479 55.1316 81.246 54.7993C80.9407 54.467 80.2634 54.2973 79.2034 54.2973H76.9573C75.9781 54.2973 75.3253 54.4843 74.9954 54.8443C74.669 55.2043 74.5041 55.7235 74.5041 56.3916V59.3927C74.5041 60.0643 74.669 60.5731 74.9954 60.94C75.3218 61.3035 75.9781 61.4904 76.9573 61.4904H79.2034C80.2598 61.4904 80.9302 61.3173 81.225 60.9885C81.5128 60.6527 81.6707 60.1335 81.7023 59.417V56.3916Z" fill="#CDCDCD"/>
<path fill-rule="evenodd" clip-rule="evenodd" d="M102.3 63.505C101.644 64.1593 100.423 64.4846 98.6396 64.4846H92.7716C90.9992 64.4846 89.7708 64.1766 89.0794 63.5396C88.388 62.9131 88.0476 61.9612 88.0476 60.6908V55.0935C88.0476 53.8162 88.388 52.8712 89.0794 52.2377C89.7708 51.6077 90.9992 51.2927 92.7716 51.2927H98.6396C100.423 51.2927 101.644 51.6181 102.3 52.2689C102.96 52.9231 103.286 53.8646 103.286 55.09V56.3881H99.2784C99.2784 55.6646 99.1239 55.1281 98.8186 54.7958C98.5133 54.4635 97.8359 54.2939 96.776 54.2939H94.5299C93.5542 54.2939 92.9014 54.4808 92.568 54.8408C92.2416 55.2008 92.0766 55.72 92.0766 56.3881V59.3893C92.0766 60.0608 92.2416 60.5696 92.568 60.9366C92.8979 61.3 93.5542 61.487 94.5299 61.487H96.776C97.8324 61.487 98.5098 61.3139 98.8186 60.985C99.1204 60.6493 99.2784 60.1162 99.2784 59.3893H103.286V60.6873C103.286 61.9162 102.96 62.8508 102.3 63.5016V63.505Z" fill="#CDCDCD"/>
<path fill-rule="evenodd" clip-rule="evenodd" d="M109.642 64.4846H105.652L105.627 60.6873V55.0935L105.652 51.2927H109.642V56.3396H116.837V51.2927H120.87V55.0935V60.6873V64.4846H116.837V59.3443H109.642V64.4846Z" fill="#CDCDCD"/>
<path fill-rule="evenodd" clip-rule="evenodd" d="M128.366 59.3443H127.222C127.236 60.0435 127.408 60.5766 127.734 60.94C128.068 61.3035 128.714 61.4904 129.696 61.4904H138.449V64.4846H127.931C126.159 64.4846 124.923 64.1766 124.239 63.5431C123.554 62.9131 123.207 61.9612 123.207 60.6908V55.0935C123.207 53.8162 123.551 52.8712 124.239 52.2377C124.927 51.6077 126.159 51.2927 127.931 51.2927H138.449V54.2973H129.696C128.714 54.2973 128.068 54.4843 127.734 54.8443C127.408 55.2043 127.236 55.7027 127.222 56.3431H138.449V59.3443H128.366Z" fill="#CDCDCD"/>
<path fill-rule="evenodd" clip-rule="evenodd" d="M169.278 54.2975H163.775V51.2964H168.404H174.268H178.996V54.2975H173.265V64.4849H169.278V54.2975Z" fill="#CDCDCD"/>
<path fill-rule="evenodd" clip-rule="evenodd" d="M160.244 53.6605H154.05V51.2478H150.098V53.6605H143.752C143.752 53.6605 140.148 53.7678 140.148 57.8005C140.148 61.8332 143.851 61.8609 143.851 61.8609H150.094V64.4743H154.046V61.8609H160.142C160.142 61.8609 163.848 61.8332 163.848 57.8005C163.848 53.7678 160.24 53.6605 160.24 53.6605H160.244ZM158.124 59.237H154.05V56.447H158.089C158.089 56.447 159.479 56.2705 159.479 57.9147C159.479 59.289 158.121 59.237 158.121 59.237H158.124ZM144.64 57.9147C144.64 56.2705 146.034 56.447 146.034 56.447H150.084V59.237H146.009C146.009 59.237 144.644 59.289 144.644 57.9147H144.64Z" fill="#CDCDCD"/>
<path fill-rule="evenodd" clip-rule="evenodd" d="M67.1478 52.2689C66.4915 51.6181 65.2702 51.2927 63.4803 51.2927H52.9128V64.4812H56.9033V59.9327H63.4803C65.2702 59.9327 66.4915 59.6108 67.1478 58.9566C67.8041 58.3023 68.134 57.3608 68.134 56.1354V55.0866C68.134 53.8577 67.8041 52.9196 67.1478 52.2654V52.2689ZM62.81 56.935H56.9033V54.2973H62.81C63.5505 54.2973 64.1471 54.8893 64.1471 55.6196C64.1471 56.35 63.5505 56.9385 62.81 56.9385V56.935Z" fill="#CDCDCD"/>
<path fill-rule="evenodd" clip-rule="evenodd" d="M196.003 60.6873V59.6385C196.003 58.4131 195.674 57.4716 195.021 56.8173C194.357 56.1666 193.14 55.8446 191.35 55.8446H184.773V51.2927H180.782V64.4812H191.346C193.136 64.4812 194.354 64.1593 195.017 63.505C195.674 62.8508 196 61.9093 196 60.6873H196.003ZM192.02 60.1612C192.02 60.8916 191.42 61.4835 190.679 61.4835H184.773V58.8423H190.679C191.416 58.8423 192.02 59.4343 192.02 60.1612Z" fill="#CDCDCD"/>
</g>
<defs>
<clipPath id="clip0_851_4737">
<rect width="195.486" height="72" fill="white" transform="translate(0.805664 0.249023)"/>
</clipPath>
</defs>
</svg>
