<svg width="116" height="93" viewBox="0 0 116 93" fill="none" xmlns="http://www.w3.org/2000/svg">
<path d="M9.55609 93C10.5616 93 11.3767 92.1825 11.3767 91.1741C11.3767 90.1656 10.5616 89.3481 9.55609 89.3481C8.55059 89.3481 7.73547 90.1656 7.73547 91.1741C7.73547 92.1825 8.55059 93 9.55609 93Z" fill="url(#paint0_linear_2513_11315)"/>
<path d="M3.73077 41.3879C4.73627 41.3879 5.55139 40.5704 5.55139 39.562C5.55139 38.5536 4.73627 37.7361 3.73077 37.7361C2.72527 37.7361 1.91016 38.5536 1.91016 39.562C1.91016 40.5704 2.72527 41.3879 3.73077 41.3879Z" fill="url(#paint1_linear_2513_11315)"/>
<path d="M36.9864 9.25143C37.9919 9.25143 38.807 8.43394 38.807 7.42552C38.807 6.4171 37.9919 5.59961 36.9864 5.59961C35.9809 5.59961 35.1658 6.4171 35.1658 7.42552C35.1658 8.43394 35.9809 9.25143 36.9864 9.25143Z" fill="url(#paint2_linear_2513_11315)"/>
<path d="M114.179 3.65182C115.185 3.65182 116 2.83433 116 1.82591C116 0.817487 115.185 0 114.179 0C113.174 0 112.359 0.817487 112.359 1.82591C112.359 2.83433 113.174 3.65182 114.179 3.65182Z" fill="url(#paint3_linear_2513_11315)"/>
<path d="M13.8044 72.732C20.876 72.732 26.6087 66.9826 26.6087 59.8904C26.6087 52.7982 20.876 47.0488 13.8044 47.0488C6.7327 47.0488 1 52.7982 1 59.8904C1 66.9826 6.7327 72.732 13.8044 72.732Z" stroke="url(#paint4_linear_2513_11315)"/>
<path d="M13.8043 70.7841C19.8034 70.7841 24.6667 65.9068 24.6667 59.8902C24.6667 53.8737 19.8034 48.9963 13.8043 48.9963C7.80523 48.9963 2.94202 53.8737 2.94202 59.8902C2.94202 65.9068 7.80523 70.7841 13.8043 70.7841Z" fill="url(#paint5_linear_2513_11315)" stroke="url(#paint6_linear_2513_11315)"/>
<path d="M93.0622 28.4225C99.2624 28.4225 104.289 23.3816 104.289 17.1634C104.289 10.9452 99.2624 5.9043 93.0622 5.9043C86.862 5.9043 81.8357 10.9452 81.8357 17.1634C81.8357 23.3816 86.862 28.4225 93.0622 28.4225Z" stroke="url(#paint7_linear_2513_11315)"/>
<path d="M93.0616 26.7189C98.3234 26.7189 102.589 22.4411 102.589 17.164C102.589 11.887 98.3234 7.60913 93.0616 7.60913C87.7999 7.60913 83.5344 11.887 83.5344 17.164C83.5344 22.4411 87.7999 26.7189 93.0616 26.7189Z" fill="url(#paint8_linear_2513_11315)" stroke="url(#paint9_linear_2513_11315)"/>
<path d="M46.8186 59.5847C51.7452 59.5847 55.7389 55.5793 55.7389 50.6384C55.7389 45.6975 51.7452 41.6921 46.8186 41.6921C41.892 41.6921 37.8982 45.6975 37.8982 50.6384C37.8982 55.5793 41.892 59.5847 46.8186 59.5847Z" stroke="url(#paint10_linear_2513_11315)"/>
<path d="M34.4381 37.43C37.3537 37.43 39.7172 35.0596 39.7172 32.1355C39.7172 29.2115 37.3537 26.8411 34.4381 26.8411C31.5225 26.8411 29.1589 29.2115 29.1589 32.1355C29.1589 35.0596 31.5225 37.43 34.4381 37.43Z" stroke="url(#paint11_linear_2513_11315)"/>
<path d="M92.9405 48.3862C94.6495 48.3862 96.0349 46.9968 96.0349 45.2828C96.0349 43.5689 94.6495 42.1794 92.9405 42.1794C91.2315 42.1794 89.8461 43.5689 89.8461 45.2828C89.8461 46.9968 91.2315 48.3862 92.9405 48.3862Z" stroke="url(#paint12_linear_2513_11315)"/>
<path d="M112.969 2.80005L101.801 9.86039M93.6692 28.6064L93.0622 41.8744M82.5027 21.1807L55.0718 46.5004M41.7206 42.9699L37.594 36.5183M35.2877 26.6588L36.6233 9.00827M29.5835 34.936L5.30847 39.44M26.5491 57.9427L38.4437 54.4122M11.0134 72.6715L9.79942 89.5913" stroke="url(#paint13_linear_2513_11315)"/>
<defs>
<linearGradient id="paint0_linear_2513_11315" x1="7.73547" y1="89.3481" x2="12.0637" y2="90.3549" gradientUnits="userSpaceOnUse">
<stop stop-color="#005A87"/>
<stop offset="1" stop-color="#8FB2FF"/>
</linearGradient>
<linearGradient id="paint1_linear_2513_11315" x1="1.91016" y1="37.7361" x2="6.23843" y2="38.7429" gradientUnits="userSpaceOnUse">
<stop stop-color="#005A87"/>
<stop offset="1" stop-color="#8FB2FF"/>
</linearGradient>
<linearGradient id="paint2_linear_2513_11315" x1="35.1658" y1="5.59961" x2="39.494" y2="6.60638" gradientUnits="userSpaceOnUse">
<stop stop-color="#005A87"/>
<stop offset="1" stop-color="#8FB2FF"/>
</linearGradient>
<linearGradient id="paint3_linear_2513_11315" x1="112.359" y1="0" x2="116.687" y2="1.00677" gradientUnits="userSpaceOnUse">
<stop stop-color="#005A87"/>
<stop offset="1" stop-color="#8FB2FF"/>
</linearGradient>
<linearGradient id="paint4_linear_2513_11315" x1="1" y1="47.0488" x2="31.4406" y2="54.1295" gradientUnits="userSpaceOnUse">
<stop stop-color="#005A87"/>
<stop offset="1" stop-color="#8FB2FF"/>
</linearGradient>
<linearGradient id="paint5_linear_2513_11315" x1="2.94202" y1="48.9963" x2="28.7657" y2="55.003" gradientUnits="userSpaceOnUse">
<stop stop-color="#005A87"/>
<stop offset="1" stop-color="#8FB2FF"/>
</linearGradient>
<linearGradient id="paint6_linear_2513_11315" x1="2.94202" y1="48.9963" x2="28.7657" y2="55.003" gradientUnits="userSpaceOnUse">
<stop stop-color="#005A87"/>
<stop offset="1" stop-color="#8FB2FF"/>
</linearGradient>
<linearGradient id="paint7_linear_2513_11315" x1="81.8357" y1="5.9043" x2="108.525" y2="12.1124" gradientUnits="userSpaceOnUse">
<stop stop-color="#005A87"/>
<stop offset="1" stop-color="#8FB2FF"/>
</linearGradient>
<linearGradient id="paint8_linear_2513_11315" x1="83.5344" y1="7.60913" x2="106.184" y2="12.8775" gradientUnits="userSpaceOnUse">
<stop stop-color="#005A87"/>
<stop offset="1" stop-color="#8FB2FF"/>
</linearGradient>
<linearGradient id="paint9_linear_2513_11315" x1="83.5344" y1="7.60913" x2="106.184" y2="12.8775" gradientUnits="userSpaceOnUse">
<stop stop-color="#005A87"/>
<stop offset="1" stop-color="#8FB2FF"/>
</linearGradient>
<linearGradient id="paint10_linear_2513_11315" x1="37.8982" y1="41.6921" x2="59.1051" y2="46.625" gradientUnits="userSpaceOnUse">
<stop stop-color="#005A87"/>
<stop offset="1" stop-color="#8FB2FF"/>
</linearGradient>
<linearGradient id="paint11_linear_2513_11315" x1="29.1589" y1="26.8411" x2="41.7094" y2="29.7604" gradientUnits="userSpaceOnUse">
<stop stop-color="#005A87"/>
<stop offset="1" stop-color="#8FB2FF"/>
</linearGradient>
<linearGradient id="paint12_linear_2513_11315" x1="89.8461" y1="42.1794" x2="97.2026" y2="43.8906" gradientUnits="userSpaceOnUse">
<stop stop-color="#005A87"/>
<stop offset="1" stop-color="#8FB2FF"/>
</linearGradient>
<linearGradient id="paint13_linear_2513_11315" x1="5.30847" y1="2.80005" x2="129.783" y2="38.8198" gradientUnits="userSpaceOnUse">
<stop stop-color="#005A87"/>
<stop offset="1" stop-color="#8FB2FF"/>
</linearGradient>
</defs>
</svg>
