<svg width="425" height="246" viewBox="0 0 425 246" fill="none" xmlns="http://www.w3.org/2000/svg">
<rect width="425" height="246" rx="14" fill="white"/>
<g clip-path="url(#clip0_1435_5271)">
<path d="M131.621 100.481H144.445V135.165H158.184V146.119H131.621V100.481Z" fill="#231F20"/>
<path d="M163.341 127.667V100.48H176.165V127.405C176.165 130.21 176.689 136.465 183.492 136.465C190.3 136.465 190.825 130.21 190.825 127.405V100.48H203.649V127.667C203.649 132.557 202.599 147.419 183.492 147.419C164.39 147.419 163.341 132.557 163.341 127.667Z" fill="#231F20"/>
<path d="M212.008 100.481H224.832V119.647L238.641 100.481H253.692L236.286 122.58L254.146 146.119H238.117L224.832 126.494V146.119H212.008V100.481ZM312.354 100.479H325.178V146.116H312.354V100.479ZM334.573 100.481H347.397V135.165H361.142V146.119H334.573V100.481Z" fill="#231F20"/>
<mask id="mask0_1435_5271" style="mask-type:luminance" maskUnits="userSpaceOnUse" x="-254" y="-7" width="3471" height="4890">
<path d="M-253.008 4882.75H3216.87V-6.75146H-253.008V4882.75Z" fill="white"/>
</mask>
<g mask="url(#mask0_1435_5271)">
<path d="M291.442 123.332C291.442 114.324 285.881 109.858 279.79 109.858C273.698 109.858 268.137 114.324 268.137 123.332C268.137 132.339 273.698 136.806 279.79 136.806C285.881 136.806 291.442 132.339 291.442 123.332ZM254.614 123.332C254.614 110.857 262.652 98.6486 279.79 98.6486C296.933 98.6486 304.965 110.857 304.965 123.332C304.965 135.807 296.933 148.015 279.79 148.015C262.652 148.015 254.614 135.807 254.614 123.332Z" fill="#231F20"/>
</g>
<path d="M60.9313 93.9976H121.297V154.27H60.9313V93.9976Z" fill="#E22739"/>
<mask id="mask1_1435_5271" style="mask-type:luminance" maskUnits="userSpaceOnUse" x="-254" y="-7" width="3471" height="4890">
<path d="M-253.008 4882.75H3216.87V-6.75146H-253.008V4882.75Z" fill="white"/>
</mask>
<g mask="url(#mask1_1435_5271)">
<path d="M114.619 105.436L107.84 116.361C107.1 117.586 107.21 118.55 107.554 119.479L117.848 145.719H75.2148C71.391 145.719 68.4298 142.658 68.4298 139.011L68.389 104.083C68.494 99.5702 75.0924 99.4948 75.2148 104.065V136.804C75.2032 137.844 76.1183 139.011 77.3249 138.982H108.551L100.466 120.025C100.256 119.299 100.111 118.579 100.111 117.853C100.111 117.052 100.466 115.768 100.997 114.723L108.417 102.55C108.965 101.458 110.072 100.72 111.39 100.668C113.238 100.586 114.817 101.853 114.899 103.81C114.905 104.199 114.811 105.053 114.619 105.436Z" fill="white"/>
<path d="M91.1042 127.495V104.066C91.1042 99.4957 97.7959 99.4609 97.8717 104.066V127.751C97.8717 133.169 93.8088 136.752 88.8308 136.752C83.8587 136.752 79.7842 133.082 79.7842 127.751V104.066C79.7842 99.4957 86.5517 99.4957 86.5517 104.066V127.495C86.5517 130.637 91.1042 130.829 91.1042 127.495Z" fill="white"/>
</g>
</g>
<defs>
<clipPath id="clip0_1435_5271">
<rect width="321" height="93" fill="white" transform="translate(52 76.5)"/>
</clipPath>
</defs>
</svg>
