<svg width="44" height="45" viewBox="0 0 44 45" fill="none" xmlns="http://www.w3.org/2000/svg">
<rect y="0.5" width="44" height="44" rx="8" fill="#3B79FF" fill-opacity="0.1"/>
<path d="M30 20.5C30 25.493 24.461 30.693 22.601 32.299C22.4277 32.4293 22.2168 32.4998 22 32.4998C21.7832 32.4998 21.5723 32.4293 21.399 32.299C19.539 30.693 14 25.493 14 20.5C14 18.3783 14.8429 16.3434 16.3431 14.8431C17.8434 13.3429 19.8783 12.5 22 12.5C24.1217 12.5 26.1566 13.3429 27.6569 14.8431C29.1571 16.3434 30 18.3783 30 20.5Z" stroke="#215B94" stroke-width="2" stroke-linecap="round" stroke-linejoin="round"/>
<path d="M22 23.5C23.6569 23.5 25 22.1569 25 20.5C25 18.8431 23.6569 17.5 22 17.5C20.3431 17.5 19 18.8431 19 20.5C19 22.1569 20.3431 23.5 22 23.5Z" stroke="#215B94" stroke-width="2" stroke-linecap="round" stroke-linejoin="round"/>
</svg>
