<svg width="44" height="45" viewBox="0 0 44 45" fill="none" xmlns="http://www.w3.org/2000/svg">
<rect y="0.5" width="44" height="44" rx="8" fill="#3B79FF" fill-opacity="0.1"/>
<path d="M32.0001 27.4201V30.4201C32.0012 30.6986 31.9441 30.9743 31.8326 31.2294C31.721 31.4846 31.5574 31.7137 31.3521 31.902C31.1469 32.0902 30.9046 32.2336 30.6408 32.3228C30.377 32.412 30.0974 32.4452 29.8201 32.4201C26.7429 32.0857 23.7871 31.0342 21.1901 29.3501C18.7739 27.8148 16.7254 25.7663 15.1901 23.3501C13.5 20.7413 12.4483 17.7711 12.1201 14.6801C12.0951 14.4036 12.1279 14.1249 12.2166 13.8617C12.3052 13.5986 12.4476 13.3568 12.6348 13.1517C12.822 12.9466 13.0499 12.7828 13.3038 12.6706C13.5578 12.5584 13.8324 12.5004 14.1101 12.5001H17.1101C17.5954 12.4953 18.0658 12.6672 18.4338 12.9836C18.8018 13.3001 19.0421 13.7395 19.1101 14.2201C19.2367 15.1802 19.4715 16.1228 19.8101 17.0301C19.9446 17.388 19.9737 17.777 19.894 18.151C19.8142 18.5249 19.6289 18.8682 19.3601 19.1401L18.0901 20.4101C19.5136 22.9136 21.5865 24.9865 24.0901 26.4101L25.3601 25.1401C25.6319 24.8712 25.9752 24.6859 26.3492 24.6062C26.7231 24.5264 27.1121 24.5556 27.4701 24.6901C28.3773 25.0286 29.32 25.2635 30.2801 25.3901C30.7658 25.4586 31.2095 25.7033 31.5266 26.0776C31.8437 26.4519 32.0122 26.9297 32.0001 27.4201Z" stroke="#215B94" stroke-width="2" stroke-linecap="round" stroke-linejoin="round"/>
</svg>
