<svg width="260" height="146" viewBox="0 0 260 146" fill="none" xmlns="http://www.w3.org/2000/svg">
<g filter="url(#filter0_d_2893_22777)">
<path d="M205 36.7534C213.284 36.7534 220 43.4691 220 51.7534V86.9995C220 95.2838 213.284 102 205 102H55C46.7157 102 40 95.2838 40 86.9995V51.7534C40 43.4691 46.7157 36.7534 55 36.7534H108.258C110.189 36.7534 111.899 37.9057 113.042 39.462C116.602 44.3102 122.867 47.5278 130.001 47.5278C137.135 47.5277 143.399 44.3101 146.959 39.462C148.102 37.9057 149.812 36.7534 151.743 36.7534H205Z" fill="white"/>
</g>
<ellipse opacity="0.5" cx="129.496" cy="29" rx="14.0782" ry="14" fill="#215B94"/>
<ellipse cx="129.497" cy="29" rx="12.067" ry="12" fill="#215B94"/>
<g clip-path="url(#clip0_2893_22777)">
<mask id="mask0_2893_22777" style="mask-type:luminance" maskUnits="userSpaceOnUse" x="121" y="21" width="17" height="17">
<path d="M137.3 21.0142H121.211V37.0142H137.3V21.0142Z" fill="white"/>
</mask>
<g mask="url(#mask0_2893_22777)">
<path d="M129.254 24.3477V33.681" stroke="white" stroke-width="2" stroke-linecap="round" stroke-linejoin="round"/>
<path d="M124.562 29.0142H133.948" stroke="white" stroke-width="2" stroke-linecap="round" stroke-linejoin="round"/>
</g>
</g>
<defs>
<filter id="filter0_d_2893_22777" x="0" y="0.753418" width="260" height="145.246" filterUnits="userSpaceOnUse" color-interpolation-filters="sRGB">
<feFlood flood-opacity="0" result="BackgroundImageFix"/>
<feColorMatrix in="SourceAlpha" type="matrix" values="0 0 0 0 0 0 0 0 0 0 0 0 0 0 0 0 0 0 127 0" result="hardAlpha"/>
<feOffset dy="4"/>
<feGaussianBlur stdDeviation="20"/>
<feComposite in2="hardAlpha" operator="out"/>
<feColorMatrix type="matrix" values="0 0 0 0 0.231373 0 0 0 0 0.47451 0 0 0 0 1 0 0 0 0.1 0"/>
<feBlend mode="normal" in2="BackgroundImageFix" result="effect1_dropShadow_2893_22777"/>
<feBlend mode="normal" in="SourceGraphic" in2="effect1_dropShadow_2893_22777" result="shape"/>
</filter>
<clipPath id="clip0_2893_22777">
<rect width="16.6154" height="14.3662" fill="white" transform="translate(121.453 22)"/>
</clipPath>
</defs>
</svg>
