<svg width="224" height="71" viewBox="0 0 224 71" fill="none" xmlns="http://www.w3.org/2000/svg">
<g clip-path="url(#clip0_1321_7309)">
<path fill-rule="evenodd" clip-rule="evenodd" d="M27.2964 67.835C27.593 67.835 27.8391 68.0812 27.8391 68.3923C27.8391 68.6969 27.5993 68.9496 27.2964 68.9496C26.9999 68.9496 26.7538 68.7033 26.7538 68.3923C26.7538 68.0877 26.9999 67.835 27.2964 67.835Z" fill="#097CF6"/>
<path fill-rule="evenodd" clip-rule="evenodd" d="M30.3251 61.4844C30.6217 61.4844 30.8678 61.7306 30.8678 62.0417C30.8678 62.3463 30.628 62.599 30.3251 62.599C30.0286 62.599 29.7825 62.3527 29.7825 62.0417C29.7825 61.7371 30.0286 61.4844 30.3251 61.4844Z" fill="#097CF6"/>
<path fill-rule="evenodd" clip-rule="evenodd" d="M40.1559 51.7051C40.4525 51.7051 40.6986 51.9513 40.6986 52.2624C40.6986 52.567 40.4588 52.8197 40.1559 52.8197C39.8594 52.8197 39.6133 52.5734 39.6133 52.2624C39.6196 51.9578 39.8594 51.7051 40.1559 51.7051Z" fill="#097CF6"/>
<path fill-rule="evenodd" clip-rule="evenodd" d="M39.79 54.1223C40.0865 54.1223 40.3326 54.3686 40.3326 54.6796C40.3326 54.9842 40.0928 55.2369 39.79 55.2369C39.4934 55.2369 39.2473 54.9907 39.2473 54.6796C39.2473 54.3686 39.4871 54.1223 39.79 54.1223Z" fill="#097CF6"/>
<path fill-rule="evenodd" clip-rule="evenodd" d="M31.8711 48.7822C32.1677 48.7822 32.4138 49.0285 32.4138 49.3395C32.4138 49.6441 32.174 49.8969 31.8711 49.8969C31.5746 49.8969 31.3285 49.6506 31.3285 49.3395C31.3285 49.035 31.5746 48.7822 31.8711 48.7822Z" fill="#097CF6"/>
<path fill-rule="evenodd" clip-rule="evenodd" d="M34.4707 51.4524C34.7673 51.4524 35.0134 51.6986 35.0134 52.0097C35.0134 52.3143 34.7736 52.567 34.4707 52.567C34.1742 52.567 33.9281 52.3208 33.9281 52.0097C33.9281 51.6986 34.1679 51.4524 34.4707 51.4524Z" fill="#097CF6"/>
<path fill-rule="evenodd" clip-rule="evenodd" d="M32.1172 51.8347C32.4138 51.8347 32.6599 52.081 32.6599 52.392C32.6599 52.6966 32.4201 52.9493 32.1172 52.9493C31.8207 52.9493 31.5746 52.7031 31.5746 52.392C31.5809 52.081 31.8207 51.8347 32.1172 51.8347Z" fill="#097CF6"/>
<path fill-rule="evenodd" clip-rule="evenodd" d="M39.1652 56.28C39.4618 56.28 39.7079 56.5263 39.7079 56.8373C39.7079 57.1419 39.4681 57.3947 39.1652 57.3947C38.8686 57.3947 38.6226 57.1484 38.6226 56.8373C38.6289 56.5263 38.8686 56.28 39.1652 56.28Z" fill="#097CF6"/>
<path fill-rule="evenodd" clip-rule="evenodd" d="M38.3008 58.3088C38.5974 58.3088 38.8435 58.5551 38.8435 58.8662C38.8435 59.1707 38.6037 59.4235 38.3008 59.4235C38.0043 59.4235 37.7582 59.1772 37.7582 58.8662C37.7582 58.5616 38.0043 58.3088 38.3008 58.3088Z" fill="#097CF6"/>
<path fill-rule="evenodd" clip-rule="evenodd" d="M36.3195 56.1504C36.6161 56.1504 36.8622 56.3966 36.8622 56.7077C36.8622 57.0123 36.6224 57.265 36.3195 57.265C36.0229 57.265 35.7769 57.0188 35.7769 56.7077C35.7832 56.4031 36.0229 56.1504 36.3195 56.1504Z" fill="#097CF6"/>
<path fill-rule="evenodd" clip-rule="evenodd" d="M37.3101 60.0908C37.6067 60.0908 37.8528 60.3371 37.8528 60.6481C37.8528 60.9527 37.613 61.2054 37.3101 61.2054C37.0135 61.2054 36.7675 60.9592 36.7675 60.6481C36.7738 60.3371 37.0135 60.0908 37.3101 60.0908Z" fill="#097CF6"/>
<path fill-rule="evenodd" clip-rule="evenodd" d="M31.8711 54.498C32.1677 54.498 32.4138 54.7443 32.4138 55.0554C32.4138 55.3599 32.174 55.6127 31.8711 55.6127C31.5746 55.6127 31.3285 55.3664 31.3285 55.0554C31.3285 54.7508 31.5746 54.498 31.8711 54.498Z" fill="#097CF6"/>
<path fill-rule="evenodd" clip-rule="evenodd" d="M31.4989 57.0391C31.7955 57.0391 32.0416 57.2853 32.0416 57.5964C32.0416 57.901 31.8018 58.1537 31.4989 58.1537C31.2024 58.1537 30.9563 57.9074 30.9563 57.5964C30.9626 57.2918 31.2024 57.0391 31.4989 57.0391Z" fill="#097CF6"/>
<path fill-rule="evenodd" clip-rule="evenodd" d="M34.9628 60.4727C35.2594 60.4727 35.5055 60.7189 35.5055 61.03C35.5055 61.3345 35.2657 61.5873 34.9628 61.5873C34.6663 61.5873 34.4202 61.341 34.4202 61.03C34.4202 60.7189 34.6663 60.4727 34.9628 60.4727Z" fill="#097CF6"/>
<path fill-rule="evenodd" clip-rule="evenodd" d="M36.0734 61.6133C36.37 61.6133 36.6161 61.8595 36.6161 62.1706C36.6161 62.4752 36.3763 62.7279 36.0734 62.7279C35.7768 62.7279 35.5308 62.4817 35.5308 62.1706C35.5371 61.8595 35.7768 61.6133 36.0734 61.6133Z" fill="#097CF6"/>
<path fill-rule="evenodd" clip-rule="evenodd" d="M34.7168 63.1365C35.0134 63.1365 35.2595 63.3827 35.2595 63.6938C35.2595 64.0048 35.0197 64.2511 34.7168 64.2511C34.4203 64.2511 34.1742 64.0048 34.1742 63.6938C34.1742 63.3827 34.4203 63.1365 34.7168 63.1365Z" fill="#097CF6"/>
<path fill-rule="evenodd" clip-rule="evenodd" d="M33.2341 64.4062C33.5306 64.4062 33.7767 64.6525 33.7767 64.9636C33.7767 65.2681 33.5369 65.5209 33.2341 65.5209C32.9375 65.5209 32.6914 65.2746 32.6914 64.9636C32.6914 64.659 32.9312 64.4062 33.2341 64.4062Z" fill="#097CF6"/>
<path fill-rule="evenodd" clip-rule="evenodd" d="M31.625 65.5471C31.9216 65.5471 32.1677 65.7934 32.1677 66.1044C32.1677 66.409 31.9279 66.6617 31.625 66.6617C31.3285 66.6617 31.0824 66.4155 31.0824 66.1044C31.0824 65.7999 31.3222 65.5471 31.625 65.5471Z" fill="#097CF6"/>
<path fill-rule="evenodd" clip-rule="evenodd" d="M29.5175 63.5186C29.8141 63.5186 30.0602 63.7648 30.0602 64.0759C30.0602 64.3804 29.8204 64.6332 29.5175 64.6332C29.2209 64.6332 28.9749 64.3869 28.9749 64.0759C28.9812 63.7648 29.2209 63.5186 29.5175 63.5186Z" fill="#097CF6"/>
<path fill-rule="evenodd" clip-rule="evenodd" d="M28.6531 65.4241C28.9497 65.4241 29.1958 65.6703 29.1958 65.9814C29.1958 66.286 28.956 66.5387 28.6531 66.5387C28.3566 66.5387 28.1105 66.2924 28.1105 65.9814C28.1168 65.6703 28.3566 65.4241 28.6531 65.4241Z" fill="#097CF6"/>
<path fill-rule="evenodd" clip-rule="evenodd" d="M29.8898 66.6941C30.1864 66.6941 30.4325 66.9403 30.4325 67.2514C30.4325 67.556 30.1927 67.8087 29.8898 67.8087C29.5933 67.8087 29.3472 67.5625 29.3472 67.2514C29.3535 66.9403 29.5933 66.6941 29.8898 66.6941Z" fill="#097CF6"/>
<path fill-rule="evenodd" clip-rule="evenodd" d="M31.0068 59.3262C31.3033 59.3262 31.5494 59.5724 31.5494 59.8835C31.5494 60.1881 31.3096 60.4408 31.0068 60.4408C30.7102 60.4408 30.4641 60.1945 30.4641 59.8835C30.4641 59.5789 30.7102 59.3262 31.0068 59.3262Z" fill="#097CF6"/>
<path fill-rule="evenodd" clip-rule="evenodd" d="M40.1559 45.9893C40.4525 45.9893 40.6986 46.2355 40.6986 46.5466C40.6986 46.8511 40.4588 47.1039 40.1559 47.1039C39.8594 47.1039 39.6133 46.8576 39.6133 46.5466C39.6133 46.2355 39.8594 45.9893 40.1559 45.9893Z" fill="#097CF6"/>
<path fill-rule="evenodd" clip-rule="evenodd" d="M35.2089 46.502C35.5055 46.502 35.7516 46.7482 35.7516 47.0593C35.7516 47.3638 35.5118 47.6166 35.2089 47.6166C34.9123 47.6166 34.6663 47.3703 34.6663 47.0593C34.6726 46.7482 34.9123 46.502 35.2089 46.502Z" fill="#097CF6"/>
<path fill-rule="evenodd" clip-rule="evenodd" d="M31.2527 45.3545C31.5493 45.3545 31.7954 45.6007 31.7954 45.9118C31.7954 46.2164 31.5556 46.4691 31.2527 46.4691C30.9562 46.4691 30.7101 46.2229 30.7101 45.9118C30.7101 45.6072 30.9562 45.3545 31.2527 45.3545Z" fill="#097CF6"/>
<path fill-rule="evenodd" clip-rule="evenodd" d="M32.8617 47.0066C33.1583 47.0066 33.4044 47.2528 33.4044 47.5639C33.4044 47.8685 33.1646 48.1212 32.8617 48.1212C32.5652 48.1212 32.3191 47.875 32.3191 47.5639C32.3191 47.2528 32.5589 47.0066 32.8617 47.0066Z" fill="#097CF6"/>
<path fill-rule="evenodd" clip-rule="evenodd" d="M39.0456 47.5117C39.3421 47.5117 39.5882 47.758 39.5882 48.069C39.5882 48.3736 39.3485 48.6263 39.0456 48.6263C38.749 48.6263 38.5029 48.3801 38.5029 48.069C38.5029 47.7645 38.749 47.5117 39.0456 47.5117Z" fill="#097CF6"/>
<path fill-rule="evenodd" clip-rule="evenodd" d="M40.402 48.9121C40.6986 48.9121 40.9447 49.1584 40.9447 49.4694C40.9447 49.774 40.7049 50.0267 40.402 50.0267C40.1055 50.0267 39.8594 49.7805 39.8594 49.4694C39.8657 49.1584 40.1055 48.9121 40.402 48.9121Z" fill="#097CF6"/>
<path fill-rule="evenodd" clip-rule="evenodd" d="M29.8898 41.1611C30.1864 41.1611 30.4325 41.4074 30.4325 41.7184C30.4325 42.023 30.1927 42.2758 29.8898 42.2758C29.5933 42.2758 29.3472 42.0295 29.3472 41.7184C29.3535 41.4139 29.5933 41.1611 29.8898 41.1611Z" fill="#097CF6"/>
<path fill-rule="evenodd" clip-rule="evenodd" d="M39.7836 42.7363C40.0802 42.7363 40.3263 42.9826 40.3263 43.2936C40.3263 43.5982 40.0865 43.8509 39.7836 43.8509C39.4871 43.8509 39.241 43.6047 39.241 43.2936C39.2473 42.9826 39.4871 42.7363 39.7836 42.7363Z" fill="#097CF6"/>
<path fill-rule="evenodd" clip-rule="evenodd" d="M36.3195 42.0559C36.6161 42.0559 36.8622 42.3022 36.8622 42.6132C36.8622 42.9178 36.6224 43.1705 36.3195 43.1705C36.0229 43.1705 35.7769 42.9243 35.7769 42.6132C35.7832 42.3022 36.0229 42.0559 36.3195 42.0559Z" fill="#097CF6"/>
<path fill-rule="evenodd" clip-rule="evenodd" d="M32.7355 41.0837C33.0321 41.0837 33.2782 41.33 33.2782 41.6411C33.2782 41.9456 33.0384 42.1984 32.7355 42.1984C32.439 42.1984 32.1929 41.9521 32.1929 41.6411C32.1929 41.33 32.439 41.0837 32.7355 41.0837Z" fill="#097CF6"/>
<path fill-rule="evenodd" clip-rule="evenodd" d="M29.2715 37.4805C29.5681 37.4805 29.8142 37.7267 29.8142 38.0378C29.8142 38.3424 29.5744 38.5951 29.2715 38.5951C28.975 38.5951 28.7289 38.3488 28.7289 38.0378C28.7352 37.7267 28.975 37.4805 29.2715 37.4805Z" fill="#097CF6"/>
<path fill-rule="evenodd" clip-rule="evenodd" d="M29.9529 35.3291C30.2495 35.3291 30.4956 35.5754 30.4956 35.8864C30.4956 36.191 30.2558 36.4437 29.9529 36.4437C29.6564 36.4437 29.4103 36.1975 29.4103 35.8864C29.4103 35.5818 29.6564 35.3291 29.9529 35.3291Z" fill="#097CF6"/>
<path fill-rule="evenodd" clip-rule="evenodd" d="M38.7363 38.8809C39.0328 38.8809 39.2789 39.1271 39.2789 39.4382C39.2789 39.7427 39.0391 39.9955 38.7363 39.9955C38.4397 39.9955 38.1936 39.7492 38.1936 39.4382C38.1936 39.1271 38.4397 38.8809 38.7363 38.8809Z" fill="#097CF6"/>
<path fill-rule="evenodd" clip-rule="evenodd" d="M33.9723 36.7158C34.2689 36.7158 34.515 36.9621 34.515 37.2731C34.515 37.5777 34.2752 37.8304 33.9723 37.8304C33.6758 37.8304 33.4297 37.5842 33.4297 37.2731C33.436 36.9686 33.6758 36.7158 33.9723 36.7158Z" fill="#097CF6"/>
<path fill-rule="evenodd" clip-rule="evenodd" d="M30.4828 33.165C30.7794 33.165 31.0255 33.4113 31.0255 33.7224C31.0255 34.0269 30.7857 34.2797 30.4828 34.2797C30.1863 34.2797 29.9402 34.0334 29.9402 33.7224C29.9402 33.4113 30.18 33.165 30.4828 33.165Z" fill="#097CF6"/>
<path fill-rule="evenodd" clip-rule="evenodd" d="M36.982 34.0332C37.2785 34.0332 37.5246 34.2795 37.5246 34.5905C37.5246 34.8951 37.2849 35.1478 36.982 35.1478C36.6854 35.1478 36.4393 34.9016 36.4393 34.5905C36.4393 34.2795 36.6791 34.0332 36.982 34.0332Z" fill="#097CF6"/>
<path fill-rule="evenodd" clip-rule="evenodd" d="M31.0257 30.8318C31.3222 30.8318 31.5683 31.078 31.5683 31.3891C31.5683 31.6937 31.3286 31.9464 31.0257 31.9464C30.7291 31.9464 30.483 31.7002 30.483 31.3891C30.483 31.078 30.7291 30.8318 31.0257 30.8318Z" fill="#097CF6"/>
<path fill-rule="evenodd" clip-rule="evenodd" d="M32.6156 32.5293C32.9122 32.5293 33.1583 32.7756 33.1583 33.0866C33.1583 33.3912 32.9185 33.6439 32.6156 33.6439C32.3191 33.6439 32.073 33.3977 32.073 33.0866C32.073 32.7756 32.3128 32.5293 32.6156 32.5293Z" fill="#097CF6"/>
<path fill-rule="evenodd" clip-rule="evenodd" d="M35.3605 31.2595C35.6571 31.2595 35.9032 31.5058 35.9032 31.8168C35.9032 32.1214 35.6634 32.3741 35.3605 32.3741C35.064 32.3741 34.8179 32.1279 34.8179 31.8168C34.8179 31.5058 35.064 31.2595 35.3605 31.2595Z" fill="#097CF6"/>
<path fill-rule="evenodd" clip-rule="evenodd" d="M31.5619 28.5254C31.8585 28.5254 32.1046 28.7716 32.1046 29.0827C32.1046 29.3873 31.8648 29.64 31.5619 29.64C31.2654 29.64 31.0193 29.3938 31.0193 29.0827C31.0193 28.7781 31.2654 28.5254 31.5619 28.5254Z" fill="#097CF6"/>
<path fill-rule="evenodd" clip-rule="evenodd" d="M33.9723 28.9717C34.2689 28.9717 34.515 29.2179 34.515 29.529C34.515 29.8336 34.2752 30.0863 33.9723 30.0863C33.6758 30.0863 33.4297 29.84 33.4297 29.529C33.436 29.2179 33.6758 28.9717 33.9723 28.9717Z" fill="#097CF6"/>
<path fill-rule="evenodd" clip-rule="evenodd" d="M31.9972 26.4316C32.2938 26.4316 32.5399 26.6779 32.5399 26.989C32.5399 27.2935 32.3001 27.5463 31.9972 27.5463C31.7007 27.5463 31.4546 27.3 31.4546 26.989C31.4546 26.6779 31.6944 26.4316 31.9972 26.4316Z" fill="#097CF6"/>
<path fill-rule="evenodd" clip-rule="evenodd" d="M17.8947 22.4912C18.1913 22.4912 18.4373 22.7375 18.4373 23.0485C18.4373 23.3531 18.1976 23.6058 17.8947 23.6058C17.5981 23.6058 17.3521 23.3596 17.3521 23.0485C17.3584 22.7439 17.5981 22.4912 17.8947 22.4912Z" fill="#097CF6"/>
<path fill-rule="evenodd" clip-rule="evenodd" d="M18.3932 24.0146C18.6898 24.0146 18.9359 24.2609 18.9359 24.572C18.9359 24.8765 18.6961 25.1293 18.3932 25.1293C18.0967 25.1293 17.8506 24.883 17.8506 24.572C17.8506 24.2674 18.0904 24.0146 18.3932 24.0146Z" fill="#097CF6"/>
<path fill-rule="evenodd" clip-rule="evenodd" d="M16.6581 23.3789C16.9547 23.3789 17.2008 23.6252 17.2008 23.9362C17.2008 24.2408 16.961 24.4935 16.6581 24.4935C16.3616 24.4935 16.1155 24.2473 16.1155 23.9362C16.1218 23.6316 16.3616 23.3789 16.6581 23.3789Z" fill="#097CF6"/>
<path fill-rule="evenodd" clip-rule="evenodd" d="M15.3014 24.7793C15.598 24.7793 15.8441 25.0256 15.8441 25.3366C15.8441 25.6412 15.6043 25.8939 15.3014 25.8939C15.0049 25.8939 14.7588 25.6477 14.7588 25.3366C14.7588 25.0256 15.0049 24.7793 15.3014 24.7793Z" fill="#097CF6"/>
<path fill-rule="evenodd" clip-rule="evenodd" d="M18.0209 25.7969C18.3175 25.7969 18.5636 26.0431 18.5636 26.3542C18.5636 26.6588 18.3238 26.9115 18.0209 26.9115C17.7244 26.9115 17.4783 26.6652 17.4783 26.3542C17.4783 26.0431 17.7244 25.7969 18.0209 25.7969Z" fill="#097CF6"/>
<path fill-rule="evenodd" clip-rule="evenodd" d="M13.8123 26.1787C14.1089 26.1787 14.3549 26.425 14.3549 26.736C14.3549 27.0406 14.1152 27.2933 13.8123 27.2933C13.5157 27.2933 13.2697 27.0471 13.2697 26.736C13.276 26.425 13.5157 26.1787 13.8123 26.1787Z" fill="#097CF6"/>
<path fill-rule="evenodd" clip-rule="evenodd" d="M17.5226 27.0664C17.8192 27.0664 18.0653 27.3127 18.0653 27.6237C18.0653 27.9283 17.8255 28.181 17.5226 28.181C17.2261 28.181 16.98 27.9348 16.98 27.6237C16.9863 27.3127 17.2261 27.0664 17.5226 27.0664Z" fill="#097CF6"/>
<path fill-rule="evenodd" clip-rule="evenodd" d="M16.5634 28.9717C16.86 28.9717 17.106 29.2179 17.106 29.529C17.106 29.8336 16.8663 30.0863 16.5634 30.0863C16.2668 30.0863 16.0208 29.84 16.0208 29.529C16.0208 29.2179 16.2668 28.9717 16.5634 28.9717Z" fill="#097CF6"/>
<path fill-rule="evenodd" clip-rule="evenodd" d="M15.5475 30.748C15.8441 30.748 16.0902 30.9943 16.0902 31.3054C16.0902 31.6099 15.8504 31.8627 15.5475 31.8627C15.251 31.8627 15.0049 31.6164 15.0049 31.3054C15.0049 30.9943 15.251 30.748 15.5475 30.748Z" fill="#097CF6"/>
<path fill-rule="evenodd" clip-rule="evenodd" d="M12.4556 27.7019C12.7522 27.7019 12.9983 27.9482 12.9983 28.2592C12.9983 28.5638 12.7585 28.8165 12.4556 28.8165C12.159 28.8165 11.913 28.5703 11.913 28.2592C11.913 27.9482 12.159 27.7019 12.4556 27.7019Z" fill="#097CF6"/>
<path fill-rule="evenodd" clip-rule="evenodd" d="M11.0927 29.3542C11.3893 29.3542 11.6353 29.6005 11.6353 29.9116C11.6353 30.2161 11.3956 30.4689 11.0927 30.4689C10.7961 30.4689 10.55 30.2226 10.55 29.9116C10.5564 29.6005 10.7961 29.3542 11.0927 29.3542Z" fill="#097CF6"/>
<path fill-rule="evenodd" clip-rule="evenodd" d="M13.1939 30.3652C13.4905 30.3652 13.7365 30.6115 13.7365 30.9225C13.7365 31.2271 13.4968 31.4799 13.1939 31.4799C12.8973 31.4799 12.6512 31.2336 12.6512 30.9225C12.6576 30.618 12.8973 30.3652 13.1939 30.3652Z" fill="#097CF6"/>
<path fill-rule="evenodd" clip-rule="evenodd" d="M14.3107 32.7822C14.6073 32.7822 14.8534 33.0285 14.8534 33.3395C14.8534 33.6441 14.6136 33.8969 14.3107 33.8969C14.0142 33.8969 13.7681 33.6506 13.7681 33.3395C13.7681 33.0285 14.0142 32.7822 14.3107 32.7822Z" fill="#097CF6"/>
<path fill-rule="evenodd" clip-rule="evenodd" d="M10.0201 31.2207C10.3166 31.2207 10.5627 31.467 10.5627 31.778C10.5627 32.0826 10.3229 32.3353 10.0201 32.3353C9.7235 32.3353 9.47742 32.0891 9.47742 31.778C9.47742 31.467 9.71719 31.2207 10.0201 31.2207Z" fill="#097CF6"/>
<path fill-rule="evenodd" clip-rule="evenodd" d="M12.3295 33.541C12.6261 33.541 12.8722 33.7873 12.8722 34.0983C12.8722 34.4029 12.6324 34.6556 12.3295 34.6556C12.033 34.6556 11.7869 34.4094 11.7869 34.0983C11.7932 33.7938 12.033 33.541 12.3295 33.541Z" fill="#097CF6"/>
<path fill-rule="evenodd" clip-rule="evenodd" d="M13.4462 34.6875C13.7428 34.6875 13.9889 34.9338 13.9889 35.2448C13.9889 35.5494 13.7491 35.8021 13.4462 35.8021C13.1496 35.8021 12.9036 35.5559 12.9036 35.2448C12.9036 34.9338 13.1496 34.6875 13.4462 34.6875Z" fill="#097CF6"/>
<path fill-rule="evenodd" clip-rule="evenodd" d="M12.5818 36.7158C12.8784 36.7158 13.1245 36.9621 13.1245 37.2731C13.1245 37.5777 12.8847 37.8304 12.5818 37.8304C12.2853 37.8304 12.0392 37.5842 12.0392 37.2731C12.0392 36.9686 12.279 36.7158 12.5818 36.7158Z" fill="#097CF6"/>
<path fill-rule="evenodd" clip-rule="evenodd" d="M9.11784 33.165C9.41441 33.165 9.66049 33.4113 9.66049 33.7224C9.66049 34.0269 9.42072 34.2797 9.11784 34.2797C8.82128 34.2797 8.5752 34.0334 8.5752 33.7224C8.5752 33.4113 8.81497 33.165 9.11784 33.165Z" fill="#097CF6"/>
<path fill-rule="evenodd" clip-rule="evenodd" d="M8.61931 35.958C8.91587 35.958 9.16196 36.2043 9.16196 36.5153C9.16196 36.8199 8.92218 37.0726 8.61931 37.0726C8.32275 37.0726 8.07666 36.8264 8.07666 36.5153C8.08297 36.2043 8.32275 35.958 8.61931 35.958Z" fill="#097CF6"/>
<path fill-rule="evenodd" clip-rule="evenodd" d="M11.8373 39.2559C12.1339 39.2559 12.38 39.5021 12.38 39.8132C12.38 40.1177 12.1402 40.3705 11.8373 40.3705C11.5408 40.3705 11.2947 40.1242 11.2947 39.8132C11.2947 39.5086 11.5408 39.2559 11.8373 39.2559Z" fill="#097CF6"/>
<path fill-rule="evenodd" clip-rule="evenodd" d="M8.74553 38.8809C9.04209 38.8809 9.28818 39.1271 9.28818 39.4382C9.28818 39.7427 9.0484 39.9955 8.74553 39.9955C8.44897 39.9955 8.20288 39.7492 8.20288 39.4382C8.20288 39.1271 8.44897 38.8809 8.74553 38.8809Z" fill="#097CF6"/>
<path fill-rule="evenodd" clip-rule="evenodd" d="M9.98222 40.1506C10.2788 40.1506 10.5249 40.3969 10.5249 40.7079C10.5249 41.0125 10.2851 41.2653 9.98222 41.2653C9.68566 41.2653 9.43958 41.019 9.43958 40.7079C9.43958 40.3969 9.68566 40.1506 9.98222 40.1506Z" fill="#097CF6"/>
<path fill-rule="evenodd" clip-rule="evenodd" d="M10.6005 45.8662C10.8971 45.8662 11.1432 46.1125 11.1432 46.4235C11.1432 46.7281 10.9034 46.9808 10.6005 46.9808C10.3039 46.9808 10.0579 46.7346 10.0579 46.4235C10.0579 46.1125 10.3039 45.8662 10.6005 45.8662Z" fill="#097CF6"/>
<path fill-rule="evenodd" clip-rule="evenodd" d="M11.2189 41.4207C11.5155 41.4207 11.7616 41.6669 11.7616 41.978C11.7616 42.2825 11.5218 42.5353 11.2189 42.5353C10.9224 42.5353 10.6763 42.289 10.6763 41.978C10.6763 41.6669 10.9224 41.4207 11.2189 41.4207Z" fill="#097CF6"/>
<path d="M37.0578 34.4868C37.1209 34.5516 37.1209 34.6617 37.0578 34.7265C36.9947 34.7914 36.8874 34.7914 36.8243 34.7265L35.3415 33.2037C35.2784 33.1389 35.2784 33.0287 35.3415 32.9639C35.4046 32.8991 35.5119 32.8991 35.575 32.9639L37.0578 34.4868Z" fill="#097CF6"/>
<path d="M31.5051 29.264C31.442 29.1992 31.442 29.089 31.5051 29.0242C31.5682 28.9594 31.6755 28.9594 31.7386 29.0242L34.7042 32.07C34.7357 32.1024 34.7547 32.1477 34.7547 32.1931V34.9213L38.9129 39.315C38.976 39.3798 38.976 39.49 38.9129 39.5548C38.8498 39.6196 38.7425 39.6196 38.6794 39.5548L34.4833 35.1157C34.4455 35.0833 34.4266 35.038 34.4266 34.9861V32.2644L31.5051 29.264Z" fill="#097CF6"/>
<path d="M39.9036 43.1256C39.9667 43.1904 39.9667 43.3006 39.9036 43.3654C39.8405 43.4302 39.7332 43.4302 39.6701 43.3654L36.1303 39.7299H33.354C33.3035 39.7299 33.2593 39.7105 33.2278 39.6716L29.77 35.9907C29.7069 35.9194 29.7069 35.8157 29.7763 35.7509C29.8394 35.6861 29.9466 35.6861 30.0097 35.7574L33.4234 39.3864H36.1997C36.2439 39.3864 36.288 39.4059 36.3196 39.4383L39.9036 43.1256Z" fill="#097CF6"/>
<path d="M40.2758 52.1457C40.3389 52.2105 40.3389 52.3207 40.2695 52.3855C40.2064 52.4503 40.0991 52.4503 40.0361 52.379L36.818 48.9509C36.7865 48.9185 36.7739 48.8731 36.7739 48.8342V46.1125L35.0197 44.3109H32.3696C32.3191 44.3109 32.2749 44.2915 32.2434 44.2526L29.7825 41.8484C29.7194 41.7836 29.7131 41.6734 29.7762 41.6086C29.8393 41.5438 29.9466 41.5373 30.0097 41.6021L32.4327 43.9675H35.0891C35.1333 43.9675 35.1775 43.9869 35.209 44.0193L37.0641 45.9245C37.0957 45.9569 37.1146 46.0023 37.1146 46.0477V48.7759L40.2758 52.1457Z" fill="#097CF6"/>
<path d="M40.2759 46.4232C40.339 46.488 40.339 46.5982 40.2759 46.663C40.2128 46.7278 40.1055 46.7278 40.0424 46.663L36.206 42.7229C36.1429 42.6581 36.1429 42.548 36.206 42.4832C36.2691 42.4184 36.3764 42.4184 36.4395 42.4832L40.2759 46.4232Z" fill="#097CF6"/>
<path d="M39.2852 56.7148C39.3483 56.7796 39.3483 56.8898 39.2852 56.9546C39.2221 57.0194 39.1149 57.0194 39.0518 56.9546L36.755 54.5893H34.1048C34.0544 54.5893 34.0102 54.5634 33.9786 54.531L32.01 52.5091C31.9469 52.4443 31.9469 52.3341 32.01 52.2693C32.0731 52.2045 32.1803 52.2045 32.2434 52.2693L34.1743 54.2523H36.8244C36.8686 54.2523 36.9127 54.2717 36.9443 54.3041L39.2852 56.7148Z" fill="#097CF6"/>
<path d="M39.9035 54.5559C39.9666 54.6207 39.9666 54.7309 39.9035 54.8022C39.8404 54.867 39.7331 54.867 39.67 54.8022L35.0954 50.1039C35.0639 50.0715 35.0449 50.0261 35.0449 49.9808V47.0581C35.0449 46.9609 35.1206 46.8896 35.209 46.8896C35.3036 46.8896 35.373 46.9674 35.373 47.0581V49.9095L39.9035 54.5559Z" fill="#097CF6"/>
<path d="M38.4206 58.7492C38.4837 58.8205 38.4774 58.9242 38.4143 58.989C38.3449 59.0538 38.244 59.0538 38.1809 58.9825L36.1996 56.8246C36.1365 56.7533 36.1428 56.6496 36.2059 56.5848C36.2753 56.52 36.3762 56.5265 36.4393 56.5913L38.4206 58.7492Z" fill="#097CF6"/>
<path d="M40.5219 49.3458C40.585 49.4106 40.585 49.5208 40.5219 49.5856C40.4588 49.6504 40.3515 49.6504 40.2884 49.5856L38.9255 48.1858C38.8624 48.121 38.8624 48.0109 38.9255 47.9461C38.9886 47.8813 39.0959 47.8813 39.159 47.9461L40.5219 49.3458Z" fill="#097CF6"/>
<path d="M34.8368 63.5708C34.8999 63.6356 34.8999 63.7457 34.8368 63.8105C34.7737 63.8753 34.6664 63.8753 34.6033 63.8105L33.3666 62.5404C33.3351 62.508 33.3161 62.4626 33.3161 62.4237V59.5789L31.3916 57.7255C31.3222 57.6607 31.3222 57.5505 31.3853 57.4857C31.4484 57.4144 31.5557 57.4144 31.6188 57.4792L33.5875 59.378C33.6253 59.4104 33.6505 59.4557 33.6505 59.5076V62.3589L34.8368 63.5708Z" fill="#097CF6"/>
<path d="M36.1933 62.0476C36.2564 62.1124 36.2564 62.2225 36.1933 62.2873C36.1302 62.3521 36.023 62.3521 35.9599 62.2873L34.8493 61.1468C34.7862 61.082 34.7862 60.9718 34.8493 60.907C34.9124 60.8422 35.0197 60.8422 35.0828 60.907L36.1933 62.0476Z" fill="#097CF6"/>
<path d="M32.7354 32.9642C32.7985 33.0355 32.7922 33.1391 32.7228 33.2039C32.6534 33.2687 32.5524 33.2623 32.4893 33.191L31.0065 31.5385C30.9434 31.4672 30.9497 31.357 31.0191 31.2987C31.0886 31.2339 31.1895 31.2404 31.2526 31.3117L32.7354 32.9642Z" fill="#097CF6"/>
<path d="M32.8555 41.4725C32.9186 41.5373 32.9186 41.6475 32.8555 41.7123C32.7924 41.7771 32.6851 41.7771 32.622 41.7123L29.1579 38.1546C29.0948 38.0898 29.0948 37.9796 29.1579 37.9148C29.221 37.85 29.3283 37.85 29.3914 37.9148L32.8555 41.4725Z" fill="#097CF6"/>
<path d="M33.3476 64.841C33.4107 64.9058 33.4107 65.016 33.3476 65.0808C33.2845 65.1456 33.1773 65.1456 33.1142 65.0808L31.5052 63.4283C31.4736 63.3959 31.4547 63.3505 31.4547 63.3052V60.5834L30.8868 60.0002C30.8237 59.9354 30.8237 59.8252 30.8868 59.7539C30.9499 59.6891 31.0572 59.6891 31.1203 59.7539L31.7386 60.389C31.7702 60.4214 31.7891 60.4668 31.7891 60.5121V63.2339L33.3476 64.841Z" fill="#097CF6"/>
<path d="M30.0097 67.1283C30.0728 67.1931 30.0728 67.3033 30.0097 67.3681C29.9466 67.4329 29.8393 67.4329 29.7762 67.3681L28.5395 66.098C28.4764 66.0331 28.4764 65.923 28.5395 65.8582C28.6026 65.7934 28.7099 65.7934 28.773 65.8582L30.0097 67.1283Z" fill="#097CF6"/>
<path d="M31.7386 65.9817C31.808 66.0465 31.808 66.1567 31.7449 66.2215C31.6818 66.2927 31.5746 66.2927 31.5115 66.2279L29.4103 64.1931C29.3409 64.1283 29.3409 64.0181 29.404 63.9533C29.4671 63.8885 29.5744 63.882 29.6375 63.9469L31.7386 65.9817Z" fill="#097CF6"/>
<path d="M34.0922 37.15C34.1553 37.2148 34.1553 37.325 34.0922 37.3963C34.0291 37.4611 33.9218 37.4611 33.8587 37.3963L30.3946 33.8386C30.3315 33.7738 30.3315 33.6636 30.3946 33.5923C30.4577 33.5275 30.565 33.5275 30.6281 33.5923L34.0922 37.15Z" fill="#097CF6"/>
<path d="M37.4301 60.5243C37.4932 60.5891 37.4932 60.6993 37.4301 60.7641C37.367 60.8289 37.2597 60.8289 37.1966 60.7641L31.7575 55.178C31.6944 55.1132 31.6944 55.0031 31.7575 54.9383C31.8206 54.8734 31.9279 54.8734 31.991 54.9383L37.4301 60.5243Z" fill="#097CF6"/>
<path d="M34.5844 51.8867C34.6475 51.9515 34.6475 52.0617 34.5844 52.1265C34.5213 52.1913 34.4141 52.1913 34.351 52.1265L31.7513 49.4566C31.6882 49.3918 31.6882 49.2816 31.7513 49.2168C31.8144 49.152 31.9217 49.152 31.9848 49.2168L34.5844 51.8867Z" fill="#097CF6"/>
<path d="M32.9753 47.4413C33.0384 47.5061 33.0384 47.6163 32.9753 47.6811C32.9122 47.7459 32.8049 47.7459 32.7418 47.6811L31.1328 46.0286C31.0697 45.9638 31.0697 45.8536 31.1328 45.7888C31.1959 45.724 31.3031 45.724 31.3662 45.7888L32.9753 47.4413Z" fill="#097CF6"/>
<path d="M18.021 26.1793C18.1157 26.1793 18.1851 26.2571 18.1851 26.3478C18.1851 26.445 18.1094 26.5163 18.021 26.5163H16.1659C16.1091 26.5163 16.065 26.4904 16.0334 26.445L15.1753 25.4406C15.1122 25.3693 15.1248 25.2591 15.1879 25.2008C15.2573 25.136 15.3646 25.149 15.4214 25.2138L16.2416 26.1793H18.021Z" fill="#097CF6"/>
<path d="M17.5224 27.4493C17.6171 27.4493 17.6865 27.527 17.6865 27.6242C17.6865 27.7214 17.6108 27.7927 17.5224 27.7927H14.6767C14.6325 27.7927 14.5883 27.7733 14.5568 27.7409L13.6923 26.8531C13.6292 26.7883 13.6292 26.6781 13.6923 26.6133C13.7554 26.5485 13.8627 26.5485 13.9258 26.6133L14.7398 27.4493H17.5224Z" fill="#097CF6"/>
<path d="M14.4307 33.2168C14.4938 33.2816 14.4938 33.3918 14.4307 33.4566C14.3676 33.5214 14.2603 33.5214 14.1972 33.4566L13.2507 32.491H10.4744C10.4176 32.491 10.3608 32.4586 10.3356 32.4133L9.84973 31.7912C9.79294 31.7199 9.80556 31.6097 9.87497 31.5514C9.94438 31.4931 10.0516 31.506 10.1084 31.5773L10.5501 32.1476H13.3138C13.358 32.1476 13.4022 32.167 13.4337 32.1994L14.4307 33.2168Z" fill="#097CF6"/>
<path d="M18.3932 24.4027C18.4879 24.4027 18.5573 24.4805 18.5573 24.5777C18.5573 24.6684 18.4816 24.7462 18.3932 24.7462H17.2827C17.2322 24.7462 17.188 24.7202 17.1565 24.6878L16.5507 24.0657C16.4876 24.0009 16.4876 23.8908 16.5507 23.8259C16.6138 23.7611 16.7211 23.7611 16.7842 23.8259L17.3521 24.4092H18.3932V24.4027Z" fill="#097CF6"/>
<path d="M10.102 40.585C10.1651 40.6498 10.1651 40.76 10.102 40.8248C10.0389 40.8896 9.93163 40.8896 9.86853 40.8248L8.6318 39.5546C8.5687 39.4898 8.5687 39.3797 8.6318 39.3084C8.6949 39.2436 8.80216 39.2436 8.86526 39.3084L10.102 40.585Z" fill="#097CF6"/>
<path d="M10.9665 44.2655C11.0296 44.3303 11.0296 44.4405 10.9665 44.5118C10.9034 44.5766 10.7961 44.5766 10.733 44.5118L9.37008 43.112C9.30698 43.0472 9.30698 42.937 9.37008 42.8657C9.43318 42.8009 9.54045 42.8009 9.60354 42.8657L10.9665 44.2655Z" fill="#097CF6"/>
<path d="M12.6955 37.15C12.7586 37.2148 12.7586 37.325 12.6955 37.3963C12.6324 37.4611 12.5251 37.4611 12.462 37.3963L8.99789 33.8386C8.93479 33.7738 8.93479 33.6636 8.99789 33.5923C9.06098 33.5275 9.16825 33.5275 9.23135 33.5923L12.6955 37.15Z" fill="#097CF6"/>
<path d="M11.9572 39.6907C12.0203 39.7556 12.0203 39.8657 11.9572 39.9305C11.8941 39.9953 11.7868 39.9953 11.7237 39.9305L8.5057 36.6255C8.4426 36.5607 8.4426 36.4506 8.5057 36.3858C8.5688 36.321 8.67606 36.321 8.73916 36.3858L11.9572 39.6907Z" fill="#097CF6"/>
<path d="M15.6611 31.1821C15.7242 31.2469 15.7305 31.357 15.6674 31.4219C15.6043 31.4867 15.497 31.4931 15.4339 31.4283L12.3421 28.3826C12.279 28.3178 12.2727 28.2076 12.3358 28.1428C12.3989 28.078 12.5062 28.0715 12.5693 28.1363L15.6611 31.1821Z" fill="#097CF6"/>
<path fill-rule="evenodd" clip-rule="evenodd" d="M10.8466 43.8311C11.1432 43.8311 11.3893 44.0773 11.3893 44.3884C11.3893 44.6929 11.1495 44.9457 10.8466 44.9457C10.55 44.9457 10.304 44.6994 10.304 44.3884C10.304 44.0773 10.55 43.8311 10.8466 43.8311Z" fill="#097CF6"/>
<path fill-rule="evenodd" clip-rule="evenodd" d="M9.48369 42.4316C9.78025 42.4316 10.0263 42.6779 10.0263 42.989C10.0263 43.2935 9.78656 43.5463 9.48369 43.5463C9.18712 43.5463 8.94104 43.3 8.94104 42.989C8.94735 42.6844 9.18712 42.4316 9.48369 42.4316Z" fill="#097CF6"/>
<path d="M13.0741 30.7537C13.1687 30.7537 13.2381 30.8315 13.2381 30.9287C13.2381 31.0194 13.1624 31.0972 13.0741 31.0972H11.9635C11.9131 31.0972 11.8689 31.0713 11.8373 31.0388L10.9792 30.1575C10.9161 30.0927 10.9161 29.9825 10.9792 29.9177C11.0423 29.8529 11.1496 29.8529 11.2127 29.9177L12.0266 30.7537H13.0741Z" fill="#097CF6"/>
<path d="M160.075 13.5161C159.513 13.5161 159.21 13.8013 159.046 14.3327L156.333 24.0079C156.1 24.7985 155.936 25.4983 155.772 26.263H155.349C155.185 25.5178 155.021 24.7985 154.812 24.0273L152.074 14.3262C151.91 13.7948 151.632 13.5097 151.09 13.5097H148.496C147.891 13.5097 147.562 13.8726 147.537 14.4947L146.931 30.08H149.247L149.783 15.5056H150.225L153.525 27.2934C153.664 27.8442 154.017 28.1099 154.554 28.1099H156.586C157.122 28.1099 157.45 27.8442 157.589 27.2934L160.864 15.5056H161.331L161.892 30.08H164.233L163.577 14.4947C163.552 13.8726 163.223 13.5097 162.618 13.5097H160.075V13.5161ZM143.303 30.0864V13.5161H140.874L134.141 25.2586C133.788 25.8612 133.485 26.4834 133.226 27.1314H133.107C133.201 26.438 133.245 25.7835 133.245 25.0901V13.5161H130.999V30.0864H133.409L140.192 18.2922C140.47 17.7608 140.798 17.0674 141.032 16.4193H141.171C141.051 17.0674 141.032 17.7154 141.032 18.3894V30.0864H143.303ZM122.09 22.4007L125.945 30.0864H128.494L124.052 21.5129L128.191 13.5161H125.642L122.134 20.5733H121.503L117.969 13.5161H115.47L119.584 21.5129L115.168 30.0864H117.692L121.528 22.4007H122.09ZM107.211 15.3436C110.252 15.3436 111.211 16.9054 111.211 21.8045C111.211 26.7037 110.252 28.2655 107.211 28.2655C104.195 28.2655 103.236 26.7037 103.236 21.8045C103.236 16.9054 104.195 15.3436 107.211 15.3436ZM107.211 13.2051C102.466 13.2051 100.781 15.2918 100.781 21.8045C100.781 28.3173 102.466 30.404 107.211 30.404C111.981 30.404 113.666 28.3173 113.666 21.8045C113.666 15.2918 111.981 13.2051 107.211 13.2051ZM87.9216 15.5575C89.0195 15.4343 90.3761 15.2723 92.1303 15.2723C94.4712 15.2723 95.2663 15.7778 95.2663 17.9357C95.2663 20.003 94.5407 20.5538 92.4142 20.5538H89.6568V22.4526H92.4142C94.8435 22.4526 95.689 23.1265 95.689 25.5502C95.689 27.8053 94.894 28.3108 92.5783 28.3108C90.6159 28.3108 88.8618 28.1423 87.5493 27.9738L87.3411 29.7041C88.9754 30.1124 90.7106 30.2809 92.9758 30.2809C96.6229 30.2809 98.0742 29.3671 98.0742 25.9584C98.0742 23.3145 97.2791 21.7592 94.894 21.5388V21.4416C96.8122 21.2472 97.6073 20.0224 97.6073 17.6506C97.6073 14.2419 96.2254 13.3282 92.2754 13.3282C90.4771 13.3282 89.1647 13.4513 87.7386 13.7105L87.9216 15.5575ZM81.7947 23.0034H76.6017L78.4947 16.711L78.867 15.363H79.498C79.6178 15.7972 79.7756 16.2768 79.8955 16.711L81.7947 23.0034ZM82.4068 25.0966L83.9022 30.0929H86.3126L81.2395 14.1707C81.1448 13.7624 80.7978 13.5226 80.4003 13.5226H78.0151C77.5924 13.5226 77.2643 13.7624 77.1507 14.1707L72.1028 30.0929H74.4879L75.9834 25.0966H82.4068ZM63.5466 30.0864H65.8876V17.1905C65.8876 15.9398 66.2851 15.5315 67.383 15.5315H73.207L73.3017 13.6846C71.2194 13.4708 68.8343 13.4708 66.588 13.4708C64.8338 13.4708 63.5466 14.7928 63.5466 16.7369V30.0864Z" fill="#2874C8"/>
<path d="M210.693 57.524H213.034V44.6281C213.034 43.3774 213.431 42.9691 214.529 42.9691H220.353L220.448 41.1222C218.365 40.9084 215.98 40.9084 213.734 40.9084C211.98 40.9084 210.693 42.2304 210.693 44.1745V57.524ZM206.818 40.9537H204.458V47.6544H197.423V40.9537H195.082V57.524H197.423V49.7217H204.458V57.524H206.818V40.9537ZM191.138 57.524V40.9537H188.709L181.976 52.6962C181.623 53.2988 181.32 53.921 181.061 54.569H180.942C181.036 53.8756 181.08 53.2211 181.08 52.5277V40.9537H178.834V57.524H181.244L188.028 45.7298C188.305 45.1984 188.633 44.505 188.867 43.8569H189.006C188.886 44.505 188.867 45.153 188.867 45.827V57.524H191.138ZM167.363 49.1644V42.8266C168.227 42.8006 169.325 42.8006 170.568 42.8006C172.814 42.8006 173.54 43.4487 173.54 45.9695C173.54 48.4904 172.814 49.1384 170.568 49.1644H167.363ZM165.003 57.524H167.363V51.0177C168.347 51.1409 169.609 51.2316 170.896 51.2316C174.588 51.2316 175.9 50.104 175.9 45.9695C175.9 41.8869 174.588 40.7334 170.638 40.7334C167.975 40.7334 166.782 40.7593 165.003 40.9473V57.524ZM161.066 57.524V40.9537H158.636L151.904 52.6962C151.55 53.2988 151.247 53.921 150.989 54.569H150.869C150.963 53.8756 151.008 53.2211 151.008 52.5277V40.9537H148.761V57.524H151.172L157.955 45.7298C158.232 45.1984 158.561 44.505 158.794 43.8569H158.933C158.813 44.505 158.794 45.153 158.794 45.827V57.524H161.066ZM144.843 40.9537H142.483V47.6544H135.448V40.9537H133.107V57.524H135.448V49.7217H142.483V57.524H144.843V40.9537ZM129.169 57.524V40.9537H126.74L120.007 52.6962C119.654 53.2988 119.351 53.921 119.092 54.569H118.972C119.067 53.8756 119.111 53.2211 119.111 52.5277V40.9537H116.865V57.524H119.275L126.058 45.7298C126.336 45.1984 126.664 44.505 126.898 43.8569H127.036C126.917 44.505 126.898 45.153 126.898 45.827V57.524H129.169ZM108.586 48.8339C111.438 48.5228 112.284 45.5224 113.798 40.9602H111.413C109.962 45.0688 109.098 47.9266 106.687 47.9266H105.236C105.331 47.3239 105.356 46.7018 105.356 46.0538V40.9602H103.135V46.0538C103.135 46.7018 103.179 47.3239 103.274 47.9266H101.683C99.2983 47.9266 98.4339 45.0688 97.0078 40.9602H94.6227C96.1434 45.5224 96.9384 48.5228 99.8157 48.8339V48.9311C96.7744 49.2421 96.0046 52.1259 94.2063 57.5305H96.6608C98.4591 52.4629 99.1406 49.8448 101.734 49.8707H103.299C103.204 50.4475 103.135 51.0242 103.135 51.5751V57.5305H105.356V51.5751C105.356 51.0242 105.312 50.4475 105.217 49.8707H106.668C109.287 49.8448 109.968 52.4629 111.741 57.5305H114.221C112.423 52.1259 111.647 49.2486 108.586 48.9311V48.8339ZM91.5687 40.9537H89.2089V47.6544H82.1734V40.9537H79.8324V57.524H82.1734V49.7217H89.2089V57.524H91.5687V40.9537ZM75.895 57.524V40.9537H73.4657L66.7331 52.6962C66.3798 53.2988 66.0769 53.921 65.8182 54.569H65.6983C65.793 53.8756 65.8371 53.2211 65.8371 52.5277V40.9537H63.5908V57.524H66.0012L72.7843 45.7298C73.0619 45.1984 73.39 44.505 73.6235 43.8569H73.7623C73.6424 44.505 73.6235 45.153 73.6235 45.827V57.524H75.895Z" fill="#2874C8"/>
<mask id="mask0_1321_7309" style="mask-type:luminance" maskUnits="userSpaceOnUse" x="6" y="-1" width="26" height="70">
<path d="M18.9927 20.1067C21.4094 23.1655 20.8226 30.2809 17.2449 41.4401C12.5125 57.3365 15.0175 66.3247 24.7221 68.3207C20.8415 65.5471 21.6744 55.6192 27.2271 38.524C32.7861 21.4676 32.4769 8.58464 26.2301 -0.0666504C22.7281 7.1784 17.9516 14.3392 11.8941 21.4158C5.83664 28.4988 4.71349 36.5474 8.53095 45.5746C6.78312 37.5519 7.48983 31.6224 10.7079 27.7341C13.9259 23.8459 16.6896 21.3186 18.9927 20.1067Z" fill="white"/>
</mask>
<g mask="url(#mask0_1321_7309)">
<path d="M32.7797 -0.0666504H4.7135V68.3142H32.7797V-0.0666504Z" fill="url(#paint0_linear_1321_7309)"/>
</g>
<mask id="mask1_1321_7309" style="mask-type:luminance" maskUnits="userSpaceOnUse" x="6" y="-1" width="26" height="70">
<path d="M18.9927 20.1067C21.4094 23.1655 20.8226 30.2809 17.2449 41.4401C12.5125 57.3365 15.0175 66.3247 24.7221 68.3207C20.8415 65.5471 21.6744 55.6192 27.2271 38.524C32.7861 21.4676 32.4769 8.58464 26.2301 -0.0666504C22.7281 7.1784 17.9516 14.3392 11.8941 21.4158C5.83664 28.4988 4.71349 36.5474 8.53095 45.5746C6.78312 37.5519 7.48983 31.6224 10.7079 27.7341C13.9259 23.8459 16.6896 21.3186 18.9927 20.1067Z" fill="white"/>
</mask>
<g mask="url(#mask1_1321_7309)">
<path d="M32.7797 -0.0666504H4.7135V68.3142H32.7797V-0.0666504Z" fill="url(#paint1_linear_1321_7309)"/>
</g>
<mask id="mask2_1321_7309" style="mask-type:luminance" maskUnits="userSpaceOnUse" x="6" y="-1" width="26" height="47">
<path d="M17.2386 41.4401C20.8226 30.2809 21.4031 23.1655 18.9864 20.1067C16.6833 21.3186 13.9259 23.8524 10.7079 27.7341C7.48983 31.6224 6.78312 37.5519 8.53095 45.5746C4.71349 36.5474 5.83664 28.4988 11.8941 21.4158C17.9516 14.3392 22.7281 7.1784 26.2301 -0.0666504C32.4769 8.58464 32.7797 21.4611 27.2271 38.524C24.8609 40.6236 19.5858 41.3429 17.2386 41.4401Z" fill="white"/>
</mask>
<g mask="url(#mask2_1321_7309)">
<path d="M32.7797 -0.0666504H4.7135V45.5681H32.7797V-0.0666504Z" fill="url(#paint2_linear_1321_7309)"/>
</g>
</g>
<defs>
<linearGradient id="paint0_linear_1321_7309" x1="12.005" y1="65.1834" x2="26.5494" y2="1.67858" gradientUnits="userSpaceOnUse">
<stop stop-color="#097CF6"/>
<stop offset="1" stop-color="#8FB5E2"/>
</linearGradient>
<linearGradient id="paint1_linear_1321_7309" x1="18.7844" y1="33.7077" x2="15.6976" y2="67.7152" gradientUnits="userSpaceOnUse">
<stop stop-color="#5098FC"/>
<stop offset="1" stop-color="#2968FA"/>
</linearGradient>
<linearGradient id="paint2_linear_1321_7309" x1="18.7483" y1="-0.0644471" x2="18.7483" y2="45.1361" gradientUnits="userSpaceOnUse">
<stop stop-color="#8DD6FE"/>
<stop offset="1" stop-color="#67A1FB"/>
</linearGradient>
<clipPath id="clip0_1321_7309">
<rect width="224" height="71" fill="white"/>
</clipPath>
</defs>
</svg>
