<svg width="154" height="49" viewBox="0 0 154 49" fill="none" xmlns="http://www.w3.org/2000/svg">
<g clip-path="url(#clip0_784_8396)">
<path fill-rule="evenodd" clip-rule="evenodd" d="M18.7661 46.8157C18.97 46.8157 19.1392 46.9856 19.1392 47.2003C19.1392 47.4105 18.9744 47.5849 18.7661 47.5849C18.5622 47.5849 18.3931 47.415 18.3931 47.2003C18.3931 46.9901 18.5622 46.8157 18.7661 46.8157Z" fill="#097CF6"/>
<path fill-rule="evenodd" clip-rule="evenodd" d="M20.8487 42.4329C21.0525 42.4329 21.2217 42.6028 21.2217 42.8175C21.2217 43.0277 21.0569 43.2021 20.8487 43.2021C20.6448 43.2021 20.4756 43.0322 20.4756 42.8175C20.4756 42.6073 20.6448 42.4329 20.8487 42.4329Z" fill="#097CF6"/>
<path fill-rule="evenodd" clip-rule="evenodd" d="M27.6074 35.6838C27.8113 35.6838 27.9805 35.8538 27.9805 36.0685C27.9805 36.2787 27.8157 36.4531 27.6074 36.4531C27.4036 36.4531 27.2344 36.2831 27.2344 36.0685C27.2387 35.8583 27.4036 35.6838 27.6074 35.6838Z" fill="#097CF6"/>
<path fill-rule="evenodd" clip-rule="evenodd" d="M27.3555 37.3521C27.5594 37.3521 27.7286 37.522 27.7286 37.7367C27.7286 37.9469 27.5637 38.1213 27.3555 38.1213C27.1516 38.1213 26.9824 37.9513 26.9824 37.7367C26.9824 37.522 27.1473 37.3521 27.3555 37.3521Z" fill="#097CF6"/>
<path fill-rule="evenodd" clip-rule="evenodd" d="M21.9116 33.6667C22.1155 33.6667 22.2847 33.8367 22.2847 34.0514C22.2847 34.2616 22.1199 34.436 21.9116 34.436C21.7078 34.436 21.5386 34.266 21.5386 34.0514C21.5386 33.8412 21.7078 33.6667 21.9116 33.6667Z" fill="#097CF6"/>
<path fill-rule="evenodd" clip-rule="evenodd" d="M23.6988 35.5093C23.9026 35.5093 24.0718 35.6792 24.0718 35.8939C24.0718 36.1041 23.907 36.2785 23.6988 36.2785C23.4949 36.2785 23.3257 36.1086 23.3257 35.8939C23.3257 35.6792 23.4905 35.5093 23.6988 35.5093Z" fill="#097CF6"/>
<path fill-rule="evenodd" clip-rule="evenodd" d="M22.0806 35.7732C22.2845 35.7732 22.4537 35.9431 22.4537 36.1578C22.4537 36.368 22.2888 36.5424 22.0806 36.5424C21.8767 36.5424 21.7075 36.3725 21.7075 36.1578C21.7119 35.9431 21.8767 35.7732 22.0806 35.7732Z" fill="#097CF6"/>
<path fill-rule="evenodd" clip-rule="evenodd" d="M26.9263 38.8413C27.1302 38.8413 27.2994 39.0113 27.2994 39.2259C27.2994 39.4361 27.1345 39.6106 26.9263 39.6106C26.7224 39.6106 26.5532 39.4406 26.5532 39.2259C26.5576 39.0113 26.7224 38.8413 26.9263 38.8413Z" fill="#097CF6"/>
<path fill-rule="evenodd" clip-rule="evenodd" d="M26.3321 40.2412C26.5359 40.2412 26.7051 40.4112 26.7051 40.6258C26.7051 40.836 26.5403 41.0105 26.3321 41.0105C26.1282 41.0105 25.959 40.8405 25.959 40.6258C25.959 40.4156 26.1282 40.2412 26.3321 40.2412Z" fill="#097CF6"/>
<path fill-rule="evenodd" clip-rule="evenodd" d="M24.9698 38.7517C25.1736 38.7517 25.3428 38.9217 25.3428 39.1363C25.3428 39.3465 25.178 39.521 24.9698 39.521C24.7659 39.521 24.5967 39.351 24.5967 39.1363C24.601 38.9261 24.7659 38.7517 24.9698 38.7517Z" fill="#097CF6"/>
<path fill-rule="evenodd" clip-rule="evenodd" d="M25.6509 41.4712C25.8548 41.4712 26.024 41.6411 26.024 41.8558C26.024 42.066 25.8591 42.2404 25.6509 42.2404C25.447 42.2404 25.2778 42.0705 25.2778 41.8558C25.2822 41.6411 25.447 41.4712 25.6509 41.4712Z" fill="#097CF6"/>
<path fill-rule="evenodd" clip-rule="evenodd" d="M21.9116 37.6113C22.1155 37.6113 22.2847 37.7813 22.2847 37.996C22.2847 38.2062 22.1199 38.3806 21.9116 38.3806C21.7078 38.3806 21.5386 38.2106 21.5386 37.996C21.5386 37.7858 21.7078 37.6113 21.9116 37.6113Z" fill="#097CF6"/>
<path fill-rule="evenodd" clip-rule="evenodd" d="M21.6553 39.365C21.8592 39.365 22.0284 39.5349 22.0284 39.7496C22.0284 39.9598 21.8635 40.1342 21.6553 40.1342C21.4514 40.1342 21.2822 39.9643 21.2822 39.7496C21.2866 39.5394 21.4514 39.365 21.6553 39.365Z" fill="#097CF6"/>
<path fill-rule="evenodd" clip-rule="evenodd" d="M24.0371 41.7346C24.241 41.7346 24.4102 41.9046 24.4102 42.1192C24.4102 42.3294 24.2454 42.5039 24.0371 42.5039C23.8332 42.5039 23.6641 42.3339 23.6641 42.1192C23.6641 41.9046 23.8332 41.7346 24.0371 41.7346Z" fill="#097CF6"/>
<path fill-rule="evenodd" clip-rule="evenodd" d="M24.8003 42.5217C25.0042 42.5217 25.1734 42.6917 25.1734 42.9064C25.1734 43.1166 25.0085 43.291 24.8003 43.291C24.5964 43.291 24.4272 43.121 24.4272 42.9064C24.4316 42.6917 24.5964 42.5217 24.8003 42.5217Z" fill="#097CF6"/>
<path fill-rule="evenodd" clip-rule="evenodd" d="M23.8677 43.573C24.0716 43.573 24.2408 43.7429 24.2408 43.9576C24.2408 44.1723 24.0759 44.3422 23.8677 44.3422C23.6638 44.3422 23.4946 44.1723 23.4946 43.9576C23.4946 43.7429 23.6638 43.573 23.8677 43.573Z" fill="#097CF6"/>
<path fill-rule="evenodd" clip-rule="evenodd" d="M22.8487 44.4495C23.0525 44.4495 23.2217 44.6194 23.2217 44.8341C23.2217 45.0443 23.0569 45.2187 22.8487 45.2187C22.6448 45.2187 22.4756 45.0488 22.4756 44.8341C22.4756 44.6239 22.6404 44.4495 22.8487 44.4495Z" fill="#097CF6"/>
<path fill-rule="evenodd" clip-rule="evenodd" d="M21.7422 45.2368C21.9461 45.2368 22.1153 45.4068 22.1153 45.6214C22.1153 45.8316 21.9504 46.0061 21.7422 46.0061C21.5383 46.0061 21.3691 45.8361 21.3691 45.6214C21.3691 45.4112 21.534 45.2368 21.7422 45.2368Z" fill="#097CF6"/>
<path fill-rule="evenodd" clip-rule="evenodd" d="M20.2935 43.8367C20.4974 43.8367 20.6666 44.0066 20.6666 44.2213C20.6666 44.4315 20.5017 44.6059 20.2935 44.6059C20.0896 44.6059 19.9204 44.436 19.9204 44.2213C19.9247 44.0066 20.0896 43.8367 20.2935 43.8367Z" fill="#097CF6"/>
<path fill-rule="evenodd" clip-rule="evenodd" d="M19.6992 45.1519C19.9031 45.1519 20.0723 45.3218 20.0723 45.5365C20.0723 45.7467 19.9075 45.9211 19.6992 45.9211C19.4954 45.9211 19.3262 45.7512 19.3262 45.5365C19.3305 45.3218 19.4954 45.1519 19.6992 45.1519Z" fill="#097CF6"/>
<path fill-rule="evenodd" clip-rule="evenodd" d="M20.5493 46.0283C20.7532 46.0283 20.9224 46.1983 20.9224 46.4129C20.9224 46.6231 20.7576 46.7976 20.5493 46.7976C20.3455 46.7976 20.1763 46.6276 20.1763 46.4129C20.1806 46.1983 20.3455 46.0283 20.5493 46.0283Z" fill="#097CF6"/>
<path fill-rule="evenodd" clip-rule="evenodd" d="M21.3169 40.9434C21.5208 40.9434 21.69 41.1133 21.69 41.328C21.69 41.5382 21.5251 41.7126 21.3169 41.7126C21.113 41.7126 20.9438 41.5427 20.9438 41.328C20.9438 41.1178 21.113 40.9434 21.3169 40.9434Z" fill="#097CF6"/>
<path fill-rule="evenodd" clip-rule="evenodd" d="M27.6074 31.739C27.8113 31.739 27.9805 31.909 27.9805 32.1236C27.9805 32.3338 27.8157 32.5083 27.6074 32.5083C27.4036 32.5083 27.2344 32.3383 27.2344 32.1236C27.2344 31.909 27.4036 31.739 27.6074 31.739Z" fill="#097CF6"/>
<path fill-rule="evenodd" clip-rule="evenodd" d="M24.2061 32.0928C24.41 32.0928 24.5791 32.2627 24.5791 32.4774C24.5791 32.6876 24.4143 32.862 24.2061 32.862C24.0022 32.862 23.833 32.6921 23.833 32.4774C23.8373 32.2627 24.0022 32.0928 24.2061 32.0928Z" fill="#097CF6"/>
<path fill-rule="evenodd" clip-rule="evenodd" d="M21.4864 31.3008C21.6902 31.3008 21.8594 31.4707 21.8594 31.6854C21.8594 31.8956 21.6946 32.07 21.4864 32.07C21.2825 32.07 21.1133 31.9001 21.1133 31.6854C21.1133 31.4752 21.2825 31.3008 21.4864 31.3008Z" fill="#097CF6"/>
<path fill-rule="evenodd" clip-rule="evenodd" d="M22.5923 32.4412C22.7962 32.4412 22.9654 32.6111 22.9654 32.8258C22.9654 33.036 22.8005 33.2104 22.5923 33.2104C22.3884 33.2104 22.2192 33.0405 22.2192 32.8258C22.2192 32.6111 22.3841 32.4412 22.5923 32.4412Z" fill="#097CF6"/>
<path fill-rule="evenodd" clip-rule="evenodd" d="M26.8438 32.7898C27.0477 32.7898 27.2168 32.9597 27.2168 33.1744C27.2168 33.3846 27.052 33.559 26.8438 33.559C26.6399 33.559 26.4707 33.3891 26.4707 33.1744C26.4707 32.9642 26.6399 32.7898 26.8438 32.7898Z" fill="#097CF6"/>
<path fill-rule="evenodd" clip-rule="evenodd" d="M27.7764 33.7561C27.9803 33.7561 28.1495 33.9261 28.1495 34.1407C28.1495 34.3509 27.9846 34.5254 27.7764 34.5254C27.5725 34.5254 27.4033 34.3554 27.4033 34.1407C27.4077 33.9261 27.5725 33.7561 27.7764 33.7561Z" fill="#097CF6"/>
<path fill-rule="evenodd" clip-rule="evenodd" d="M20.5493 28.407C20.7532 28.407 20.9224 28.5769 20.9224 28.7916C20.9224 29.0018 20.7576 29.1762 20.5493 29.1762C20.3455 29.1762 20.1763 29.0063 20.1763 28.7916C20.1806 28.5814 20.3455 28.407 20.5493 28.407Z" fill="#097CF6"/>
<path fill-rule="evenodd" clip-rule="evenodd" d="M27.3511 29.4941C27.555 29.4941 27.7242 29.6641 27.7242 29.8788C27.7242 30.089 27.5593 30.2634 27.3511 30.2634C27.1472 30.2634 26.978 30.0934 26.978 29.8788C26.9824 29.6641 27.1472 29.4941 27.3511 29.4941Z" fill="#097CF6"/>
<path fill-rule="evenodd" clip-rule="evenodd" d="M24.9698 29.0244C25.1736 29.0244 25.3428 29.1944 25.3428 29.409C25.3428 29.6192 25.178 29.7937 24.9698 29.7937C24.7659 29.7937 24.5967 29.6237 24.5967 29.409C24.601 29.1944 24.7659 29.0244 24.9698 29.0244Z" fill="#097CF6"/>
<path fill-rule="evenodd" clip-rule="evenodd" d="M22.5059 28.3535C22.7098 28.3535 22.879 28.5235 22.879 28.7381C22.879 28.9483 22.7141 29.1228 22.5059 29.1228C22.302 29.1228 22.1328 28.9528 22.1328 28.7381C22.1328 28.5235 22.302 28.3535 22.5059 28.3535Z" fill="#097CF6"/>
<path fill-rule="evenodd" clip-rule="evenodd" d="M20.124 25.8669C20.3279 25.8669 20.4971 26.0369 20.4971 26.2516C20.4971 26.4618 20.3323 26.6362 20.124 26.6362C19.9202 26.6362 19.751 26.4662 19.751 26.2516C19.7553 26.0369 19.9202 25.8669 20.124 25.8669Z" fill="#097CF6"/>
<path fill-rule="evenodd" clip-rule="evenodd" d="M20.5928 24.3821C20.7967 24.3821 20.9659 24.552 20.9659 24.7667C20.9659 24.9769 20.801 25.1513 20.5928 25.1513C20.3889 25.1513 20.2197 24.9814 20.2197 24.7667C20.2197 24.5565 20.3889 24.3821 20.5928 24.3821Z" fill="#097CF6"/>
<path fill-rule="evenodd" clip-rule="evenodd" d="M26.6314 26.8333C26.8353 26.8333 27.0044 27.0032 27.0044 27.2179C27.0044 27.4281 26.8396 27.6025 26.6314 27.6025C26.4275 27.6025 26.2583 27.4325 26.2583 27.2179C26.2583 27.0032 26.4275 26.8333 26.6314 26.8333Z" fill="#097CF6"/>
<path fill-rule="evenodd" clip-rule="evenodd" d="M23.356 25.3391C23.5599 25.3391 23.729 25.5091 23.729 25.7237C23.729 25.9339 23.5642 26.1084 23.356 26.1084C23.1521 26.1084 22.9829 25.9384 22.9829 25.7237C22.9872 25.5135 23.1521 25.3391 23.356 25.3391Z" fill="#097CF6"/>
<path fill-rule="evenodd" clip-rule="evenodd" d="M20.9571 22.8884C21.1609 22.8884 21.3301 23.0584 21.3301 23.2731C21.3301 23.4833 21.1653 23.6577 20.9571 23.6577C20.7532 23.6577 20.584 23.4877 20.584 23.2731C20.584 23.0584 20.7488 22.8884 20.9571 22.8884Z" fill="#097CF6"/>
<path fill-rule="evenodd" clip-rule="evenodd" d="M25.4253 23.4878C25.6292 23.4878 25.7984 23.6577 25.7984 23.8724C25.7984 24.0826 25.6335 24.257 25.4253 24.257C25.2214 24.257 25.0522 24.0871 25.0522 23.8724C25.0522 23.6577 25.2171 23.4878 25.4253 23.4878Z" fill="#097CF6"/>
<path fill-rule="evenodd" clip-rule="evenodd" d="M21.3301 21.2783C21.534 21.2783 21.7032 21.4483 21.7032 21.6629C21.7032 21.8731 21.5383 22.0476 21.3301 22.0476C21.1262 22.0476 20.957 21.8776 20.957 21.6629C20.957 21.4483 21.1262 21.2783 21.3301 21.2783Z" fill="#097CF6"/>
<path fill-rule="evenodd" clip-rule="evenodd" d="M22.4234 22.4497C22.6273 22.4497 22.7964 22.6197 22.7964 22.8343C22.7964 23.0445 22.6316 23.219 22.4234 23.219C22.2195 23.219 22.0503 23.049 22.0503 22.8343C22.0503 22.6197 22.2151 22.4497 22.4234 22.4497Z" fill="#097CF6"/>
<path fill-rule="evenodd" clip-rule="evenodd" d="M24.3106 21.5735C24.5145 21.5735 24.6836 21.7434 24.6836 21.9581C24.6836 22.1683 24.5188 22.3427 24.3106 22.3427C24.1067 22.3427 23.9375 22.1728 23.9375 21.9581C23.9375 21.7434 24.1067 21.5735 24.3106 21.5735Z" fill="#097CF6"/>
<path fill-rule="evenodd" clip-rule="evenodd" d="M21.6988 19.6865C21.9026 19.6865 22.0718 19.8565 22.0718 20.0711C22.0718 20.2813 21.907 20.4558 21.6988 20.4558C21.4949 20.4558 21.3257 20.2858 21.3257 20.0711C21.3257 19.8609 21.4949 19.6865 21.6988 19.6865Z" fill="#097CF6"/>
<path fill-rule="evenodd" clip-rule="evenodd" d="M23.356 19.9946C23.5599 19.9946 23.729 20.1646 23.729 20.3793C23.729 20.5895 23.5642 20.7639 23.356 20.7639C23.1521 20.7639 22.9829 20.5939 22.9829 20.3793C22.9872 20.1646 23.1521 19.9946 23.356 19.9946Z" fill="#097CF6"/>
<path fill-rule="evenodd" clip-rule="evenodd" d="M21.9981 18.2415C22.202 18.2415 22.3711 18.4114 22.3711 18.6261C22.3711 18.8363 22.2063 19.0107 21.9981 19.0107C21.7942 19.0107 21.625 18.8408 21.625 18.6261C21.625 18.4114 21.7898 18.2415 21.9981 18.2415Z" fill="#097CF6"/>
<path fill-rule="evenodd" clip-rule="evenodd" d="M12.3028 15.5222C12.5066 15.5222 12.6758 15.6922 12.6758 15.9068C12.6758 16.117 12.511 16.2915 12.3028 16.2915C12.0989 16.2915 11.9297 16.1215 11.9297 15.9068C11.934 15.6966 12.0989 15.5222 12.3028 15.5222Z" fill="#097CF6"/>
<path fill-rule="evenodd" clip-rule="evenodd" d="M12.6455 16.5735C12.8494 16.5735 13.0186 16.7434 13.0186 16.9581C13.0186 17.1683 12.8538 17.3427 12.6455 17.3427C12.4416 17.3427 12.2725 17.1728 12.2725 16.9581C12.2725 16.7479 12.4373 16.5735 12.6455 16.5735Z" fill="#097CF6"/>
<path fill-rule="evenodd" clip-rule="evenodd" d="M11.4527 16.1348C11.6565 16.1348 11.8257 16.3047 11.8257 16.5194C11.8257 16.7296 11.6609 16.904 11.4527 16.904C11.2488 16.904 11.0796 16.7341 11.0796 16.5194C11.0839 16.3092 11.2488 16.1348 11.4527 16.1348Z" fill="#097CF6"/>
<path fill-rule="evenodd" clip-rule="evenodd" d="M10.5196 17.1011C10.7234 17.1011 10.8926 17.271 10.8926 17.4857C10.8926 17.6959 10.7278 17.8703 10.5196 17.8703C10.3157 17.8703 10.1465 17.7004 10.1465 17.4857C10.1465 17.271 10.3157 17.1011 10.5196 17.1011Z" fill="#097CF6"/>
<path fill-rule="evenodd" clip-rule="evenodd" d="M12.3892 17.8035C12.5931 17.8035 12.7623 17.9734 12.7623 18.1881C12.7623 18.3983 12.5974 18.5727 12.3892 18.5727C12.1853 18.5727 12.0161 18.4028 12.0161 18.1881C12.0161 17.9734 12.1853 17.8035 12.3892 17.8035Z" fill="#097CF6"/>
<path fill-rule="evenodd" clip-rule="evenodd" d="M9.49612 18.0671C9.7 18.0671 9.86919 18.2371 9.86919 18.4518C9.86919 18.662 9.70434 18.8364 9.49612 18.8364C9.29223 18.8364 9.12305 18.6664 9.12305 18.4518C9.12738 18.2371 9.29223 18.0671 9.49612 18.0671Z" fill="#097CF6"/>
<path fill-rule="evenodd" clip-rule="evenodd" d="M12.0469 18.6797C12.2508 18.6797 12.42 18.8496 12.42 19.0643C12.42 19.2745 12.2551 19.4489 12.0469 19.4489C11.843 19.4489 11.6738 19.279 11.6738 19.0643C11.6782 18.8496 11.843 18.6797 12.0469 18.6797Z" fill="#097CF6"/>
<path fill-rule="evenodd" clip-rule="evenodd" d="M11.3872 19.9946C11.5911 19.9946 11.7603 20.1646 11.7603 20.3793C11.7603 20.5895 11.5955 20.7639 11.3872 20.7639C11.1833 20.7639 11.0142 20.5939 11.0142 20.3793C11.0142 20.1646 11.1833 19.9946 11.3872 19.9946Z" fill="#097CF6"/>
<path fill-rule="evenodd" clip-rule="evenodd" d="M10.689 21.2205C10.8929 21.2205 11.0621 21.3904 11.0621 21.6051C11.0621 21.8153 10.8972 21.9897 10.689 21.9897C10.4851 21.9897 10.3159 21.8198 10.3159 21.6051C10.3159 21.3904 10.4851 21.2205 10.689 21.2205Z" fill="#097CF6"/>
<path fill-rule="evenodd" clip-rule="evenodd" d="M8.56301 19.1182C8.7669 19.1182 8.93608 19.2881 8.93608 19.5028C8.93608 19.713 8.77124 19.8874 8.56301 19.8874C8.35912 19.8874 8.18994 19.7175 8.18994 19.5028C8.18994 19.2881 8.35912 19.1182 8.56301 19.1182Z" fill="#097CF6"/>
<path fill-rule="evenodd" clip-rule="evenodd" d="M7.626 20.2585C7.82989 20.2585 7.99907 20.4285 7.99907 20.6432C7.99907 20.8534 7.83423 21.0278 7.626 21.0278C7.42211 21.0278 7.25293 20.8578 7.25293 20.6432C7.25727 20.4285 7.42211 20.2585 7.626 20.2585Z" fill="#097CF6"/>
<path fill-rule="evenodd" clip-rule="evenodd" d="M9.07082 20.9563C9.27471 20.9563 9.44389 21.1262 9.44389 21.3409C9.44389 21.5511 9.27905 21.7255 9.07082 21.7255C8.86694 21.7255 8.69775 21.5556 8.69775 21.3409C8.70209 21.1307 8.86694 20.9563 9.07082 20.9563Z" fill="#097CF6"/>
<path fill-rule="evenodd" clip-rule="evenodd" d="M9.8384 22.6243C10.0423 22.6243 10.2115 22.7942 10.2115 23.0089C10.2115 23.2191 10.0466 23.3935 9.8384 23.3935C9.63452 23.3935 9.46533 23.2236 9.46533 23.0089C9.46533 22.7942 9.63452 22.6243 9.8384 22.6243Z" fill="#097CF6"/>
<path fill-rule="evenodd" clip-rule="evenodd" d="M6.8887 21.5466C7.09258 21.5466 7.26177 21.7166 7.26177 21.9313C7.26177 22.1415 7.09692 22.3159 6.8887 22.3159C6.68481 22.3159 6.51562 22.1459 6.51562 21.9313C6.51562 21.7166 6.68047 21.5466 6.8887 21.5466Z" fill="#097CF6"/>
<path fill-rule="evenodd" clip-rule="evenodd" d="M8.47659 23.1479C8.68047 23.1479 8.84966 23.3179 8.84966 23.5326C8.84966 23.7428 8.68481 23.9172 8.47659 23.9172C8.2727 23.9172 8.10352 23.7472 8.10352 23.5326C8.10785 23.3224 8.2727 23.1479 8.47659 23.1479Z" fill="#097CF6"/>
<path fill-rule="evenodd" clip-rule="evenodd" d="M9.24416 23.9392C9.44805 23.9392 9.61724 24.1092 9.61724 24.3238C9.61724 24.534 9.45239 24.7085 9.24416 24.7085C9.04028 24.7085 8.87109 24.5385 8.87109 24.3238C8.87109 24.1092 9.04028 23.9392 9.24416 23.9392Z" fill="#097CF6"/>
<path fill-rule="evenodd" clip-rule="evenodd" d="M8.64993 25.3391C8.85381 25.3391 9.023 25.5091 9.023 25.7237C9.023 25.9339 8.85815 26.1084 8.64993 26.1084C8.44604 26.1084 8.27686 25.9384 8.27686 25.7237C8.27686 25.5135 8.4417 25.3391 8.64993 25.3391Z" fill="#097CF6"/>
<path fill-rule="evenodd" clip-rule="evenodd" d="M6.26858 22.8884C6.47247 22.8884 6.64165 23.0584 6.64165 23.2731C6.64165 23.4833 6.4768 23.6577 6.26858 23.6577C6.06469 23.6577 5.89551 23.4877 5.89551 23.2731C5.89551 23.0584 6.06035 22.8884 6.26858 22.8884Z" fill="#097CF6"/>
<path fill-rule="evenodd" clip-rule="evenodd" d="M5.92581 24.8162C6.12969 24.8162 6.29888 24.9861 6.29888 25.2008C6.29888 25.411 6.13403 25.5854 5.92581 25.5854C5.72192 25.5854 5.55273 25.4155 5.55273 25.2008C5.55707 24.9861 5.72192 24.8162 5.92581 24.8162Z" fill="#097CF6"/>
<path fill-rule="evenodd" clip-rule="evenodd" d="M8.13821 27.092C8.34209 27.092 8.51128 27.262 8.51128 27.4767C8.51128 27.6869 8.34643 27.8613 8.13821 27.8613C7.93432 27.8613 7.76514 27.6913 7.76514 27.4767C7.76514 27.2665 7.93432 27.092 8.13821 27.092Z" fill="#097CF6"/>
<path fill-rule="evenodd" clip-rule="evenodd" d="M6.01272 26.8333C6.21661 26.8333 6.38579 27.0032 6.38579 27.2179C6.38579 27.4281 6.22094 27.6025 6.01272 27.6025C5.80883 27.6025 5.63965 27.4325 5.63965 27.2179C5.63965 27.0032 5.80883 26.8333 6.01272 26.8333Z" fill="#097CF6"/>
<path fill-rule="evenodd" clip-rule="evenodd" d="M6.86282 27.7095C7.0667 27.7095 7.23589 27.8794 7.23589 28.0941C7.23589 28.3043 7.07104 28.4787 6.86282 28.4787C6.65893 28.4787 6.48975 28.3088 6.48975 28.0941C6.48975 27.8794 6.65893 27.7095 6.86282 27.7095Z" fill="#097CF6"/>
<path fill-rule="evenodd" clip-rule="evenodd" d="M7.28762 31.6543C7.49151 31.6543 7.66069 31.8242 7.66069 32.0389C7.66069 32.2491 7.49585 32.4235 7.28762 32.4235C7.08373 32.4235 6.91455 32.2536 6.91455 32.0389C6.91455 31.8242 7.08373 31.6543 7.28762 31.6543Z" fill="#097CF6"/>
<path fill-rule="evenodd" clip-rule="evenodd" d="M7.71291 28.5862C7.9168 28.5862 8.08599 28.7561 8.08599 28.9708C8.08599 29.181 7.92114 29.3554 7.71291 29.3554C7.50903 29.3554 7.33984 29.1855 7.33984 28.9708C7.33984 28.7561 7.50903 28.5862 7.71291 28.5862Z" fill="#097CF6"/>
<path d="M25.4771 23.8006C25.5205 23.8453 25.5205 23.9214 25.4771 23.9661C25.4337 24.0108 25.36 24.0108 25.3166 23.9661L24.2972 22.9151C24.2538 22.8704 24.2538 22.7943 24.2972 22.7496C24.3406 22.7049 24.4143 22.7049 24.4577 22.7496L25.4771 23.8006Z" fill="#097CF6"/>
<path d="M21.66 20.1963C21.6166 20.1516 21.6166 20.0756 21.66 20.0309C21.7034 19.9861 21.7771 19.9861 21.8205 20.0309L23.8594 22.1329C23.881 22.1552 23.8941 22.1865 23.8941 22.2178V24.1007L26.7528 27.133C26.7962 27.1777 26.7962 27.2537 26.7528 27.2985C26.7094 27.3432 26.6357 27.3432 26.5923 27.2985L23.7075 24.2349C23.6815 24.2125 23.6685 24.1812 23.6685 24.1454V22.267L21.66 20.1963Z" fill="#097CF6"/>
<path d="M27.4339 29.7627C27.4773 29.8074 27.4773 29.8834 27.4339 29.9282C27.3906 29.9729 27.3168 29.9729 27.2734 29.9282L24.8398 27.4192H22.9311C22.8964 27.4192 22.866 27.4058 22.8443 27.3789L20.4671 24.8386C20.4237 24.7894 20.4237 24.7179 20.4714 24.6731C20.5148 24.6284 20.5885 24.6284 20.6319 24.6776L22.9788 27.1821H24.8875C24.9179 27.1821 24.9483 27.1956 24.9699 27.2179L27.4339 29.7627Z" fill="#097CF6"/>
<path d="M27.6898 35.9879C27.7332 36.0326 27.7332 36.1086 27.6855 36.1533C27.6421 36.1981 27.5684 36.1981 27.525 36.1489L25.3126 33.783C25.2909 33.7606 25.2822 33.7293 25.2822 33.7025V31.8241L24.0763 30.5808H22.2543C22.2196 30.5808 22.1892 30.5674 22.1675 30.5405L20.4757 28.8813C20.4323 28.8365 20.428 28.7605 20.4714 28.7158C20.5147 28.6711 20.5885 28.6666 20.6319 28.7113L22.2977 30.3437H24.124C24.1544 30.3437 24.1847 30.3572 24.2064 30.3795L25.4818 31.6944C25.5035 31.7168 25.5165 31.7481 25.5165 31.7794V33.6622L27.6898 35.9879Z" fill="#097CF6"/>
<path d="M27.6895 32.0386C27.7328 32.0834 27.7328 32.1594 27.6895 32.2041C27.6461 32.2488 27.5723 32.2488 27.5289 32.2041L24.8914 29.4849C24.848 29.4402 24.848 29.3642 24.8914 29.3194C24.9348 29.2747 25.0085 29.2747 25.0519 29.3194L27.6895 32.0386Z" fill="#097CF6"/>
<path d="M27.0084 39.1411C27.0518 39.1859 27.0518 39.2619 27.0084 39.3066C26.965 39.3513 26.8913 39.3513 26.8479 39.3066L25.2689 37.6742H23.4469C23.4122 37.6742 23.3818 37.6563 23.3601 37.634L22.0067 36.2386C21.9633 36.1939 21.9633 36.1178 22.0067 36.0731C22.05 36.0284 22.1238 36.0284 22.1672 36.0731L23.4946 37.4416H25.3166C25.3469 37.4416 25.3773 37.4551 25.399 37.4774L27.0084 39.1411Z" fill="#097CF6"/>
<path d="M27.4335 37.6512C27.4769 37.6959 27.4769 37.7719 27.4335 37.8211C27.3902 37.8658 27.3164 37.8658 27.273 37.8211L24.128 34.5786C24.1063 34.5563 24.0933 34.525 24.0933 34.4937V32.4766C24.0933 32.4095 24.1453 32.3604 24.2061 32.3604C24.2711 32.3604 24.3188 32.414 24.3188 32.4766V34.4445L27.4335 37.6512Z" fill="#097CF6"/>
<path d="M26.4144 40.5452C26.4577 40.5944 26.4534 40.6659 26.41 40.7107C26.3623 40.7554 26.2929 40.7554 26.2495 40.7062L24.8874 39.2169C24.844 39.1677 24.8483 39.0961 24.8917 39.0514C24.9394 39.0067 25.0088 39.0112 25.0522 39.0559L26.4144 40.5452Z" fill="#097CF6"/>
<path d="M27.8586 34.0555C27.902 34.1002 27.902 34.1762 27.8586 34.221C27.8152 34.2657 27.7414 34.2657 27.6981 34.221L26.7611 33.2549C26.7177 33.2102 26.7177 33.1342 26.7611 33.0895C26.8044 33.0447 26.8782 33.0447 26.9216 33.0895L27.8586 34.0555Z" fill="#097CF6"/>
<path d="M23.9503 43.8728C23.9937 43.9175 23.9937 43.9935 23.9503 44.0383C23.9069 44.083 23.8332 44.083 23.7898 44.0383L22.9396 43.1617C22.9179 43.1393 22.9049 43.108 22.9049 43.0812V41.1178L21.5818 39.8387C21.534 39.794 21.534 39.7179 21.5774 39.6732C21.6208 39.624 21.6945 39.624 21.7379 39.6687L23.0914 40.9791C23.1174 41.0015 23.1348 41.0328 23.1348 41.0686V43.0364L23.9503 43.8728Z" fill="#097CF6"/>
<path d="M24.8828 42.8217C24.9262 42.8664 24.9262 42.9424 24.8828 42.9871C24.8394 43.0319 24.7657 43.0319 24.7223 42.9871L23.9588 42.2C23.9154 42.1553 23.9154 42.0792 23.9588 42.0345C24.0022 41.9898 24.0759 41.9898 24.1193 42.0345L24.8828 42.8217Z" fill="#097CF6"/>
<path d="M22.5057 22.7499C22.5491 22.7991 22.5448 22.8707 22.4971 22.9154C22.4493 22.9601 22.3799 22.9556 22.3365 22.9064L21.3171 21.766C21.2737 21.7168 21.2781 21.6408 21.3258 21.6005C21.3735 21.5558 21.4429 21.5603 21.4863 21.6095L22.5057 22.7499Z" fill="#097CF6"/>
<path d="M22.5883 28.6217C22.6317 28.6664 22.6317 28.7424 22.5883 28.7872C22.5449 28.8319 22.4712 28.8319 22.4278 28.7872L20.0462 26.3318C20.0028 26.2871 20.0028 26.2111 20.0462 26.1664C20.0896 26.1216 20.1633 26.1216 20.2067 26.1664L22.5883 28.6217Z" fill="#097CF6"/>
<path d="M22.9265 44.7494C22.9699 44.7942 22.9699 44.8702 22.9265 44.9149C22.8831 44.9596 22.8094 44.9596 22.766 44.9149L21.6598 43.7745C21.6381 43.7521 21.6251 43.7208 21.6251 43.6895V41.8111L21.2347 41.4086C21.1913 41.3638 21.1913 41.2878 21.2347 41.2386C21.2781 41.1939 21.3518 41.1939 21.3952 41.2386L21.8203 41.6769C21.842 41.6993 21.855 41.7306 21.855 41.7619V43.6403L22.9265 44.7494Z" fill="#097CF6"/>
<path d="M20.6317 46.3281C20.6751 46.3728 20.6751 46.4489 20.6317 46.4936C20.5883 46.5383 20.5145 46.5383 20.4712 46.4936L19.6209 45.617C19.5775 45.5723 19.5775 45.4962 19.6209 45.4515C19.6643 45.4068 19.738 45.4068 19.7814 45.4515L20.6317 46.3281Z" fill="#097CF6"/>
<path d="M21.8202 45.5365C21.8679 45.5813 21.8679 45.6573 21.8245 45.702C21.7811 45.7512 21.7074 45.7512 21.664 45.7065L20.2195 44.3022C20.1717 44.2574 20.1717 44.1814 20.2151 44.1367C20.2585 44.092 20.3322 44.0875 20.3756 44.1322L21.8202 45.5365Z" fill="#097CF6"/>
<path d="M23.4384 25.6388C23.4818 25.6835 23.4818 25.7595 23.4384 25.8087C23.395 25.8534 23.3213 25.8534 23.2779 25.8087L20.8963 23.3534C20.8529 23.3087 20.8529 23.2326 20.8963 23.1834C20.9397 23.1387 21.0134 23.1387 21.0568 23.1834L23.4384 25.6388Z" fill="#097CF6"/>
<path d="M25.7332 41.7703C25.7766 41.815 25.7766 41.8911 25.7332 41.9358C25.6898 41.9805 25.6161 41.9805 25.5727 41.9358L21.8333 38.0806C21.7899 38.0359 21.7899 37.9599 21.8333 37.9151C21.8767 37.8704 21.9504 37.8704 21.9938 37.9151L25.7332 41.7703Z" fill="#097CF6"/>
<path d="M23.7767 35.809C23.8201 35.8537 23.8201 35.9298 23.7767 35.9745C23.7333 36.0192 23.6596 36.0192 23.6162 35.9745L21.8289 34.1319C21.7855 34.0872 21.7855 34.0111 21.8289 33.9664C21.8723 33.9217 21.946 33.9217 21.9894 33.9664L23.7767 35.809Z" fill="#097CF6"/>
<path d="M22.6703 32.7411C22.7137 32.7859 22.7137 32.8619 22.6703 32.9066C22.627 32.9513 22.5532 32.9513 22.5098 32.9066L21.4036 31.7662C21.3602 31.7214 21.3602 31.6454 21.4036 31.6007C21.447 31.556 21.5208 31.556 21.5641 31.6007L22.6703 32.7411Z" fill="#097CF6"/>
<path d="M12.3893 18.0675C12.4543 18.0675 12.5021 18.1212 12.5021 18.1838C12.5021 18.2509 12.45 18.3001 12.3893 18.3001H11.1139C11.0748 18.3001 11.0445 18.2822 11.0228 18.2509L10.4328 17.5577C10.3894 17.5085 10.3981 17.4324 10.4415 17.3922C10.4892 17.3475 10.563 17.3564 10.602 17.4011L11.1659 18.0675H12.3893Z" fill="#097CF6"/>
<path d="M12.0466 18.9437C12.1116 18.9437 12.1594 18.9974 12.1594 19.0645C12.1594 19.1316 12.1073 19.1808 12.0466 19.1808H10.0901C10.0598 19.1808 10.0294 19.1674 10.0077 19.145L9.41339 18.5323C9.37001 18.4875 9.37001 18.4115 9.41339 18.3668C9.45677 18.3221 9.53052 18.3221 9.5739 18.3668L10.1335 18.9437H12.0466Z" fill="#097CF6"/>
<path d="M9.92107 22.9243C9.96445 22.969 9.96445 23.045 9.92107 23.0897C9.87769 23.1345 9.80394 23.1345 9.76056 23.0897L9.10985 22.4234H7.20112C7.16208 22.4234 7.12304 22.401 7.10569 22.3697L6.77166 21.9403C6.73262 21.8911 6.74129 21.8151 6.78901 21.7749C6.83673 21.7346 6.91047 21.7436 6.94952 21.7928L7.25318 22.1863H9.15323C9.1836 22.1863 9.21397 22.1997 9.23566 22.2221L9.92107 22.9243Z" fill="#097CF6"/>
<path d="M12.6454 16.8413C12.7105 16.8413 12.7582 16.8949 12.7582 16.962C12.7582 17.0246 12.7062 17.0783 12.6454 17.0783H11.8819C11.8472 17.0783 11.8169 17.0604 11.7952 17.038L11.3787 16.6087C11.3353 16.564 11.3353 16.4879 11.3787 16.4432C11.4221 16.3985 11.4959 16.3985 11.5392 16.4432L11.9297 16.8457H12.6454V16.8413Z" fill="#097CF6"/>
<path d="M6.94515 28.0093C6.98853 28.054 6.98853 28.1301 6.94515 28.1748C6.90177 28.2195 6.82802 28.2195 6.78464 28.1748L5.93439 27.2982C5.89101 27.2535 5.89101 27.1775 5.93439 27.1283C5.97777 27.0835 6.05152 27.0835 6.0949 27.1283L6.94515 28.0093Z" fill="#097CF6"/>
<path d="M7.53972 30.5494C7.5831 30.5941 7.5831 30.6701 7.53972 30.7193C7.49634 30.7641 7.4226 30.7641 7.37922 30.7193L6.4422 29.7533C6.39882 29.7086 6.39882 29.6325 6.4422 29.5833C6.48558 29.5386 6.55933 29.5386 6.60271 29.5833L7.53972 30.5494Z" fill="#097CF6"/>
<path d="M8.72794 25.6388C8.77132 25.6835 8.77132 25.7595 8.72794 25.8087C8.68456 25.8534 8.61081 25.8534 8.56743 25.8087L6.18586 23.3534C6.14248 23.3087 6.14248 23.2326 6.18586 23.1834C6.22924 23.1387 6.30298 23.1387 6.34636 23.1834L8.72794 25.6388Z" fill="#097CF6"/>
<path d="M8.22038 27.3921C8.26376 27.4368 8.26376 27.5128 8.22038 27.5576C8.177 27.6023 8.10325 27.6023 8.05987 27.5576L5.84748 25.2767C5.8041 25.2319 5.8041 25.1559 5.84748 25.1112C5.89086 25.0665 5.9646 25.0665 6.00798 25.1112L8.22038 27.3921Z" fill="#097CF6"/>
<path d="M10.7668 21.5201C10.8102 21.5648 10.8145 21.6409 10.7711 21.6856C10.7277 21.7303 10.654 21.7348 10.6106 21.6901L8.48498 19.5881C8.4416 19.5433 8.43726 19.4673 8.48064 19.4226C8.52402 19.3779 8.59777 19.3734 8.64115 19.4181L10.7668 21.5201Z" fill="#097CF6"/>
<path fill-rule="evenodd" clip-rule="evenodd" d="M7.45706 30.2495C7.66094 30.2495 7.83013 30.4195 7.83013 30.6341C7.83013 30.8443 7.66528 31.0188 7.45706 31.0188C7.25317 31.0188 7.08398 30.8488 7.08398 30.6341C7.08398 30.4195 7.25317 30.2495 7.45706 30.2495Z" fill="#097CF6"/>
<path fill-rule="evenodd" clip-rule="evenodd" d="M6.52004 29.2837C6.72393 29.2837 6.89311 29.4536 6.89311 29.6683C6.89311 29.8785 6.72827 30.0529 6.52004 30.0529C6.31616 30.0529 6.14697 29.883 6.14697 29.6683C6.15131 29.4581 6.31616 29.2837 6.52004 29.2837Z" fill="#097CF6"/>
<path d="M8.98839 21.2245C9.05346 21.2245 9.10118 21.2782 9.10118 21.3452C9.10118 21.4079 9.04912 21.4615 8.98839 21.4615H8.22489C8.19019 21.4615 8.15982 21.4436 8.13813 21.4213L7.54816 20.813C7.50478 20.7683 7.50478 20.6923 7.54816 20.6476C7.59154 20.6028 7.66528 20.6028 7.70867 20.6476L8.26827 21.2245H8.98839Z" fill="#097CF6"/>
<path d="M110.052 9.3282C109.666 9.3282 109.457 9.52498 109.345 9.89172L107.479 16.569C107.319 17.1146 107.206 17.5976 107.093 18.1253H106.802C106.69 17.611 106.577 17.1146 106.434 16.5824L104.551 9.88724C104.438 9.52051 104.247 9.32372 103.874 9.32372H102.091C101.675 9.32372 101.449 9.57418 101.432 10.0035L101.016 20.7596H102.608L102.976 10.7012H103.28L105.549 18.8365C105.644 19.2166 105.887 19.4 106.256 19.4H107.653C108.021 19.4 108.247 19.2166 108.342 18.8365L110.594 10.7012H110.915L111.301 20.7596H112.91L112.459 10.0035C112.442 9.57418 112.216 9.32372 111.8 9.32372H110.052V9.3282ZM98.5211 20.764V9.3282H96.851L92.2223 17.4321C91.9794 17.8481 91.7712 18.2774 91.5933 18.7246H91.5109C91.576 18.2461 91.6063 17.7944 91.6063 17.3158V9.3282H90.062V20.764H91.7191L96.3825 12.6243C96.5734 12.2576 96.799 11.7791 96.9595 11.3318H97.0549C96.9725 11.7791 96.9595 12.2263 96.9595 12.6914V20.764H98.5211ZM83.9367 15.4598L86.5872 20.764H88.3398L85.2858 14.8471L88.1316 9.3282H86.379L83.9671 14.1986H83.5333L81.104 9.3282H79.3861L82.2145 14.8471L79.1779 20.764H80.9131L83.5506 15.4598H83.9367ZM73.7076 10.5894C75.7986 10.5894 76.4579 11.6672 76.4579 15.0484C76.4579 18.4295 75.7986 19.5073 73.7076 19.5073C71.6341 19.5073 70.9747 18.4295 70.9747 15.0484C70.9747 11.6672 71.6341 10.5894 73.7076 10.5894ZM73.7076 9.11353C70.4454 9.11353 69.2872 10.5536 69.2872 15.0484C69.2872 19.5431 70.4454 20.9832 73.7076 20.9832C76.9872 20.9832 78.1454 19.5431 78.1454 15.0484C78.1454 10.5536 76.9872 9.11353 73.7076 9.11353ZM60.4463 10.737C61.2011 10.652 62.1338 10.5402 63.3397 10.5402C64.9491 10.5402 65.4957 10.8891 65.4957 12.3784C65.4957 13.805 64.9969 14.1852 63.535 14.1852H61.6392V15.4956H63.535C65.2051 15.4956 65.7864 15.9607 65.7864 17.6334C65.7864 19.1898 65.2398 19.5386 63.6477 19.5386C62.2986 19.5386 61.0926 19.4223 60.1903 19.306L60.0472 20.5002C61.1707 20.7819 62.3637 20.8982 63.921 20.8982C66.4284 20.8982 67.4262 20.2676 67.4262 17.9151C67.4262 16.0904 66.8796 15.017 65.2398 14.865V14.7979C66.5586 14.6637 67.1052 13.8185 67.1052 12.1816C67.1052 9.8291 66.1551 9.1985 63.4395 9.1985C62.2032 9.1985 61.3009 9.28347 60.3205 9.46237L60.4463 10.737ZM56.2341 15.8757H52.6639L53.9653 11.5331L54.2212 10.6028H54.655C54.7374 10.9025 54.8459 11.2334 54.9283 11.5331L56.2341 15.8757ZM56.6548 17.3203L57.683 20.7685H59.3401L55.8523 9.77991C55.7872 9.49815 55.5486 9.33267 55.2753 9.33267H53.6356C53.3449 9.33267 53.1193 9.49815 53.0413 9.77991L49.5708 20.7685H51.2106L52.2387 17.3203H56.6548ZM43.6885 20.764H45.2979V11.864C45.2979 11.0009 45.5712 10.7191 46.326 10.7191H50.33L50.3951 9.44448C48.9635 9.29689 47.3237 9.29689 45.7794 9.29689C44.5734 9.29689 43.6885 10.2093 43.6885 11.551V20.764Z" fill="#2874C8"/>
<path d="M144.851 39.6997H146.461V30.7997C146.461 29.9365 146.734 29.6548 147.489 29.6548H151.493L151.558 28.3802C150.126 28.2326 148.486 28.2326 146.942 28.2326C145.736 28.2326 144.851 29.1449 144.851 30.4866V39.6997ZM142.188 28.2639H140.565V32.8883H135.728V28.2639H134.119V39.6997H135.728V34.315H140.565V39.6997H142.188V28.2639ZM131.408 39.6997V28.2639H129.738L125.109 36.3678C124.866 36.7837 124.658 37.2131 124.48 37.6603H124.397C124.462 37.1818 124.493 36.7301 124.493 36.2515V28.2639H122.948V39.6997H124.606L129.269 31.56C129.46 31.1933 129.685 30.7147 129.846 30.2675H129.941C129.859 30.7147 129.846 31.162 129.846 31.6271V39.6997H131.408ZM115.062 33.9304V29.5564C115.656 29.5385 116.411 29.5385 117.266 29.5385C118.81 29.5385 119.309 29.9857 119.309 31.7255C119.309 33.4652 118.81 33.9125 117.266 33.9304H115.062ZM113.44 39.6997H115.062V35.2095C115.739 35.2944 116.606 35.3571 117.491 35.3571C120.029 35.3571 120.931 34.5789 120.931 31.7255C120.931 28.9079 120.029 28.1118 117.313 28.1118C115.483 28.1118 114.663 28.1297 113.44 28.2594V39.6997ZM110.733 39.6997V28.2639H109.062L104.434 36.3678C104.191 36.7837 103.983 37.2131 103.805 37.6603H103.722C103.787 37.1818 103.818 36.7301 103.818 36.2515V28.2639H102.273V39.6997H103.931L108.594 31.56C108.785 31.1933 109.01 30.7147 109.171 30.2675H109.266C109.184 30.7147 109.171 31.162 109.171 31.6271V39.6997H110.733ZM99.5795 28.2639H97.9571V32.8883H93.1202V28.2639H91.5108V39.6997H93.1202V34.315H97.9571V39.6997H99.5795V28.2639ZM88.8039 39.6997V28.2639H87.1337L82.5051 36.3678C82.2621 36.7837 82.0539 37.2131 81.876 37.6603H81.7936C81.8587 37.1818 81.8891 36.7301 81.8891 36.2515V28.2639H80.3447V39.6997H82.0018L86.6652 31.56C86.8561 31.1933 87.0817 30.7147 87.2422 30.2675H87.3376C87.2552 30.7147 87.2422 31.162 87.2422 31.6271V39.6997H88.8039ZM74.6532 33.7023C76.614 33.4876 77.1953 31.4169 78.2364 28.2683H76.5967C75.5989 31.1038 75.0046 33.0761 73.3475 33.0761H72.3497C72.4148 32.6602 72.4322 32.2309 72.4322 31.7836V28.2683H70.9052V31.7836C70.9052 32.2309 70.9355 32.6602 71.0006 33.0761H69.9074C68.2676 33.0761 67.6733 31.1038 66.6929 28.2683H65.0532C66.0986 31.4169 66.6452 33.4876 68.6234 33.7023V33.7694C66.5324 33.984 66.0032 35.9742 64.7669 39.7042H66.4544C67.6907 36.2068 68.1592 34.4 69.9421 34.4179H71.018C70.9529 34.8159 70.9052 35.2139 70.9052 35.5941V39.7042H72.4322V35.5941C72.4322 35.2139 72.4018 34.8159 72.3367 34.4179H73.3345C75.1348 34.4 75.6033 36.2068 76.8222 39.7042H78.5271C77.2907 35.9742 76.7572 33.9885 74.6532 33.7694V33.7023ZM62.9536 28.2639H61.3311V32.8883H56.4942V28.2639H54.8848V39.6997H56.4942V34.315H61.3311V39.6997H62.9536V28.2639ZM52.1779 39.6997V28.2639H50.5078L45.8791 36.3678C45.6362 36.7837 45.4279 37.2131 45.2501 37.6603H45.1676C45.2327 37.1818 45.2631 36.7301 45.2631 36.2515V28.2639H43.7188V39.6997H45.3759L50.0393 31.56C50.2301 31.1933 50.4557 30.7147 50.6162 30.2675H50.7116C50.6292 30.7147 50.6162 31.162 50.6162 31.6271V39.6997H52.1779Z" fill="#2874C8"/>
<mask id="mask0_784_8396" style="mask-type:luminance" maskUnits="userSpaceOnUse" x="4" y="-1" width="18" height="49">
<path d="M13.0574 13.8766C14.7188 15.9875 14.3154 20.8982 11.8557 28.5996C8.6022 39.5703 10.3244 45.7735 16.9963 47.151C14.3284 45.2368 14.901 38.3852 18.7185 26.5871C22.5403 14.8158 22.3277 5.92471 18.0331 -0.0458984C15.6255 4.95421 12.3416 9.89618 8.17708 14.78C4.01257 19.6683 3.2404 25.223 5.86491 31.453C4.66327 25.9162 5.14913 21.824 7.36153 19.1406C9.57392 16.4571 11.474 14.7129 13.0574 13.8766Z" fill="white"/>
</mask>
<g mask="url(#mask0_784_8396)">
<path d="M22.5358 -0.0458984H3.24023V47.1465H22.5358V-0.0458984Z" fill="url(#paint0_linear_784_8396)"/>
</g>
<mask id="mask1_784_8396" style="mask-type:luminance" maskUnits="userSpaceOnUse" x="4" y="-1" width="18" height="49">
<path d="M13.0574 13.8766C14.7188 15.9875 14.3154 20.8982 11.8557 28.5996C8.6022 39.5703 10.3244 45.7735 16.9963 47.151C14.3284 45.2368 14.901 38.3852 18.7185 26.5871C22.5403 14.8158 22.3277 5.92471 18.0331 -0.0458984C15.6255 4.95421 12.3416 9.89618 8.17708 14.78C4.01257 19.6683 3.2404 25.223 5.86491 31.453C4.66327 25.9162 5.14913 21.824 7.36153 19.1406C9.57392 16.4571 11.474 14.7129 13.0574 13.8766Z" fill="white"/>
</mask>
<g mask="url(#mask1_784_8396)">
<path d="M22.5358 -0.0458984H3.24023V47.1465H22.5358V-0.0458984Z" fill="url(#paint1_linear_784_8396)"/>
</g>
<mask id="mask2_784_8396" style="mask-type:luminance" maskUnits="userSpaceOnUse" x="4" y="-1" width="18" height="33">
<path d="M11.8514 28.5996C14.3154 20.8982 14.7145 15.9875 13.053 13.8766C11.4696 14.7129 9.57392 16.4616 7.36153 19.1406C5.14913 21.824 4.66327 25.9162 5.86491 31.453C3.2404 25.223 4.01257 19.6683 8.17707 14.78C12.3416 9.89618 15.6255 4.95421 18.0331 -0.0458984C22.3277 5.92471 22.5359 14.8113 18.7185 26.5871C17.0917 28.0361 13.4651 28.5325 11.8514 28.5996Z" fill="white"/>
</mask>
<g mask="url(#mask2_784_8396)">
<path d="M22.5358 -0.0458984H3.24023V31.4485H22.5358V-0.0458984Z" fill="url(#paint2_linear_784_8396)"/>
</g>
</g>
<defs>
<linearGradient id="paint0_linear_784_8396" x1="8.25313" y1="44.9858" x2="18.3255" y2="1.17536" gradientUnits="userSpaceOnUse">
<stop stop-color="#097CF6"/>
<stop offset="1" stop-color="#8FB5E2"/>
</linearGradient>
<linearGradient id="paint1_linear_784_8396" x1="12.914" y1="23.2631" x2="10.7756" y2="46.7316" gradientUnits="userSpaceOnUse">
<stop stop-color="#5098FC"/>
<stop offset="1" stop-color="#2968FA"/>
</linearGradient>
<linearGradient id="paint2_linear_784_8396" x1="12.8891" y1="-0.0443778" x2="12.8891" y2="31.1504" gradientUnits="userSpaceOnUse">
<stop stop-color="#8DD6FE"/>
<stop offset="1" stop-color="#67A1FB"/>
</linearGradient>
<clipPath id="clip0_784_8396">
<rect width="154" height="49" fill="white"/>
</clipPath>
</defs>
</svg>
