<svg width="80" height="80" viewBox="0 0 80 80" fill="none" xmlns="http://www.w3.org/2000/svg">
<path d="M45.0709 33.9868H40.6891C40.4552 33.9868 40.2656 34.2102 40.2656 34.4858V43.9453C40.2656 44.2209 40.4552 44.4443 40.6891 44.4443H45.0709C45.3048 44.4443 45.4944 44.2209 45.4944 43.9453V34.4858C45.4944 34.2102 45.3048 33.9868 45.0709 33.9868Z" stroke="url(#paint0_linear_2911_25936)" stroke-width="2"/>
<path d="M40.7812 29.804H45.0102C45.7544 29.804 46.4644 30.1232 46.9672 30.6841L48.9722 32.9202C49.4211 33.4208 49.6701 34.0752 49.6701 34.7542V45.9132C49.6701 47.4122 48.4814 48.6275 47.0151 48.6275H40.7812" stroke="url(#paint1_linear_2911_25936)" stroke-width="2" stroke-linecap="round"/>
<path d="M59.5839 47.6236L56.0179 44.3521V34.8649L47.9133 25.7048H41.4296V15.5633M41.4296 15.5633V14.2546L46.9407 8.36597H50.5067M41.4296 15.5633H45.9681M58.6114 11.9647L55.3695 8.36597H50.5067M50.5067 8.36597V14.0911M64.1224 17.5261H66.3917L73.1996 25.0505V30.9392M73.1996 30.9392V39.1178M73.1996 30.9392H70.9303L67.0401 26.6862H64.1224M73.1996 45.6607V39.1178M73.1996 39.1178H69.3094V34.2106L66.0675 30.9392H61.529M69.6335 53.8394L66.0675 57.7651M66.0675 57.7651V43.0436M66.0675 57.7651L55.3695 69.5424H49.5342M40.7812 52.5309V58.0923M40.7812 58.0923V63.6538L46.6166 69.5424H49.5342M40.7812 58.0923H43.3747M61.529 30.9392V38.4635M61.529 30.9392L57.3146 26.3591M57.3146 26.3591V22.4333M57.3146 26.3591H53.4244M50.5067 14.0911V19.8161M50.5067 14.0911H54.3969L56.9904 17.1989M49.5342 69.5424V61.0366H51.8034M51.8034 46.9693L56.0179 51.8765V57.7651H58.2871M49.21 51.2222L50.5067 55.1479" stroke="url(#paint2_linear_2911_25936)" stroke-width="2" stroke-linecap="round" stroke-linejoin="round"/>
<path d="M41.8343 23.5293C42.7006 23.5293 43.4029 22.5929 43.4029 21.4378C43.4029 20.2827 42.7006 19.3463 41.8343 19.3463C40.9679 19.3463 40.2656 20.2827 40.2656 21.4378C40.2656 22.5929 40.9679 23.5293 41.8343 23.5293Z" fill="url(#paint3_linear_2911_25936)" stroke="url(#paint4_linear_2911_25936)"/>
<path d="M46.7994 16.732C47.5213 16.732 48.1066 16.2638 48.1066 15.6863C48.1066 15.1087 47.5213 14.6405 46.7994 14.6405C46.0774 14.6405 45.4922 15.1087 45.4922 15.6863C45.4922 16.2638 46.0774 16.732 46.7994 16.732Z" fill="url(#paint5_linear_2911_25936)" stroke="url(#paint6_linear_2911_25936)"/>
<path d="M63.5259 28.2352C64.2479 28.2352 64.8331 27.65 64.8331 26.928C64.8331 26.2061 64.2479 25.6208 63.5259 25.6208C62.804 25.6208 62.2188 26.2061 62.2188 26.928C62.2188 27.65 62.804 28.2352 63.5259 28.2352Z" fill="url(#paint7_linear_2911_25936)" stroke="url(#paint8_linear_2911_25936)"/>
<path d="M61.9634 40.2614C62.6854 40.2614 63.2706 39.7932 63.2706 39.2157C63.2706 38.6381 62.6854 38.1699 61.9634 38.1699C61.2415 38.1699 60.6562 38.6381 60.6562 39.2157C60.6562 39.7932 61.2415 40.2614 61.9634 40.2614Z" fill="url(#paint9_linear_2911_25936)" stroke="url(#paint10_linear_2911_25936)"/>
<path d="M59.0848 58.5621C59.6624 58.5621 60.1306 58.0939 60.1306 57.5163C60.1306 56.9388 59.6624 56.4706 59.0848 56.4706C58.5073 56.4706 58.0391 56.9388 58.0391 57.5163C58.0391 58.0939 58.5073 58.5621 59.0848 58.5621Z" fill="url(#paint11_linear_2911_25936)" stroke="url(#paint12_linear_2911_25936)"/>
<path d="M50.7176 56.9935C51.2952 56.9935 51.7634 56.5253 51.7634 55.9477C51.7634 55.3702 51.2952 54.902 50.7176 54.902C50.1401 54.902 49.6719 55.3702 49.6719 55.9477C49.6719 56.5253 50.1401 56.9935 50.7176 56.9935Z" fill="url(#paint13_linear_2911_25936)" stroke="url(#paint14_linear_2911_25936)"/>
<path d="M44.4442 58.5621C45.0217 58.5621 45.4899 58.0939 45.4899 57.5163C45.4899 56.9388 45.0217 56.4706 44.4442 56.4706C43.8666 56.4706 43.3984 56.9388 43.3984 57.5163C43.3984 58.0939 43.8666 58.5621 44.4442 58.5621Z" fill="url(#paint15_linear_2911_25936)" stroke="url(#paint16_linear_2911_25936)"/>
<path d="M52.2879 62.2222C52.8655 62.2222 53.3337 61.754 53.3337 61.1765C53.3337 60.5989 52.8655 60.1307 52.2879 60.1307C51.7104 60.1307 51.2422 60.5989 51.2422 61.1765C51.2422 61.754 51.7104 62.2222 52.2879 62.2222Z" fill="url(#paint17_linear_2911_25936)" stroke="url(#paint18_linear_2911_25936)"/>
<path d="M66.1431 45.4903C66.8651 45.4903 67.4503 44.788 67.4503 43.9217C67.4503 43.0553 66.8651 42.353 66.1431 42.353C65.4212 42.353 64.8359 43.0553 64.8359 43.9217C64.8359 44.788 65.4212 45.4903 66.1431 45.4903Z" fill="url(#paint19_linear_2911_25936)" stroke="url(#paint20_linear_2911_25936)"/>
<path d="M60.1311 49.6732C60.9975 49.6732 61.6998 49.088 61.6998 48.366C61.6998 47.6441 60.9975 47.0588 60.1311 47.0588C59.2648 47.0588 58.5625 47.6441 58.5625 48.366C58.5625 49.088 59.2648 49.6732 60.1311 49.6732Z" fill="url(#paint21_linear_2911_25936)" stroke="url(#paint22_linear_2911_25936)"/>
<path d="M70.8535 54.902C71.8642 54.902 72.6836 54.0826 72.6836 53.0719C72.6836 52.0612 71.8642 51.2418 70.8535 51.2418C69.8428 51.2418 69.0234 52.0612 69.0234 53.0719C69.0234 54.0826 69.8428 54.902 70.8535 54.902Z" fill="url(#paint23_linear_2911_25936)" stroke="url(#paint24_linear_2911_25936)"/>
<path d="M73.4634 47.5817C74.1854 47.5817 74.7706 46.9964 74.7706 46.2745C74.7706 45.5525 74.1854 44.9673 73.4634 44.9673C72.7415 44.9673 72.1562 45.5525 72.1562 46.2745C72.1562 46.9964 72.7415 47.5817 73.4634 47.5817Z" fill="url(#paint25_linear_2911_25936)" stroke="url(#paint26_linear_2911_25936)"/>
<path d="M57.5145 23.0065C58.0921 23.0065 58.5603 22.4212 58.5603 21.6993C58.5603 20.9773 58.0921 20.3921 57.5145 20.3921C56.9369 20.3921 56.4688 20.9773 56.4688 21.6993C56.4688 22.4212 56.9369 23.0065 57.5145 23.0065Z" fill="url(#paint27_linear_2911_25936)" stroke="url(#paint28_linear_2911_25936)"/>
<path d="M52.2879 28.2352C52.8655 28.2352 53.3337 27.65 53.3337 26.928C53.3337 26.2061 52.8655 25.6208 52.2879 25.6208C51.7104 25.6208 51.2422 26.2061 51.2422 26.928C51.2422 27.65 51.7104 28.2352 52.2879 28.2352Z" fill="url(#paint29_linear_2911_25936)" stroke="url(#paint30_linear_2911_25936)"/>
<path d="M63.0025 18.3007C63.7244 18.3007 64.3097 17.8325 64.3097 17.255C64.3097 16.6774 63.7244 16.2092 63.0025 16.2092C62.2806 16.2092 61.6953 16.6774 61.6953 17.255C61.6953 17.8325 62.2806 18.3007 63.0025 18.3007Z" fill="url(#paint31_linear_2911_25936)" stroke="url(#paint32_linear_2911_25936)"/>
<path d="M59.0848 14.1177C59.6624 14.1177 60.1306 13.5324 60.1306 12.8105C60.1306 12.0885 59.6624 11.5033 59.0848 11.5033C58.5073 11.5033 58.0391 12.0885 58.0391 12.8105C58.0391 13.5324 58.5073 14.1177 59.0848 14.1177Z" fill="url(#paint33_linear_2911_25936)" stroke="url(#paint34_linear_2911_25936)"/>
<path d="M56.9911 18.3007C57.5686 18.3007 58.0368 17.8325 58.0368 17.255C58.0368 16.6774 57.5686 16.2092 56.9911 16.2092C56.4135 16.2092 55.9453 16.6774 55.9453 17.255C55.9453 17.8325 56.4135 18.3007 56.9911 18.3007Z" fill="url(#paint35_linear_2911_25936)" stroke="url(#paint36_linear_2911_25936)"/>
<path d="M50.7176 22.4836C51.2952 22.4836 51.7634 21.7813 51.7634 20.9149C51.7634 20.0486 51.2952 19.3463 50.7176 19.3463C50.1401 19.3463 49.6719 20.0486 49.6719 20.9149C49.6719 21.7813 50.1401 22.4836 50.7176 22.4836Z" fill="url(#paint37_linear_2911_25936)" stroke="url(#paint38_linear_2911_25936)"/>
<path d="M36.0834 17.0603C36.0834 17.0603 36.1385 9.83588 32.8308 8.9703C29.5116 8.10174 26.0002 14.4715 26.0002 14.4715M36.0834 17.0603L32.8308 20.9435M36.0834 17.0603V36.2052M26.0002 14.4715C26.0002 14.4715 21.3943 11.5526 18.8442 12.8535C16.3653 14.1181 15.9168 19.3254 15.9168 19.3254M26.0002 14.4715L23.0727 22.5614M26.0002 14.4715L32.8308 20.9435M32.8308 20.9435L23.0727 22.5614M32.8308 20.9435L23.0727 33.5638M36.0834 36.2052L29.2528 37.7706M36.0834 36.2052V58.9522M36.0834 65.6001C36.0834 65.6001 34.4571 70.7777 28.277 71.1013M36.0834 65.6001H30.8791M36.0834 65.6001V58.9522M28.277 71.1013C22.0969 71.4249 19.1695 63.6586 19.1695 63.6586M28.277 71.1013L25.187 63.9822M30.8791 65.6001L29.2528 61.3933L32.8308 56.9368M30.8791 65.6001L25.187 63.9822M36.0834 58.9522L32.8308 56.9368M19.1695 63.6586L22.0969 56.8629M19.1695 63.6586C19.1695 63.6586 15.5915 65.2765 12.6641 62.6877M25.187 63.9822L22.0969 56.8629M22.0969 56.8629C22.0969 56.8629 25.3102 54.8918 26.6507 54.7262M12.6641 62.6877C9.73671 60.0989 12.6641 55.8921 12.6641 55.8921C12.6641 55.8921 10.4835 55.4977 9.08619 55.245M12.6641 62.6877L18.8442 53.6269M26.6507 54.7262C28.355 54.5158 29.5781 54.9214 29.5781 54.9214M26.6507 54.7262L29.2528 48.773M29.5781 54.9214L29.2528 48.773M29.5781 54.9214L32.8308 56.9368M29.2528 48.773L24.2112 44.8898M29.2528 48.773L18.8442 53.6269M9.08619 55.245C9.34026 53.8549 9.7367 51.6854 9.7367 51.6854C9.7367 51.6854 6.15878 51.6854 5.183 46.5078M9.08619 55.245C11.1821 53.6653 14.4531 51.2 14.4531 51.2M18.8442 53.6269L19.8201 47.155M5.183 46.5078C4.20723 41.3302 7.13464 39.065 7.13464 39.065M5.183 46.5078L12.5015 46.8314M14.4531 51.2L19.8201 47.155M14.4531 51.2L12.5015 46.8314M7.13464 39.065L10.7122 41.6537M7.13464 39.065C7.13464 39.065 4.00656 34.54 4.85774 31.6222C5.60873 29.0477 9.7367 26.7683 9.7367 26.7683M12.5015 46.8314L10.7122 41.6537M12.5015 46.8314L19.8201 47.155M10.7122 41.6537L15.9168 42.417M10.7122 41.6537L10.1821 33.5638M10.7122 41.6537L15.9168 32.9167M9.7367 26.7683C9.7367 26.7683 8.12356 23.7405 8.76093 21.9142C9.73625 19.1196 15.9168 19.3254 15.9168 19.3254M9.7367 26.7683L15.266 28.3862M9.7367 26.7683L10.1821 33.5638M15.9168 42.417L19.1695 41.0066M15.9168 42.417L19.8201 47.155M10.1821 33.5638L15.266 28.3862M15.9168 32.9167L15.266 28.3862M15.9168 32.9167L23.0727 33.5638M19.1695 41.0066L24.2112 44.8898M19.1695 41.0066L23.0727 33.5638M24.2112 44.8898L29.2528 37.7706M23.0727 33.5638V22.5614M23.0727 33.5638L29.2528 37.7706M15.9168 19.3254L23.0727 22.5614M15.9168 19.3254L15.266 28.3862" stroke="url(#paint39_linear_2911_25936)" stroke-width="2" stroke-linecap="round" stroke-linejoin="round"/>
<defs>
<linearGradient id="paint0_linear_2911_25936" x1="40.2656" y1="33.9868" x2="46.7293" y2="34.7407" gradientUnits="userSpaceOnUse">
<stop stop-color="#005A87"/>
<stop offset="1" stop-color="#8FB2FF"/>
</linearGradient>
<linearGradient id="paint1_linear_2911_25936" x1="40.7812" y1="29.804" x2="51.7854" y2="31.0162" gradientUnits="userSpaceOnUse">
<stop stop-color="#005A87"/>
<stop offset="1" stop-color="#8FB2FF"/>
</linearGradient>
<linearGradient id="paint2_linear_2911_25936" x1="40.7813" y1="8.36597" x2="80.7898" y2="13.3118" gradientUnits="userSpaceOnUse">
<stop stop-color="#005A87"/>
<stop offset="1" stop-color="#8FB2FF"/>
</linearGradient>
<linearGradient id="paint3_linear_2911_25936" x1="40.2656" y1="19.3463" x2="44.0798" y2="20.0136" gradientUnits="userSpaceOnUse">
<stop stop-color="#005A87"/>
<stop offset="1" stop-color="#8FB2FF"/>
</linearGradient>
<linearGradient id="paint4_linear_2911_25936" x1="40.2656" y1="19.3463" x2="44.0798" y2="20.0136" gradientUnits="userSpaceOnUse">
<stop stop-color="#005A87"/>
<stop offset="1" stop-color="#8FB2FF"/>
</linearGradient>
<linearGradient id="paint5_linear_2911_25936" x1="45.4922" y1="14.6405" x2="48.5113" y2="15.5209" gradientUnits="userSpaceOnUse">
<stop stop-color="#005A87"/>
<stop offset="1" stop-color="#8FB2FF"/>
</linearGradient>
<linearGradient id="paint6_linear_2911_25936" x1="45.4922" y1="14.6405" x2="48.5113" y2="15.5209" gradientUnits="userSpaceOnUse">
<stop stop-color="#005A87"/>
<stop offset="1" stop-color="#8FB2FF"/>
</linearGradient>
<linearGradient id="paint7_linear_2911_25936" x1="62.2187" y1="25.6208" x2="65.3255" y2="26.3456" gradientUnits="userSpaceOnUse">
<stop stop-color="#005A87"/>
<stop offset="1" stop-color="#8FB2FF"/>
</linearGradient>
<linearGradient id="paint8_linear_2911_25936" x1="62.2187" y1="25.6208" x2="65.3255" y2="26.3456" gradientUnits="userSpaceOnUse">
<stop stop-color="#005A87"/>
<stop offset="1" stop-color="#8FB2FF"/>
</linearGradient>
<linearGradient id="paint9_linear_2911_25936" x1="60.6562" y1="38.1699" x2="63.6753" y2="39.0503" gradientUnits="userSpaceOnUse">
<stop stop-color="#005A87"/>
<stop offset="1" stop-color="#8FB2FF"/>
</linearGradient>
<linearGradient id="paint10_linear_2911_25936" x1="60.6562" y1="38.1699" x2="63.6753" y2="39.0503" gradientUnits="userSpaceOnUse">
<stop stop-color="#005A87"/>
<stop offset="1" stop-color="#8FB2FF"/>
</linearGradient>
<linearGradient id="paint11_linear_2911_25936" x1="58.0391" y1="56.4706" x2="60.5244" y2="57.0504" gradientUnits="userSpaceOnUse">
<stop stop-color="#005A87"/>
<stop offset="1" stop-color="#8FB2FF"/>
</linearGradient>
<linearGradient id="paint12_linear_2911_25936" x1="58.0391" y1="56.4706" x2="60.5244" y2="57.0504" gradientUnits="userSpaceOnUse">
<stop stop-color="#005A87"/>
<stop offset="1" stop-color="#8FB2FF"/>
</linearGradient>
<linearGradient id="paint13_linear_2911_25936" x1="49.6719" y1="54.902" x2="52.1573" y2="55.4818" gradientUnits="userSpaceOnUse">
<stop stop-color="#005A87"/>
<stop offset="1" stop-color="#8FB2FF"/>
</linearGradient>
<linearGradient id="paint14_linear_2911_25936" x1="49.6719" y1="54.902" x2="52.1573" y2="55.4818" gradientUnits="userSpaceOnUse">
<stop stop-color="#005A87"/>
<stop offset="1" stop-color="#8FB2FF"/>
</linearGradient>
<linearGradient id="paint15_linear_2911_25936" x1="43.3984" y1="56.4706" x2="45.8838" y2="57.0504" gradientUnits="userSpaceOnUse">
<stop stop-color="#005A87"/>
<stop offset="1" stop-color="#8FB2FF"/>
</linearGradient>
<linearGradient id="paint16_linear_2911_25936" x1="43.3984" y1="56.4706" x2="45.8838" y2="57.0504" gradientUnits="userSpaceOnUse">
<stop stop-color="#005A87"/>
<stop offset="1" stop-color="#8FB2FF"/>
</linearGradient>
<linearGradient id="paint17_linear_2911_25936" x1="51.2422" y1="60.1307" x2="53.7276" y2="60.7105" gradientUnits="userSpaceOnUse">
<stop stop-color="#005A87"/>
<stop offset="1" stop-color="#8FB2FF"/>
</linearGradient>
<linearGradient id="paint18_linear_2911_25936" x1="51.2422" y1="60.1307" x2="53.7276" y2="60.7105" gradientUnits="userSpaceOnUse">
<stop stop-color="#005A87"/>
<stop offset="1" stop-color="#8FB2FF"/>
</linearGradient>
<linearGradient id="paint19_linear_2911_25936" x1="64.8359" y1="42.353" x2="67.9925" y2="42.9667" gradientUnits="userSpaceOnUse">
<stop stop-color="#005A87"/>
<stop offset="1" stop-color="#8FB2FF"/>
</linearGradient>
<linearGradient id="paint20_linear_2911_25936" x1="64.8359" y1="42.353" x2="67.9925" y2="42.9667" gradientUnits="userSpaceOnUse">
<stop stop-color="#005A87"/>
<stop offset="1" stop-color="#8FB2FF"/>
</linearGradient>
<linearGradient id="paint21_linear_2911_25936" x1="58.5625" y1="47.0588" x2="62.2078" y2="48.0793" gradientUnits="userSpaceOnUse">
<stop stop-color="#005A87"/>
<stop offset="1" stop-color="#8FB2FF"/>
</linearGradient>
<linearGradient id="paint22_linear_2911_25936" x1="58.5625" y1="47.0588" x2="62.2078" y2="48.0793" gradientUnits="userSpaceOnUse">
<stop stop-color="#005A87"/>
<stop offset="1" stop-color="#8FB2FF"/>
</linearGradient>
<linearGradient id="paint23_linear_2911_25936" x1="69.0234" y1="51.2418" x2="73.3729" y2="52.2565" gradientUnits="userSpaceOnUse">
<stop stop-color="#005A87"/>
<stop offset="1" stop-color="#8FB2FF"/>
</linearGradient>
<linearGradient id="paint24_linear_2911_25936" x1="69.0234" y1="51.2418" x2="73.3729" y2="52.2565" gradientUnits="userSpaceOnUse">
<stop stop-color="#005A87"/>
<stop offset="1" stop-color="#8FB2FF"/>
</linearGradient>
<linearGradient id="paint25_linear_2911_25936" x1="72.1562" y1="44.9673" x2="75.263" y2="45.692" gradientUnits="userSpaceOnUse">
<stop stop-color="#005A87"/>
<stop offset="1" stop-color="#8FB2FF"/>
</linearGradient>
<linearGradient id="paint26_linear_2911_25936" x1="72.1562" y1="44.9673" x2="75.263" y2="45.692" gradientUnits="userSpaceOnUse">
<stop stop-color="#005A87"/>
<stop offset="1" stop-color="#8FB2FF"/>
</linearGradient>
<linearGradient id="paint27_linear_2911_25936" x1="56.4688" y1="20.3921" x2="59.0012" y2="20.8647" gradientUnits="userSpaceOnUse">
<stop stop-color="#005A87"/>
<stop offset="1" stop-color="#8FB2FF"/>
</linearGradient>
<linearGradient id="paint28_linear_2911_25936" x1="56.4688" y1="20.3921" x2="59.0012" y2="20.8647" gradientUnits="userSpaceOnUse">
<stop stop-color="#005A87"/>
<stop offset="1" stop-color="#8FB2FF"/>
</linearGradient>
<linearGradient id="paint29_linear_2911_25936" x1="51.2422" y1="25.6208" x2="53.7746" y2="26.0935" gradientUnits="userSpaceOnUse">
<stop stop-color="#005A87"/>
<stop offset="1" stop-color="#8FB2FF"/>
</linearGradient>
<linearGradient id="paint30_linear_2911_25936" x1="51.2422" y1="25.6208" x2="53.7746" y2="26.0935" gradientUnits="userSpaceOnUse">
<stop stop-color="#005A87"/>
<stop offset="1" stop-color="#8FB2FF"/>
</linearGradient>
<linearGradient id="paint31_linear_2911_25936" x1="61.6953" y1="16.2092" x2="64.7144" y2="17.0896" gradientUnits="userSpaceOnUse">
<stop stop-color="#005A87"/>
<stop offset="1" stop-color="#8FB2FF"/>
</linearGradient>
<linearGradient id="paint32_linear_2911_25936" x1="61.6953" y1="16.2092" x2="64.7144" y2="17.0896" gradientUnits="userSpaceOnUse">
<stop stop-color="#005A87"/>
<stop offset="1" stop-color="#8FB2FF"/>
</linearGradient>
<linearGradient id="paint33_linear_2911_25936" x1="58.0391" y1="11.5033" x2="60.5715" y2="11.9759" gradientUnits="userSpaceOnUse">
<stop stop-color="#005A87"/>
<stop offset="1" stop-color="#8FB2FF"/>
</linearGradient>
<linearGradient id="paint34_linear_2911_25936" x1="58.0391" y1="11.5033" x2="60.5715" y2="11.9759" gradientUnits="userSpaceOnUse">
<stop stop-color="#005A87"/>
<stop offset="1" stop-color="#8FB2FF"/>
</linearGradient>
<linearGradient id="paint35_linear_2911_25936" x1="55.9453" y1="16.2092" x2="58.4307" y2="16.789" gradientUnits="userSpaceOnUse">
<stop stop-color="#005A87"/>
<stop offset="1" stop-color="#8FB2FF"/>
</linearGradient>
<linearGradient id="paint36_linear_2911_25936" x1="55.9453" y1="16.2092" x2="58.4307" y2="16.789" gradientUnits="userSpaceOnUse">
<stop stop-color="#005A87"/>
<stop offset="1" stop-color="#8FB2FF"/>
</linearGradient>
<linearGradient id="paint37_linear_2911_25936" x1="49.6719" y1="19.3463" x2="52.2306" y2="19.7443" gradientUnits="userSpaceOnUse">
<stop stop-color="#005A87"/>
<stop offset="1" stop-color="#8FB2FF"/>
</linearGradient>
<linearGradient id="paint38_linear_2911_25936" x1="49.6719" y1="19.3463" x2="52.2306" y2="19.7443" gradientUnits="userSpaceOnUse">
<stop stop-color="#005A87"/>
<stop offset="1" stop-color="#8FB2FF"/>
</linearGradient>
<linearGradient id="paint39_linear_2911_25936" x1="4.71094" y1="8.88892" x2="43.4841" y2="13.4494" gradientUnits="userSpaceOnUse">
<stop stop-color="#005A87"/>
<stop offset="1" stop-color="#8FB2FF"/>
</linearGradient>
</defs>
</svg>
