<svg width="80" height="80" viewBox="0 0 80 80" fill="none" xmlns="http://www.w3.org/2000/svg">
<path d="M3.57031 71.4286H6.63299M6.63299 71.4286L18.3732 60.5195M6.63299 71.4286H12.5031M6.63299 71.4286V61.5584M31.6449 71.4286H21.9464M31.6449 71.4286V57.4026M31.6449 71.4286L26.6681 59.8701M31.6449 71.4286L26.7957 66.7532M31.6449 71.4286H41.8608M21.9464 71.4286H18.3732M21.9464 71.4286V62.0779M21.9464 71.4286L26.7957 66.7532M31.6449 57.4026H37.3468V14.8052H59.2846V32.8752M31.6449 57.4026V46.2337M26.6681 59.8701L25.0091 64.4155M26.6681 59.8701L28.327 55.3246M26.6681 59.8701L21.9464 50.3896M26.7957 66.7532L21.9464 62.0779M31.6449 35.0649L30.1136 31.948M31.6449 35.0649V46.2337M31.6449 35.0649L21.9464 62.0779M30.1136 31.948L27.0509 30.3896M30.1136 31.948L28.327 55.3246M31.6449 46.2337L28.327 55.3246M21.9464 62.0779V50.3896M27.0509 30.3896L23.4777 31.948L21.9464 35.0649V38.7013M27.0509 30.3896V17.4025L25.0091 11.1688L19.3942 8.57141L13.7792 11.1688L12.2479 16.3636V21.5584M21.9464 38.7013H18.3732M21.9464 38.7013V50.3896M12.2479 21.5584L16.8419 23.6363M12.2479 21.5584L8.16433 23.6363L6.63299 26.2337V30.3896M18.3732 71.4286V60.5195M18.3732 71.4286H12.5031M18.3732 71.4286L10.0315 64.4155M18.3732 60.5195L12.5031 71.4286M18.3732 60.5195V49.6104M10.0315 64.4155L14.2024 57.0129M10.0315 64.4155L8.33225 62.987M18.3732 26.2337L16.8419 23.6363M18.3732 26.2337V38.7013M18.3732 26.2337L16.0763 35.5844M16.8419 23.6363L13.0136 32.7272M18.3732 38.7013V49.6104M18.3732 38.7013L13.7792 44.9351M16.0763 35.5844L13.7792 44.9351M16.0763 35.5844L9.69567 48.0519M13.0136 32.7272L9.1852 41.8182L9.69567 48.0519M13.0136 32.7272L6.63299 30.3896M6.63299 30.3896V48.5714M6.63299 61.5584L8.33225 62.987M6.63299 61.5584V48.5714M18.3732 49.6104L14.2024 57.0129M13.7792 44.9351L14.2024 57.0129M13.7792 44.9351L8.33225 62.987M8.33225 62.987L9.69567 48.0519M6.63299 48.5714L9.69567 48.0519" stroke="white" stroke-width="2"/>
<path d="M59.6373 67.8571C68.9078 67.8571 76.423 60.182 76.423 50.7143C76.423 41.2465 68.9078 33.5714 59.6373 33.5714C50.3668 33.5714 42.8516 41.2465 42.8516 50.7143C42.8516 60.182 50.3668 67.8571 59.6373 67.8571Z" stroke="white" stroke-width="1.5"/>
<path d="M46.6938 39.0208L49.0802 38.9995M49.0802 38.9995L46.012 45.8326M49.0802 38.9995L50.2734 38.9889M72.1485 38.7938L70.103 38.812M70.103 38.812L73.9667 45.8326M70.103 38.812L69.0803 38.8211M43.0574 45.8326H44.5347M44.5347 45.8326H46.012M44.5347 45.8326L43.9665 50.8278M76.2393 45.8326H73.9667M73.9667 45.8326H72.4894M42.1484 50.8278H43.9665M43.9665 50.8278H46.9211M77.1484 50.8278H73.0576M73.0576 50.8278H69.6485M73.0576 50.8278L72.4894 45.8326M73.0576 50.8278L72.4894 55.8501M43.0574 56.0501L45.3302 56.0347M45.3302 56.0347L47.6029 56.0193M45.3302 56.0347L46.9211 60.6815M76.4666 55.8231L74.478 55.8366M74.478 55.8366L72.4894 55.8501M74.478 55.8366L73.0576 60.6815M59.6484 33.5714L60.1029 67.8571M61.6939 38.887L62.3757 45.8326M61.6939 38.887L58.0575 38.9195M61.6939 38.887L63.5121 38.8708M62.3757 45.8326H57.603M62.3757 45.8326H64.7621M58.0575 38.9195L57.603 45.8326M58.0575 38.9195L56.2394 38.9357M63.5121 38.8708L65.3303 38.8546M63.5121 38.8708L61.4124 33.5714M57.603 45.8326H55.3303M64.7621 45.8326H67.1484M64.7621 45.8326L65.103 50.8278M56.2394 38.9357L54.4212 38.9519M56.2394 38.9357L58.0575 33.5714M55.3303 45.8326H53.0575M55.3303 45.8326L55.103 50.8278M65.3303 38.8546L67.1484 45.8326M65.3303 38.8546L66.6939 38.8424M67.1484 45.8326H69.0803M66.6939 38.8424L68.0575 38.8303M66.6939 38.8424L63.3121 33.9422M69.0803 45.8326H71.0121M69.0803 45.8326L69.6485 50.8278M68.0575 38.8303L71.0121 45.8326M68.0575 38.8303L69.0803 38.8211M71.0121 45.8326H72.4894M69.0803 38.8211L64.7621 34.2527M54.4212 38.9519L53.0575 45.8326M54.4212 38.9519L52.9439 38.9651M53.0575 45.8326H51.0121M52.9439 38.9651L51.4666 38.9783M52.9439 38.9651L56.6632 33.9422M51.0121 45.8326H48.9666M51.0121 45.8326L50.5575 50.8278M51.4666 38.9783L48.9666 45.8326M51.4666 38.9783L50.2734 38.9889M48.9666 45.8326H47.6029M50.2734 38.9889L54.4212 34.2527M47.6029 45.8326H46.012M47.6029 45.8326L46.9211 50.8278M46.9211 50.8278H50.5575M46.9211 50.8278L47.6029 56.0193M50.5575 50.8278H55.103M50.5575 50.8278L51.4666 55.993M47.6029 56.0193L49.5348 56.0061M55.103 50.8278H65.103M55.103 50.8278L55.5575 55.9652M51.4666 55.993L49.5348 56.0061M51.4666 55.993L53.5121 55.9791M65.103 50.8278H69.6485M65.103 50.8278L64.7621 55.9027M55.5575 55.9652L53.5121 55.9791M55.5575 55.9652L58.0575 55.9482M69.6485 50.8278L69.0803 55.8733M64.7621 55.9027L62.9104 55.9152M64.7621 55.9027L66.9212 55.8879M69.0803 55.8733L66.9212 55.8879M69.0803 55.8733L70.7848 55.8617M72.4894 55.8501L70.7848 55.8617M70.7848 55.8617L70.0807 60.6815M66.9212 55.8879L66.1947 60.6815M62.9104 55.9152L58.0575 55.9482M62.9104 55.9152L62.3757 60.6815M53.5121 55.9791L54.2168 60.6815M58.0575 55.9482L58.467 60.6815M49.5348 56.0061L50.2734 60.6815M45.5232 60.6815H46.9211M46.9211 60.6815H50.2734M46.9211 60.6815L49.5348 64.3486H51.0121M73.9667 60.6815H73.0576M73.0576 60.6815H70.0807M50.2734 60.6815H54.2168M50.2734 60.6815L51.0121 64.3486M54.2168 60.6815H58.467M54.2168 60.6815L55.103 64.3486M51.0121 64.3486H53.5121M58.467 60.6815H62.3757M58.467 60.6815L59.0466 64.3486M55.103 64.3486H53.5121M55.103 64.3486H57.0747M62.3757 60.6815H66.1947M59.0466 64.3486H63.2968M59.0466 64.3486H57.0747M66.1947 60.6815H70.0807M66.1947 60.6815L65.4219 64.3486M70.0807 60.6815L69.0803 64.3486M65.4219 64.3486H69.0803M65.4219 64.3486H63.2968M69.0803 64.3486H70.0807M63.2968 64.3486L62.7172 66.4718M57.0747 64.3486L57.8874 66.4718M53.5121 64.3486L54.7964 66.4718M53.0575 66.4718H54.7964M54.7964 66.4718H57.8874M66.1947 66.4718H62.7172M62.7172 66.4718H57.8874" stroke="white" stroke-width="2"/>
<path d="M45.7806 71.4286V62.9318M45.7806 71.4286L52.9906 62.9318M45.7806 71.4286L42.8516 62.9318M45.7806 62.9318V54.4351M45.7806 62.9318L52.9906 71.4286M45.7806 62.9318L52.9906 54.4351M45.7806 62.9318L42.8516 71.4286V62.9318M45.7806 62.9318L42.8516 54.4351V62.9318M52.9906 62.9318L45.7806 54.4351M52.9906 62.9318V71.4286M52.9906 62.9318V54.4351M52.9906 62.9318L62.4537 71.4286M52.9906 62.9318L62.4537 54.4351M42.8516 62.9318L45.7806 54.4351M42.8516 62.9318L76.423 62.8186M52.9906 71.4286L62.4537 62.9318M62.4537 62.9318L52.9906 54.4351M62.4537 62.9318V71.4286M62.4537 62.9318V54.4351M62.4537 62.9318L70.7903 71.202M62.4537 62.9318L70.7903 54.4351M62.4537 71.4286L70.7903 62.8186M70.7903 62.8186L62.4537 54.4351M70.7903 62.8186V71.202M70.7903 62.8186V54.4351M70.7903 62.8186L76.423 71.202V62.8186M70.7903 71.202L76.423 62.8186M76.423 62.8186L70.7903 54.4351M76.423 62.8186V54.4351M54.5678 34.6819V31.4286H59.412M59.412 31.4286H64.2562V34.2288M59.412 31.4286V32.788" stroke="white" stroke-width="2" stroke-linecap="round" stroke-linejoin="round"/>
<path d="M62.1499 51.2556C62.1309 50.965 62.2956 50.7144 62.5056 50.7144C62.7156 50.7144 62.8802 50.965 62.8612 51.2556L62.663 54.2858H62.3481L62.1499 51.2556Z" fill="white" stroke="white"/>
<path d="M52.1514 51.2556C52.1135 50.965 52.4428 50.7144 52.8627 50.7144C53.2828 50.7144 53.6121 50.965 53.574 51.2556L53.1776 54.2858H52.5479L52.1514 51.2556Z" fill="white" stroke="white"/>
<path d="M45.003 51.2555C44.9649 50.9648 45.2942 50.7142 45.7143 50.7142C46.1342 50.7142 46.4636 50.9648 46.4256 51.2555L46.0291 54.2857H45.3994L45.003 51.2555Z" fill="white" stroke="white"/>
<path d="M42.1499 51.2556C42.1309 50.965 42.2955 50.7144 42.5056 50.7144C42.7156 50.7144 42.8802 50.965 42.8612 51.2556L42.663 54.2858H42.3482L42.1499 51.2556Z" fill="white" stroke="white"/>
<path d="M70.7202 51.2556C70.7013 50.965 70.8659 50.7144 71.0759 50.7144C71.2859 50.7144 71.4506 50.965 71.4315 51.2556L71.2333 54.2858H70.9185L70.7202 51.2556Z" fill="white" stroke="white"/>
<path d="M76.4312 51.2556C76.4121 50.965 76.5769 50.7144 76.7868 50.7144C76.9968 50.7144 77.1615 50.965 77.1425 51.2556L76.9442 54.2858H76.6294L76.4312 51.2556Z" fill="white" stroke="white"/>
</svg>
