<svg width="279" height="279" viewBox="0 0 279 279" fill="none" xmlns="http://www.w3.org/2000/svg">
<g filter="url(#filter0_dd_676_5101)">
<circle cx="139.331" cy="135.741" r="130.989" fill="#FAFAFA"/>
<path fill-rule="evenodd" clip-rule="evenodd" d="M148.84 219.825C149.607 219.825 150.243 220.443 150.243 221.223C150.243 221.988 149.623 222.622 148.84 222.622C148.073 222.622 147.437 222.004 147.437 221.223C147.437 220.459 148.073 219.825 148.84 219.825Z" fill="#097CF6"/>
<path fill-rule="evenodd" clip-rule="evenodd" d="M156.671 203.891C157.438 203.891 158.074 204.508 158.074 205.289C158.074 206.053 157.454 206.687 156.671 206.687C155.904 206.687 155.268 206.069 155.268 205.289C155.268 204.525 155.904 203.891 156.671 203.891Z" fill="#097CF6"/>
<path fill-rule="evenodd" clip-rule="evenodd" d="M182.09 179.355C182.856 179.355 183.493 179.973 183.493 180.753C183.493 181.517 182.873 182.151 182.09 182.151C181.323 182.151 180.687 181.534 180.687 180.753C180.703 179.989 181.323 179.355 182.09 179.355Z" fill="#097CF6"/>
<path fill-rule="evenodd" clip-rule="evenodd" d="M181.143 185.42C181.91 185.42 182.547 186.037 182.547 186.818C182.547 187.582 181.927 188.216 181.143 188.216C180.377 188.216 179.74 187.598 179.74 186.818C179.74 186.037 180.36 185.42 181.143 185.42Z" fill="#097CF6"/>
<path fill-rule="evenodd" clip-rule="evenodd" d="M160.668 172.022C161.435 172.022 162.071 172.64 162.071 173.42C162.071 174.184 161.451 174.818 160.668 174.818C159.901 174.818 159.265 174.201 159.265 173.42C159.265 172.656 159.901 172.022 160.668 172.022Z" fill="#097CF6"/>
<path fill-rule="evenodd" clip-rule="evenodd" d="M167.39 178.72C168.157 178.72 168.793 179.338 168.793 180.119C168.793 180.883 168.173 181.517 167.39 181.517C166.623 181.517 165.987 180.899 165.987 180.119C165.987 179.338 166.607 178.72 167.39 178.72Z" fill="#097CF6"/>
<path fill-rule="evenodd" clip-rule="evenodd" d="M161.305 179.68C162.071 179.68 162.708 180.298 162.708 181.078C162.708 181.843 162.088 182.477 161.305 182.477C160.538 182.477 159.901 181.859 159.901 181.078C159.918 180.298 160.538 179.68 161.305 179.68Z" fill="#097CF6"/>
<path fill-rule="evenodd" clip-rule="evenodd" d="M179.528 190.834C180.295 190.834 180.931 191.452 180.931 192.232C180.931 192.997 180.311 193.631 179.528 193.631C178.761 193.631 178.125 193.013 178.125 192.232C178.141 191.452 178.761 190.834 179.528 190.834Z" fill="#097CF6"/>
<path fill-rule="evenodd" clip-rule="evenodd" d="M177.293 195.923C178.06 195.923 178.696 196.541 178.696 197.321C178.696 198.086 178.076 198.72 177.293 198.72C176.526 198.72 175.89 198.102 175.89 197.321C175.89 196.557 176.526 195.923 177.293 195.923Z" fill="#097CF6"/>
<path fill-rule="evenodd" clip-rule="evenodd" d="M172.17 190.509C172.937 190.509 173.573 191.127 173.573 191.907C173.573 192.671 172.953 193.305 172.17 193.305C171.403 193.305 170.767 192.688 170.767 191.907C170.783 191.143 171.403 190.509 172.17 190.509Z" fill="#097CF6"/>
<path fill-rule="evenodd" clip-rule="evenodd" d="M174.732 200.395C175.499 200.395 176.135 201.013 176.135 201.793C176.135 202.557 175.515 203.191 174.732 203.191C173.965 203.191 173.329 202.573 173.329 201.793C173.345 201.013 173.965 200.395 174.732 200.395Z" fill="#097CF6"/>
<path fill-rule="evenodd" clip-rule="evenodd" d="M160.668 186.363C161.435 186.363 162.071 186.981 162.071 187.761C162.071 188.525 161.451 189.159 160.668 189.159C159.901 189.159 159.265 188.541 159.265 187.761C159.265 186.997 159.901 186.363 160.668 186.363Z" fill="#097CF6"/>
<path fill-rule="evenodd" clip-rule="evenodd" d="M159.706 192.736C160.472 192.736 161.109 193.354 161.109 194.135C161.109 194.899 160.489 195.533 159.706 195.533C158.939 195.533 158.302 194.915 158.302 194.135C158.319 193.371 158.939 192.736 159.706 192.736Z" fill="#097CF6"/>
<path fill-rule="evenodd" clip-rule="evenodd" d="M168.662 201.354C169.429 201.354 170.066 201.972 170.066 202.753C170.066 203.517 169.446 204.151 168.662 204.151C167.896 204.151 167.259 203.533 167.259 202.753C167.259 201.972 167.896 201.354 168.662 201.354Z" fill="#097CF6"/>
<path fill-rule="evenodd" clip-rule="evenodd" d="M171.534 204.216C172.301 204.216 172.937 204.834 172.937 205.614C172.937 206.378 172.317 207.012 171.534 207.012C170.767 207.012 170.131 206.394 170.131 205.614C170.147 204.834 170.767 204.216 171.534 204.216Z" fill="#097CF6"/>
<path fill-rule="evenodd" clip-rule="evenodd" d="M168.026 208.037C168.793 208.037 169.429 208.655 169.429 209.435C169.429 210.216 168.809 210.834 168.026 210.834C167.259 210.834 166.623 210.216 166.623 209.435C166.623 208.655 167.259 208.037 168.026 208.037Z" fill="#097CF6"/>
<path fill-rule="evenodd" clip-rule="evenodd" d="M164.193 211.224C164.959 211.224 165.596 211.842 165.596 212.622C165.596 213.386 164.976 214.02 164.193 214.02C163.426 214.02 162.789 213.402 162.789 212.622C162.789 211.858 163.409 211.224 164.193 211.224Z" fill="#097CF6"/>
<path fill-rule="evenodd" clip-rule="evenodd" d="M160.032 214.085C160.799 214.085 161.435 214.703 161.435 215.484C161.435 216.248 160.815 216.882 160.032 216.882C159.265 216.882 158.629 216.264 158.629 215.484C158.629 214.72 159.249 214.085 160.032 214.085Z" fill="#097CF6"/>
<path fill-rule="evenodd" clip-rule="evenodd" d="M154.583 208.996C155.349 208.996 155.986 209.614 155.986 210.395C155.986 211.159 155.366 211.793 154.583 211.793C153.816 211.793 153.179 211.175 153.179 210.395C153.196 209.614 153.816 208.996 154.583 208.996Z" fill="#097CF6"/>
<path fill-rule="evenodd" clip-rule="evenodd" d="M152.348 213.777C153.114 213.777 153.751 214.394 153.751 215.175C153.751 215.939 153.131 216.573 152.348 216.573C151.581 216.573 150.945 215.955 150.945 215.175C150.961 214.394 151.581 213.777 152.348 213.777Z" fill="#097CF6"/>
<path fill-rule="evenodd" clip-rule="evenodd" d="M155.545 216.963C156.312 216.963 156.948 217.581 156.948 218.362C156.948 219.126 156.329 219.76 155.545 219.76C154.779 219.76 154.142 219.142 154.142 218.362C154.159 217.581 154.779 216.963 155.545 216.963Z" fill="#097CF6"/>
<path fill-rule="evenodd" clip-rule="evenodd" d="M158.433 198.476C159.2 198.476 159.836 199.094 159.836 199.875C159.836 200.639 159.216 201.273 158.433 201.273C157.666 201.273 157.03 200.655 157.03 199.875C157.03 199.11 157.666 198.476 158.433 198.476Z" fill="#097CF6"/>
<path fill-rule="evenodd" clip-rule="evenodd" d="M182.09 165.014C182.856 165.014 183.493 165.632 183.493 166.412C183.493 167.176 182.873 167.81 182.09 167.81C181.323 167.81 180.687 167.193 180.687 166.412C180.687 165.632 181.323 165.014 182.09 165.014Z" fill="#097CF6"/>
<path fill-rule="evenodd" clip-rule="evenodd" d="M169.299 166.298C170.066 166.298 170.702 166.916 170.702 167.697C170.702 168.461 170.082 169.095 169.299 169.095C168.532 169.095 167.896 168.477 167.896 167.697C167.912 166.916 168.532 166.298 169.299 166.298Z" fill="#097CF6"/>
<path fill-rule="evenodd" clip-rule="evenodd" d="M159.069 163.42C159.836 163.42 160.472 164.038 160.472 164.818C160.472 165.583 159.852 166.217 159.069 166.217C158.302 166.217 157.666 165.599 157.666 164.818C157.666 164.054 158.302 163.42 159.069 163.42Z" fill="#097CF6"/>
<path fill-rule="evenodd" clip-rule="evenodd" d="M163.23 167.567C163.996 167.567 164.633 168.184 164.633 168.965C164.633 169.729 164.013 170.363 163.23 170.363C162.463 170.363 161.827 169.745 161.827 168.965C161.827 168.184 162.447 167.567 163.23 167.567Z" fill="#097CF6"/>
<path fill-rule="evenodd" clip-rule="evenodd" d="M179.218 168.835C179.985 168.835 180.621 169.453 180.621 170.233C180.621 170.997 180.002 171.632 179.218 171.632C178.452 171.632 177.815 171.014 177.815 170.233C177.815 169.469 178.452 168.835 179.218 168.835Z" fill="#097CF6"/>
<path fill-rule="evenodd" clip-rule="evenodd" d="M182.726 172.347C183.493 172.347 184.129 172.965 184.129 173.745C184.129 174.509 183.509 175.143 182.726 175.143C181.959 175.143 181.323 174.526 181.323 173.745C181.339 172.965 181.959 172.347 182.726 172.347Z" fill="#097CF6"/>
<path fill-rule="evenodd" clip-rule="evenodd" d="M155.545 152.9C156.312 152.9 156.948 153.518 156.948 154.298C156.948 155.063 156.329 155.697 155.545 155.697C154.779 155.697 154.142 155.079 154.142 154.298C154.159 153.534 154.779 152.9 155.545 152.9Z" fill="#097CF6"/>
<path fill-rule="evenodd" clip-rule="evenodd" d="M181.127 156.851C181.894 156.851 182.53 157.469 182.53 158.25C182.53 159.014 181.91 159.648 181.127 159.648C180.36 159.648 179.724 159.03 179.724 158.25C179.74 157.469 180.36 156.851 181.127 156.851Z" fill="#097CF6"/>
<path fill-rule="evenodd" clip-rule="evenodd" d="M172.17 155.144C172.937 155.144 173.573 155.762 173.573 156.542C173.573 157.307 172.953 157.941 172.17 157.941C171.403 157.941 170.767 157.323 170.767 156.542C170.783 155.762 171.403 155.144 172.17 155.144Z" fill="#097CF6"/>
<path fill-rule="evenodd" clip-rule="evenodd" d="M162.903 152.705C163.67 152.705 164.306 153.323 164.306 154.103C164.306 154.868 163.686 155.502 162.903 155.502C162.137 155.502 161.5 154.884 161.5 154.103C161.5 153.323 162.137 152.705 162.903 152.705Z" fill="#097CF6"/>
<path fill-rule="evenodd" clip-rule="evenodd" d="M153.946 143.665C154.713 143.665 155.349 144.283 155.349 145.063C155.349 145.827 154.73 146.461 153.946 146.461C153.18 146.461 152.543 145.843 152.543 145.063C152.56 144.283 153.18 143.665 153.946 143.665Z" fill="#097CF6"/>
<path fill-rule="evenodd" clip-rule="evenodd" d="M155.709 138.267C156.476 138.267 157.112 138.884 157.112 139.665C157.112 140.429 156.492 141.063 155.709 141.063C154.942 141.063 154.306 140.445 154.306 139.665C154.306 138.901 154.942 138.267 155.709 138.267Z" fill="#097CF6"/>
<path fill-rule="evenodd" clip-rule="evenodd" d="M178.419 147.177C179.186 147.177 179.822 147.795 179.822 148.575C179.822 149.34 179.202 149.974 178.419 149.974C177.652 149.974 177.016 149.356 177.016 148.575C177.016 147.795 177.652 147.177 178.419 147.177Z" fill="#097CF6"/>
<path fill-rule="evenodd" clip-rule="evenodd" d="M166.101 141.746C166.868 141.746 167.504 142.364 167.504 143.144C167.504 143.909 166.884 144.543 166.101 144.543C165.334 144.543 164.698 143.925 164.698 143.144C164.714 142.38 165.334 141.746 166.101 141.746Z" fill="#097CF6"/>
<path fill-rule="evenodd" clip-rule="evenodd" d="M157.079 132.836C157.846 132.836 158.482 133.454 158.482 134.234C158.482 134.998 157.862 135.633 157.079 135.633C156.312 135.633 155.676 135.015 155.676 134.234C155.676 133.454 156.296 132.836 157.079 132.836Z" fill="#097CF6"/>
<path fill-rule="evenodd" clip-rule="evenodd" d="M173.883 135.015C174.65 135.015 175.286 135.633 175.286 136.413C175.286 137.177 174.666 137.811 173.883 137.811C173.116 137.811 172.48 137.194 172.48 136.413C172.48 135.633 173.1 135.015 173.883 135.015Z" fill="#097CF6"/>
<path fill-rule="evenodd" clip-rule="evenodd" d="M158.482 126.982C159.249 126.982 159.885 127.6 159.885 128.381C159.885 129.145 159.265 129.779 158.482 129.779C157.715 129.779 157.079 129.161 157.079 128.381C157.079 127.6 157.715 126.982 158.482 126.982Z" fill="#097CF6"/>
<path fill-rule="evenodd" clip-rule="evenodd" d="M162.594 131.242C163.36 131.242 163.997 131.86 163.997 132.641C163.997 133.405 163.377 134.039 162.594 134.039C161.827 134.039 161.19 133.421 161.19 132.641C161.19 131.86 161.81 131.242 162.594 131.242Z" fill="#097CF6"/>
<path fill-rule="evenodd" clip-rule="evenodd" d="M169.69 128.055C170.457 128.055 171.094 128.673 171.094 129.454C171.094 130.218 170.474 130.852 169.69 130.852C168.924 130.852 168.287 130.234 168.287 129.454C168.287 128.673 168.924 128.055 169.69 128.055Z" fill="#097CF6"/>
<path fill-rule="evenodd" clip-rule="evenodd" d="M159.869 121.194C160.635 121.194 161.272 121.812 161.272 122.592C161.272 123.357 160.652 123.991 159.869 123.991C159.102 123.991 158.466 123.373 158.466 122.592C158.466 121.828 159.102 121.194 159.869 121.194Z" fill="#097CF6"/>
<path fill-rule="evenodd" clip-rule="evenodd" d="M166.101 122.316C166.868 122.316 167.504 122.934 167.504 123.714C167.504 124.478 166.884 125.113 166.101 125.113C165.334 125.113 164.698 124.495 164.698 123.714C164.714 122.934 165.334 122.316 166.101 122.316Z" fill="#097CF6"/>
<path fill-rule="evenodd" clip-rule="evenodd" d="M160.995 115.942C161.761 115.942 162.398 116.56 162.398 117.34C162.398 118.105 161.778 118.739 160.995 118.739C160.228 118.739 159.591 118.121 159.591 117.34C159.591 116.56 160.211 115.942 160.995 115.942Z" fill="#097CF6"/>
<path fill-rule="evenodd" clip-rule="evenodd" d="M124.531 106.056C125.298 106.056 125.934 106.674 125.934 107.455C125.934 108.219 125.314 108.853 124.531 108.853C123.764 108.853 123.128 108.235 123.128 107.455C123.144 106.69 123.764 106.056 124.531 106.056Z" fill="#097CF6"/>
<path fill-rule="evenodd" clip-rule="evenodd" d="M125.82 109.877C126.587 109.877 127.223 110.495 127.223 111.276C127.223 112.04 126.603 112.674 125.82 112.674C125.053 112.674 124.417 112.056 124.417 111.276C124.417 110.511 125.037 109.877 125.82 109.877Z" fill="#097CF6"/>
<path fill-rule="evenodd" clip-rule="evenodd" d="M121.333 108.284C122.1 108.284 122.736 108.902 122.736 109.682C122.736 110.446 122.116 111.08 121.333 111.08C120.566 111.08 119.93 110.462 119.93 109.682C119.946 108.918 120.566 108.284 121.333 108.284Z" fill="#097CF6"/>
<path fill-rule="evenodd" clip-rule="evenodd" d="M117.825 111.796C118.592 111.796 119.228 112.414 119.228 113.194C119.228 113.958 118.608 114.592 117.825 114.592C117.058 114.592 116.422 113.975 116.422 113.194C116.422 112.414 117.058 111.796 117.825 111.796Z" fill="#097CF6"/>
<path fill-rule="evenodd" clip-rule="evenodd" d="M124.857 114.349C125.624 114.349 126.26 114.966 126.26 115.747C126.26 116.511 125.64 117.145 124.857 117.145C124.09 117.145 123.454 116.527 123.454 115.747C123.454 114.966 124.09 114.349 124.857 114.349Z" fill="#097CF6"/>
<path fill-rule="evenodd" clip-rule="evenodd" d="M113.975 115.308C114.742 115.308 115.378 115.926 115.378 116.706C115.378 117.471 114.758 118.105 113.975 118.105C113.208 118.105 112.572 117.487 112.572 116.706C112.588 115.926 113.208 115.308 113.975 115.308Z" fill="#097CF6"/>
<path fill-rule="evenodd" clip-rule="evenodd" d="M123.568 117.536C124.335 117.536 124.971 118.153 124.971 118.934C124.971 119.698 124.351 120.332 123.568 120.332C122.801 120.332 122.165 119.714 122.165 118.934C122.181 118.153 122.801 117.536 123.568 117.536Z" fill="#097CF6"/>
<path fill-rule="evenodd" clip-rule="evenodd" d="M121.088 122.316C121.855 122.316 122.491 122.934 122.491 123.714C122.491 124.478 121.871 125.113 121.088 125.113C120.321 125.113 119.685 124.495 119.685 123.714C119.685 122.934 120.321 122.316 121.088 122.316Z" fill="#097CF6"/>
<path fill-rule="evenodd" clip-rule="evenodd" d="M118.462 126.771C119.228 126.771 119.865 127.389 119.865 128.169C119.865 128.934 119.245 129.568 118.462 129.568C117.695 129.568 117.058 128.95 117.058 128.169C117.058 127.389 117.695 126.771 118.462 126.771Z" fill="#097CF6"/>
<path fill-rule="evenodd" clip-rule="evenodd" d="M110.467 119.129C111.234 119.129 111.87 119.747 111.87 120.527C111.87 121.291 111.25 121.925 110.467 121.925C109.7 121.925 109.064 121.308 109.064 120.527C109.064 119.747 109.7 119.129 110.467 119.129Z" fill="#097CF6"/>
<path fill-rule="evenodd" clip-rule="evenodd" d="M106.943 123.275C107.71 123.275 108.346 123.893 108.346 124.673C108.346 125.438 107.726 126.072 106.943 126.072C106.176 126.072 105.54 125.454 105.54 124.673C105.556 123.893 106.176 123.275 106.943 123.275Z" fill="#097CF6"/>
<path fill-rule="evenodd" clip-rule="evenodd" d="M112.376 125.812C113.143 125.812 113.779 126.429 113.779 127.21C113.779 127.974 113.159 128.608 112.376 128.608C111.61 128.608 110.973 127.99 110.973 127.21C110.99 126.446 111.61 125.812 112.376 125.812Z" fill="#097CF6"/>
<path fill-rule="evenodd" clip-rule="evenodd" d="M115.264 131.876C116.031 131.876 116.667 132.494 116.667 133.275C116.667 134.039 116.047 134.673 115.264 134.673C114.497 134.673 113.861 134.055 113.861 133.275C113.861 132.494 114.497 131.876 115.264 131.876Z" fill="#097CF6"/>
<path fill-rule="evenodd" clip-rule="evenodd" d="M104.17 127.958C104.936 127.958 105.573 128.576 105.573 129.356C105.573 130.12 104.953 130.755 104.17 130.755C103.403 130.755 102.766 130.137 102.766 129.356C102.766 128.576 103.386 127.958 104.17 127.958Z" fill="#097CF6"/>
<path fill-rule="evenodd" clip-rule="evenodd" d="M110.141 133.779C110.908 133.779 111.544 134.397 111.544 135.177C111.544 135.941 110.924 136.575 110.141 136.575C109.374 136.575 108.738 135.958 108.738 135.177C108.754 134.413 109.374 133.779 110.141 133.779Z" fill="#097CF6"/>
<path fill-rule="evenodd" clip-rule="evenodd" d="M113.028 136.657C113.795 136.657 114.432 137.275 114.432 138.055C114.432 138.819 113.812 139.454 113.028 139.454C112.262 139.454 111.625 138.836 111.625 138.055C111.625 137.275 112.262 136.657 113.028 136.657Z" fill="#097CF6"/>
<path fill-rule="evenodd" clip-rule="evenodd" d="M110.794 141.746C111.56 141.746 112.197 142.364 112.197 143.144C112.197 143.909 111.577 144.543 110.794 144.543C110.027 144.543 109.391 143.925 109.391 143.144C109.391 142.38 110.01 141.746 110.794 141.746Z" fill="#097CF6"/>
<path fill-rule="evenodd" clip-rule="evenodd" d="M101.837 132.836C102.603 132.836 103.24 133.454 103.24 134.234C103.24 134.998 102.62 135.633 101.837 135.633C101.07 135.633 100.434 135.015 100.434 134.234C100.434 133.454 101.054 132.836 101.837 132.836Z" fill="#097CF6"/>
<path fill-rule="evenodd" clip-rule="evenodd" d="M100.548 139.844C101.315 139.844 101.951 140.462 101.951 141.242C101.951 142.006 101.331 142.64 100.548 142.64C99.7811 142.64 99.1448 142.023 99.1448 141.242C99.1611 140.462 99.7811 139.844 100.548 139.844Z" fill="#097CF6"/>
<path fill-rule="evenodd" clip-rule="evenodd" d="M108.868 148.12C109.635 148.12 110.271 148.738 110.271 149.518C110.271 150.283 109.651 150.917 108.868 150.917C108.101 150.917 107.465 150.299 107.465 149.518C107.465 148.754 108.101 148.12 108.868 148.12Z" fill="#097CF6"/>
<path fill-rule="evenodd" clip-rule="evenodd" d="M100.874 147.177C101.641 147.177 102.277 147.795 102.277 148.575C102.277 149.34 101.657 149.974 100.874 149.974C100.107 149.974 99.4708 149.356 99.4708 148.575C99.4708 147.795 100.107 147.177 100.874 147.177Z" fill="#097CF6"/>
<path fill-rule="evenodd" clip-rule="evenodd" d="M104.072 150.364C104.839 150.364 105.475 150.982 105.475 151.762C105.475 152.526 104.855 153.16 104.072 153.16C103.305 153.16 102.669 152.543 102.669 151.762C102.669 150.982 103.305 150.364 104.072 150.364Z" fill="#097CF6"/>
<path fill-rule="evenodd" clip-rule="evenodd" d="M105.671 164.705C106.437 164.705 107.074 165.323 107.074 166.103C107.074 166.867 106.454 167.501 105.671 167.501C104.904 167.501 104.267 166.884 104.267 166.103C104.267 165.323 104.904 164.705 105.671 164.705Z" fill="#097CF6"/>
<path fill-rule="evenodd" clip-rule="evenodd" d="M107.27 153.551C108.036 153.551 108.673 154.169 108.673 154.949C108.673 155.713 108.053 156.347 107.27 156.347C106.503 156.347 105.866 155.729 105.866 154.949C105.866 154.169 106.503 153.551 107.27 153.551Z" fill="#097CF6"/>
<path d="M174.079 136.153C174.242 136.316 174.242 136.592 174.079 136.755C173.916 136.917 173.639 136.917 173.476 136.755L169.642 132.934C169.478 132.771 169.478 132.495 169.642 132.332C169.805 132.169 170.082 132.169 170.245 132.332L174.079 136.153Z" fill="#097CF6"/>
<path d="M159.722 123.048C159.559 122.885 159.559 122.609 159.722 122.446C159.885 122.283 160.163 122.283 160.326 122.446L167.994 130.088C168.075 130.169 168.124 130.283 168.124 130.397V137.242L178.876 148.266C179.039 148.429 179.039 148.705 178.876 148.868C178.713 149.03 178.435 149.03 178.272 148.868L167.423 137.73C167.325 137.649 167.276 137.535 167.276 137.405V130.576L159.722 123.048Z" fill="#097CF6"/>
<path d="M181.437 157.827C181.6 157.99 181.6 158.266 181.437 158.429C181.274 158.591 180.996 158.591 180.833 158.429L171.681 149.307H164.502C164.372 149.307 164.257 149.258 164.176 149.161L155.235 139.925C155.072 139.746 155.072 139.486 155.252 139.323C155.415 139.161 155.692 139.161 155.855 139.34L164.682 148.445H171.86C171.974 148.445 172.089 148.494 172.17 148.575L181.437 157.827Z" fill="#097CF6"/>
<path d="M182.4 180.461C182.563 180.623 182.563 180.9 182.383 181.062C182.22 181.225 181.943 181.225 181.78 181.046L173.459 172.445C173.377 172.363 173.345 172.249 173.345 172.152V165.323L168.809 160.803H161.957C161.827 160.803 161.712 160.754 161.631 160.656L155.268 154.624C155.105 154.461 155.088 154.185 155.252 154.022C155.415 153.86 155.692 153.843 155.855 154.006L162.12 159.941H168.989C169.103 159.941 169.217 159.99 169.299 160.071L174.095 164.851C174.177 164.933 174.226 165.046 174.226 165.16V172.006L182.4 180.461Z" fill="#097CF6"/>
<path d="M182.4 166.103C182.563 166.266 182.563 166.542 182.4 166.705C182.236 166.867 181.959 166.867 181.796 166.705L171.876 156.819C171.713 156.656 171.713 156.38 171.876 156.217C172.04 156.055 172.317 156.055 172.48 156.217L182.4 166.103Z" fill="#097CF6"/>
<path d="M179.838 191.924C180.001 192.086 180.001 192.363 179.838 192.525C179.675 192.688 179.398 192.688 179.235 192.525L173.296 186.59H166.444C166.313 186.59 166.199 186.525 166.118 186.444L161.027 181.371C160.864 181.209 160.864 180.932 161.027 180.77C161.19 180.607 161.468 180.607 161.631 180.77L166.623 185.745H173.476C173.59 185.745 173.704 185.794 173.786 185.875L179.838 191.924Z" fill="#097CF6"/>
<path d="M181.437 186.509C181.6 186.672 181.6 186.948 181.437 187.127C181.274 187.289 180.997 187.289 180.833 187.127L169.005 175.339C168.924 175.257 168.875 175.143 168.875 175.03V167.697C168.875 167.453 169.07 167.274 169.299 167.274C169.544 167.274 169.723 167.469 169.723 167.697V174.851L181.437 186.509Z" fill="#097CF6"/>
<path d="M177.603 197.029C177.766 197.208 177.75 197.468 177.587 197.631C177.407 197.793 177.146 197.793 176.983 197.614L171.86 192.2C171.697 192.021 171.713 191.761 171.877 191.598C172.056 191.436 172.317 191.452 172.48 191.615L177.603 197.029Z" fill="#097CF6"/>
<path d="M183.036 173.436C183.199 173.599 183.199 173.875 183.036 174.038C182.873 174.2 182.595 174.2 182.432 174.038L178.908 170.526C178.745 170.363 178.745 170.087 178.908 169.924C179.071 169.761 179.349 169.761 179.512 169.924L183.036 173.436Z" fill="#097CF6"/>
<path d="M168.336 209.126C168.499 209.289 168.499 209.565 168.336 209.728C168.173 209.89 167.896 209.89 167.733 209.728L164.535 206.541C164.453 206.46 164.404 206.346 164.404 206.248V199.11L159.428 194.46C159.249 194.297 159.249 194.021 159.412 193.858C159.575 193.679 159.853 193.679 160.016 193.842L165.106 198.606C165.204 198.687 165.269 198.801 165.269 198.931V206.086L168.336 209.126Z" fill="#097CF6"/>
<path d="M171.844 205.305C172.007 205.468 172.007 205.744 171.844 205.907C171.681 206.07 171.403 206.07 171.24 205.907L168.369 203.045C168.206 202.883 168.206 202.606 168.369 202.444C168.532 202.281 168.809 202.281 168.972 202.444L171.844 205.305Z" fill="#097CF6"/>
<path d="M162.903 132.332C163.066 132.511 163.05 132.771 162.871 132.933C162.691 133.096 162.43 133.08 162.267 132.901L158.433 128.755C158.27 128.576 158.286 128.299 158.466 128.153C158.645 127.99 158.906 128.007 159.069 128.185L162.903 132.332Z" fill="#097CF6"/>
<path d="M163.213 153.681C163.376 153.843 163.376 154.12 163.213 154.282C163.05 154.445 162.773 154.445 162.61 154.282L153.653 145.356C153.49 145.193 153.49 144.917 153.653 144.754C153.816 144.592 154.093 144.592 154.256 144.754L163.213 153.681Z" fill="#097CF6"/>
<path d="M164.486 212.313C164.649 212.476 164.649 212.752 164.486 212.915C164.323 213.077 164.045 213.077 163.882 212.915L159.722 208.768C159.64 208.687 159.591 208.573 159.591 208.459V201.63L158.123 200.167C157.96 200.004 157.96 199.728 158.123 199.549C158.286 199.386 158.564 199.386 158.727 199.549L160.326 201.143C160.407 201.224 160.456 201.338 160.456 201.451V208.281L164.486 212.313Z" fill="#097CF6"/>
<path d="M155.855 218.053C156.019 218.215 156.019 218.492 155.855 218.654C155.692 218.817 155.415 218.817 155.252 218.654L152.054 215.468C151.891 215.305 151.891 215.029 152.054 214.866C152.217 214.703 152.495 214.703 152.658 214.866L155.855 218.053Z" fill="#097CF6"/>
<path d="M160.325 215.175C160.505 215.337 160.505 215.614 160.342 215.776C160.179 215.955 159.901 215.955 159.738 215.793L154.305 210.687C154.126 210.525 154.126 210.248 154.289 210.086C154.452 209.923 154.729 209.907 154.893 210.069L160.325 215.175Z" fill="#097CF6"/>
<path d="M166.411 142.836C166.574 142.998 166.574 143.275 166.411 143.453C166.248 143.616 165.971 143.616 165.807 143.453L156.851 134.527C156.687 134.364 156.687 134.088 156.851 133.909C157.014 133.746 157.291 133.746 157.454 133.909L166.411 142.836Z" fill="#097CF6"/>
<path d="M175.041 201.484C175.204 201.647 175.204 201.923 175.041 202.086C174.878 202.248 174.601 202.248 174.438 202.086L160.374 188.07C160.211 187.907 160.211 187.631 160.374 187.468C160.537 187.306 160.815 187.306 160.978 187.468L175.041 201.484Z" fill="#097CF6"/>
<path d="M167.684 179.81C167.847 179.973 167.847 180.249 167.684 180.412C167.521 180.574 167.243 180.574 167.08 180.412L160.359 173.713C160.195 173.55 160.195 173.274 160.359 173.111C160.522 172.948 160.799 172.948 160.962 173.111L167.684 179.81Z" fill="#097CF6"/>
<path d="M163.523 168.656C163.686 168.818 163.686 169.095 163.523 169.257C163.36 169.42 163.083 169.42 162.92 169.257L158.759 165.111C158.596 164.949 158.596 164.672 158.759 164.51C158.922 164.347 159.2 164.347 159.363 164.51L163.523 168.656Z" fill="#097CF6"/>
<path d="M124.857 115.308C125.102 115.308 125.281 115.503 125.281 115.731C125.281 115.975 125.086 116.154 124.857 116.154H120.061C119.914 116.154 119.8 116.089 119.718 115.975L117.499 113.454C117.336 113.276 117.369 112.999 117.532 112.853C117.711 112.69 117.989 112.723 118.136 112.885L120.256 115.308H124.857Z" fill="#097CF6"/>
<path d="M123.568 118.495C123.813 118.495 123.992 118.69 123.992 118.934C123.992 119.178 123.797 119.356 123.568 119.356H116.21C116.096 119.356 115.982 119.308 115.9 119.226L113.665 116.999C113.502 116.836 113.502 116.56 113.665 116.397C113.828 116.234 114.106 116.234 114.269 116.397L116.373 118.495H123.568Z" fill="#097CF6"/>
<path d="M115.574 132.966C115.737 133.128 115.737 133.405 115.574 133.567C115.41 133.73 115.133 133.73 114.97 133.567L112.523 131.145H105.344C105.197 131.145 105.05 131.063 104.985 130.95L103.729 129.389C103.582 129.21 103.615 128.933 103.794 128.787C103.974 128.641 104.251 128.673 104.398 128.852L105.54 130.283H112.686C112.8 130.283 112.914 130.332 112.996 130.413L115.574 132.966Z" fill="#097CF6"/>
<path d="M125.819 110.853C126.064 110.853 126.244 111.048 126.244 111.292C126.244 111.52 126.048 111.715 125.819 111.715H122.948C122.817 111.715 122.703 111.65 122.622 111.568L121.055 110.007C120.892 109.845 120.892 109.568 121.055 109.406C121.219 109.243 121.496 109.243 121.659 109.406L123.127 110.869H125.819V110.853Z" fill="#097CF6"/>
<path d="M104.382 151.453C104.545 151.616 104.545 151.892 104.382 152.055C104.218 152.217 103.941 152.217 103.778 152.055L100.58 148.868C100.417 148.705 100.417 148.429 100.58 148.25C100.743 148.088 101.021 148.088 101.184 148.25L104.382 151.453Z" fill="#097CF6"/>
<path d="M106.617 160.689C106.78 160.851 106.78 161.128 106.617 161.307C106.454 161.469 106.176 161.469 106.013 161.307L102.489 157.794C102.326 157.632 102.326 157.355 102.489 157.177C102.652 157.014 102.93 157.014 103.093 157.177L106.617 160.689Z" fill="#097CF6"/>
<path d="M111.087 142.836C111.25 142.998 111.25 143.275 111.087 143.453C110.924 143.616 110.647 143.616 110.484 143.453L101.527 134.527C101.364 134.364 101.364 134.088 101.527 133.909C101.69 133.746 101.967 133.746 102.13 133.909L111.087 142.836Z" fill="#097CF6"/>
<path d="M109.178 149.209C109.342 149.372 109.342 149.648 109.178 149.811C109.015 149.974 108.738 149.974 108.575 149.811L100.254 141.519C100.091 141.356 100.091 141.08 100.254 140.917C100.417 140.754 100.695 140.754 100.858 140.917L109.178 149.209Z" fill="#097CF6"/>
<path d="M118.755 127.86C118.918 128.023 118.935 128.299 118.772 128.462C118.608 128.625 118.331 128.641 118.168 128.478L110.174 120.836C110.01 120.674 109.994 120.397 110.157 120.235C110.32 120.072 110.598 120.056 110.761 120.218L118.755 127.86Z" fill="#097CF6"/>
<path fill-rule="evenodd" clip-rule="evenodd" d="M106.307 159.599C107.074 159.599 107.71 160.217 107.71 160.998C107.71 161.762 107.09 162.396 106.307 162.396C105.54 162.396 104.904 161.778 104.904 160.998C104.904 160.217 105.54 159.599 106.307 159.599Z" fill="#097CF6"/>
<path fill-rule="evenodd" clip-rule="evenodd" d="M102.783 156.087C103.55 156.087 104.186 156.705 104.186 157.485C104.186 158.25 103.566 158.884 102.783 158.884C102.016 158.884 101.38 158.266 101.38 157.485C101.396 156.721 102.016 156.087 102.783 156.087Z" fill="#097CF6"/>
<path d="M112.066 126.787C112.311 126.787 112.49 126.982 112.49 127.226C112.49 127.454 112.295 127.649 112.066 127.649H109.195C109.064 127.649 108.95 127.584 108.868 127.503L106.65 125.291C106.486 125.129 106.486 124.852 106.65 124.69C106.813 124.527 107.09 124.527 107.253 124.69L109.358 126.787H112.066Z" fill="#097CF6"/>
<mask id="mask0_676_5101" style="mask-type:luminance" maskUnits="userSpaceOnUse" x="94" y="49" width="65" height="173">
<path d="M127.37 100.073C133.618 107.747 132.101 125.6 122.85 153.599C110.614 193.484 117.091 216.037 142.183 221.045C132.15 214.085 134.303 189.176 148.66 146.283C163.034 103.487 162.234 71.163 146.083 49.4563C137.028 67.6346 124.678 85.6015 109.015 103.357C93.353 121.129 90.4489 141.323 100.319 163.973C95.8002 143.844 97.6275 128.966 105.948 119.21C114.269 109.454 121.415 103.113 127.37 100.073Z" fill="white"/>
</mask>
<g mask="url(#mask0_676_5101)">
<path d="M163.018 49.4563H90.449V221.028H163.018V49.4563Z" fill="url(#paint0_linear_676_5101)"/>
</g>
<mask id="mask1_676_5101" style="mask-type:luminance" maskUnits="userSpaceOnUse" x="94" y="49" width="65" height="173">
<path d="M127.37 100.073C133.618 107.747 132.101 125.6 122.85 153.599C110.614 193.484 117.091 216.037 142.183 221.045C132.15 214.085 134.303 189.176 148.66 146.283C163.034 103.487 162.234 71.163 146.083 49.4563C137.028 67.6346 124.678 85.6015 109.015 103.357C93.353 121.129 90.4489 141.323 100.319 163.973C95.8002 143.844 97.6275 128.966 105.948 119.21C114.269 109.454 121.415 103.113 127.37 100.073Z" fill="white"/>
</mask>
<g mask="url(#mask1_676_5101)">
<path d="M163.018 49.4563H90.449V221.028H163.018V49.4563Z" fill="url(#paint1_linear_676_5101)"/>
</g>
<mask id="mask2_676_5101" style="mask-type:luminance" maskUnits="userSpaceOnUse" x="94" y="49" width="65" height="115">
<path d="M122.834 153.599C132.101 125.6 133.602 107.747 127.353 100.073C121.398 103.113 114.269 109.471 105.948 119.21C97.6275 128.966 95.8002 143.844 100.319 163.973C90.4489 141.323 93.353 121.129 109.015 103.357C124.678 85.6015 137.028 67.6346 146.083 49.4563C162.234 71.163 163.018 103.471 148.66 146.283C142.542 151.551 128.903 153.356 122.834 153.599Z" fill="white"/>
</mask>
<g mask="url(#mask2_676_5101)">
<path d="M163.018 49.4563H90.449V163.957H163.018V49.4563Z" fill="url(#paint2_linear_676_5101)"/>
</g>
</g>
<defs>
<filter id="filter0_dd_676_5101" x="0.344129" y="0.753363" width="277.974" height="277.974" filterUnits="userSpaceOnUse" color-interpolation-filters="sRGB">
<feFlood flood-opacity="0" result="BackgroundImageFix"/>
<feColorMatrix in="SourceAlpha" type="matrix" values="0 0 0 0 0 0 0 0 0 0 0 0 0 0 0 0 0 0 127 0" result="hardAlpha"/>
<feOffset dy="3.99908"/>
<feGaussianBlur stdDeviation="3.99908"/>
<feColorMatrix type="matrix" values="0 0 0 0 0 0 0 0 0 0 0 0 0 0 0 0 0 0 0.06 0"/>
<feBlend mode="normal" in2="BackgroundImageFix" result="effect1_dropShadow_676_5101"/>
<feColorMatrix in="SourceAlpha" type="matrix" values="0 0 0 0 0 0 0 0 0 0 0 0 0 0 0 0 0 0 127 0" result="hardAlpha"/>
<feOffset/>
<feGaussianBlur stdDeviation="1.99954"/>
<feColorMatrix type="matrix" values="0 0 0 0 0 0 0 0 0 0 0 0 0 0 0 0 0 0 0.04 0"/>
<feBlend mode="normal" in2="effect1_dropShadow_676_5101" result="effect2_dropShadow_676_5101"/>
<feBlend mode="normal" in="SourceGraphic" in2="effect2_dropShadow_676_5101" result="shape"/>
</filter>
<linearGradient id="paint0_linear_676_5101" x1="109.302" y1="213.173" x2="144.818" y2="53.3705" gradientUnits="userSpaceOnUse">
<stop stop-color="#097CF6"/>
<stop offset="1" stop-color="#8FB5E2"/>
</linearGradient>
<linearGradient id="paint1_linear_676_5101" x1="126.831" y1="134.198" x2="119.312" y2="219.566" gradientUnits="userSpaceOnUse">
<stop stop-color="#5098FC"/>
<stop offset="1" stop-color="#2968FA"/>
</linearGradient>
<linearGradient id="paint2_linear_676_5101" x1="126.738" y1="49.4618" x2="126.738" y2="162.873" gradientUnits="userSpaceOnUse">
<stop stop-color="#8DD6FE"/>
<stop offset="1" stop-color="#67A1FB"/>
</linearGradient>
</defs>
</svg>
