<svg width="142" height="143" viewBox="0 0 142 143" fill="none" xmlns="http://www.w3.org/2000/svg">
<g filter="url(#filter0_dd_851_4252)">
<circle cx="70.8961" cy="69.5136" r="66.8033" fill="#FAFAFA"/>
<path fill-rule="evenodd" clip-rule="evenodd" d="M75.7458 112.396C76.1369 112.396 76.4614 112.711 76.4614 113.109C76.4614 113.499 76.1452 113.822 75.7458 113.822C75.3548 113.822 75.0303 113.507 75.0303 113.109C75.0303 112.719 75.3548 112.396 75.7458 112.396Z" fill="#0074EF"/>
<path fill-rule="evenodd" clip-rule="evenodd" d="M79.74 104.27C80.131 104.27 80.4555 104.585 80.4555 104.983C80.4555 105.372 80.1394 105.696 79.74 105.696C79.3489 105.696 79.0244 105.381 79.0244 104.983C79.0244 104.593 79.3489 104.27 79.74 104.27Z" fill="#0074EF"/>
<path fill-rule="evenodd" clip-rule="evenodd" d="M92.7029 91.7562C93.0939 91.7562 93.4184 92.0713 93.4184 92.4694C93.4184 92.8591 93.1022 93.1825 92.7029 93.1825C92.3118 93.1825 91.9873 92.8674 91.9873 92.4694C91.9956 92.0796 92.3118 91.7562 92.7029 91.7562Z" fill="#0074EF"/>
<path fill-rule="evenodd" clip-rule="evenodd" d="M92.2204 94.8492C92.6115 94.8492 92.936 95.1644 92.936 95.5624C92.936 95.9521 92.6198 96.2755 92.2204 96.2755C91.8294 96.2755 91.5049 95.9604 91.5049 95.5624C91.5049 95.1644 91.8211 94.8492 92.2204 94.8492Z" fill="#0074EF"/>
<path fill-rule="evenodd" clip-rule="evenodd" d="M81.7781 88.0165C82.1691 88.0165 82.4936 88.3316 82.4936 88.7296C82.4936 89.1194 82.1774 89.4428 81.7781 89.4428C81.387 89.4428 81.0625 89.1277 81.0625 88.7296C81.0625 88.3399 81.387 88.0165 81.7781 88.0165Z" fill="#0074EF"/>
<path fill-rule="evenodd" clip-rule="evenodd" d="M85.2058 91.4329C85.5969 91.4329 85.9214 91.748 85.9214 92.146C85.9214 92.5357 85.6052 92.8591 85.2058 92.8591C84.8147 92.8591 84.4902 92.544 84.4902 92.146C84.4902 91.748 84.8064 91.4329 85.2058 91.4329Z" fill="#0074EF"/>
<path fill-rule="evenodd" clip-rule="evenodd" d="M82.1033 91.9221C82.4943 91.9221 82.8188 92.2372 82.8188 92.6353C82.8188 93.025 82.5026 93.3484 82.1033 93.3484C81.7122 93.3484 81.3877 93.0333 81.3877 92.6353C81.396 92.2372 81.7122 91.9221 82.1033 91.9221Z" fill="#0074EF"/>
<path fill-rule="evenodd" clip-rule="evenodd" d="M91.3972 97.6105C91.7883 97.6105 92.1128 97.9256 92.1128 98.3236C92.1128 98.7134 91.7966 99.0368 91.3972 99.0368C91.0061 99.0368 90.6816 98.7216 90.6816 98.3236C90.69 97.9256 91.0061 97.6105 91.3972 97.6105Z" fill="#0074EF"/>
<path fill-rule="evenodd" clip-rule="evenodd" d="M90.2566 100.206C90.6476 100.206 90.9721 100.521 90.9721 100.919C90.9721 101.309 90.656 101.632 90.2566 101.632C89.8655 101.632 89.541 101.317 89.541 100.919C89.541 100.529 89.8655 100.206 90.2566 100.206Z" fill="#0074EF"/>
<path fill-rule="evenodd" clip-rule="evenodd" d="M87.6443 97.4448C88.0353 97.4448 88.3598 97.7599 88.3598 98.158C88.3598 98.5477 88.0437 98.8711 87.6443 98.8711C87.2532 98.8711 86.9287 98.556 86.9287 98.158C86.937 97.7682 87.2532 97.4448 87.6443 97.4448Z" fill="#0074EF"/>
<path fill-rule="evenodd" clip-rule="evenodd" d="M88.9509 102.486C89.342 102.486 89.6665 102.802 89.6665 103.2C89.6665 103.589 89.3503 103.913 88.9509 103.913C88.5599 103.913 88.2354 103.598 88.2354 103.2C88.2437 102.802 88.5599 102.486 88.9509 102.486Z" fill="#0074EF"/>
<path fill-rule="evenodd" clip-rule="evenodd" d="M81.7781 95.3302C82.1691 95.3302 82.4936 95.6453 82.4936 96.0433C82.4936 96.4331 82.1774 96.7565 81.7781 96.7565C81.387 96.7565 81.0625 96.4414 81.0625 96.0433C81.0625 95.6536 81.387 95.3302 81.7781 95.3302Z" fill="#0074EF"/>
<path fill-rule="evenodd" clip-rule="evenodd" d="M81.2869 98.5808C81.6779 98.5808 82.0024 98.8959 82.0024 99.294C82.0024 99.6837 81.6862 100.007 81.2869 100.007C80.8958 100.007 80.5713 99.692 80.5713 99.294C80.5796 98.9042 80.8958 98.5808 81.2869 98.5808Z" fill="#0074EF"/>
<path fill-rule="evenodd" clip-rule="evenodd" d="M85.8552 102.976C86.2463 102.976 86.5708 103.291 86.5708 103.689C86.5708 104.079 86.2546 104.402 85.8552 104.402C85.4641 104.402 85.1396 104.087 85.1396 103.689C85.1396 103.291 85.4641 102.976 85.8552 102.976Z" fill="#0074EF"/>
<path fill-rule="evenodd" clip-rule="evenodd" d="M87.3191 104.435C87.7101 104.435 88.0346 104.75 88.0346 105.148C88.0346 105.538 87.7185 105.862 87.3191 105.862C86.928 105.862 86.6035 105.546 86.6035 105.148C86.6118 104.75 86.928 104.435 87.3191 104.435Z" fill="#0074EF"/>
<path fill-rule="evenodd" clip-rule="evenodd" d="M85.531 106.384C85.922 106.384 86.2465 106.699 86.2465 107.097C86.2465 107.495 85.9304 107.81 85.531 107.81C85.1399 107.81 84.8154 107.495 84.8154 107.097C84.8154 106.699 85.1399 106.384 85.531 106.384Z" fill="#0074EF"/>
<path fill-rule="evenodd" clip-rule="evenodd" d="M83.5759 108.009C83.967 108.009 84.2915 108.324 84.2915 108.722C84.2915 109.112 83.9753 109.435 83.5759 109.435C83.1849 109.435 82.8604 109.12 82.8604 108.722C82.8604 108.333 83.1765 108.009 83.5759 108.009Z" fill="#0074EF"/>
<path fill-rule="evenodd" clip-rule="evenodd" d="M81.4538 109.469C81.8449 109.469 82.1694 109.784 82.1694 110.182C82.1694 110.572 81.8532 110.895 81.4538 110.895C81.0628 110.895 80.7383 110.58 80.7383 110.182C80.7383 109.792 81.0545 109.469 81.4538 109.469Z" fill="#0074EF"/>
<path fill-rule="evenodd" clip-rule="evenodd" d="M78.6745 106.873C79.0656 106.873 79.3901 107.188 79.3901 107.586C79.3901 107.976 79.0739 108.299 78.6745 108.299C78.2835 108.299 77.959 107.984 77.959 107.586C77.9673 107.188 78.2835 106.873 78.6745 106.873Z" fill="#0074EF"/>
<path fill-rule="evenodd" clip-rule="evenodd" d="M77.5349 109.311C77.926 109.311 78.2505 109.626 78.2505 110.024C78.2505 110.414 77.9343 110.738 77.5349 110.738C77.1438 110.738 76.8193 110.422 76.8193 110.024C76.8277 109.626 77.1438 109.311 77.5349 109.311Z" fill="#0074EF"/>
<path fill-rule="evenodd" clip-rule="evenodd" d="M79.1658 110.936C79.5568 110.936 79.8813 111.252 79.8813 111.65C79.8813 112.039 79.5651 112.363 79.1658 112.363C78.7747 112.363 78.4502 112.048 78.4502 111.65C78.4585 111.252 78.7747 110.936 79.1658 110.936Z" fill="#0074EF"/>
<path fill-rule="evenodd" clip-rule="evenodd" d="M80.6384 101.508C81.0295 101.508 81.354 101.823 81.354 102.221C81.354 102.611 81.0378 102.934 80.6384 102.934C80.2474 102.934 79.9229 102.619 79.9229 102.221C79.9229 101.832 80.2474 101.508 80.6384 101.508Z" fill="#0074EF"/>
<path fill-rule="evenodd" clip-rule="evenodd" d="M92.7029 84.4425C93.0939 84.4425 93.4184 84.7576 93.4184 85.1556C93.4184 85.5454 93.1022 85.8688 92.7029 85.8688C92.3118 85.8688 91.9873 85.5537 91.9873 85.1556C91.9873 84.7576 92.3118 84.4425 92.7029 84.4425Z" fill="#0074EF"/>
<path fill-rule="evenodd" clip-rule="evenodd" d="M86.1794 85.0975C86.5705 85.0975 86.895 85.4126 86.895 85.8107C86.895 86.2004 86.5788 86.5238 86.1794 86.5238C85.7884 86.5238 85.4639 86.2087 85.4639 85.8107C85.4722 85.4126 85.7884 85.0975 86.1794 85.0975Z" fill="#0074EF"/>
<path fill-rule="evenodd" clip-rule="evenodd" d="M80.9626 83.6299C81.3537 83.6299 81.6782 83.945 81.6782 84.343C81.6782 84.7328 81.362 85.0562 80.9626 85.0562C80.5716 85.0562 80.2471 84.7411 80.2471 84.343C80.2471 83.9533 80.5716 83.6299 80.9626 83.6299Z" fill="#0074EF"/>
<path fill-rule="evenodd" clip-rule="evenodd" d="M83.0837 85.7444C83.4748 85.7444 83.7993 86.0595 83.7993 86.4575C83.7993 86.8473 83.4831 87.1707 83.0837 87.1707C82.6927 87.1707 82.3682 86.8556 82.3682 86.4575C82.3682 86.0595 82.6843 85.7444 83.0837 85.7444Z" fill="#0074EF"/>
<path fill-rule="evenodd" clip-rule="evenodd" d="M91.239 86.3914C91.6301 86.3914 91.9546 86.7065 91.9546 87.1045C91.9546 87.4942 91.6384 87.8176 91.239 87.8176C90.8479 87.8176 90.5234 87.5025 90.5234 87.1045C90.5234 86.7148 90.8479 86.3914 91.239 86.3914Z" fill="#0074EF"/>
<path fill-rule="evenodd" clip-rule="evenodd" d="M93.0271 88.1823C93.4181 88.1823 93.7426 88.4974 93.7426 88.8954C93.7426 89.2851 93.4265 89.6085 93.0271 89.6085C92.636 89.6085 92.3115 89.2934 92.3115 88.8954C92.3198 88.4974 92.636 88.1823 93.0271 88.1823Z" fill="#0074EF"/>
<path fill-rule="evenodd" clip-rule="evenodd" d="M79.1658 78.2646C79.5568 78.2646 79.8813 78.5798 79.8813 78.9778C79.8813 79.3675 79.5651 79.6909 79.1658 79.6909C78.7747 79.6909 78.4502 79.3758 78.4502 78.9778C78.4585 78.588 78.7747 78.2646 79.1658 78.2646Z" fill="#0074EF"/>
<path fill-rule="evenodd" clip-rule="evenodd" d="M92.2117 80.2798C92.6027 80.2798 92.9272 80.5949 92.9272 80.9929C92.9272 81.3827 92.611 81.7061 92.2117 81.7061C91.8206 81.7061 91.4961 81.391 91.4961 80.9929C91.5044 80.5949 91.8206 80.2798 92.2117 80.2798Z" fill="#0074EF"/>
<path fill-rule="evenodd" clip-rule="evenodd" d="M87.6443 79.4091C88.0353 79.4091 88.3598 79.7242 88.3598 80.1222C88.3598 80.5119 88.0437 80.8353 87.6443 80.8353C87.2532 80.8353 86.9287 80.5202 86.9287 80.1222C86.937 79.7242 87.2532 79.4091 87.6443 79.4091Z" fill="#0074EF"/>
<path fill-rule="evenodd" clip-rule="evenodd" d="M82.9177 78.1652C83.3088 78.1652 83.6333 78.4803 83.6333 78.8783C83.6333 79.268 83.3171 79.5914 82.9177 79.5914C82.5266 79.5914 82.2021 79.2763 82.2021 78.8783C82.2021 78.4803 82.5266 78.1652 82.9177 78.1652Z" fill="#0074EF"/>
<path fill-rule="evenodd" clip-rule="evenodd" d="M78.3503 73.5547C78.7414 73.5547 79.0659 73.8698 79.0659 74.2678C79.0659 74.6576 78.7497 74.981 78.3503 74.981C77.9593 74.981 77.6348 74.6659 77.6348 74.2678C77.6431 73.8698 77.9593 73.5547 78.3503 73.5547Z" fill="#0074EF"/>
<path fill-rule="evenodd" clip-rule="evenodd" d="M79.2488 70.8016C79.6398 70.8016 79.9643 71.1167 79.9643 71.5148C79.9643 71.9045 79.6481 72.2279 79.2488 72.2279C78.8577 72.2279 78.5332 71.9128 78.5332 71.5148C78.5332 71.125 78.8577 70.8016 79.2488 70.8016Z" fill="#0074EF"/>
<path fill-rule="evenodd" clip-rule="evenodd" d="M90.8308 75.3458C91.2219 75.3458 91.5464 75.6609 91.5464 76.059C91.5464 76.4487 91.2302 76.7721 90.8308 76.7721C90.4397 76.7721 90.1152 76.457 90.1152 76.059C90.1152 75.6609 90.4397 75.3458 90.8308 75.3458Z" fill="#0074EF"/>
<path fill-rule="evenodd" clip-rule="evenodd" d="M84.5486 72.576C84.9396 72.576 85.2641 72.8912 85.2641 73.2892C85.2641 73.6789 84.9479 74.0023 84.5486 74.0023C84.1575 74.0023 83.833 73.6872 83.833 73.2892C83.8413 72.8995 84.1575 72.576 84.5486 72.576Z" fill="#0074EF"/>
<path fill-rule="evenodd" clip-rule="evenodd" d="M79.948 68.0321C80.339 68.0321 80.6635 68.3472 80.6635 68.7452C80.6635 69.135 80.3474 69.4584 79.948 69.4584C79.5569 69.4584 79.2324 69.1433 79.2324 68.7452C79.2324 68.3472 79.5486 68.0321 79.948 68.0321Z" fill="#0074EF"/>
<path fill-rule="evenodd" clip-rule="evenodd" d="M88.5173 69.1432C88.9084 69.1432 89.2329 69.4583 89.2329 69.8563C89.2329 70.2461 88.9167 70.5695 88.5173 70.5695C88.1263 70.5695 87.8018 70.2544 87.8018 69.8563C87.8018 69.4583 88.1179 69.1432 88.5173 69.1432Z" fill="#0074EF"/>
<path fill-rule="evenodd" clip-rule="evenodd" d="M80.6628 65.0466C81.0539 65.0466 81.3784 65.3617 81.3784 65.7598C81.3784 66.1495 81.0622 66.4729 80.6628 66.4729C80.2718 66.4729 79.9473 66.1578 79.9473 65.7598C79.9473 65.3617 80.2718 65.0466 80.6628 65.0466Z" fill="#0074EF"/>
<path fill-rule="evenodd" clip-rule="evenodd" d="M82.7605 67.2194C83.1515 67.2194 83.476 67.5345 83.476 67.9325C83.476 68.3222 83.1599 68.6456 82.7605 68.6456C82.3694 68.6456 82.0449 68.3305 82.0449 67.9325C82.0449 67.5345 82.3611 67.2194 82.7605 67.2194Z" fill="#0074EF"/>
<path fill-rule="evenodd" clip-rule="evenodd" d="M86.3796 65.594C86.7707 65.594 87.0952 65.9091 87.0952 66.3071C87.0952 66.6969 86.779 67.0203 86.3796 67.0203C85.9886 67.0203 85.6641 66.7052 85.6641 66.3071C85.6641 65.9091 85.9886 65.594 86.3796 65.594Z" fill="#0074EF"/>
<path fill-rule="evenodd" clip-rule="evenodd" d="M81.3699 62.0946C81.7609 62.0946 82.0854 62.4097 82.0854 62.8077C82.0854 63.1975 81.7692 63.5209 81.3699 63.5209C80.9788 63.5209 80.6543 63.2058 80.6543 62.8077C80.6543 62.418 80.9788 62.0946 81.3699 62.0946Z" fill="#0074EF"/>
<path fill-rule="evenodd" clip-rule="evenodd" d="M84.5486 62.6669C84.9396 62.6669 85.2641 62.982 85.2641 63.38C85.2641 63.7697 84.9479 64.0931 84.5486 64.0931C84.1575 64.0931 83.833 63.778 83.833 63.38C83.8413 62.982 84.1575 62.6669 84.5486 62.6669Z" fill="#0074EF"/>
<path fill-rule="evenodd" clip-rule="evenodd" d="M81.9451 59.4163C82.3361 59.4163 82.6606 59.7314 82.6606 60.1294C82.6606 60.5191 82.3444 60.8425 81.9451 60.8425C81.554 60.8425 81.2295 60.5274 81.2295 60.1294C81.2295 59.7314 81.5457 59.4163 81.9451 59.4163Z" fill="#0074EF"/>
<path fill-rule="evenodd" clip-rule="evenodd" d="M63.3484 54.3745C63.7394 54.3745 64.0639 54.6896 64.0639 55.0877C64.0639 55.4774 63.7478 55.8008 63.3484 55.8008C62.9573 55.8008 62.6328 55.4857 62.6328 55.0877C62.6411 54.6979 62.9573 54.3745 63.3484 54.3745Z" fill="#0074EF"/>
<path fill-rule="evenodd" clip-rule="evenodd" d="M64.0056 56.3234C64.3967 56.3234 64.7212 56.6385 64.7212 57.0365C64.7212 57.4262 64.405 57.7496 64.0056 57.7496C63.6145 57.7496 63.29 57.4345 63.29 57.0365C63.29 56.6468 63.6062 56.3234 64.0056 56.3234Z" fill="#0074EF"/>
<path fill-rule="evenodd" clip-rule="evenodd" d="M61.7175 55.5105C62.1086 55.5105 62.4331 55.8256 62.4331 56.2236C62.4331 56.6134 62.1169 56.9368 61.7175 56.9368C61.3265 56.9368 61.002 56.6217 61.002 56.2236C61.0103 55.8339 61.3265 55.5105 61.7175 55.5105Z" fill="#0074EF"/>
<path fill-rule="evenodd" clip-rule="evenodd" d="M59.9285 57.3018C60.3195 57.3018 60.644 57.6169 60.644 58.0149C60.644 58.4046 60.3278 58.728 59.9285 58.728C59.5374 58.728 59.2129 58.4129 59.2129 58.0149C59.2129 57.6169 59.5374 57.3018 59.9285 57.3018Z" fill="#0074EF"/>
<path fill-rule="evenodd" clip-rule="evenodd" d="M63.5144 58.6036C63.9055 58.6036 64.23 58.9187 64.23 59.3168C64.23 59.7065 63.9138 60.0299 63.5144 60.0299C63.1233 60.0299 62.7988 59.7148 62.7988 59.3168C62.7988 58.9187 63.1233 58.6036 63.5144 58.6036Z" fill="#0074EF"/>
<path fill-rule="evenodd" clip-rule="evenodd" d="M57.9646 59.0929C58.3556 59.0929 58.6801 59.408 58.6801 59.806C58.6801 60.1958 58.364 60.5192 57.9646 60.5192C57.5735 60.5192 57.249 60.2041 57.249 59.806C57.2573 59.408 57.5735 59.0929 57.9646 59.0929Z" fill="#0074EF"/>
<path fill-rule="evenodd" clip-rule="evenodd" d="M62.8572 60.2289C63.2482 60.2289 63.5727 60.544 63.5727 60.942C63.5727 61.3318 63.2565 61.6552 62.8572 61.6552C62.4661 61.6552 62.1416 61.3401 62.1416 60.942C62.1499 60.544 62.4661 60.2289 62.8572 60.2289Z" fill="#0074EF"/>
<path fill-rule="evenodd" clip-rule="evenodd" d="M61.5925 62.6669C61.9836 62.6669 62.3081 62.982 62.3081 63.38C62.3081 63.7697 61.9919 64.0931 61.5925 64.0931C61.2015 64.0931 60.877 63.778 60.877 63.38C60.877 62.982 61.2015 62.6669 61.5925 62.6669Z" fill="#0074EF"/>
<path fill-rule="evenodd" clip-rule="evenodd" d="M60.2527 64.939C60.6437 64.939 60.9682 65.2541 60.9682 65.6521C60.9682 66.0418 60.6521 66.3652 60.2527 66.3652C59.8616 66.3652 59.5371 66.0501 59.5371 65.6521C59.5371 65.2541 59.8616 64.939 60.2527 64.939Z" fill="#0074EF"/>
<path fill-rule="evenodd" clip-rule="evenodd" d="M56.1755 61.0414C56.5666 61.0414 56.8911 61.3565 56.8911 61.7545C56.8911 62.1443 56.5749 62.4677 56.1755 62.4677C55.7845 62.4677 55.46 62.1526 55.46 61.7545C55.46 61.3565 55.7845 61.0414 56.1755 61.0414Z" fill="#0074EF"/>
<path fill-rule="evenodd" clip-rule="evenodd" d="M54.3786 63.1561C54.7697 63.1561 55.0942 63.4712 55.0942 63.8693C55.0942 64.259 54.778 64.5824 54.3786 64.5824C53.9876 64.5824 53.6631 64.2673 53.6631 63.8693C53.6714 63.4712 53.9876 63.1561 54.3786 63.1561Z" fill="#0074EF"/>
<path fill-rule="evenodd" clip-rule="evenodd" d="M57.1492 64.4496C57.5402 64.4496 57.8647 64.7647 57.8647 65.1627C57.8647 65.5525 57.5485 65.8759 57.1492 65.8759C56.7581 65.8759 56.4336 65.5608 56.4336 65.1627C56.4419 64.773 56.7581 64.4496 57.1492 64.4496Z" fill="#0074EF"/>
<path fill-rule="evenodd" clip-rule="evenodd" d="M58.6228 67.5426C59.0139 67.5426 59.3384 67.8577 59.3384 68.2557C59.3384 68.6455 59.0222 68.9689 58.6228 68.9689C58.2317 68.9689 57.9072 68.6538 57.9072 68.2557C57.9072 67.8577 58.2317 67.5426 58.6228 67.5426Z" fill="#0074EF"/>
<path fill-rule="evenodd" clip-rule="evenodd" d="M52.9646 65.5442C53.3556 65.5442 53.6801 65.8593 53.6801 66.2573C53.6801 66.6471 53.364 66.9705 52.9646 66.9705C52.5735 66.9705 52.249 66.6554 52.249 66.2573C52.249 65.8593 52.5652 65.5442 52.9646 65.5442Z" fill="#0074EF"/>
<path fill-rule="evenodd" clip-rule="evenodd" d="M56.0095 68.5128C56.4006 68.5128 56.7251 68.8279 56.7251 69.226C56.7251 69.6157 56.4089 69.9391 56.0095 69.9391C55.6184 69.9391 55.2939 69.624 55.2939 69.226C55.3023 68.8362 55.6184 68.5128 56.0095 68.5128Z" fill="#0074EF"/>
<path fill-rule="evenodd" clip-rule="evenodd" d="M57.4822 69.9807C57.8732 69.9807 58.1977 70.2958 58.1977 70.6939C58.1977 71.0836 57.8815 71.407 57.4822 71.407C57.0911 71.407 56.7666 71.0919 56.7666 70.6939C56.7666 70.2958 57.0911 69.9807 57.4822 69.9807Z" fill="#0074EF"/>
<path fill-rule="evenodd" clip-rule="evenodd" d="M56.3425 72.576C56.7336 72.576 57.0581 72.8912 57.0581 73.2892C57.0581 73.6789 56.7419 74.0023 56.3425 74.0023C55.9515 74.0023 55.627 73.6872 55.627 73.2892C55.627 72.8995 55.9431 72.576 56.3425 72.576Z" fill="#0074EF"/>
<path fill-rule="evenodd" clip-rule="evenodd" d="M51.7742 68.0321C52.1652 68.0321 52.4897 68.3472 52.4897 68.7452C52.4897 69.135 52.1735 69.4584 51.7742 69.4584C51.3831 69.4584 51.0586 69.1433 51.0586 68.7452C51.0586 68.3472 51.3748 68.0321 51.7742 68.0321Z" fill="#0074EF"/>
<path fill-rule="evenodd" clip-rule="evenodd" d="M51.1169 71.606C51.508 71.606 51.8325 71.9211 51.8325 72.3191C51.8325 72.7088 51.5163 73.0322 51.1169 73.0322C50.7259 73.0322 50.4014 72.7171 50.4014 72.3191C50.4097 71.9211 50.7259 71.606 51.1169 71.606Z" fill="#0074EF"/>
<path fill-rule="evenodd" clip-rule="evenodd" d="M55.3601 75.8268C55.7512 75.8268 56.0757 76.1419 56.0757 76.5399C56.0757 76.9297 55.7595 77.2531 55.3601 77.2531C54.969 77.2531 54.6445 76.938 54.6445 76.5399C54.6445 76.1502 54.969 75.8268 55.3601 75.8268Z" fill="#0074EF"/>
<path fill-rule="evenodd" clip-rule="evenodd" d="M51.2839 75.3458C51.675 75.3458 51.9995 75.6609 51.9995 76.059C51.9995 76.4487 51.6833 76.7721 51.2839 76.7721C50.8929 76.7721 50.5684 76.457 50.5684 76.059C50.5684 75.6609 50.8929 75.3458 51.2839 75.3458Z" fill="#0074EF"/>
<path fill-rule="evenodd" clip-rule="evenodd" d="M52.9148 76.9711C53.3058 76.9711 53.6303 77.2862 53.6303 77.6842C53.6303 78.0739 53.3142 78.3973 52.9148 78.3973C52.5237 78.3973 52.1992 78.0822 52.1992 77.6842C52.1992 77.2862 52.5237 76.9711 52.9148 76.9711Z" fill="#0074EF"/>
<path fill-rule="evenodd" clip-rule="evenodd" d="M53.7292 84.2849C54.1203 84.2849 54.4448 84.6 54.4448 84.9981C54.4448 85.3878 54.1286 85.7112 53.7292 85.7112C53.3382 85.7112 53.0137 85.3961 53.0137 84.9981C53.0137 84.6 53.3382 84.2849 53.7292 84.2849Z" fill="#0074EF"/>
<path fill-rule="evenodd" clip-rule="evenodd" d="M54.5456 78.5964C54.9367 78.5964 55.2612 78.9115 55.2612 79.3096C55.2612 79.6993 54.945 80.0227 54.5456 80.0227C54.1546 80.0227 53.8301 79.7076 53.8301 79.3096C53.8301 78.9115 54.1546 78.5964 54.5456 78.5964Z" fill="#0074EF"/>
<path d="M88.6176 69.7235C88.7008 69.8065 88.7008 69.9474 88.6176 70.0303C88.5344 70.1133 88.3929 70.1133 88.3097 70.0303L86.3544 68.0817C86.2712 67.9987 86.2712 67.8578 86.3544 67.7748C86.4376 67.6919 86.579 67.6919 86.6622 67.7748L88.6176 69.7235Z" fill="#0074EF"/>
<path d="M81.2958 63.04C81.2126 62.9571 81.2126 62.8161 81.2958 62.7332C81.379 62.6503 81.5205 62.6503 81.6037 62.7332L85.5143 66.6306C85.5559 66.6721 85.5809 66.7301 85.5809 66.7882V70.2792L91.064 75.9014C91.1473 75.9843 91.1473 76.1253 91.064 76.2082C90.9808 76.2911 90.8394 76.2911 90.7562 76.2082L85.2231 70.528C85.1731 70.4865 85.1482 70.4285 85.1482 70.3621V66.8794L81.2958 63.04Z" fill="#0074EF"/>
<path d="M92.3704 80.7773C92.4536 80.8602 92.4536 81.0012 92.3704 81.0841C92.2872 81.167 92.1457 81.167 92.0625 81.0841L87.3947 76.4321H83.7337C83.6672 76.4321 83.6089 76.4072 83.5673 76.3575L79.0077 71.6474C78.9245 71.5562 78.9245 71.4235 79.016 71.3406C79.0992 71.2577 79.2407 71.2577 79.3239 71.3489L83.8253 75.9926H87.4863C87.5445 75.9926 87.6027 76.0175 87.6444 76.0589L92.3704 80.7773Z" fill="#0074EF"/>
<path d="M92.8607 92.3202C92.9439 92.4031 92.9439 92.5441 92.8524 92.627C92.7692 92.7099 92.6277 92.7099 92.5445 92.6187L88.3011 88.2321C88.2595 88.1906 88.2428 88.1326 88.2428 88.0828V84.6L85.9298 82.2948H82.4352C82.3686 82.2948 82.3103 82.2699 82.2687 82.2201L79.0237 79.1437C78.9405 79.0608 78.9322 78.9198 79.0154 78.8369C79.0986 78.754 79.2401 78.7457 79.3233 78.8286L82.5184 81.8553H86.0213C86.0795 81.8553 86.1378 81.8802 86.1794 81.9216L88.6256 84.3596C88.6672 84.401 88.6922 84.4591 88.6922 84.5171V88.0082L92.8607 92.3202Z" fill="#0074EF"/>
<path d="M92.8608 84.9981C92.944 85.081 92.944 85.222 92.8608 85.3049C92.7776 85.3878 92.6361 85.3878 92.5529 85.3049L87.494 80.2632C87.4108 80.1802 87.4108 80.0393 87.494 79.9564C87.5772 79.8734 87.7187 79.8734 87.8019 79.9564L92.8608 84.9981Z" fill="#0074EF"/>
<path d="M91.5544 98.1662C91.6376 98.2492 91.6376 98.3901 91.5544 98.4731C91.4712 98.556 91.3297 98.556 91.2465 98.4731L88.2178 95.4464H84.7232C84.6567 95.4464 84.5984 95.4132 84.5568 95.3717L81.9608 92.7845C81.8776 92.7016 81.8776 92.5606 81.9608 92.4777C82.044 92.3948 82.1855 92.3948 82.2687 92.4777L84.8148 95.0152H88.3094C88.3676 95.0152 88.4259 95.04 88.4675 95.0815L91.5544 98.1662Z" fill="#0074EF"/>
<path d="M92.3697 95.4048C92.4529 95.4877 92.4529 95.6287 92.3697 95.7199C92.2865 95.8028 92.145 95.8028 92.0618 95.7199L86.0295 89.708C85.9879 89.6665 85.9629 89.6084 85.9629 89.5504V85.8106C85.9629 85.6862 86.0627 85.595 86.1792 85.595C86.304 85.595 86.3956 85.6945 86.3956 85.8106V89.4592L92.3697 95.4048Z" fill="#0074EF"/>
<path d="M90.4149 100.77C90.4981 100.861 90.4898 100.994 90.4066 101.077C90.3151 101.16 90.182 101.16 90.0988 101.069L87.4861 98.3073C87.4029 98.2161 87.4112 98.0834 87.4945 98.0005C87.586 97.9175 87.7191 97.9258 87.8023 98.0088L90.4149 100.77Z" fill="#0074EF"/>
<path d="M93.1851 88.7379C93.2683 88.8208 93.2683 88.9617 93.1851 89.0447C93.1019 89.1276 92.9604 89.1276 92.8772 89.0447L91.08 87.2535C90.9968 87.1706 90.9968 87.0296 91.08 86.9467C91.1632 86.8638 91.3046 86.8638 91.3878 86.9467L93.1851 88.7379Z" fill="#0074EF"/>
<path d="M85.6889 106.939C85.7721 107.022 85.7721 107.163 85.6889 107.246C85.6057 107.329 85.4642 107.329 85.381 107.246L83.7502 105.621C83.7086 105.58 83.6836 105.521 83.6836 105.472V101.831L81.1459 99.4598C81.0544 99.3769 81.0544 99.2359 81.1376 99.153C81.2208 99.0618 81.3622 99.0618 81.4454 99.1447L84.0414 101.574C84.0913 101.616 84.1246 101.674 84.1246 101.74V105.389L85.6889 106.939Z" fill="#0074EF"/>
<path d="M87.4782 104.991C87.5614 105.074 87.5614 105.215 87.4782 105.298C87.395 105.381 87.2536 105.381 87.1704 105.298L85.706 103.838C85.6228 103.755 85.6228 103.614 85.706 103.531C85.7892 103.449 85.9306 103.449 86.0138 103.531L87.4782 104.991Z" fill="#0074EF"/>
<path d="M82.9184 67.7748C83.0016 67.866 82.9933 67.9987 82.9018 68.0816C82.8102 68.1645 82.6771 68.1562 82.5939 68.065L80.6386 65.9505C80.5554 65.8592 80.5637 65.7183 80.6552 65.6436C80.7468 65.5607 80.8799 65.569 80.9631 65.6602L82.9184 67.7748Z" fill="#0074EF"/>
<path d="M83.0769 78.6628C83.1601 78.7457 83.1601 78.8867 83.0769 78.9696C82.9937 79.0525 82.8522 79.0525 82.769 78.9696L78.2011 74.4171C78.1179 74.3342 78.1179 74.1932 78.2011 74.1103C78.2843 74.0274 78.4257 74.0274 78.5089 74.1103L83.0769 78.6628Z" fill="#0074EF"/>
<path d="M83.7254 108.565C83.8086 108.648 83.8086 108.789 83.7254 108.872C83.6422 108.954 83.5007 108.954 83.4175 108.872L81.2958 106.757C81.2542 106.716 81.2292 106.657 81.2292 106.599V103.117L80.4804 102.37C80.3972 102.287 80.3972 102.146 80.4804 102.055C80.5636 101.972 80.705 101.972 80.7882 102.055L81.6036 102.868C81.6452 102.909 81.6702 102.967 81.6702 103.025V106.508L83.7254 108.565Z" fill="#0074EF"/>
<path d="M79.3233 111.492C79.4065 111.575 79.4065 111.716 79.3233 111.799C79.2401 111.882 79.0987 111.882 79.0155 111.799L77.3847 110.174C77.3015 110.091 77.3015 109.95 77.3847 109.867C77.4679 109.784 77.6093 109.784 77.6925 109.867L79.3233 111.492Z" fill="#0074EF"/>
<path d="M81.6029 110.024C81.6944 110.107 81.6944 110.248 81.6112 110.331C81.528 110.422 81.3865 110.422 81.3033 110.339L78.5326 107.735C78.4411 107.653 78.4411 107.512 78.5243 107.429C78.6075 107.346 78.7489 107.337 78.8322 107.42L81.6029 110.024Z" fill="#0074EF"/>
<path d="M84.7068 73.1319C84.79 73.2148 84.79 73.3558 84.7068 73.447C84.6236 73.5299 84.4821 73.5299 84.3989 73.447L79.831 68.8945C79.7478 68.8116 79.7478 68.6706 79.831 68.5794C79.9142 68.4965 80.0556 68.4965 80.1388 68.5794L84.7068 73.1319Z" fill="#0074EF"/>
<path d="M89.1079 103.042C89.1912 103.125 89.1912 103.266 89.1079 103.349C89.0247 103.432 88.8833 103.432 88.8001 103.349L81.6278 96.2009C81.5446 96.118 81.5446 95.977 81.6278 95.8941C81.711 95.8112 81.8525 95.8112 81.9357 95.8941L89.1079 103.042Z" fill="#0074EF"/>
<path d="M85.3559 91.9884C85.4391 92.0713 85.4391 92.2123 85.3559 92.2952C85.2727 92.3781 85.1313 92.3781 85.0481 92.2952L81.62 88.8788C81.5368 88.7958 81.5368 88.6549 81.62 88.572C81.7032 88.489 81.8447 88.489 81.9279 88.572L85.3559 91.9884Z" fill="#0074EF"/>
<path d="M83.2342 86.3C83.3174 86.3829 83.3174 86.5239 83.2342 86.6068C83.151 86.6898 83.0095 86.6898 82.9263 86.6068L80.8046 84.4923C80.7214 84.4094 80.7214 84.2684 80.8046 84.1855C80.8878 84.1026 81.0292 84.1026 81.1125 84.1855L83.2342 86.3Z" fill="#0074EF"/>
<path d="M63.5152 59.0929C63.6401 59.0929 63.7316 59.1924 63.7316 59.3085C63.7316 59.4329 63.6317 59.5241 63.5152 59.5241H61.069C60.9941 59.5241 60.9359 59.4909 60.8943 59.4329L59.7627 58.1476C59.6795 58.0564 59.6961 57.9154 59.7794 57.8408C59.8709 57.7578 60.0123 57.7744 60.0872 57.8574L61.1689 59.0929H63.5152Z" fill="#0074EF"/>
<path d="M62.8581 60.718C62.9829 60.718 63.0744 60.8175 63.0744 60.9419C63.0744 61.0662 62.9745 61.1575 62.8581 61.1575H59.1055C59.0473 61.1575 58.989 61.1326 58.9474 61.0911L57.8075 59.9551C57.7243 59.8721 57.7243 59.7312 57.8075 59.6483C57.8907 59.5653 58.0322 59.5653 58.1154 59.6483L59.1887 60.718H62.8581Z" fill="#0074EF"/>
<path d="M58.7802 68.0982C58.8634 68.1811 58.8634 68.3221 58.7802 68.405C58.697 68.4879 58.5556 68.4879 58.4724 68.405L57.2243 67.1694H53.5633C53.4884 67.1694 53.4135 67.128 53.3802 67.0699L52.7395 66.2739C52.6647 66.1826 52.6813 66.0417 52.7728 65.967C52.8644 65.8924 53.0058 65.909 53.0807 66.0002L53.6631 66.7299H57.3075C57.3657 66.7299 57.424 66.7548 57.4656 66.7963L58.7802 68.0982Z" fill="#0074EF"/>
<path d="M64.0057 56.8208C64.1305 56.8208 64.222 56.9203 64.222 57.0447C64.222 57.1608 64.1221 57.2603 64.0057 57.2603H62.5412C62.4747 57.2603 62.4164 57.2272 62.3748 57.1857L61.5761 56.3896C61.4929 56.3067 61.4929 56.1657 61.5761 56.0828C61.6593 55.9999 61.8007 55.9999 61.8839 56.0828L62.6328 56.8291H64.0057V56.8208Z" fill="#0074EF"/>
<path d="M53.0724 77.5268C53.1556 77.6098 53.1556 77.7507 53.0724 77.8336C52.9892 77.9166 52.8477 77.9166 52.7645 77.8336L51.1337 76.2084C51.0505 76.1254 51.0505 75.9845 51.1337 75.8932C51.2169 75.8103 51.3583 75.8103 51.4415 75.8932L53.0724 77.5268Z" fill="#0074EF"/>
<path d="M54.2124 82.2366C54.2956 82.3196 54.2956 82.4605 54.2124 82.5517C54.1292 82.6347 53.9878 82.6347 53.9046 82.5517L52.1073 80.7606C52.0241 80.6777 52.0241 80.5367 52.1073 80.4455C52.1905 80.3626 52.332 80.3626 52.4152 80.4455L54.2124 82.2366Z" fill="#0074EF"/>
<path d="M56.4919 73.1319C56.5751 73.2148 56.5751 73.3558 56.4919 73.447C56.4087 73.5299 56.2673 73.5299 56.1841 73.447L51.6161 68.8945C51.5329 68.8116 51.5329 68.6706 51.6161 68.5794C51.6993 68.4965 51.8408 68.4965 51.924 68.5794L56.4919 73.1319Z" fill="#0074EF"/>
<path d="M55.519 76.3825C55.6022 76.4654 55.6022 76.6064 55.519 76.6893C55.4358 76.7722 55.2943 76.7722 55.2111 76.6893L50.9677 72.4602C50.8845 72.3773 50.8845 72.2363 50.9677 72.1534C51.0509 72.0705 51.1923 72.0705 51.2755 72.1534L55.519 76.3825Z" fill="#0074EF"/>
<path d="M60.4033 65.4947C60.4865 65.5776 60.4948 65.7185 60.4116 65.8015C60.3284 65.8844 60.1869 65.8927 60.1037 65.8098L56.0267 61.9124C55.9435 61.8295 55.9352 61.6885 56.0184 61.6056C56.1016 61.5226 56.243 61.5143 56.3262 61.5973L60.4033 65.4947Z" fill="#0074EF"/>
<path fill-rule="evenodd" clip-rule="evenodd" d="M54.0544 81.6812C54.4455 81.6812 54.77 81.9963 54.77 82.3943C54.77 82.784 54.4538 83.1074 54.0544 83.1074C53.6634 83.1074 53.3389 82.7923 53.3389 82.3943C53.3389 81.9963 53.6634 81.6812 54.0544 81.6812Z" fill="#0074EF"/>
<path fill-rule="evenodd" clip-rule="evenodd" d="M52.2576 79.8899C52.6486 79.8899 52.9731 80.205 52.9731 80.603C52.9731 80.9928 52.6569 81.3162 52.2576 81.3162C51.8665 81.3162 51.542 81.0011 51.542 80.603C51.5503 80.2133 51.8665 79.8899 52.2576 79.8899Z" fill="#0074EF"/>
<path d="M56.9908 64.9473C57.1156 64.9473 57.2072 65.0468 57.2072 65.1712C57.2072 65.2873 57.1073 65.3868 56.9908 65.3868H55.5264C55.4598 65.3868 55.4016 65.3537 55.36 65.3122L54.2284 64.1844C54.1452 64.1015 54.1452 63.9605 54.2284 63.8776C54.3116 63.7947 54.4531 63.7947 54.5363 63.8776L55.6096 64.9473H56.9908Z" fill="#0074EF"/>
<mask id="mask0_851_4252" style="mask-type:luminance" maskUnits="userSpaceOnUse" x="48" y="25" width="33" height="89">
<path d="M64.796 51.323C67.9827 55.237 67.2089 64.342 62.4912 78.6213C56.2509 98.9624 59.5541 110.464 72.351 113.018C67.2339 109.469 68.3322 96.7649 75.6542 74.8898C82.9846 53.0644 82.5769 36.5793 74.3396 25.509C69.7217 34.7798 63.4231 43.9429 55.4355 52.9981C47.4478 62.0616 45.9667 72.3606 51.0006 83.9118C48.6959 73.6459 49.6278 66.0585 53.8712 61.0831C58.1147 56.1077 61.759 52.8737 64.796 51.323Z" fill="white"/>
</mask>
<g mask="url(#mask0_851_4252)">
<path d="M82.9763 25.5092H45.9668V113.01H82.9763V25.5092Z" fill="url(#paint0_linear_851_4252)"/>
</g>
<mask id="mask1_851_4252" style="mask-type:luminance" maskUnits="userSpaceOnUse" x="48" y="25" width="33" height="89">
<path d="M64.796 51.323C67.9827 55.237 67.2089 64.342 62.4912 78.6213C56.2509 98.9624 59.5541 110.464 72.351 113.018C67.2339 109.469 68.3322 96.7649 75.6542 74.8898C82.9846 53.0644 82.5769 36.5793 74.3396 25.509C69.7217 34.7798 63.4231 43.9429 55.4355 52.9981C47.4478 62.0616 45.9667 72.3606 51.0006 83.9118C48.6959 73.6459 49.6278 66.0585 53.8712 61.0831C58.1147 56.1077 61.759 52.8737 64.796 51.323Z" fill="white"/>
</mask>
<g mask="url(#mask1_851_4252)">
<path d="M82.9763 25.5092H45.9668V113.01H82.9763V25.5092Z" fill="url(#paint1_linear_851_4252)"/>
</g>
<mask id="mask2_851_4252" style="mask-type:luminance" maskUnits="userSpaceOnUse" x="48" y="25" width="33" height="59">
<path d="M62.4829 78.6213C67.2089 64.3419 67.9744 55.237 64.7877 51.323C61.7507 52.8737 58.1147 56.116 53.8712 61.0831C49.6278 66.0585 48.6959 73.6459 51.0006 83.9118C45.9667 72.3606 47.4478 62.0616 55.4355 52.9981C63.4231 43.9429 69.7217 34.7798 74.3396 25.509C82.5769 36.5793 82.9763 53.0561 75.6542 74.8898C72.534 77.5765 65.5781 78.4969 62.4829 78.6213Z" fill="white"/>
</mask>
<g mask="url(#mask2_851_4252)">
<path d="M82.9763 25.5092H45.9668V83.9036H82.9763V25.5092Z" fill="url(#paint2_linear_851_4252)"/>
</g>
</g>
<defs>
<filter id="filter0_dd_851_4252" x="0.0137711" y="0.670826" width="141.764" height="141.765" filterUnits="userSpaceOnUse" color-interpolation-filters="sRGB">
<feFlood flood-opacity="0" result="BackgroundImageFix"/>
<feColorMatrix in="SourceAlpha" type="matrix" values="0 0 0 0 0 0 0 0 0 0 0 0 0 0 0 0 0 0 127 0" result="hardAlpha"/>
<feOffset dy="2.0395"/>
<feGaussianBlur stdDeviation="2.0395"/>
<feColorMatrix type="matrix" values="0 0 0 0 0 0 0 0 0 0 0 0 0 0 0 0 0 0 0.06 0"/>
<feBlend mode="normal" in2="BackgroundImageFix" result="effect1_dropShadow_851_4252"/>
<feColorMatrix in="SourceAlpha" type="matrix" values="0 0 0 0 0 0 0 0 0 0 0 0 0 0 0 0 0 0 127 0" result="hardAlpha"/>
<feOffset/>
<feGaussianBlur stdDeviation="1.01975"/>
<feColorMatrix type="matrix" values="0 0 0 0 0 0 0 0 0 0 0 0 0 0 0 0 0 0 0.04 0"/>
<feBlend mode="normal" in2="effect1_dropShadow_851_4252" result="effect2_dropShadow_851_4252"/>
<feBlend mode="normal" in="SourceGraphic" in2="effect2_dropShadow_851_4252" result="shape"/>
</filter>
<linearGradient id="paint0_linear_851_4252" x1="55.5817" y1="109.003" x2="73.6945" y2="27.5054" gradientUnits="userSpaceOnUse">
<stop stop-color="#097CF6"/>
<stop offset="1" stop-color="#8FB5E2"/>
</linearGradient>
<linearGradient id="paint1_linear_851_4252" x1="64.5214" y1="68.727" x2="60.6866" y2="112.264" gradientUnits="userSpaceOnUse">
<stop stop-color="#5098FC"/>
<stop offset="1" stop-color="#2968FA"/>
</linearGradient>
<linearGradient id="paint2_linear_851_4252" x1="64.4737" y1="25.512" x2="64.4737" y2="83.3509" gradientUnits="userSpaceOnUse">
<stop stop-color="#8DD6FE"/>
<stop offset="1" stop-color="#67A1FB"/>
</linearGradient>
</defs>
</svg>
