<svg width="189" height="190" viewBox="0 0 189 190" fill="none" xmlns="http://www.w3.org/2000/svg">
<g filter="url(#filter0_dd_803_4575)">
<circle cx="94.5633" cy="92.5796" r="88.95" fill="#FAFAFA"/>
<path fill-rule="evenodd" clip-rule="evenodd" d="M101.021 149.678C101.541 149.678 101.973 150.098 101.973 150.628C101.973 151.147 101.552 151.577 101.021 151.577C100.5 151.577 100.068 151.158 100.068 150.628C100.068 150.109 100.5 149.678 101.021 149.678Z" fill="#097CF6"/>
<path fill-rule="evenodd" clip-rule="evenodd" d="M106.339 138.858C106.859 138.858 107.291 139.277 107.291 139.807C107.291 140.326 106.87 140.757 106.339 140.757C105.818 140.757 105.386 140.337 105.386 139.807C105.386 139.288 105.818 138.858 106.339 138.858Z" fill="#097CF6"/>
<path fill-rule="evenodd" clip-rule="evenodd" d="M123.6 122.196C124.12 122.196 124.553 122.616 124.553 123.146C124.553 123.665 124.132 124.095 123.6 124.095C123.079 124.095 122.647 123.676 122.647 123.146C122.658 122.627 123.079 122.196 123.6 122.196Z" fill="#097CF6"/>
<path fill-rule="evenodd" clip-rule="evenodd" d="M122.957 126.314C123.477 126.314 123.909 126.734 123.909 127.264C123.909 127.783 123.488 128.214 122.957 128.214C122.436 128.214 122.004 127.794 122.004 127.264C122.004 126.734 122.425 126.314 122.957 126.314Z" fill="#097CF6"/>
<path fill-rule="evenodd" clip-rule="evenodd" d="M109.053 117.216C109.574 117.216 110.006 117.636 110.006 118.166C110.006 118.685 109.585 119.116 109.053 119.116C108.532 119.116 108.1 118.696 108.1 118.166C108.1 117.647 108.532 117.216 109.053 117.216Z" fill="#097CF6"/>
<path fill-rule="evenodd" clip-rule="evenodd" d="M113.617 121.765C114.138 121.765 114.57 122.185 114.57 122.715C114.57 123.234 114.149 123.665 113.617 123.665C113.097 123.665 112.665 123.245 112.665 122.715C112.665 122.185 113.086 121.765 113.617 121.765Z" fill="#097CF6"/>
<path fill-rule="evenodd" clip-rule="evenodd" d="M109.485 122.417C110.006 122.417 110.438 122.837 110.438 123.367C110.438 123.885 110.017 124.316 109.485 124.316C108.964 124.316 108.532 123.897 108.532 123.367C108.543 122.837 108.964 122.417 109.485 122.417Z" fill="#097CF6"/>
<path fill-rule="evenodd" clip-rule="evenodd" d="M121.86 129.991C122.381 129.991 122.813 130.411 122.813 130.941C122.813 131.46 122.392 131.89 121.86 131.89C121.339 131.89 120.907 131.471 120.907 130.941C120.918 130.411 121.339 129.991 121.86 129.991Z" fill="#097CF6"/>
<path fill-rule="evenodd" clip-rule="evenodd" d="M120.342 133.447C120.863 133.447 121.295 133.867 121.295 134.397C121.295 134.916 120.874 135.346 120.342 135.346C119.822 135.346 119.39 134.927 119.39 134.397C119.39 133.878 119.822 133.447 120.342 133.447Z" fill="#097CF6"/>
<path fill-rule="evenodd" clip-rule="evenodd" d="M116.863 129.771C117.384 129.771 117.816 130.19 117.816 130.72C117.816 131.239 117.395 131.67 116.863 131.67C116.343 131.67 115.911 131.25 115.911 130.72C115.922 130.201 116.343 129.771 116.863 129.771Z" fill="#097CF6"/>
<path fill-rule="evenodd" clip-rule="evenodd" d="M118.603 136.484C119.124 136.484 119.556 136.903 119.556 137.433C119.556 137.952 119.135 138.383 118.603 138.383C118.082 138.383 117.65 137.963 117.65 137.433C117.661 136.903 118.082 136.484 118.603 136.484Z" fill="#097CF6"/>
<path fill-rule="evenodd" clip-rule="evenodd" d="M109.053 126.955C109.574 126.955 110.006 127.374 110.006 127.904C110.006 128.423 109.585 128.854 109.053 128.854C108.532 128.854 108.1 128.434 108.1 127.904C108.1 127.385 108.532 126.955 109.053 126.955Z" fill="#097CF6"/>
<path fill-rule="evenodd" clip-rule="evenodd" d="M108.399 131.283C108.92 131.283 109.352 131.703 109.352 132.233C109.352 132.752 108.931 133.182 108.399 133.182C107.878 133.182 107.446 132.763 107.446 132.233C107.457 131.714 107.878 131.283 108.399 131.283Z" fill="#097CF6"/>
<path fill-rule="evenodd" clip-rule="evenodd" d="M114.482 137.135C115.002 137.135 115.434 137.555 115.434 138.085C115.434 138.604 115.013 139.034 114.482 139.034C113.961 139.034 113.529 138.615 113.529 138.085C113.529 137.555 113.961 137.135 114.482 137.135Z" fill="#097CF6"/>
<path fill-rule="evenodd" clip-rule="evenodd" d="M116.431 139.078C116.952 139.078 117.384 139.498 117.384 140.028C117.384 140.547 116.963 140.977 116.431 140.977C115.911 140.977 115.479 140.558 115.479 140.028C115.49 139.498 115.911 139.078 116.431 139.078Z" fill="#097CF6"/>
<path fill-rule="evenodd" clip-rule="evenodd" d="M114.049 141.673C114.57 141.673 115.002 142.093 115.002 142.623C115.002 143.153 114.581 143.572 114.049 143.572C113.529 143.572 113.097 143.153 113.097 142.623C113.097 142.093 113.529 141.673 114.049 141.673Z" fill="#097CF6"/>
<path fill-rule="evenodd" clip-rule="evenodd" d="M111.446 143.837C111.967 143.837 112.399 144.257 112.399 144.787C112.399 145.306 111.978 145.736 111.446 145.736C110.925 145.736 110.493 145.317 110.493 144.787C110.493 144.268 110.914 143.837 111.446 143.837Z" fill="#097CF6"/>
<path fill-rule="evenodd" clip-rule="evenodd" d="M108.621 145.781C109.141 145.781 109.574 146.2 109.574 146.73C109.574 147.249 109.153 147.68 108.621 147.68C108.1 147.68 107.668 147.26 107.668 146.73C107.668 146.211 108.089 145.781 108.621 145.781Z" fill="#097CF6"/>
<path fill-rule="evenodd" clip-rule="evenodd" d="M104.921 142.325C105.441 142.325 105.873 142.744 105.873 143.274C105.873 143.793 105.452 144.224 104.921 144.224C104.4 144.224 103.968 143.804 103.968 143.274C103.979 142.744 104.4 142.325 104.921 142.325Z" fill="#097CF6"/>
<path fill-rule="evenodd" clip-rule="evenodd" d="M103.403 145.571C103.924 145.571 104.356 145.99 104.356 146.52C104.356 147.039 103.935 147.47 103.403 147.47C102.882 147.47 102.45 147.05 102.45 146.52C102.461 145.99 102.882 145.571 103.403 145.571Z" fill="#097CF6"/>
<path fill-rule="evenodd" clip-rule="evenodd" d="M105.574 147.735C106.095 147.735 106.527 148.154 106.527 148.684C106.527 149.203 106.106 149.634 105.574 149.634C105.054 149.634 104.622 149.214 104.622 148.684C104.633 148.154 105.054 147.735 105.574 147.735Z" fill="#097CF6"/>
<path fill-rule="evenodd" clip-rule="evenodd" d="M107.535 135.181C108.056 135.181 108.488 135.6 108.488 136.13C108.488 136.649 108.067 137.08 107.535 137.08C107.014 137.08 106.582 136.66 106.582 136.13C106.582 135.612 107.014 135.181 107.535 135.181Z" fill="#097CF6"/>
<path fill-rule="evenodd" clip-rule="evenodd" d="M123.6 112.458C124.12 112.458 124.553 112.877 124.553 113.407C124.553 113.926 124.132 114.357 123.6 114.357C123.079 114.357 122.647 113.937 122.647 113.407C122.647 112.877 123.079 112.458 123.6 112.458Z" fill="#097CF6"/>
<path fill-rule="evenodd" clip-rule="evenodd" d="M114.914 113.33C115.434 113.33 115.867 113.749 115.867 114.279C115.867 114.798 115.446 115.229 114.914 115.229C114.393 115.229 113.961 114.809 113.961 114.279C113.972 113.749 114.393 113.33 114.914 113.33Z" fill="#097CF6"/>
<path fill-rule="evenodd" clip-rule="evenodd" d="M107.967 111.376C108.488 111.376 108.92 111.795 108.92 112.325C108.92 112.844 108.499 113.275 107.967 113.275C107.446 113.275 107.014 112.855 107.014 112.325C107.014 111.806 107.446 111.376 107.967 111.376Z" fill="#097CF6"/>
<path fill-rule="evenodd" clip-rule="evenodd" d="M110.792 114.191C111.313 114.191 111.745 114.611 111.745 115.141C111.745 115.66 111.324 116.09 110.792 116.09C110.271 116.09 109.839 115.671 109.839 115.141C109.839 114.611 110.26 114.191 110.792 114.191Z" fill="#097CF6"/>
<path fill-rule="evenodd" clip-rule="evenodd" d="M121.65 115.052C122.17 115.052 122.602 115.472 122.602 116.002C122.602 116.521 122.181 116.952 121.65 116.952C121.129 116.952 120.697 116.532 120.697 116.002C120.697 115.483 121.129 115.052 121.65 115.052Z" fill="#097CF6"/>
<path fill-rule="evenodd" clip-rule="evenodd" d="M124.031 117.437C124.552 117.437 124.984 117.857 124.984 118.387C124.984 118.906 124.563 119.336 124.031 119.336C123.511 119.336 123.079 118.917 123.079 118.387C123.09 117.857 123.511 117.437 124.031 117.437Z" fill="#097CF6"/>
<path fill-rule="evenodd" clip-rule="evenodd" d="M105.574 104.232C106.095 104.232 106.527 104.651 106.527 105.181C106.527 105.7 106.106 106.131 105.574 106.131C105.054 106.131 104.622 105.711 104.622 105.181C104.633 104.662 105.054 104.232 105.574 104.232Z" fill="#097CF6"/>
<path fill-rule="evenodd" clip-rule="evenodd" d="M122.946 106.915C123.467 106.915 123.899 107.334 123.899 107.864C123.899 108.383 123.478 108.814 122.946 108.814C122.425 108.814 121.993 108.394 121.993 107.864C122.004 107.334 122.425 106.915 122.946 106.915Z" fill="#097CF6"/>
<path fill-rule="evenodd" clip-rule="evenodd" d="M116.863 105.755C117.384 105.755 117.816 106.175 117.816 106.705C117.816 107.224 117.395 107.655 116.863 107.655C116.343 107.655 115.911 107.235 115.911 106.705C115.922 106.175 116.343 105.755 116.863 105.755Z" fill="#097CF6"/>
<path fill-rule="evenodd" clip-rule="evenodd" d="M110.57 104.099C111.091 104.099 111.523 104.519 111.523 105.049C111.523 105.568 111.102 105.998 110.57 105.998C110.05 105.998 109.618 105.579 109.618 105.049C109.618 104.519 110.05 104.099 110.57 104.099Z" fill="#097CF6"/>
<path fill-rule="evenodd" clip-rule="evenodd" d="M104.488 97.9602C105.009 97.9602 105.441 98.3798 105.441 98.9098C105.441 99.4287 105.02 99.8593 104.488 99.8593C103.968 99.8593 103.536 99.4398 103.536 98.9098C103.547 98.3798 103.968 97.9602 104.488 97.9602Z" fill="#097CF6"/>
<path fill-rule="evenodd" clip-rule="evenodd" d="M105.685 94.2944C106.206 94.2944 106.638 94.714 106.638 95.244C106.638 95.7629 106.217 96.1935 105.685 96.1935C105.164 96.1935 104.732 95.774 104.732 95.244C104.732 94.725 105.164 94.2944 105.685 94.2944Z" fill="#097CF6"/>
<path fill-rule="evenodd" clip-rule="evenodd" d="M121.107 100.345C121.627 100.345 122.059 100.765 122.059 101.295C122.059 101.814 121.638 102.244 121.107 102.244C120.586 102.244 120.154 101.825 120.154 101.295C120.154 100.765 120.586 100.345 121.107 100.345Z" fill="#097CF6"/>
<path fill-rule="evenodd" clip-rule="evenodd" d="M112.742 96.6573C113.263 96.6573 113.695 97.0769 113.695 97.6068C113.695 98.1258 113.274 98.5564 112.742 98.5564C112.221 98.5564 111.789 98.1368 111.789 97.6068C111.8 97.0879 112.221 96.6573 112.742 96.6573Z" fill="#097CF6"/>
<path fill-rule="evenodd" clip-rule="evenodd" d="M106.615 90.6068C107.136 90.6068 107.568 91.0264 107.568 91.5564C107.568 92.0753 107.147 92.5059 106.615 92.5059C106.095 92.5059 105.663 92.0864 105.663 91.5564C105.663 91.0264 106.084 90.6068 106.615 90.6068Z" fill="#097CF6"/>
<path fill-rule="evenodd" clip-rule="evenodd" d="M118.027 92.0863C118.547 92.0863 118.979 92.5059 118.979 93.0359C118.979 93.5548 118.558 93.9854 118.027 93.9854C117.506 93.9854 117.074 93.5659 117.074 93.0359C117.074 92.5059 117.495 92.0863 118.027 92.0863Z" fill="#097CF6"/>
<path fill-rule="evenodd" clip-rule="evenodd" d="M107.569 86.6317C108.089 86.6317 108.521 87.0512 108.521 87.5812C108.521 88.1002 108.1 88.5308 107.569 88.5308C107.048 88.5308 106.616 88.1112 106.616 87.5812C106.616 87.0512 107.048 86.6317 107.569 86.6317Z" fill="#097CF6"/>
<path fill-rule="evenodd" clip-rule="evenodd" d="M110.361 89.5246C110.881 89.5246 111.313 89.9442 111.313 90.4742C111.313 90.9931 110.892 91.4237 110.361 91.4237C109.84 91.4237 109.408 91.0041 109.408 90.4742C109.408 89.9442 109.829 89.5246 110.361 89.5246Z" fill="#097CF6"/>
<path fill-rule="evenodd" clip-rule="evenodd" d="M115.179 87.3604C115.7 87.3604 116.132 87.78 116.132 88.31C116.132 88.8289 115.711 89.2595 115.179 89.2595C114.659 89.2595 114.227 88.84 114.227 88.31C114.227 87.78 114.659 87.3604 115.179 87.3604Z" fill="#097CF6"/>
<path fill-rule="evenodd" clip-rule="evenodd" d="M108.51 82.701C109.031 82.701 109.463 83.1206 109.463 83.6505C109.463 84.1695 109.042 84.6001 108.51 84.6001C107.989 84.6001 107.557 84.1805 107.557 83.6505C107.557 83.1316 107.989 82.701 108.51 82.701Z" fill="#097CF6"/>
<path fill-rule="evenodd" clip-rule="evenodd" d="M112.742 83.463C113.263 83.463 113.695 83.8825 113.695 84.4125C113.695 84.9315 113.274 85.3621 112.742 85.3621C112.221 85.3621 111.789 84.9425 111.789 84.4125C111.8 83.8825 112.221 83.463 112.742 83.463Z" fill="#097CF6"/>
<path fill-rule="evenodd" clip-rule="evenodd" d="M109.275 79.1346C109.795 79.1346 110.227 79.5542 110.227 80.0842C110.227 80.6031 109.806 81.0338 109.275 81.0338C108.754 81.0338 108.322 80.6142 108.322 80.0842C108.322 79.5542 108.743 79.1346 109.275 79.1346Z" fill="#097CF6"/>
<path fill-rule="evenodd" clip-rule="evenodd" d="M84.5133 72.4214C85.034 72.4214 85.4661 72.841 85.4661 73.371C85.4661 73.89 85.0451 74.3206 84.5133 74.3206C83.9926 74.3206 83.5605 73.901 83.5605 73.371C83.5716 72.8521 83.9926 72.4214 84.5133 72.4214Z" fill="#097CF6"/>
<path fill-rule="evenodd" clip-rule="evenodd" d="M85.3883 75.0164C85.909 75.0164 86.3411 75.4359 86.3411 75.9659C86.3411 76.4849 85.9201 76.9155 85.3883 76.9155C84.8676 76.9155 84.4355 76.4959 84.4355 75.9659C84.4355 75.447 84.8565 75.0164 85.3883 75.0164Z" fill="#097CF6"/>
<path fill-rule="evenodd" clip-rule="evenodd" d="M82.3419 73.934C82.8627 73.934 83.2947 74.3536 83.2947 74.8836C83.2947 75.4025 82.8737 75.8331 82.3419 75.8331C81.8212 75.8331 81.3892 75.4136 81.3892 74.8836C81.4002 74.3646 81.8212 73.934 82.3419 73.934Z" fill="#097CF6"/>
<path fill-rule="evenodd" clip-rule="evenodd" d="M79.9596 76.319C80.4803 76.319 80.9124 76.7386 80.9124 77.2686C80.9124 77.7875 80.4914 78.2182 79.9596 78.2182C79.4389 78.2182 79.0068 77.7986 79.0068 77.2686C79.0068 76.7386 79.4389 76.319 79.9596 76.319Z" fill="#097CF6"/>
<path fill-rule="evenodd" clip-rule="evenodd" d="M84.7345 78.0526C85.2552 78.0526 85.6873 78.4721 85.6873 79.0021C85.6873 79.521 85.2663 79.9517 84.7345 79.9517C84.2138 79.9517 83.7817 79.5321 83.7817 79.0021C83.7817 78.4721 84.2138 78.0526 84.7345 78.0526Z" fill="#097CF6"/>
<path fill-rule="evenodd" clip-rule="evenodd" d="M77.3449 78.7041C77.8656 78.7041 78.2977 79.1237 78.2977 79.6537C78.2977 80.1726 77.8767 80.6032 77.3449 80.6032C76.8242 80.6032 76.3921 80.1836 76.3921 79.6537C76.4032 79.1237 76.8242 78.7041 77.3449 78.7041Z" fill="#097CF6"/>
<path fill-rule="evenodd" clip-rule="evenodd" d="M83.859 80.2167C84.3797 80.2167 84.8118 80.6363 84.8118 81.1663C84.8118 81.6852 84.3908 82.1158 83.859 82.1158C83.3383 82.1158 82.9062 81.6963 82.9062 81.1663C82.9173 80.6363 83.3383 80.2167 83.859 80.2167Z" fill="#097CF6"/>
<path fill-rule="evenodd" clip-rule="evenodd" d="M82.1754 83.463C82.6962 83.463 83.1282 83.8825 83.1282 84.4125C83.1282 84.9315 82.7072 85.3621 82.1754 85.3621C81.6547 85.3621 81.2227 84.9425 81.2227 84.4125C81.2227 83.8825 81.6547 83.463 82.1754 83.463Z" fill="#097CF6"/>
<path fill-rule="evenodd" clip-rule="evenodd" d="M80.3918 86.4883C80.9125 86.4883 81.3445 86.9079 81.3445 87.4378C81.3445 87.9568 80.9235 88.3874 80.3918 88.3874C79.871 88.3874 79.439 87.9678 79.439 87.4378C79.439 86.9079 79.871 86.4883 80.3918 86.4883Z" fill="#097CF6"/>
<path fill-rule="evenodd" clip-rule="evenodd" d="M74.963 81.2985C75.4837 81.2985 75.9158 81.7181 75.9158 82.2481C75.9158 82.767 75.4948 83.1976 74.963 83.1976C74.4423 83.1976 74.0103 82.7781 74.0103 82.2481C74.0103 81.7181 74.4423 81.2985 74.963 81.2985Z" fill="#097CF6"/>
<path fill-rule="evenodd" clip-rule="evenodd" d="M72.57 84.1143C73.0907 84.1143 73.5228 84.5338 73.5228 85.0638C73.5228 85.5828 73.1018 86.0134 72.57 86.0134C72.0493 86.0134 71.6172 85.5938 71.6172 85.0638C71.6283 84.5338 72.0493 84.1143 72.57 84.1143Z" fill="#097CF6"/>
<path fill-rule="evenodd" clip-rule="evenodd" d="M76.2594 85.8367C76.7801 85.8367 77.2122 86.2562 77.2122 86.7862C77.2122 87.3052 76.7912 87.7358 76.2594 87.7358C75.7387 87.7358 75.3066 87.3162 75.3066 86.7862C75.3177 86.2673 75.7387 85.8367 76.2594 85.8367Z" fill="#097CF6"/>
<path fill-rule="evenodd" clip-rule="evenodd" d="M78.2204 89.9551C78.7411 89.9551 79.1732 90.3747 79.1732 90.9046C79.1732 91.4236 78.7522 91.8542 78.2204 91.8542C77.6997 91.8542 77.2676 91.4346 77.2676 90.9046C77.2676 90.3747 77.6997 89.9551 78.2204 89.9551Z" fill="#097CF6"/>
<path fill-rule="evenodd" clip-rule="evenodd" d="M70.6867 87.2942C71.2074 87.2942 71.6395 87.7138 71.6395 88.2438C71.6395 88.7627 71.2185 89.1933 70.6867 89.1933C70.166 89.1933 69.7339 88.7737 69.7339 88.2438C69.7339 87.7138 70.1549 87.2942 70.6867 87.2942Z" fill="#097CF6"/>
<path fill-rule="evenodd" clip-rule="evenodd" d="M74.7414 91.247C75.2621 91.247 75.6941 91.6666 75.6941 92.1966C75.6941 92.7155 75.2731 93.1461 74.7414 93.1461C74.2207 93.1461 73.7886 92.7266 73.7886 92.1966C73.7997 91.6776 74.2207 91.247 74.7414 91.247Z" fill="#097CF6"/>
<path fill-rule="evenodd" clip-rule="evenodd" d="M76.7023 93.2015C77.223 93.2015 77.6551 93.6211 77.6551 94.151C77.6551 94.67 77.2341 95.1006 76.7023 95.1006C76.1816 95.1006 75.7495 94.681 75.7495 94.151C75.7495 93.6211 76.1816 93.2015 76.7023 93.2015Z" fill="#097CF6"/>
<path fill-rule="evenodd" clip-rule="evenodd" d="M75.1847 96.6573C75.7054 96.6573 76.1375 97.0769 76.1375 97.6068C76.1375 98.1258 75.7165 98.5564 75.1847 98.5564C74.664 98.5564 74.2319 98.1368 74.2319 97.6068C74.2319 97.0879 74.6529 96.6573 75.1847 96.6573Z" fill="#097CF6"/>
<path fill-rule="evenodd" clip-rule="evenodd" d="M69.1022 90.6068C69.6229 90.6068 70.055 91.0264 70.055 91.5564C70.055 92.0753 69.634 92.5059 69.1022 92.5059C68.5815 92.5059 68.1494 92.0864 68.1494 91.5564C68.1494 91.0264 68.5704 90.6068 69.1022 90.6068Z" fill="#097CF6"/>
<path fill-rule="evenodd" clip-rule="evenodd" d="M68.2272 95.3655C68.7479 95.3655 69.18 95.7851 69.18 96.315C69.18 96.834 68.759 97.2646 68.2272 97.2646C67.7065 97.2646 67.2744 96.845 67.2744 96.315C67.2855 95.7851 67.7065 95.3655 68.2272 95.3655Z" fill="#097CF6"/>
<path fill-rule="evenodd" clip-rule="evenodd" d="M73.8771 100.986C74.3978 100.986 74.8299 101.405 74.8299 101.935C74.8299 102.454 74.4089 102.885 73.8771 102.885C73.3564 102.885 72.9243 102.465 72.9243 101.935C72.9243 101.416 73.3564 100.986 73.8771 100.986Z" fill="#097CF6"/>
<path fill-rule="evenodd" clip-rule="evenodd" d="M68.4484 100.345C68.9691 100.345 69.4012 100.765 69.4012 101.295C69.4012 101.814 68.9802 102.244 68.4484 102.244C67.9277 102.244 67.4956 101.825 67.4956 101.295C67.4956 100.765 67.9277 100.345 68.4484 100.345Z" fill="#097CF6"/>
<path fill-rule="evenodd" clip-rule="evenodd" d="M70.6203 102.509C71.141 102.509 71.5731 102.929 71.5731 103.459C71.5731 103.978 71.1521 104.408 70.6203 104.408C70.0996 104.408 69.6675 103.989 69.6675 103.459C69.6675 102.929 70.0996 102.509 70.6203 102.509Z" fill="#097CF6"/>
<path fill-rule="evenodd" clip-rule="evenodd" d="M71.7057 112.248C72.2264 112.248 72.6585 112.667 72.6585 113.197C72.6585 113.716 72.2375 114.147 71.7057 114.147C71.185 114.147 70.7529 113.727 70.7529 113.197C70.7529 112.667 71.185 112.248 71.7057 112.248Z" fill="#097CF6"/>
<path fill-rule="evenodd" clip-rule="evenodd" d="M72.7917 104.674C73.3124 104.674 73.7444 105.093 73.7444 105.623C73.7444 106.142 73.3234 106.573 72.7917 106.573C72.2709 106.573 71.8389 106.153 71.8389 105.623C71.8389 105.093 72.2709 104.674 72.7917 104.674Z" fill="#097CF6"/>
<path d="M118.16 92.8591C118.271 92.9695 118.271 93.1572 118.16 93.2677C118.049 93.3781 117.861 93.3781 117.75 93.2677L115.147 90.6729C115.036 90.5625 115.036 90.3748 115.147 90.2644C115.257 90.154 115.446 90.154 115.556 90.2644L118.16 92.8591Z" fill="#097CF6"/>
<path d="M108.41 83.9597C108.299 83.8493 108.299 83.6616 108.41 83.5512C108.521 83.4408 108.709 83.4408 108.82 83.5512L114.027 88.7406C114.083 88.7959 114.116 88.8731 114.116 88.9504V93.5989L121.417 101.085C121.528 101.195 121.528 101.383 121.417 101.493C121.306 101.604 121.118 101.604 121.007 101.493L113.639 93.9301C113.573 93.8749 113.54 93.7976 113.54 93.7093V89.0719L108.41 83.9597Z" fill="#097CF6"/>
<path d="M123.156 107.577C123.267 107.688 123.267 107.875 123.156 107.986C123.045 108.096 122.857 108.096 122.746 107.986L116.531 101.792H111.656C111.568 101.792 111.49 101.758 111.435 101.692L105.363 95.4207C105.253 95.2992 105.253 95.1226 105.375 95.0121C105.485 94.9017 105.674 94.9017 105.784 95.0232L111.778 101.206H116.653C116.73 101.206 116.808 101.239 116.863 101.295L123.156 107.577Z" fill="#097CF6"/>
<path d="M123.81 122.947C123.921 123.057 123.921 123.245 123.799 123.356C123.688 123.466 123.5 123.466 123.389 123.344L117.739 117.504C117.683 117.448 117.661 117.371 117.661 117.305V112.667L114.581 109.598H109.928C109.839 109.598 109.762 109.565 109.706 109.499L105.386 105.402C105.275 105.292 105.264 105.104 105.375 104.994C105.485 104.883 105.674 104.872 105.785 104.983L110.039 109.013H114.703C114.781 109.013 114.858 109.046 114.914 109.101L118.171 112.347C118.226 112.402 118.259 112.48 118.259 112.557V117.205L123.81 122.947Z" fill="#097CF6"/>
<path d="M123.81 113.197C123.921 113.308 123.921 113.495 123.81 113.606C123.699 113.716 123.511 113.716 123.4 113.606L116.664 106.893C116.553 106.782 116.553 106.595 116.664 106.484C116.775 106.374 116.963 106.374 117.074 106.484L123.81 113.197Z" fill="#097CF6"/>
<path d="M122.07 130.731C122.181 130.842 122.181 131.029 122.07 131.14C121.96 131.25 121.771 131.25 121.661 131.14L117.628 127.11H112.975C112.886 127.11 112.808 127.065 112.753 127.01L109.296 123.565C109.186 123.455 109.186 123.267 109.296 123.157C109.407 123.046 109.596 123.046 109.706 123.157L113.097 126.535H117.75C117.827 126.535 117.905 126.569 117.96 126.624L122.07 130.731Z" fill="#097CF6"/>
<path d="M123.156 127.054C123.267 127.165 123.267 127.352 123.156 127.474C123.045 127.584 122.857 127.584 122.746 127.474L114.714 119.469C114.659 119.414 114.625 119.336 114.625 119.259V114.279C114.625 114.114 114.758 113.992 114.914 113.992C115.08 113.992 115.202 114.125 115.202 114.279V119.137L123.156 127.054Z" fill="#097CF6"/>
<path d="M120.553 134.198C120.664 134.32 120.652 134.496 120.542 134.607C120.42 134.717 120.243 134.717 120.132 134.596L116.653 130.919C116.542 130.797 116.553 130.621 116.664 130.51C116.786 130.4 116.963 130.411 117.074 130.521L120.553 134.198Z" fill="#097CF6"/>
<path d="M124.242 118.177C124.353 118.287 124.353 118.475 124.242 118.586C124.131 118.696 123.943 118.696 123.832 118.586L121.439 116.201C121.328 116.09 121.328 115.902 121.439 115.792C121.55 115.682 121.738 115.682 121.849 115.792L124.242 118.177Z" fill="#097CF6"/>
<path d="M114.26 142.413C114.371 142.523 114.371 142.711 114.26 142.821C114.149 142.932 113.961 142.932 113.85 142.821L111.679 140.657C111.623 140.602 111.59 140.525 111.59 140.458V135.611L108.211 132.453C108.089 132.343 108.089 132.155 108.2 132.045C108.311 131.923 108.499 131.923 108.61 132.034L112.066 135.269C112.133 135.324 112.177 135.401 112.177 135.49V140.348L114.26 142.413Z" fill="#097CF6"/>
<path d="M116.642 139.818C116.753 139.929 116.753 140.116 116.642 140.227C116.531 140.337 116.343 140.337 116.232 140.227L114.282 138.283C114.172 138.173 114.172 137.985 114.282 137.875C114.393 137.765 114.581 137.765 114.692 137.875L116.642 139.818Z" fill="#097CF6"/>
<path d="M110.571 90.2642C110.682 90.3857 110.67 90.5623 110.549 90.6727C110.427 90.7832 110.249 90.7721 110.139 90.6507L107.535 87.8351C107.424 87.7136 107.435 87.5259 107.557 87.4266C107.679 87.3162 107.856 87.3272 107.967 87.4487L110.571 90.2642Z" fill="#097CF6"/>
<path d="M110.781 104.762C110.892 104.872 110.892 105.06 110.781 105.17C110.671 105.281 110.482 105.281 110.371 105.17L104.289 99.1087C104.178 98.9982 104.178 98.8105 104.289 98.7001C104.4 98.5897 104.588 98.5897 104.699 98.7001L110.781 104.762Z" fill="#097CF6"/>
<path d="M111.646 144.577C111.756 144.687 111.756 144.875 111.646 144.985C111.535 145.096 111.346 145.096 111.236 144.985L108.411 142.17C108.355 142.115 108.322 142.037 108.322 141.96V137.323L107.325 136.329C107.214 136.219 107.214 136.031 107.325 135.909C107.436 135.799 107.624 135.799 107.735 135.909L108.82 136.991C108.876 137.047 108.909 137.124 108.909 137.201V141.839L111.646 144.577Z" fill="#097CF6"/>
<path d="M105.785 148.475C105.895 148.585 105.895 148.773 105.785 148.883C105.674 148.994 105.485 148.994 105.375 148.883L103.203 146.719C103.092 146.609 103.092 146.421 103.203 146.311C103.314 146.2 103.502 146.2 103.613 146.311L105.785 148.475Z" fill="#097CF6"/>
<path d="M108.82 146.52C108.942 146.631 108.942 146.818 108.831 146.929C108.72 147.05 108.532 147.05 108.421 146.94L104.732 143.473C104.61 143.362 104.61 143.175 104.721 143.064C104.832 142.954 105.02 142.943 105.131 143.053L108.82 146.52Z" fill="#097CF6"/>
<path d="M112.953 97.3972C113.064 97.5076 113.064 97.6953 112.953 97.8168C112.842 97.9272 112.654 97.9272 112.543 97.8168L106.461 91.7551C106.35 91.6447 106.35 91.457 106.461 91.3355C106.571 91.2251 106.76 91.2251 106.87 91.3355L112.953 97.3972Z" fill="#097CF6"/>
<path d="M118.813 137.223C118.924 137.334 118.924 137.521 118.813 137.632C118.702 137.742 118.514 137.742 118.403 137.632L108.853 128.114C108.742 128.004 108.742 127.816 108.853 127.706C108.964 127.595 109.152 127.595 109.263 127.706L118.813 137.223Z" fill="#097CF6"/>
<path d="M113.817 122.505C113.928 122.616 113.928 122.803 113.817 122.914C113.706 123.024 113.518 123.024 113.407 122.914L108.842 118.365C108.732 118.254 108.732 118.067 108.842 117.956C108.953 117.846 109.142 117.846 109.252 117.956L113.817 122.505Z" fill="#097CF6"/>
<path d="M110.991 114.931C111.102 115.041 111.102 115.229 110.991 115.339C110.881 115.45 110.692 115.45 110.582 115.339L107.756 112.524C107.646 112.414 107.646 112.226 107.756 112.115C107.867 112.005 108.056 112.005 108.166 112.115L110.991 114.931Z" fill="#097CF6"/>
<path d="M84.7349 78.7042C84.9011 78.7042 85.023 78.8367 85.023 78.9913C85.023 79.1569 84.89 79.2783 84.7349 79.2783H81.4778C81.378 79.2783 81.3005 79.2342 81.2451 79.1569L79.7384 77.4455C79.6276 77.324 79.6497 77.1363 79.7605 77.0369C79.8824 76.9265 80.0707 76.9486 80.1704 77.059L81.6107 78.7042H84.7349Z" fill="#097CF6"/>
<path d="M83.8597 80.8679C84.0259 80.8679 84.1478 81.0004 84.1478 81.166C84.1478 81.3316 84.0148 81.4531 83.8597 81.4531H78.8632C78.7856 81.4531 78.7081 81.4199 78.6527 81.3647L77.1348 79.8521C77.0241 79.7416 77.0241 79.5539 77.1348 79.4435C77.2456 79.3331 77.434 79.3331 77.5448 79.4435L78.974 80.8679H83.8597Z" fill="#097CF6"/>
<path d="M78.4308 90.6949C78.5416 90.8053 78.5416 90.993 78.4308 91.1034C78.32 91.2138 78.1317 91.2138 78.0209 91.1034L76.359 89.4583H71.4843C71.3846 89.4583 71.2849 89.4031 71.2406 89.3258L70.3875 88.2658C70.2878 88.1443 70.3099 87.9566 70.4318 87.8573C70.5537 87.7579 70.742 87.78 70.8417 87.9014L71.6173 88.8731H76.4698C76.5474 88.8731 76.6249 88.9062 76.6803 88.9614L78.4308 90.6949Z" fill="#097CF6"/>
<path d="M85.3884 75.6788C85.5546 75.6788 85.6765 75.8113 85.6765 75.9769C85.6765 76.1315 85.5435 76.264 85.3884 76.264H83.4386C83.3499 76.264 83.2724 76.2198 83.217 76.1646L82.1534 75.1046C82.0426 74.9942 82.0426 74.8065 82.1534 74.6961C82.2642 74.5857 82.4525 74.5857 82.5633 74.6961L83.5604 75.6898H85.3884V75.6788Z" fill="#097CF6"/>
<path d="M70.8305 103.249C70.9413 103.36 70.9413 103.547 70.8305 103.658C70.7197 103.768 70.5314 103.768 70.4206 103.658L68.2491 101.494C68.1383 101.383 68.1383 101.195 68.2491 101.074C68.3599 100.964 68.5482 100.964 68.659 101.074L70.8305 103.249Z" fill="#097CF6"/>
<path d="M72.3485 109.521C72.4592 109.631 72.4592 109.819 72.3485 109.94C72.2377 110.051 72.0493 110.051 71.9385 109.94L69.5455 107.555C69.4347 107.445 69.4347 107.257 69.5455 107.136C69.6563 107.025 69.8446 107.025 69.9554 107.136L72.3485 109.521Z" fill="#097CF6"/>
<path d="M75.3844 97.3972C75.4952 97.5076 75.4952 97.6953 75.3844 97.8168C75.2736 97.9272 75.0853 97.9272 74.9745 97.8168L68.8922 91.7551C68.7814 91.6447 68.7814 91.457 68.8922 91.3355C69.003 91.2251 69.1913 91.2251 69.3021 91.3355L75.3844 97.3972Z" fill="#097CF6"/>
<path d="M74.0881 101.725C74.1989 101.836 74.1989 102.024 74.0881 102.134C73.9773 102.244 73.7889 102.244 73.6782 102.134L68.0279 96.5029C67.9171 96.3925 67.9171 96.2048 68.0279 96.0943C68.1387 95.9839 68.327 95.9839 68.4378 96.0943L74.0881 101.725Z" fill="#097CF6"/>
<path d="M80.5911 87.2281C80.7019 87.3385 80.713 87.5262 80.6022 87.6366C80.4914 87.747 80.3031 87.7581 80.1923 87.6476L74.7636 82.4582C74.6529 82.3478 74.6418 82.1601 74.7526 82.0497C74.8634 81.9392 75.0517 81.9282 75.1625 82.0386L80.5911 87.2281Z" fill="#097CF6"/>
<path fill-rule="evenodd" clip-rule="evenodd" d="M72.1378 108.781C72.6586 108.781 73.0906 109.2 73.0906 109.73C73.0906 110.249 72.6696 110.68 72.1378 110.68C71.6171 110.68 71.1851 110.26 71.1851 109.73C71.1851 109.2 71.6171 108.781 72.1378 108.781Z" fill="#097CF6"/>
<path fill-rule="evenodd" clip-rule="evenodd" d="M69.7448 106.396C70.2655 106.396 70.6976 106.815 70.6976 107.345C70.6976 107.864 70.2766 108.295 69.7448 108.295C69.2241 108.295 68.792 107.875 68.792 107.345C68.8031 106.826 69.2241 106.396 69.7448 106.396Z" fill="#097CF6"/>
<path d="M76.0489 86.4993C76.2151 86.4993 76.3369 86.6318 76.3369 86.7974C76.3369 86.952 76.204 87.0845 76.0489 87.0845H74.099C74.0104 87.0845 73.9328 87.0403 73.8774 86.9851L72.3707 85.4835C72.2599 85.3731 72.2599 85.1854 72.3707 85.0749C72.4815 84.9645 72.6698 84.9645 72.7806 85.0749L74.2098 86.4993H76.0489Z" fill="#097CF6"/>
<mask id="mask0_803_4575" style="mask-type:luminance" maskUnits="userSpaceOnUse" x="64" y="33" width="44" height="118">
<path d="M86.4407 68.3583C90.6839 73.5698 89.6536 85.6933 83.3719 104.707C75.0627 131.791 79.461 147.106 96.5004 150.506C89.6868 145.781 91.1493 128.865 100.899 99.7379C110.659 70.677 110.116 48.7267 99.1482 33.9864C92.9994 46.3307 84.6127 58.5314 73.977 70.5886C63.3412 82.6569 61.3692 96.3703 68.0719 111.751C65.003 98.0817 66.2439 87.9788 71.8941 81.354C77.5444 74.7291 82.3969 70.423 86.4407 68.3583Z" fill="white"/>
</mask>
<g mask="url(#mask0_803_4575)">
<path d="M110.648 33.9865H61.3691V150.495H110.648V33.9865Z" fill="url(#paint0_linear_803_4575)"/>
</g>
<mask id="mask1_803_4575" style="mask-type:luminance" maskUnits="userSpaceOnUse" x="64" y="33" width="44" height="118">
<path d="M86.4407 68.3583C90.6839 73.5698 89.6536 85.6933 83.3719 104.707C75.0627 131.791 79.461 147.106 96.5004 150.506C89.6868 145.781 91.1493 128.865 100.899 99.7379C110.659 70.677 110.116 48.7267 99.1482 33.9864C92.9994 46.3307 84.6127 58.5314 73.977 70.5886C63.3412 82.6569 61.3692 96.3703 68.0719 111.751C65.003 98.0817 66.2439 87.9788 71.8941 81.354C77.5444 74.7291 82.3969 70.423 86.4407 68.3583Z" fill="white"/>
</mask>
<g mask="url(#mask1_803_4575)">
<path d="M110.648 33.9865H61.3691V150.495H110.648V33.9865Z" fill="url(#paint1_linear_803_4575)"/>
</g>
<mask id="mask2_803_4575" style="mask-type:luminance" maskUnits="userSpaceOnUse" x="64" y="33" width="44" height="79">
<path d="M83.3608 104.707C89.6536 85.6933 90.6729 73.5698 86.4296 68.3583C82.3858 70.423 77.5444 74.7402 71.8941 81.354C66.2439 87.9788 65.003 98.0817 68.0719 111.751C61.3692 96.3703 63.3412 82.6569 73.977 70.5886C84.6127 58.5314 92.9994 46.3307 99.1482 33.9864C110.116 48.7267 110.648 70.6659 100.899 99.7379C96.7441 103.315 87.4821 104.541 83.3608 104.707Z" fill="white"/>
</mask>
<g mask="url(#mask2_803_4575)">
<path d="M110.648 33.9865H61.3691V111.74H110.648V33.9865Z" fill="url(#paint2_linear_803_4575)"/>
</g>
</g>
<defs>
<filter id="filter0_dd_803_4575" x="0.182001" y="0.913877" width="188.762" height="188.763" filterUnits="userSpaceOnUse" color-interpolation-filters="sRGB">
<feFlood flood-opacity="0" result="BackgroundImageFix"/>
<feColorMatrix in="SourceAlpha" type="matrix" values="0 0 0 0 0 0 0 0 0 0 0 0 0 0 0 0 0 0 127 0" result="hardAlpha"/>
<feOffset dy="2.71564"/>
<feGaussianBlur stdDeviation="2.71564"/>
<feColorMatrix type="matrix" values="0 0 0 0 0 0 0 0 0 0 0 0 0 0 0 0 0 0 0.06 0"/>
<feBlend mode="normal" in2="BackgroundImageFix" result="effect1_dropShadow_803_4575"/>
<feColorMatrix in="SourceAlpha" type="matrix" values="0 0 0 0 0 0 0 0 0 0 0 0 0 0 0 0 0 0 127 0" result="hardAlpha"/>
<feOffset/>
<feGaussianBlur stdDeviation="1.35782"/>
<feColorMatrix type="matrix" values="0 0 0 0 0 0 0 0 0 0 0 0 0 0 0 0 0 0 0.04 0"/>
<feBlend mode="normal" in2="effect1_dropShadow_803_4575" result="effect2_dropShadow_803_4575"/>
<feBlend mode="normal" in="SourceGraphic" in2="effect2_dropShadow_803_4575" result="shape"/>
</filter>
<linearGradient id="paint0_linear_803_4575" x1="74.1716" y1="145.161" x2="98.2891" y2="36.6445" gradientUnits="userSpaceOnUse">
<stop stop-color="#097CF6"/>
<stop offset="1" stop-color="#8FB5E2"/>
</linearGradient>
<linearGradient id="paint1_linear_803_4575" x1="86.075" y1="91.5319" x2="80.9688" y2="149.502" gradientUnits="userSpaceOnUse">
<stop stop-color="#5098FC"/>
<stop offset="1" stop-color="#2968FA"/>
</linearGradient>
<linearGradient id="paint2_linear_803_4575" x1="86.0115" y1="33.9902" x2="86.0115" y2="111.004" gradientUnits="userSpaceOnUse">
<stop stop-color="#8DD6FE"/>
<stop offset="1" stop-color="#67A1FB"/>
</linearGradient>
</defs>
</svg>
