<svg width="189" height="189" viewBox="0 0 189 189" fill="none" xmlns="http://www.w3.org/2000/svg">
<g filter="url(#filter0_dd_784_8650)">
<circle cx="94.5633" cy="91.7981" r="88.95" fill="#FAFAFA"/>
<path fill-rule="evenodd" clip-rule="evenodd" d="M101.021 148.897C101.541 148.897 101.973 149.316 101.973 149.846C101.973 150.365 101.552 150.796 101.021 150.796C100.5 150.796 100.068 150.376 100.068 149.846C100.068 149.327 100.5 148.897 101.021 148.897Z" fill="#097CF6"/>
<path fill-rule="evenodd" clip-rule="evenodd" d="M106.339 138.076C106.859 138.076 107.291 138.496 107.291 139.026C107.291 139.545 106.87 139.975 106.339 139.975C105.818 139.975 105.386 139.556 105.386 139.026C105.386 138.507 105.818 138.076 106.339 138.076Z" fill="#097CF6"/>
<path fill-rule="evenodd" clip-rule="evenodd" d="M123.6 121.415C124.12 121.415 124.553 121.834 124.553 122.364C124.553 122.883 124.132 123.314 123.6 123.314C123.079 123.314 122.647 122.894 122.647 122.364C122.658 121.845 123.079 121.415 123.6 121.415Z" fill="#097CF6"/>
<path fill-rule="evenodd" clip-rule="evenodd" d="M122.957 125.533C123.477 125.533 123.909 125.953 123.909 126.483C123.909 127.001 123.488 127.432 122.957 127.432C122.436 127.432 122.004 127.013 122.004 126.483C122.004 125.953 122.425 125.533 122.957 125.533Z" fill="#097CF6"/>
<path fill-rule="evenodd" clip-rule="evenodd" d="M109.053 116.435C109.574 116.435 110.006 116.855 110.006 117.385C110.006 117.904 109.585 118.334 109.053 118.334C108.532 118.334 108.1 117.915 108.1 117.385C108.1 116.866 108.532 116.435 109.053 116.435Z" fill="#097CF6"/>
<path fill-rule="evenodd" clip-rule="evenodd" d="M113.617 120.984C114.138 120.984 114.57 121.403 114.57 121.933C114.57 122.452 114.149 122.883 113.617 122.883C113.097 122.883 112.665 122.463 112.665 121.933C112.665 121.403 113.086 120.984 113.617 120.984Z" fill="#097CF6"/>
<path fill-rule="evenodd" clip-rule="evenodd" d="M109.485 121.635C110.006 121.635 110.438 122.055 110.438 122.585C110.438 123.104 110.017 123.535 109.485 123.535C108.964 123.535 108.532 123.115 108.532 122.585C108.543 122.055 108.964 121.635 109.485 121.635Z" fill="#097CF6"/>
<path fill-rule="evenodd" clip-rule="evenodd" d="M121.86 129.21C122.381 129.21 122.813 129.629 122.813 130.159C122.813 130.678 122.392 131.109 121.86 131.109C121.339 131.109 120.907 130.689 120.907 130.159C120.918 129.629 121.339 129.21 121.86 129.21Z" fill="#097CF6"/>
<path fill-rule="evenodd" clip-rule="evenodd" d="M120.342 132.666C120.863 132.666 121.295 133.085 121.295 133.615C121.295 134.134 120.874 134.565 120.342 134.565C119.822 134.565 119.39 134.145 119.39 133.615C119.39 133.096 119.822 132.666 120.342 132.666Z" fill="#097CF6"/>
<path fill-rule="evenodd" clip-rule="evenodd" d="M116.863 128.989C117.384 128.989 117.816 129.409 117.816 129.939C117.816 130.458 117.395 130.888 116.863 130.888C116.343 130.888 115.911 130.469 115.911 129.939C115.922 129.42 116.343 128.989 116.863 128.989Z" fill="#097CF6"/>
<path fill-rule="evenodd" clip-rule="evenodd" d="M118.603 135.702C119.124 135.702 119.556 136.122 119.556 136.652C119.556 137.171 119.135 137.601 118.603 137.601C118.082 137.601 117.65 137.182 117.65 136.652C117.661 136.122 118.082 135.702 118.603 135.702Z" fill="#097CF6"/>
<path fill-rule="evenodd" clip-rule="evenodd" d="M109.053 126.173C109.574 126.173 110.006 126.593 110.006 127.123C110.006 127.642 109.585 128.072 109.053 128.072C108.532 128.072 108.1 127.653 108.1 127.123C108.1 126.604 108.532 126.173 109.053 126.173Z" fill="#097CF6"/>
<path fill-rule="evenodd" clip-rule="evenodd" d="M108.399 130.502C108.92 130.502 109.352 130.921 109.352 131.451C109.352 131.97 108.931 132.401 108.399 132.401C107.878 132.401 107.446 131.981 107.446 131.451C107.457 130.932 107.878 130.502 108.399 130.502Z" fill="#097CF6"/>
<path fill-rule="evenodd" clip-rule="evenodd" d="M114.482 136.354C115.002 136.354 115.434 136.773 115.434 137.303C115.434 137.822 115.013 138.253 114.482 138.253C113.961 138.253 113.529 137.833 113.529 137.303C113.529 136.773 113.961 136.354 114.482 136.354Z" fill="#097CF6"/>
<path fill-rule="evenodd" clip-rule="evenodd" d="M116.431 138.297C116.952 138.297 117.384 138.716 117.384 139.246C117.384 139.765 116.963 140.196 116.431 140.196C115.911 140.196 115.479 139.776 115.479 139.246C115.49 138.716 115.911 138.297 116.431 138.297Z" fill="#097CF6"/>
<path fill-rule="evenodd" clip-rule="evenodd" d="M114.049 140.892C114.57 140.892 115.002 141.311 115.002 141.841C115.002 142.371 114.581 142.791 114.049 142.791C113.529 142.791 113.097 142.371 113.097 141.841C113.097 141.311 113.529 140.892 114.049 140.892Z" fill="#097CF6"/>
<path fill-rule="evenodd" clip-rule="evenodd" d="M111.446 143.056C111.967 143.056 112.399 143.475 112.399 144.005C112.399 144.524 111.978 144.955 111.446 144.955C110.925 144.955 110.493 144.535 110.493 144.005C110.493 143.486 110.914 143.056 111.446 143.056Z" fill="#097CF6"/>
<path fill-rule="evenodd" clip-rule="evenodd" d="M108.621 144.999C109.141 144.999 109.574 145.419 109.574 145.949C109.574 146.468 109.153 146.898 108.621 146.898C108.1 146.898 107.668 146.479 107.668 145.949C107.668 145.43 108.089 144.999 108.621 144.999Z" fill="#097CF6"/>
<path fill-rule="evenodd" clip-rule="evenodd" d="M104.921 141.543C105.441 141.543 105.873 141.963 105.873 142.493C105.873 143.012 105.452 143.442 104.921 143.442C104.4 143.442 103.968 143.023 103.968 142.493C103.979 141.963 104.4 141.543 104.921 141.543Z" fill="#097CF6"/>
<path fill-rule="evenodd" clip-rule="evenodd" d="M103.403 144.789C103.924 144.789 104.356 145.209 104.356 145.739C104.356 146.258 103.935 146.688 103.403 146.688C102.882 146.688 102.45 146.269 102.45 145.739C102.461 145.209 102.882 144.789 103.403 144.789Z" fill="#097CF6"/>
<path fill-rule="evenodd" clip-rule="evenodd" d="M105.574 146.953C106.095 146.953 106.527 147.373 106.527 147.903C106.527 148.422 106.106 148.852 105.574 148.852C105.054 148.852 104.622 148.433 104.622 147.903C104.633 147.373 105.054 146.953 105.574 146.953Z" fill="#097CF6"/>
<path fill-rule="evenodd" clip-rule="evenodd" d="M107.535 134.399C108.056 134.399 108.488 134.819 108.488 135.349C108.488 135.868 108.067 136.299 107.535 136.299C107.014 136.299 106.582 135.879 106.582 135.349C106.582 134.83 107.014 134.399 107.535 134.399Z" fill="#097CF6"/>
<path fill-rule="evenodd" clip-rule="evenodd" d="M123.6 111.676C124.12 111.676 124.553 112.096 124.553 112.626C124.553 113.145 124.132 113.575 123.6 113.575C123.079 113.575 122.647 113.156 122.647 112.626C122.647 112.096 123.079 111.676 123.6 111.676Z" fill="#097CF6"/>
<path fill-rule="evenodd" clip-rule="evenodd" d="M114.914 112.548C115.434 112.548 115.867 112.968 115.867 113.498C115.867 114.017 115.446 114.447 114.914 114.447C114.393 114.447 113.961 114.028 113.961 113.498C113.972 112.968 114.393 112.548 114.914 112.548Z" fill="#097CF6"/>
<path fill-rule="evenodd" clip-rule="evenodd" d="M107.967 110.594C108.488 110.594 108.92 111.014 108.92 111.544C108.92 112.063 108.499 112.493 107.967 112.493C107.446 112.493 107.014 112.074 107.014 111.544C107.014 111.025 107.446 110.594 107.967 110.594Z" fill="#097CF6"/>
<path fill-rule="evenodd" clip-rule="evenodd" d="M110.792 113.41C111.313 113.41 111.745 113.829 111.745 114.359C111.745 114.878 111.324 115.309 110.792 115.309C110.271 115.309 109.839 114.889 109.839 114.359C109.839 113.829 110.26 113.41 110.792 113.41Z" fill="#097CF6"/>
<path fill-rule="evenodd" clip-rule="evenodd" d="M121.65 114.271C122.17 114.271 122.602 114.691 122.602 115.221C122.602 115.74 122.181 116.17 121.65 116.17C121.129 116.17 120.697 115.751 120.697 115.221C120.697 114.702 121.129 114.271 121.65 114.271Z" fill="#097CF6"/>
<path fill-rule="evenodd" clip-rule="evenodd" d="M124.031 116.656C124.552 116.656 124.984 117.075 124.984 117.605C124.984 118.124 124.563 118.555 124.031 118.555C123.511 118.555 123.079 118.135 123.079 117.605C123.09 117.075 123.511 116.656 124.031 116.656Z" fill="#097CF6"/>
<path fill-rule="evenodd" clip-rule="evenodd" d="M105.574 103.45C106.095 103.45 106.527 103.87 106.527 104.4C106.527 104.919 106.106 105.349 105.574 105.349C105.054 105.349 104.622 104.93 104.622 104.4C104.633 103.881 105.054 103.45 105.574 103.45Z" fill="#097CF6"/>
<path fill-rule="evenodd" clip-rule="evenodd" d="M122.946 106.133C123.467 106.133 123.899 106.553 123.899 107.083C123.899 107.602 123.478 108.032 122.946 108.032C122.425 108.032 121.993 107.613 121.993 107.083C122.004 106.553 122.425 106.133 122.946 106.133Z" fill="#097CF6"/>
<path fill-rule="evenodd" clip-rule="evenodd" d="M116.863 104.974C117.384 104.974 117.816 105.394 117.816 105.924C117.816 106.443 117.395 106.873 116.863 106.873C116.343 106.873 115.911 106.454 115.911 105.924C115.922 105.394 116.343 104.974 116.863 104.974Z" fill="#097CF6"/>
<path fill-rule="evenodd" clip-rule="evenodd" d="M110.57 103.318C111.091 103.318 111.523 103.737 111.523 104.267C111.523 104.786 111.102 105.217 110.57 105.217C110.05 105.217 109.618 104.797 109.618 104.267C109.618 103.737 110.05 103.318 110.57 103.318Z" fill="#097CF6"/>
<path fill-rule="evenodd" clip-rule="evenodd" d="M104.488 97.1787C105.009 97.1787 105.441 97.5983 105.441 98.1283C105.441 98.6472 105.02 99.0778 104.488 99.0778C103.968 99.0778 103.536 98.6583 103.536 98.1283C103.547 97.5983 103.968 97.1787 104.488 97.1787Z" fill="#097CF6"/>
<path fill-rule="evenodd" clip-rule="evenodd" d="M105.685 93.5129C106.206 93.5129 106.638 93.9325 106.638 94.4625C106.638 94.9814 106.217 95.4121 105.685 95.4121C105.164 95.4121 104.732 94.9925 104.732 94.4625C104.732 93.9436 105.164 93.5129 105.685 93.5129Z" fill="#097CF6"/>
<path fill-rule="evenodd" clip-rule="evenodd" d="M121.107 99.5638C121.627 99.5638 122.059 99.9834 122.059 100.513C122.059 101.032 121.638 101.463 121.107 101.463C120.586 101.463 120.154 101.043 120.154 100.513C120.154 99.9834 120.586 99.5638 121.107 99.5638Z" fill="#097CF6"/>
<path fill-rule="evenodd" clip-rule="evenodd" d="M112.742 95.8757C113.263 95.8757 113.695 96.2953 113.695 96.8253C113.695 97.3442 113.274 97.7749 112.742 97.7749C112.221 97.7749 111.789 97.3553 111.789 96.8253C111.8 96.3063 112.221 95.8757 112.742 95.8757Z" fill="#097CF6"/>
<path fill-rule="evenodd" clip-rule="evenodd" d="M106.615 89.8253C107.136 89.8253 107.568 90.2449 107.568 90.7749C107.568 91.2938 107.147 91.7244 106.615 91.7244C106.095 91.7244 105.663 91.3049 105.663 90.7749C105.663 90.2449 106.084 89.8253 106.615 89.8253Z" fill="#097CF6"/>
<path fill-rule="evenodd" clip-rule="evenodd" d="M118.027 91.3048C118.547 91.3048 118.979 91.7244 118.979 92.2544C118.979 92.7733 118.558 93.2039 118.027 93.2039C117.506 93.2039 117.074 92.7844 117.074 92.2544C117.074 91.7244 117.495 91.3048 118.027 91.3048Z" fill="#097CF6"/>
<path fill-rule="evenodd" clip-rule="evenodd" d="M107.569 85.8501C108.089 85.8501 108.521 86.2697 108.521 86.7997C108.521 87.3186 108.1 87.7492 107.569 87.7492C107.048 87.7492 106.616 87.3296 106.616 86.7997C106.616 86.2697 107.048 85.8501 107.569 85.8501Z" fill="#097CF6"/>
<path fill-rule="evenodd" clip-rule="evenodd" d="M110.361 88.743C110.881 88.743 111.313 89.1626 111.313 89.6926C111.313 90.2115 110.892 90.6422 110.361 90.6422C109.84 90.6422 109.408 90.2226 109.408 89.6926C109.408 89.1626 109.829 88.743 110.361 88.743Z" fill="#097CF6"/>
<path fill-rule="evenodd" clip-rule="evenodd" d="M115.179 86.5789C115.7 86.5789 116.132 86.9984 116.132 87.5284C116.132 88.0474 115.711 88.478 115.179 88.478C114.659 88.478 114.227 88.0584 114.227 87.5284C114.227 86.9984 114.659 86.5789 115.179 86.5789Z" fill="#097CF6"/>
<path fill-rule="evenodd" clip-rule="evenodd" d="M108.51 81.9194C109.031 81.9194 109.463 82.339 109.463 82.869C109.463 83.3879 109.042 83.8185 108.51 83.8185C107.989 83.8185 107.557 83.399 107.557 82.869C107.557 82.35 107.989 81.9194 108.51 81.9194Z" fill="#097CF6"/>
<path fill-rule="evenodd" clip-rule="evenodd" d="M112.742 82.6815C113.263 82.6815 113.695 83.1011 113.695 83.6311C113.695 84.15 113.274 84.5806 112.742 84.5806C112.221 84.5806 111.789 84.1611 111.789 83.6311C111.8 83.1011 112.221 82.6815 112.742 82.6815Z" fill="#097CF6"/>
<path fill-rule="evenodd" clip-rule="evenodd" d="M109.275 78.3531C109.795 78.3531 110.227 78.7727 110.227 79.3027C110.227 79.8217 109.806 80.2523 109.275 80.2523C108.754 80.2523 108.322 79.8327 108.322 79.3027C108.322 78.7727 108.743 78.3531 109.275 78.3531Z" fill="#097CF6"/>
<path fill-rule="evenodd" clip-rule="evenodd" d="M84.5133 71.6399C85.034 71.6399 85.4661 72.0595 85.4661 72.5895C85.4661 73.1084 85.0451 73.539 84.5133 73.539C83.9926 73.539 83.5605 73.1194 83.5605 72.5895C83.5716 72.0705 83.9926 71.6399 84.5133 71.6399Z" fill="#097CF6"/>
<path fill-rule="evenodd" clip-rule="evenodd" d="M85.3883 74.2349C85.909 74.2349 86.3411 74.6544 86.3411 75.1844C86.3411 75.7034 85.9201 76.134 85.3883 76.134C84.8676 76.134 84.4355 75.7144 84.4355 75.1844C84.4355 74.6655 84.8565 74.2349 85.3883 74.2349Z" fill="#097CF6"/>
<path fill-rule="evenodd" clip-rule="evenodd" d="M82.3419 73.1526C82.8627 73.1526 83.2947 73.5722 83.2947 74.1021C83.2947 74.6211 82.8737 75.0517 82.3419 75.0517C81.8212 75.0517 81.3892 74.6321 81.3892 74.1021C81.4002 73.5832 81.8212 73.1526 82.3419 73.1526Z" fill="#097CF6"/>
<path fill-rule="evenodd" clip-rule="evenodd" d="M79.9596 75.5375C80.4803 75.5375 80.9124 75.957 80.9124 76.487C80.9124 77.006 80.4914 77.4366 79.9596 77.4366C79.4389 77.4366 79.0068 77.017 79.0068 76.487C79.0068 75.957 79.4389 75.5375 79.9596 75.5375Z" fill="#097CF6"/>
<path fill-rule="evenodd" clip-rule="evenodd" d="M84.7345 77.271C85.2552 77.271 85.6873 77.6906 85.6873 78.2205C85.6873 78.7395 85.2663 79.1701 84.7345 79.1701C84.2138 79.1701 83.7817 78.7505 83.7817 78.2205C83.7817 77.6906 84.2138 77.271 84.7345 77.271Z" fill="#097CF6"/>
<path fill-rule="evenodd" clip-rule="evenodd" d="M77.3449 77.9226C77.8656 77.9226 78.2977 78.3422 78.2977 78.8722C78.2977 79.3911 77.8767 79.8217 77.3449 79.8217C76.8242 79.8217 76.3921 79.4022 76.3921 78.8722C76.4032 78.3422 76.8242 77.9226 77.3449 77.9226Z" fill="#097CF6"/>
<path fill-rule="evenodd" clip-rule="evenodd" d="M83.859 79.4352C84.3797 79.4352 84.8118 79.8548 84.8118 80.3847C84.8118 80.9037 84.3908 81.3343 83.859 81.3343C83.3383 81.3343 82.9062 80.9147 82.9062 80.3847C82.9173 79.8548 83.3383 79.4352 83.859 79.4352Z" fill="#097CF6"/>
<path fill-rule="evenodd" clip-rule="evenodd" d="M82.1754 82.6815C82.6962 82.6815 83.1282 83.1011 83.1282 83.6311C83.1282 84.15 82.7072 84.5806 82.1754 84.5806C81.6547 84.5806 81.2227 84.1611 81.2227 83.6311C81.2227 83.1011 81.6547 82.6815 82.1754 82.6815Z" fill="#097CF6"/>
<path fill-rule="evenodd" clip-rule="evenodd" d="M80.3918 85.7068C80.9125 85.7068 81.3445 86.1264 81.3445 86.6563C81.3445 87.1753 80.9235 87.6059 80.3918 87.6059C79.871 87.6059 79.439 87.1863 79.439 86.6563C79.439 86.1264 79.871 85.7068 80.3918 85.7068Z" fill="#097CF6"/>
<path fill-rule="evenodd" clip-rule="evenodd" d="M74.963 80.5171C75.4837 80.5171 75.9158 80.9367 75.9158 81.4667C75.9158 81.9856 75.4948 82.4162 74.963 82.4162C74.4423 82.4162 74.0103 81.9966 74.0103 81.4667C74.0103 80.9367 74.4423 80.5171 74.963 80.5171Z" fill="#097CF6"/>
<path fill-rule="evenodd" clip-rule="evenodd" d="M72.57 83.3328C73.0907 83.3328 73.5228 83.7523 73.5228 84.2823C73.5228 84.8013 73.1018 85.2319 72.57 85.2319C72.0493 85.2319 71.6172 84.8123 71.6172 84.2823C71.6283 83.7523 72.0493 83.3328 72.57 83.3328Z" fill="#097CF6"/>
<path fill-rule="evenodd" clip-rule="evenodd" d="M76.2594 85.0552C76.7801 85.0552 77.2122 85.4747 77.2122 86.0047C77.2122 86.5237 76.7912 86.9543 76.2594 86.9543C75.7387 86.9543 75.3066 86.5347 75.3066 86.0047C75.3177 85.4858 75.7387 85.0552 76.2594 85.0552Z" fill="#097CF6"/>
<path fill-rule="evenodd" clip-rule="evenodd" d="M78.2204 89.1736C78.7411 89.1736 79.1732 89.5932 79.1732 90.1231C79.1732 90.6421 78.7522 91.0727 78.2204 91.0727C77.6997 91.0727 77.2676 90.6531 77.2676 90.1231C77.2676 89.5932 77.6997 89.1736 78.2204 89.1736Z" fill="#097CF6"/>
<path fill-rule="evenodd" clip-rule="evenodd" d="M70.6867 86.5127C71.2074 86.5127 71.6395 86.9323 71.6395 87.4623C71.6395 87.9812 71.2185 88.4118 70.6867 88.4118C70.166 88.4118 69.7339 87.9922 69.7339 87.4623C69.7339 86.9323 70.1549 86.5127 70.6867 86.5127Z" fill="#097CF6"/>
<path fill-rule="evenodd" clip-rule="evenodd" d="M74.7414 90.4655C75.2621 90.4655 75.6941 90.885 75.6941 91.415C75.6941 91.934 75.2731 92.3646 74.7414 92.3646C74.2207 92.3646 73.7886 91.945 73.7886 91.415C73.7997 90.8961 74.2207 90.4655 74.7414 90.4655Z" fill="#097CF6"/>
<path fill-rule="evenodd" clip-rule="evenodd" d="M76.7023 92.4199C77.223 92.4199 77.6551 92.8395 77.6551 93.3695C77.6551 93.8884 77.2341 94.319 76.7023 94.319C76.1816 94.319 75.7495 93.8995 75.7495 93.3695C75.7495 92.8395 76.1816 92.4199 76.7023 92.4199Z" fill="#097CF6"/>
<path fill-rule="evenodd" clip-rule="evenodd" d="M75.1847 95.8757C75.7054 95.8757 76.1375 96.2953 76.1375 96.8253C76.1375 97.3442 75.7165 97.7749 75.1847 97.7749C74.664 97.7749 74.2319 97.3553 74.2319 96.8253C74.2319 96.3063 74.6529 95.8757 75.1847 95.8757Z" fill="#097CF6"/>
<path fill-rule="evenodd" clip-rule="evenodd" d="M69.1022 89.8253C69.6229 89.8253 70.055 90.2449 70.055 90.7749C70.055 91.2938 69.634 91.7244 69.1022 91.7244C68.5815 91.7244 68.1494 91.3049 68.1494 90.7749C68.1494 90.2449 68.5704 89.8253 69.1022 89.8253Z" fill="#097CF6"/>
<path fill-rule="evenodd" clip-rule="evenodd" d="M68.2272 94.584C68.7479 94.584 69.18 95.0036 69.18 95.5335C69.18 96.0525 68.759 96.4831 68.2272 96.4831C67.7065 96.4831 67.2744 96.0635 67.2744 95.5335C67.2855 95.0036 67.7065 94.584 68.2272 94.584Z" fill="#097CF6"/>
<path fill-rule="evenodd" clip-rule="evenodd" d="M73.8771 100.204C74.3978 100.204 74.8299 100.624 74.8299 101.154C74.8299 101.673 74.4089 102.103 73.8771 102.103C73.3564 102.103 72.9243 101.684 72.9243 101.154C72.9243 100.635 73.3564 100.204 73.8771 100.204Z" fill="#097CF6"/>
<path fill-rule="evenodd" clip-rule="evenodd" d="M68.4484 99.5638C68.9691 99.5638 69.4012 99.9834 69.4012 100.513C69.4012 101.032 68.9802 101.463 68.4484 101.463C67.9277 101.463 67.4956 101.043 67.4956 100.513C67.4956 99.9834 67.9277 99.5638 68.4484 99.5638Z" fill="#097CF6"/>
<path fill-rule="evenodd" clip-rule="evenodd" d="M70.6203 101.728C71.141 101.728 71.5731 102.147 71.5731 102.677C71.5731 103.196 71.1521 103.627 70.6203 103.627C70.0996 103.627 69.6675 103.207 69.6675 102.677C69.6675 102.147 70.0996 101.728 70.6203 101.728Z" fill="#097CF6"/>
<path fill-rule="evenodd" clip-rule="evenodd" d="M71.7057 111.466C72.2264 111.466 72.6585 111.886 72.6585 112.416C72.6585 112.935 72.2375 113.365 71.7057 113.365C71.185 113.365 70.7529 112.946 70.7529 112.416C70.7529 111.886 71.185 111.466 71.7057 111.466Z" fill="#097CF6"/>
<path fill-rule="evenodd" clip-rule="evenodd" d="M72.7917 103.892C73.3124 103.892 73.7444 104.312 73.7444 104.842C73.7444 105.36 73.3234 105.791 72.7917 105.791C72.2709 105.791 71.8389 105.372 71.8389 104.842C71.8389 104.312 72.2709 103.892 72.7917 103.892Z" fill="#097CF6"/>
<path d="M118.16 92.0777C118.271 92.1881 118.271 92.3758 118.16 92.4862C118.049 92.5966 117.861 92.5966 117.75 92.4862L115.147 89.8915C115.036 89.7811 115.036 89.5934 115.147 89.483C115.257 89.3725 115.446 89.3725 115.556 89.483L118.16 92.0777Z" fill="#097CF6"/>
<path d="M108.41 83.1782C108.299 83.0678 108.299 82.8801 108.41 82.7697C108.521 82.6593 108.709 82.6593 108.82 82.7697L114.027 87.9592C114.083 88.0144 114.116 88.0917 114.116 88.1689V92.8174L121.417 100.303C121.528 100.414 121.528 100.602 121.417 100.712C121.306 100.822 121.118 100.822 121.007 100.712L113.639 93.1486C113.573 93.0934 113.54 93.0161 113.54 92.9278V88.2904L108.41 83.1782Z" fill="#097CF6"/>
<path d="M123.156 106.796C123.267 106.906 123.267 107.094 123.156 107.204C123.045 107.315 122.857 107.315 122.746 107.204L116.531 101.01H111.656C111.568 101.01 111.49 100.977 111.435 100.911L105.363 94.6392C105.253 94.5177 105.253 94.3411 105.375 94.2306C105.485 94.1202 105.674 94.1202 105.784 94.2417L111.778 100.425H116.653C116.73 100.425 116.808 100.458 116.863 100.513L123.156 106.796Z" fill="#097CF6"/>
<path d="M123.81 122.166C123.921 122.276 123.921 122.464 123.799 122.574C123.688 122.684 123.5 122.684 123.389 122.563L117.739 116.722C117.683 116.667 117.661 116.59 117.661 116.523V111.886L114.581 108.816H109.928C109.839 108.816 109.762 108.783 109.706 108.717L105.386 104.621C105.275 104.51 105.264 104.323 105.375 104.212C105.485 104.102 105.674 104.091 105.785 104.201L110.039 108.231H114.703C114.781 108.231 114.858 108.264 114.914 108.32L118.171 111.566C118.226 111.621 118.259 111.698 118.259 111.776V116.424L123.81 122.166Z" fill="#097CF6"/>
<path d="M123.81 112.416C123.921 112.526 123.921 112.714 123.81 112.824C123.699 112.935 123.511 112.935 123.4 112.824L116.664 106.111C116.553 106.001 116.553 105.813 116.664 105.703C116.775 105.592 116.963 105.592 117.074 105.703L123.81 112.416Z" fill="#097CF6"/>
<path d="M122.07 129.95C122.181 130.06 122.181 130.248 122.07 130.358C121.96 130.469 121.771 130.469 121.661 130.358L117.628 126.328H112.975C112.886 126.328 112.808 126.284 112.753 126.229L109.296 122.784C109.186 122.673 109.186 122.486 109.296 122.375C109.407 122.265 109.596 122.265 109.706 122.375L113.097 125.754H117.75C117.827 125.754 117.905 125.787 117.96 125.842L122.07 129.95Z" fill="#097CF6"/>
<path d="M123.156 126.273C123.267 126.383 123.267 126.571 123.156 126.692C123.045 126.803 122.857 126.803 122.746 126.692L114.714 118.687C114.659 118.632 114.625 118.555 114.625 118.477V113.498C114.625 113.332 114.758 113.211 114.914 113.211C115.08 113.211 115.202 113.343 115.202 113.498V118.356L123.156 126.273Z" fill="#097CF6"/>
<path d="M120.553 133.417C120.664 133.538 120.652 133.715 120.542 133.825C120.42 133.936 120.243 133.936 120.132 133.814L116.653 130.137C116.542 130.016 116.553 129.839 116.664 129.729C116.786 129.618 116.963 129.629 117.074 129.74L120.553 133.417Z" fill="#097CF6"/>
<path d="M124.242 117.395C124.353 117.506 124.353 117.694 124.242 117.804C124.131 117.914 123.943 117.914 123.832 117.804L121.439 115.419C121.328 115.309 121.328 115.121 121.439 115.011C121.55 114.9 121.738 114.9 121.849 115.011L124.242 117.395Z" fill="#097CF6"/>
<path d="M114.26 141.631C114.371 141.742 114.371 141.929 114.26 142.04C114.149 142.15 113.961 142.15 113.85 142.04L111.679 139.876C111.623 139.821 111.59 139.743 111.59 139.677V134.83L108.211 131.672C108.089 131.562 108.089 131.374 108.2 131.263C108.311 131.142 108.499 131.142 108.61 131.252L112.066 134.488C112.133 134.543 112.177 134.62 112.177 134.708V139.567L114.26 141.631Z" fill="#097CF6"/>
<path d="M116.642 139.037C116.753 139.147 116.753 139.335 116.642 139.445C116.531 139.556 116.343 139.556 116.232 139.445L114.282 137.502C114.172 137.392 114.172 137.204 114.282 137.093C114.393 136.983 114.581 136.983 114.692 137.093L116.642 139.037Z" fill="#097CF6"/>
<path d="M110.571 89.4827C110.682 89.6042 110.67 89.7808 110.549 89.8912C110.427 90.0017 110.249 89.9906 110.139 89.8692L107.535 87.0536C107.424 86.9322 107.435 86.7445 107.557 86.6451C107.679 86.5347 107.856 86.5457 107.967 86.6672L110.571 89.4827Z" fill="#097CF6"/>
<path d="M110.781 103.98C110.892 104.091 110.892 104.278 110.781 104.389C110.671 104.499 110.482 104.499 110.371 104.389L104.289 98.3272C104.178 98.2167 104.178 98.029 104.289 97.9186C104.4 97.8082 104.588 97.8082 104.699 97.9186L110.781 103.98Z" fill="#097CF6"/>
<path d="M111.646 143.795C111.756 143.906 111.756 144.093 111.646 144.204C111.535 144.314 111.346 144.314 111.236 144.204L108.411 141.388C108.355 141.333 108.322 141.256 108.322 141.179V136.541L107.325 135.547C107.214 135.437 107.214 135.249 107.325 135.128C107.436 135.017 107.624 135.017 107.735 135.128L108.82 136.21C108.876 136.265 108.909 136.342 108.909 136.42V141.057L111.646 143.795Z" fill="#097CF6"/>
<path d="M105.785 147.693C105.895 147.804 105.895 147.991 105.785 148.102C105.674 148.212 105.485 148.212 105.375 148.102L103.203 145.938C103.092 145.827 103.092 145.64 103.203 145.529C103.314 145.419 103.502 145.419 103.613 145.529L105.785 147.693Z" fill="#097CF6"/>
<path d="M108.82 145.739C108.942 145.849 108.942 146.037 108.831 146.147C108.72 146.269 108.532 146.269 108.421 146.158L104.732 142.691C104.61 142.581 104.61 142.393 104.721 142.283C104.832 142.172 105.02 142.161 105.131 142.272L108.82 145.739Z" fill="#097CF6"/>
<path d="M112.953 96.6157C113.064 96.7261 113.064 96.9138 112.953 97.0353C112.842 97.1457 112.654 97.1457 112.543 97.0353L106.461 90.9736C106.35 90.8632 106.35 90.6755 106.461 90.554C106.571 90.4436 106.76 90.4436 106.87 90.554L112.953 96.6157Z" fill="#097CF6"/>
<path d="M118.813 136.442C118.924 136.552 118.924 136.74 118.813 136.85C118.702 136.961 118.514 136.961 118.403 136.85L108.853 127.333C108.742 127.222 108.742 127.035 108.853 126.924C108.964 126.814 109.152 126.814 109.263 126.924L118.813 136.442Z" fill="#097CF6"/>
<path d="M113.817 121.724C113.928 121.834 113.928 122.022 113.817 122.132C113.706 122.243 113.518 122.243 113.407 122.132L108.842 117.583C108.732 117.473 108.732 117.285 108.842 117.175C108.953 117.064 109.142 117.064 109.252 117.175L113.817 121.724Z" fill="#097CF6"/>
<path d="M110.991 114.149C111.102 114.26 111.102 114.448 110.991 114.558C110.881 114.668 110.692 114.668 110.582 114.558L107.756 111.742C107.646 111.632 107.646 111.444 107.756 111.334C107.867 111.223 108.056 111.223 108.166 111.334L110.991 114.149Z" fill="#097CF6"/>
<path d="M84.7349 77.9227C84.9011 77.9227 85.023 78.0552 85.023 78.2098C85.023 78.3754 84.89 78.4969 84.7349 78.4969H81.4778C81.378 78.4969 81.3005 78.4527 81.2451 78.3754L79.7384 76.664C79.6276 76.5425 79.6497 76.3548 79.7605 76.2555C79.8824 76.145 80.0707 76.1671 80.1704 76.2775L81.6107 77.9227H84.7349Z" fill="#097CF6"/>
<path d="M83.8597 80.0864C84.0259 80.0864 84.1478 80.2189 84.1478 80.3845C84.1478 80.5501 84.0148 80.6716 83.8597 80.6716H78.8632C78.7856 80.6716 78.7081 80.6385 78.6527 80.5832L77.1348 79.0706C77.0241 78.9602 77.0241 78.7724 77.1348 78.662C77.2456 78.5516 77.434 78.5516 77.5448 78.662L78.974 80.0864H83.8597Z" fill="#097CF6"/>
<path d="M78.4308 89.9134C78.5416 90.0238 78.5416 90.2115 78.4308 90.3219C78.32 90.4324 78.1317 90.4324 78.0209 90.3219L76.359 88.6768H71.4843C71.3846 88.6768 71.2849 88.6216 71.2406 88.5443L70.3875 87.4843C70.2878 87.3628 70.3099 87.1751 70.4318 87.0758C70.5537 86.9764 70.742 86.9985 70.8417 87.1199L71.6173 88.0916H76.4698C76.5474 88.0916 76.6249 88.1247 76.6803 88.1799L78.4308 89.9134Z" fill="#097CF6"/>
<path d="M85.3884 74.8973C85.5546 74.8973 85.6765 75.0298 85.6765 75.1954C85.6765 75.35 85.5435 75.4825 85.3884 75.4825H83.4386C83.3499 75.4825 83.2724 75.4383 83.217 75.3831L82.1534 74.3231C82.0426 74.2127 82.0426 74.025 82.1534 73.9146C82.2642 73.8042 82.4525 73.8042 82.5633 73.9146L83.5604 74.9083H85.3884V74.8973Z" fill="#097CF6"/>
<path d="M70.8305 102.468C70.9413 102.578 70.9413 102.766 70.8305 102.876C70.7197 102.987 70.5314 102.987 70.4206 102.876L68.2491 100.712C68.1383 100.602 68.1383 100.414 68.2491 100.293C68.3599 100.182 68.5482 100.182 68.659 100.293L70.8305 102.468Z" fill="#097CF6"/>
<path d="M72.3485 108.739C72.4592 108.849 72.4592 109.037 72.3485 109.159C72.2377 109.269 72.0493 109.269 71.9385 109.159L69.5455 106.774C69.4347 106.663 69.4347 106.476 69.5455 106.354C69.6563 106.244 69.8446 106.244 69.9554 106.354L72.3485 108.739Z" fill="#097CF6"/>
<path d="M75.3844 96.6157C75.4952 96.7261 75.4952 96.9138 75.3844 97.0353C75.2736 97.1457 75.0853 97.1457 74.9745 97.0353L68.8922 90.9736C68.7814 90.8632 68.7814 90.6755 68.8922 90.554C69.003 90.4436 69.1913 90.4436 69.3021 90.554L75.3844 96.6157Z" fill="#097CF6"/>
<path d="M74.0881 100.944C74.1989 101.054 74.1989 101.242 74.0881 101.352C73.9773 101.463 73.7889 101.463 73.6782 101.352L68.0279 95.7213C67.9171 95.6109 67.9171 95.4232 68.0279 95.3128C68.1387 95.2024 68.327 95.2024 68.4378 95.3128L74.0881 100.944Z" fill="#097CF6"/>
<path d="M80.5911 86.4465C80.7019 86.5569 80.713 86.7446 80.6022 86.855C80.4914 86.9655 80.3031 86.9765 80.1923 86.8661L74.7636 81.6766C74.6529 81.5662 74.6418 81.3785 74.7526 81.2681C74.8634 81.1577 75.0517 81.1466 75.1625 81.2571L80.5911 86.4465Z" fill="#097CF6"/>
<path fill-rule="evenodd" clip-rule="evenodd" d="M72.1378 107.999C72.6586 107.999 73.0906 108.419 73.0906 108.949C73.0906 109.468 72.6696 109.899 72.1378 109.899C71.6171 109.899 71.1851 109.479 71.1851 108.949C71.1851 108.419 71.6171 107.999 72.1378 107.999Z" fill="#097CF6"/>
<path fill-rule="evenodd" clip-rule="evenodd" d="M69.7448 105.614C70.2655 105.614 70.6976 106.034 70.6976 106.564C70.6976 107.083 70.2766 107.513 69.7448 107.513C69.2241 107.513 68.792 107.094 68.792 106.564C68.8031 106.045 69.2241 105.614 69.7448 105.614Z" fill="#097CF6"/>
<path d="M76.0489 85.7177C76.2151 85.7177 76.3369 85.8502 76.3369 86.0158C76.3369 86.1704 76.204 86.3029 76.0489 86.3029H74.099C74.0104 86.3029 73.9328 86.2588 73.8774 86.2035L72.3707 84.7019C72.2599 84.5915 72.2599 84.4038 72.3707 84.2934C72.4815 84.183 72.6698 84.183 72.7806 84.2934L74.2098 85.7177H76.0489Z" fill="#097CF6"/>
<mask id="mask0_784_8650" style="mask-type:luminance" maskUnits="userSpaceOnUse" x="64" y="33" width="44" height="117">
<path d="M86.4407 67.5767C90.6839 72.7882 89.6536 84.9117 83.3719 103.925C75.0627 131.01 79.461 146.324 96.5004 149.725C89.6868 144.999 91.1493 128.084 100.899 98.9564C110.659 69.8954 110.116 47.9451 99.1482 33.2048C92.9994 45.5491 84.6127 57.7499 73.977 69.8071C63.3412 81.8753 61.3692 95.5887 68.0719 110.969C65.003 97.3001 66.2439 87.1973 71.8941 80.5724C77.5444 73.9476 82.3969 69.6414 86.4407 67.5767Z" fill="white"/>
</mask>
<g mask="url(#mask0_784_8650)">
<path d="M110.648 33.2048H61.3691V149.714H110.648V33.2048Z" fill="url(#paint0_linear_784_8650)"/>
</g>
<mask id="mask1_784_8650" style="mask-type:luminance" maskUnits="userSpaceOnUse" x="64" y="33" width="44" height="117">
<path d="M86.4407 67.5767C90.6839 72.7882 89.6536 84.9117 83.3719 103.925C75.0627 131.01 79.461 146.324 96.5004 149.725C89.6868 144.999 91.1493 128.084 100.899 98.9564C110.659 69.8954 110.116 47.9451 99.1482 33.2048C92.9994 45.5491 84.6127 57.7499 73.977 69.8071C63.3412 81.8753 61.3692 95.5887 68.0719 110.969C65.003 97.3001 66.2439 87.1973 71.8941 80.5724C77.5444 73.9476 82.3969 69.6414 86.4407 67.5767Z" fill="white"/>
</mask>
<g mask="url(#mask1_784_8650)">
<path d="M110.648 33.2048H61.3691V149.714H110.648V33.2048Z" fill="url(#paint1_linear_784_8650)"/>
</g>
<mask id="mask2_784_8650" style="mask-type:luminance" maskUnits="userSpaceOnUse" x="64" y="33" width="44" height="78">
<path d="M83.3608 103.925C89.6536 84.9117 90.6729 72.7882 86.4296 67.5767C82.3858 69.6414 77.5444 73.9586 71.8941 80.5724C66.2439 87.1973 65.003 97.3001 68.0719 110.969C61.3692 95.5887 63.3412 81.8753 73.977 69.8071C84.6127 57.7499 92.9994 45.5491 99.1482 33.2048C110.116 47.9451 110.648 69.8844 100.899 98.9564C96.7441 102.534 87.4821 103.759 83.3608 103.925Z" fill="white"/>
</mask>
<g mask="url(#mask2_784_8650)">
<path d="M110.648 33.2048H61.3691V110.958H110.648V33.2048Z" fill="url(#paint2_linear_784_8650)"/>
</g>
</g>
<defs>
<filter id="filter0_dd_784_8650" x="0.182001" y="0.132382" width="188.762" height="188.763" filterUnits="userSpaceOnUse" color-interpolation-filters="sRGB">
<feFlood flood-opacity="0" result="BackgroundImageFix"/>
<feColorMatrix in="SourceAlpha" type="matrix" values="0 0 0 0 0 0 0 0 0 0 0 0 0 0 0 0 0 0 127 0" result="hardAlpha"/>
<feOffset dy="2.71564"/>
<feGaussianBlur stdDeviation="2.71564"/>
<feColorMatrix type="matrix" values="0 0 0 0 0 0 0 0 0 0 0 0 0 0 0 0 0 0 0.06 0"/>
<feBlend mode="normal" in2="BackgroundImageFix" result="effect1_dropShadow_784_8650"/>
<feColorMatrix in="SourceAlpha" type="matrix" values="0 0 0 0 0 0 0 0 0 0 0 0 0 0 0 0 0 0 127 0" result="hardAlpha"/>
<feOffset/>
<feGaussianBlur stdDeviation="1.35782"/>
<feColorMatrix type="matrix" values="0 0 0 0 0 0 0 0 0 0 0 0 0 0 0 0 0 0 0.04 0"/>
<feBlend mode="normal" in2="effect1_dropShadow_784_8650" result="effect2_dropShadow_784_8650"/>
<feBlend mode="normal" in="SourceGraphic" in2="effect2_dropShadow_784_8650" result="shape"/>
</filter>
<linearGradient id="paint0_linear_784_8650" x1="74.1716" y1="144.379" x2="98.2891" y2="35.8629" gradientUnits="userSpaceOnUse">
<stop stop-color="#097CF6"/>
<stop offset="1" stop-color="#8FB5E2"/>
</linearGradient>
<linearGradient id="paint1_linear_784_8650" x1="86.075" y1="90.7503" x2="80.9688" y2="148.721" gradientUnits="userSpaceOnUse">
<stop stop-color="#5098FC"/>
<stop offset="1" stop-color="#2968FA"/>
</linearGradient>
<linearGradient id="paint2_linear_784_8650" x1="86.0115" y1="33.2086" x2="86.0115" y2="110.222" gradientUnits="userSpaceOnUse">
<stop stop-color="#8DD6FE"/>
<stop offset="1" stop-color="#67A1FB"/>
</linearGradient>
</defs>
</svg>
