<svg width="264" height="189" viewBox="0 0 264 189" fill="none" xmlns="http://www.w3.org/2000/svg">
<path d="M258.481 171.081C254.028 178.429 246.29 183.369 236.017 185.965C225.74 188.562 212.968 188.801 198.538 186.772C169.681 182.715 134.315 169.606 99.3 148.386C64.2847 127.165 36.2982 101.879 19.3482 78.1756C10.8725 66.3228 5.17383 54.8898 2.72048 44.578C0.267958 34.2697 1.06625 25.1241 5.51942 17.7761C9.97259 10.4282 17.7106 5.48834 27.9837 2.89229C38.2603 0.295354 51.0326 0.0565336 65.4621 2.08519C94.3188 6.14219 129.685 19.2509 164.7 40.4717C199.716 61.6924 227.702 86.9779 244.652 110.682C253.128 122.534 258.826 133.967 261.28 144.279C263.732 154.587 262.934 163.733 258.481 171.081Z" stroke="white" stroke-width="1.19292"/>
</svg>
