<svg width="350" height="252" viewBox="0 0 350 252" fill="none" xmlns="http://www.w3.org/2000/svg">
<path d="M343.455 228.064C337.526 237.848 327.222 244.426 313.543 247.883C299.86 251.34 282.853 251.658 263.64 248.957C225.217 243.555 178.126 226.101 131.502 197.845C84.8787 169.589 47.6141 135.921 25.0448 104.359C13.7593 88.5765 6.17132 73.3532 2.90463 59.6229C-0.36095 45.8972 0.701996 33.7196 6.63149 23.9356C12.561 14.1516 22.8644 7.57414 36.5432 4.11745C50.2266 0.659573 67.2332 0.341576 86.4464 3.04278C124.87 8.44476 171.96 25.8993 218.584 54.1552C265.208 82.4111 302.472 116.079 325.042 147.641C336.327 163.423 343.915 178.647 347.182 192.377C350.447 206.103 349.384 218.28 343.455 228.064Z" stroke="white" stroke-width="1.58839"/>
</svg>
