<svg width="350" height="252" viewBox="0 0 350 252" fill="none" xmlns="http://www.w3.org/2000/svg">
<path d="M343.455 227.846C337.526 237.63 327.223 244.207 313.544 247.664C299.86 251.122 282.854 251.44 263.641 248.739C225.217 243.337 178.127 225.882 131.503 197.626C84.8791 169.37 47.6146 135.702 25.0453 104.14C13.7598 88.358 6.17181 73.1347 2.90512 59.4043C-0.360462 45.6787 0.702484 33.5011 6.63198 23.7171C12.5615 13.9331 22.8649 7.35564 36.5437 3.89894C50.2271 0.441067 67.2337 0.12307 86.4469 2.82427C124.87 8.22626 171.961 25.6808 218.585 53.9367C265.208 82.1926 302.473 115.861 325.042 147.423C336.328 163.205 343.916 178.428 347.182 192.159C350.448 205.884 349.385 218.062 343.455 227.846Z" stroke="white" stroke-width="1.58839"/>
</svg>
