<svg width="516" height="371" viewBox="0 0 516 371" fill="none" xmlns="http://www.w3.org/2000/svg">
<path d="M505.734 335.483C497.003 349.891 481.83 359.578 461.686 364.668C441.536 369.76 416.492 370.228 388.198 366.25C331.616 358.295 262.27 332.592 193.611 290.982C124.953 249.372 70.0764 199.792 36.8406 153.313C20.2215 130.072 9.04739 107.654 4.23683 87.4349C-0.572089 67.2223 0.99322 49.2895 9.72504 34.8815C18.4569 20.4735 33.6297 10.7874 53.7733 5.69708C73.9237 0.604979 98.9677 0.136694 127.261 4.11451C183.844 12.0695 253.19 37.7733 321.848 79.3832C390.507 120.993 445.383 170.573 478.619 217.052C495.238 240.293 506.412 262.711 511.223 282.93C516.032 303.143 514.466 321.075 505.734 335.483Z" stroke="white" stroke-width="2.33908"/>
</svg>
