<svg width="397" height="397" viewBox="0 0 397 397" fill="none" xmlns="http://www.w3.org/2000/svg">
<path d="M375.666 199.928L396.475 200.812L395.892 214.531L393.037 214.41L393.487 203.812L375.534 203.049L375.666 199.928Z" fill="white"/>
<path d="M375.189 213.78L394.688 224.526L394.115 228.522L372.386 233.322L372.863 229.997L377.221 229.074L378.635 219.216L374.712 217.105L375.189 213.78ZM381.259 220.634L380.138 228.451L391.458 226.087L381.259 220.634Z" fill="white"/>
<path d="M369.853 242.192C370.11 241.183 370.464 240.229 370.916 239.331C371.382 238.457 371.938 237.706 372.583 237.08C373.229 236.454 373.972 236.005 374.811 235.732C375.67 235.465 376.627 235.445 377.684 235.674L376.928 238.643C376.361 238.56 375.849 238.622 375.391 238.829C374.932 239.037 374.519 239.347 374.15 239.76C373.801 240.178 373.496 240.658 373.237 241.2C372.977 241.741 372.772 242.307 372.622 242.898C372.505 243.354 372.417 243.859 372.358 244.411C372.293 244.983 372.315 245.536 372.422 246.07C372.529 246.604 372.763 247.079 373.123 247.495C373.483 247.911 374.015 248.209 374.719 248.388C375.385 248.558 375.947 248.58 376.405 248.453C376.882 248.331 377.278 248.088 377.594 247.722C377.929 247.362 378.208 246.906 378.429 246.354C378.646 245.821 378.839 245.222 379.009 244.556L379.671 241.957L382.297 242.626L381.868 244.311C381.708 244.939 381.612 245.553 381.581 246.154C381.545 246.773 381.585 247.33 381.702 247.826C381.838 248.327 382.072 248.762 382.404 249.13C382.735 249.498 383.177 249.753 383.729 249.894C384.566 250.107 385.248 250.058 385.773 249.746C386.298 249.433 386.727 248.985 387.058 248.401C387.389 247.816 387.635 247.21 387.795 246.582C387.984 245.839 388.059 245.108 388.019 244.389C387.975 243.688 387.787 243.073 387.456 242.542C387.139 242.036 386.657 241.7 386.01 241.535L386.773 238.537C387.682 238.789 388.416 239.169 388.976 239.676C389.536 240.184 389.955 240.767 390.233 241.426C390.525 242.108 390.71 242.814 390.788 243.543C390.866 244.273 390.867 244.983 390.793 245.673C390.718 246.364 390.611 246.985 390.47 247.537C390.252 248.393 389.946 249.197 389.552 249.948C389.177 250.704 388.698 251.352 388.114 251.893C387.526 252.452 386.841 252.835 386.058 253.041C385.276 253.247 384.4 253.227 383.429 252.979C382.954 252.858 382.466 252.663 381.967 252.394C381.487 252.13 381.051 251.735 380.658 251.209C380.279 250.707 379.98 250.013 379.76 249.125C379.198 250.219 378.382 250.954 377.314 251.33C376.24 251.725 375.104 251.77 373.905 251.465C372.825 251.169 371.96 250.706 371.311 250.074C370.661 249.442 370.19 248.704 369.899 247.859C369.607 247.015 369.464 246.107 369.468 245.135C369.467 244.182 369.596 243.201 369.853 242.192Z" fill="white"/>
<path d="M364.004 260.755C364.763 258.753 365.83 257.215 367.204 256.139C368.59 255.09 370.171 254.492 371.949 254.348C373.726 254.203 375.57 254.493 377.479 255.218C379.407 255.95 380.988 256.959 382.222 258.247C383.456 259.535 384.23 261.037 384.545 262.753C384.878 264.477 384.665 266.339 383.906 268.341C383.139 270.361 382.073 271.9 380.705 272.957C379.338 274.013 377.766 274.614 375.988 274.759C374.211 274.904 372.358 274.61 370.43 273.878C368.521 273.153 366.949 272.147 365.715 270.859C364.481 269.571 363.698 268.066 363.364 266.343C363.024 264.638 363.237 262.775 364.004 260.755ZM366.665 261.796C366.107 263.266 365.991 264.598 366.315 265.792C366.639 266.987 367.268 268.013 368.202 268.872C369.137 269.731 370.246 270.405 371.532 270.893C372.505 271.262 373.481 271.485 374.46 271.563C375.432 271.659 376.355 271.578 377.229 271.322C378.104 271.066 378.887 270.607 379.579 269.945C380.272 269.283 380.823 268.411 381.234 267.327C381.785 265.876 381.902 264.544 381.585 263.331C381.261 262.137 380.635 261.101 379.707 260.224C378.78 259.346 377.664 258.66 376.361 258.165C375.075 257.677 373.798 257.445 372.529 257.467C371.254 257.508 370.098 257.868 369.064 258.547C368.022 259.244 367.222 260.327 366.665 261.796Z" fill="white"/>
<path d="M360.19 271.183L366.317 282.016L378.621 280.885L376.885 284.266L367.616 284.903L372.497 292.81L370.801 296.113L364.619 285.516L352.168 286.804L353.89 283.449L363.293 282.616L358.534 274.407L360.19 271.183Z" fill="white"/>
<path d="M351 288.801L368.364 300.305L366.64 302.909L353.476 294.188L360.703 311.875L359.043 314.381L341.68 302.877L343.388 300.298L356.429 308.938L349.358 291.283L351 288.801Z" fill="white"/>
<path d="M339.265 306.284L355.023 319.905L352.134 323.249L339.833 320.678L344.198 332.434L341.385 335.689L325.628 322.067L327.669 319.704L340.708 330.975L335.885 318.082L336.771 317.057L350.262 319.918L337.224 308.647L339.265 306.284Z" fill="white"/>
<path d="M317.313 329.941L330.525 346.044L328.112 348.025L318.095 335.817L319.8 354.848L317.477 356.755L304.265 340.652L306.656 338.689L316.579 350.784L315.013 331.829L317.313 329.941Z" fill="white"/>
<path d="M300.815 343.152L312.059 360.687L309.431 362.373L304.485 354.66L295.707 360.291L300.653 368.004L298.025 369.691L286.78 352.156L289.409 350.47L294.164 357.885L302.942 352.254L298.186 344.838L300.815 343.152Z" fill="white"/>
<path d="M284.869 353.535L284.211 365.553L293.691 372.406L290.542 373.878L282.285 367.624L279.59 368.885L283.471 377.186L280.642 378.509L276.761 370.208L274.013 371.494L273.49 381.854L270.395 383.302L271.242 371.619L261.546 364.444L264.855 362.896L272.788 368.944L275.563 367.646L271.82 359.638L274.648 358.315L278.392 366.323L281.14 365.037L281.613 355.058L284.869 353.535Z" fill="white"/>
<path d="M259.685 364.831L265.965 384.693L262.988 385.635L258.227 370.577L252.736 388.878L249.871 389.784L243.591 369.921L246.54 368.988L251.257 383.906L256.849 365.728L259.685 364.831Z" fill="white"/>
<path d="M239.434 370.949L243.258 391.426L240.189 392L238.507 382.992L228.256 384.907L229.938 393.915L226.868 394.488L223.044 374.011L226.114 373.437L227.731 382.097L237.982 380.182L236.365 371.522L239.434 370.949Z" fill="white"/>
<path d="M218.585 374.581L219.95 395.368L216.835 395.573L215.8 379.813L206.105 396.278L203.107 396.475L201.742 375.688L204.829 375.485L205.854 391.097L215.617 374.776L218.585 374.581Z" fill="white"/>
<path d="M196.652 375.634L195.688 396.443L188.184 396.095C186.634 396.024 185.312 395.716 184.216 395.174C183.101 394.631 182.264 393.825 181.704 392.757C181.143 391.708 180.9 390.37 180.975 388.741C181.048 387.171 181.462 385.873 182.218 384.846C182.953 383.818 183.932 383.057 185.154 382.563C186.376 382.089 187.751 381.887 189.281 381.958L193.225 382.141L193.533 375.489L196.652 375.634ZM193.094 384.967L189.268 384.789C187.777 384.72 186.565 385.008 185.63 385.653C184.695 386.318 184.192 387.425 184.12 388.975C184.057 390.329 184.383 391.357 185.098 392.059C185.811 392.78 186.924 393.176 188.434 393.246L192.701 393.444L193.094 384.967Z" fill="white"/>
<path d="M178.986 374.658L175.791 395.244L172.706 394.764L175.128 379.158L162.081 393.114L159.112 392.653L162.307 372.068L165.363 372.543L162.963 388.004L176.046 374.202L178.986 374.658Z" fill="white"/>
<path d="M158.151 371.146L152.476 391.189L149.471 390.338L151.968 381.521L141.934 378.679L139.438 387.496L136.433 386.644L142.109 366.601L145.113 367.452L142.713 375.929L152.747 378.771L155.147 370.295L158.151 371.146Z" fill="white"/>
<path d="M137.791 364.992L130.038 384.327L117.297 379.215L118.361 376.563L128.203 380.512L134.893 363.83L137.791 364.992Z" fill="white"/>
<path d="M116.162 355.434L105.9 373.562L93.9546 366.797L95.3624 364.31L104.591 369.536L113.444 353.895L116.162 355.434Z" fill="white"/>
<path d="M104.194 348.744L85.7621 361.233L82.4641 358.907L88.0646 337.366L90.809 339.302L89.6498 343.604L97.7865 349.344L101.449 346.808L104.194 348.744ZM95.3309 351.037L88.8794 346.486L85.84 357.646L95.3309 351.037Z" fill="white"/>
<path d="M81.4954 331.184C82.278 331.871 82.9671 332.619 83.5629 333.429C84.131 334.241 84.5476 335.077 84.8126 335.936C85.0777 336.796 85.1413 337.662 85.0036 338.534C84.853 339.421 84.4363 340.283 83.7536 341.121L81.4503 339.101C81.7815 338.634 81.9585 338.149 81.9813 337.646C82.004 337.144 81.915 336.634 81.7142 336.119C81.5005 335.618 81.211 335.128 80.8457 334.651C80.4805 334.174 80.069 333.735 79.6113 333.333C79.2569 333.022 78.8472 332.715 78.3819 332.412C77.902 332.095 77.3997 331.863 76.8752 331.717C76.3507 331.57 75.8214 331.563 75.2873 331.696C74.7533 331.828 74.2467 332.168 73.7675 332.714C73.3143 333.231 73.0403 333.722 72.9456 334.188C72.8379 334.668 72.8752 335.132 73.0576 335.579C73.227 336.041 73.5073 336.496 73.8985 336.944C74.2748 337.379 74.7214 337.823 75.2382 338.276L77.2536 340.044L75.4666 342.082L74.1599 340.936C73.6727 340.508 73.1687 340.145 72.6481 339.845C72.1127 339.532 71.5975 339.315 71.1025 339.194C70.5946 339.088 70.1013 339.1 69.6226 339.229C69.144 339.357 68.7169 339.636 68.3414 340.064C67.7716 340.714 67.5067 341.344 67.5466 341.954C67.5866 342.564 67.7919 343.149 68.1626 343.709C68.5333 344.269 68.9623 344.763 69.4495 345.191C70.0253 345.696 70.6428 346.094 71.3021 346.385C71.9465 346.663 72.5801 346.774 73.2027 346.719C73.7977 346.667 74.3153 346.389 74.7556 345.887L77.081 347.927C76.4447 348.623 75.7735 349.105 75.0675 349.374C74.3614 349.643 73.6519 349.752 72.9388 349.702C72.198 349.653 71.4851 349.498 70.8 349.236C70.1149 348.975 69.4815 348.654 68.9 348.275C68.3185 347.896 67.8137 347.518 67.3855 347.142C66.721 346.56 66.1435 345.922 65.6529 345.231C65.1493 344.554 64.789 343.833 64.5718 343.067C64.34 342.289 64.3094 341.505 64.4803 340.714C64.6512 339.923 65.0668 339.151 65.7273 338.398C66.051 338.029 66.4458 337.683 66.9118 337.36C67.3647 337.052 67.9146 336.842 68.5614 336.73C69.1804 336.62 69.935 336.668 70.8253 336.874C70.1059 335.877 69.8208 334.817 69.9698 333.694C70.1042 332.557 70.5792 331.524 71.395 330.594C72.1479 329.765 72.9531 329.204 73.8107 328.911C74.6683 328.618 75.5394 328.533 76.4242 328.656C77.309 328.779 78.1835 329.063 79.0476 329.507C79.8969 329.939 80.7129 330.498 81.4954 331.184Z" fill="white"/>
<path d="M67.6052 317.535C69.0457 319.118 69.934 320.766 70.2702 322.479C70.5786 324.19 70.3949 325.871 69.719 327.521C69.0432 329.172 67.9499 330.685 66.4391 332.059C64.9138 333.447 63.2978 334.4 61.5911 334.917C59.8845 335.434 58.1949 335.445 56.5223 334.949C54.8351 334.465 53.2713 333.432 51.8308 331.848C50.3771 330.25 49.4888 328.602 49.1659 326.904C48.8429 325.206 49.0194 323.532 49.6952 321.881C50.371 320.231 51.4716 318.711 52.9969 317.324C54.5077 315.949 56.1165 315.003 57.8231 314.486C59.5297 313.968 61.2266 313.951 62.9137 314.434C64.5877 314.903 66.1515 315.936 67.6052 317.535ZM65.4717 319.436C64.4145 318.274 63.2801 317.566 62.0686 317.314C60.8571 317.062 59.657 317.159 58.4682 317.603C57.2794 318.047 56.1765 318.732 55.1596 319.658C54.3897 320.358 53.7486 321.127 53.2363 321.965C52.7108 322.789 52.3643 323.648 52.1969 324.544C52.0294 325.44 52.0839 326.347 52.3603 327.264C52.6367 328.181 53.1648 329.068 53.9445 329.925C54.9885 331.073 56.1229 331.78 57.3476 332.047C58.5591 332.299 59.7658 332.21 60.9678 331.78C62.1699 331.35 63.2866 330.666 64.318 329.727C65.3349 328.802 66.1206 327.768 66.675 326.626C67.2163 325.47 67.4186 324.277 67.2821 323.047C67.1324 321.802 66.529 320.598 65.4717 319.436Z" fill="white"/>
<path d="M60.0964 309.46L47.6668 310.05L43.1327 321.547L40.8973 318.473L44.5047 309.91L35.2481 310.705L33.0646 307.703L45.3079 306.957L49.7684 295.258L51.9865 298.308L48.4939 307.08L57.9649 306.529L60.0964 309.46Z" fill="white"/>
<path d="M48.5782 293.377L30.4922 303.707L28.9437 300.995L42.6553 293.163L23.6119 291.655L22.1219 289.046L40.2078 278.715L41.7417 281.402L28.158 289.161L47.1028 290.793L48.5782 293.377Z" fill="white"/>
<path d="M38.2617 275.011L18.9902 282.91L17.3146 278.821L25.1696 269.009L12.7123 267.588L11.0813 263.607L30.3529 255.708L31.537 258.598L15.5909 265.134L29.269 266.66L29.7829 267.914L21.1316 278.657L37.0776 272.121L38.2617 275.011Z" fill="white"/>
<path d="M27.1137 244.762L6.767 249.21L6.10021 246.159L21.5257 242.787L3.80417 235.653L3.16253 232.716L23.5092 228.268L24.1697 231.29L8.88812 234.632L26.4783 241.855L27.1137 244.762Z" fill="white"/>
<path d="M22.8458 224.196L2.11545 226.201L1.8149 223.092L10.9339 222.21L9.9302 211.828L0.811188 212.71L0.510642 209.601L21.241 207.596L21.5415 210.705L12.7744 211.553L13.7781 221.935L22.5453 221.087L22.8458 224.196Z" fill="white"/>
<path d="M20.8115 204.353L10.4338 198.261L0 203.549L0.13412 200.075L9.47525 195.6L9.59004 192.626L0.435322 192.273L0.555802 189.152L9.71052 189.505L9.82759 186.473L0.860414 181.261L0.99226 177.846L10.9862 183.952L21.8049 178.62L21.664 182.271L12.6546 186.552L12.5364 189.614L21.3673 189.955L21.2469 193.076L12.4159 192.735L12.2989 195.768L20.9502 200.761L20.8115 204.353Z" fill="white"/>
<path d="M22.2502 176.804L1.72111 173.293L2.24738 170.214L17.8112 172.876L4.05954 159.613L4.56595 156.651L25.0951 160.162L24.5738 163.211L9.15515 160.574L22.7517 173.87L22.2502 176.804Z" fill="white"/>
<path d="M25.9095 156.462L5.93655 150.558L6.82159 147.563L15.6074 150.16L18.5631 140.157L9.77727 137.56L10.6623 134.565L30.6353 140.469L29.7503 143.464L21.3034 140.967L18.3477 150.97L26.7946 153.467L25.9095 156.462Z" fill="white"/>
<path d="M32.0807 136.282L12.96 128.024L14.1978 125.157L28.6938 131.417L18.4602 115.283L19.6513 112.524L38.772 120.782L37.5459 123.622L23.1851 117.42L33.2601 133.55L32.0807 136.282Z" fill="white"/>
<path d="M40.87 116.69L22.784 106.36L26.5091 99.8355C27.2784 98.488 28.1538 97.4498 29.1353 96.721C30.1265 95.9751 31.2249 95.5959 32.4307 95.5834C33.6194 95.5611 34.9215 95.9542 36.337 96.7627C37.7014 97.542 38.6687 98.5016 39.239 99.6417C39.8191 100.765 40.0509 101.983 39.9344 103.296C39.8008 104.6 39.3542 105.917 38.5946 107.247L36.6371 110.676L42.4185 113.978L40.87 116.69ZM34.1813 109.273L36.0803 105.947C36.8204 104.651 37.1161 103.44 36.9671 102.314C36.8012 101.179 36.0445 100.226 34.6972 99.4567C33.5205 98.7846 32.4572 98.607 31.5073 98.9241C30.5403 99.2313 29.6819 100.042 28.932 101.355L26.8139 105.065L34.1813 109.273Z" fill="white"/>
<path d="M49.7644 101.313L32.922 89.0585L34.7589 86.5327L47.5277 95.8231L41.0839 77.8356L42.8515 75.4051L59.6939 87.6594L57.8743 90.1614L45.2247 80.9576L51.5146 98.9062L49.7644 101.313Z" fill="white"/>
<path d="M61.9189 84.8407L46.6153 70.7108L48.7333 68.4158L55.4652 74.6314L62.5385 66.967L55.8066 60.7514L57.9246 58.4564L73.2283 72.5863L71.1103 74.8813L64.6382 68.9056L57.5648 76.57L64.0369 82.5457L61.9189 84.8407Z" fill="white"/>
<path d="M76.781 69.2033L63.0483 53.5416L73.369 44.4879L75.2531 46.6367L67.2801 53.6309L79.1286 67.1439L76.781 69.2033Z" fill="white"/>
<path d="M95.5359 53.8023L84.0353 36.4345L95.4802 28.8525L97.0581 31.2353L88.2165 37.0927L98.1393 52.0776L95.5359 53.8023Z" fill="white"/>
<path d="M106.655 46.2535L103.89 24.1581L107.459 22.2739L124.11 37.039L121.14 38.6068L117.833 35.6217L109.027 40.2702L109.625 44.6856L106.655 46.2535ZM108.633 37.3133L115.615 33.6275L107.05 25.8548L108.633 37.3133Z" fill="white"/>
<path d="M132.102 34.1097C131.136 34.4973 130.157 34.7736 129.165 34.9387C128.184 35.0782 127.25 35.0718 126.364 34.9195C125.478 34.7671 124.677 34.4323 123.962 33.915C123.239 33.3795 122.658 32.6176 122.22 31.6295L125.063 30.4888C125.33 30.9955 125.682 31.3727 126.12 31.6204C126.558 31.868 127.052 32.0189 127.603 32.0731C128.147 32.1091 128.714 32.072 129.304 31.9621C129.895 31.8521 130.473 31.6837 131.038 31.457C131.475 31.2815 131.935 31.0549 132.416 30.7773C132.915 30.4923 133.349 30.149 133.717 29.7474C134.085 29.3458 134.33 28.8768 134.454 28.3405C134.577 27.8042 134.504 27.1987 134.233 26.5242C133.977 25.8861 133.663 25.4195 133.291 25.1244C132.912 24.811 132.481 24.6345 132 24.5948C131.511 24.5369 130.978 24.5812 130.402 24.7277C129.845 24.8668 129.247 25.0643 128.609 25.3203L126.121 26.3185L125.112 23.8025L126.725 23.1553C127.326 22.914 127.879 22.629 128.382 22.3002C128.903 21.9641 129.329 21.6026 129.661 21.2156C129.985 20.8104 130.198 20.3652 130.299 19.88C130.401 19.3948 130.346 18.8878 130.134 18.3591C129.812 17.5569 129.37 17.0357 128.809 16.7955C128.247 16.5552 127.632 16.4738 126.965 16.551C126.298 16.6282 125.663 16.7875 125.062 17.0288C124.351 17.314 123.717 17.6848 123.159 18.1413C122.62 18.5905 122.234 19.1052 122.001 19.6854C121.779 20.2401 121.792 20.8273 122.041 21.4472L119.17 22.5989C118.837 21.7165 118.711 20.8995 118.79 20.148C118.87 19.3965 119.093 18.7142 119.461 18.1011C119.84 17.4624 120.301 16.8965 120.843 16.4036C121.386 15.9106 121.959 15.4906 122.56 15.1435C123.161 14.7964 123.726 14.5168 124.255 14.3047C125.075 13.9757 125.905 13.7487 126.743 13.6239C127.575 13.4809 128.381 13.4856 129.161 13.6381C129.96 13.7832 130.673 14.1108 131.301 14.6209C131.929 15.131 132.429 15.8509 132.802 16.7807C132.985 17.2365 133.115 17.7453 133.192 18.3069C133.261 18.8504 133.2 19.4359 133.007 20.0635C132.826 20.6655 132.441 21.317 131.855 22.0179C133.069 21.8271 134.143 22.0522 135.078 22.6933C136.03 23.3271 136.737 24.2183 137.197 25.3669C137.596 26.4134 137.731 27.3854 137.605 28.2828C137.478 29.1803 137.16 29.9958 136.65 30.7295C136.14 31.4632 135.491 32.1149 134.704 32.6847C133.935 33.2471 133.068 33.7222 132.102 34.1097Z" fill="white"/>
<path d="M150.464 27.8409C148.4 28.4088 146.528 28.4551 144.85 27.9798C143.185 27.4803 141.769 26.5557 140.604 25.2058C139.438 23.8559 138.585 22.1961 138.043 20.2263C137.496 18.2376 137.378 16.3652 137.69 14.6089C138.001 12.8527 138.756 11.3409 139.956 10.0738C141.15 8.78764 142.779 7.86065 144.843 7.29278C146.926 6.7197 148.798 6.67342 150.457 7.15392C152.117 7.63442 153.53 8.54962 154.695 9.89951C155.861 11.2494 156.717 12.9187 157.264 14.9074C157.806 16.8771 157.921 18.7401 157.61 20.4964C157.298 22.2526 156.545 23.7738 155.351 25.0599C154.176 26.3409 152.547 27.2679 150.464 27.8409ZM149.734 25.0774C151.249 24.6606 152.393 23.9689 153.166 23.0025C153.939 22.036 154.396 20.922 154.538 19.6606C154.68 18.3992 154.569 17.1056 154.204 15.7798C153.928 14.776 153.533 13.856 153.018 13.0198C152.521 12.1784 151.912 11.4803 151.189 10.9253C150.466 10.3704 149.633 10.0087 148.691 9.84023C147.748 9.67172 146.718 9.74116 145.601 10.0485C144.105 10.4601 142.961 11.1517 142.169 12.1234C141.396 13.0899 140.929 14.2065 140.769 15.4731C140.608 16.7397 140.712 18.0454 141.082 19.3902C141.447 20.7159 142.012 21.8845 142.779 22.8959C143.565 23.902 144.537 24.6227 145.696 25.0577C146.873 25.4876 148.219 25.4941 149.734 25.0774Z" fill="white"/>
<path d="M161.76 24.5822L166.918 13.2554L158.769 3.96532L162.524 3.3822L168.489 10.5068L172.014 1.90859L175.682 1.33903L170.747 12.5714L179.11 21.8881L175.383 22.4667L169.181 15.3491L165.341 24.0262L161.76 24.5822Z" fill="white"/>
<path d="M180.758 21.6684L179.794 0.85894L182.914 0.714358L183.645 16.4907L193.654 0.216506L196.656 0.0773796L197.62 20.8868L194.53 21.0301L193.806 5.40089L183.731 21.5306L180.758 21.6684Z" fill="white"/>
<path d="M202.628 20.7569L204.393 0L208.796 0.374564L213.941 11.8424L220.89 1.40337L225.175 1.76794L223.41 22.5248L220.299 22.2601L221.759 5.08505L214.161 16.5629L212.81 16.4481L207.2 3.8465L205.74 21.0215L202.628 20.7569Z" fill="white"/>
<path d="M234.631 24.5093L239.925 4.36194L242.945 5.15597L238.931 20.4303L253.344 7.89011L256.25 8.65418L250.956 28.8015L247.964 28.015L251.941 12.8831L237.508 25.2659L234.631 24.5093Z" fill="white"/>
<path d="M255.199 30.1015L262.88 10.7381L265.782 11.89L262.403 20.4077L272.097 24.2544L275.475 15.7367L278.378 16.8885L270.697 36.2519L267.794 35.1001L271.043 26.911L261.35 23.0643L258.101 31.2534L255.199 30.1015Z" fill="white"/>
<path d="M273.53 37.1905L283.679 30.724L283.724 19.0246L286.755 20.7265L286.484 31.0826L289.079 32.5392L293.563 24.5483L296.286 26.0771L291.802 34.068L294.448 35.5534L303.17 29.9422L306.15 31.6151L296.163 37.7331L295.982 49.7954L292.796 48.007L293.089 38.0345L290.417 36.5346L286.092 44.2429L283.369 42.7141L287.694 35.0059L285.049 33.5204L276.664 38.95L273.53 37.1905Z" fill="white"/>
<path d="M296.681 50.5108L309.116 33.7998L311.621 35.6646L302.193 48.3338L320.246 42.0859L322.656 43.8804L310.221 60.5914L307.74 58.7442L317.079 46.1932L299.067 52.2876L296.681 50.5108Z" fill="white"/>
<path d="M313.926 63.6115L328.273 48.5113L330.537 50.663L324.225 57.3053L331.784 64.4909L338.096 57.8486L340.359 60.0002L326.011 75.1004L323.748 72.9487L329.816 66.5627L322.257 59.3771L316.189 65.7631L313.926 63.6115Z" fill="white"/>
<path d="M329.418 78.658L345.469 65.3837L347.459 67.7908L335.29 77.8544L354.311 76.0794L356.225 78.3956L340.174 91.6699L338.203 89.2855L350.259 79.3157L331.314 80.9515L329.418 78.658Z" fill="white"/>
<path d="M342.752 95.2651L360.158 83.8256L364.283 90.105C365.135 91.4019 365.663 92.6531 365.868 93.8585C366.083 95.0803 365.923 96.2315 365.387 97.3121C364.868 98.382 363.927 99.3646 362.565 100.26C361.252 101.123 359.958 101.55 358.684 101.542C357.42 101.549 356.229 101.204 355.112 100.504C354.011 99.7942 353.04 98.7988 352.199 97.5183L350.031 94.2186L344.467 97.8754L342.752 95.2651ZM352.394 92.6653L354.497 95.8665C355.317 97.1142 356.262 97.9268 357.333 98.3045C358.42 98.6713 359.611 98.4286 360.908 97.5765C362.04 96.8322 362.681 95.9647 362.829 94.9741C362.994 93.9728 362.661 92.84 361.83 91.576L359.485 88.0053L352.394 92.6653Z" fill="white"/>
<path d="M351.984 109.405L370.51 99.8866L371.937 102.665L357.892 109.881L376.85 112.231L378.223 114.905L359.697 124.423L358.284 121.671L372.198 114.522L353.344 112.052L351.984 109.405Z" fill="white"/>
<path d="M361.786 129.058L381.34 121.886L382.415 124.818L373.814 127.973L377.404 137.766L386.005 134.611L387.08 137.544L367.526 144.716L366.451 141.783L374.721 138.75L371.131 128.957L362.861 131.99L361.786 129.058Z" fill="white"/>
<path d="M368.79 149.159L388.992 144.093L392.33 157.412L389.558 158.107L386.979 147.818L369.549 152.189L368.79 149.159Z" fill="white"/>
</svg>
