<svg width="270" height="271" viewBox="0 0 270 271" fill="none" xmlns="http://www.w3.org/2000/svg">
<path d="M255.446 136.549L269.576 137.15L269.181 146.465L267.242 146.383L267.548 139.186L255.356 138.668L255.446 136.549Z" fill="white"/>
<path d="M255.122 145.956L268.363 153.253L267.974 155.966L253.219 159.225L253.542 156.968L256.502 156.341L257.462 149.647L254.798 148.213L255.122 145.956ZM259.244 150.61L258.483 155.918L266.17 154.313L259.244 150.61Z" fill="white"/>
<path d="M251.498 165.249C251.673 164.564 251.913 163.916 252.22 163.306C252.537 162.712 252.914 162.203 253.353 161.778C253.791 161.353 254.296 161.048 254.866 160.863C255.449 160.681 256.099 160.668 256.816 160.823L256.303 162.839C255.918 162.783 255.57 162.825 255.259 162.966C254.948 163.107 254.667 163.317 254.417 163.598C254.179 163.881 253.973 164.207 253.796 164.575C253.62 164.943 253.481 165.327 253.379 165.728C253.3 166.038 253.24 166.381 253.199 166.756C253.156 167.144 253.17 167.52 253.243 167.882C253.316 168.245 253.474 168.568 253.719 168.85C253.963 169.133 254.325 169.335 254.803 169.457C255.255 169.572 255.637 169.587 255.948 169.501C256.272 169.418 256.541 169.253 256.755 169.004C256.983 168.76 257.172 168.45 257.322 168.075C257.47 167.714 257.601 167.307 257.716 166.854L258.165 165.09L259.949 165.544L259.657 166.688C259.549 167.115 259.484 167.532 259.463 167.939C259.438 168.36 259.466 168.738 259.545 169.075C259.637 169.415 259.796 169.71 260.021 169.961C260.247 170.211 260.547 170.383 260.921 170.479C261.49 170.624 261.953 170.59 262.309 170.378C262.666 170.166 262.957 169.862 263.182 169.465C263.407 169.068 263.574 168.656 263.682 168.23C263.811 167.726 263.862 167.229 263.835 166.741C263.804 166.265 263.677 165.847 263.452 165.487C263.237 165.143 262.91 164.915 262.47 164.803L262.989 162.767C263.606 162.938 264.104 163.196 264.484 163.541C264.865 163.885 265.149 164.281 265.338 164.729C265.536 165.192 265.662 165.672 265.715 166.167C265.768 166.662 265.769 167.144 265.718 167.613C265.667 168.082 265.594 168.504 265.499 168.879C265.351 169.46 265.143 170.006 264.875 170.516C264.621 171.029 264.295 171.469 263.899 171.837C263.5 172.217 263.034 172.477 262.503 172.616C261.972 172.756 261.377 172.742 260.718 172.575C260.395 172.492 260.064 172.36 259.725 172.177C259.399 171.998 259.103 171.729 258.836 171.372C258.579 171.031 258.375 170.56 258.226 169.957C257.844 170.7 257.291 171.199 256.565 171.454C255.836 171.723 255.064 171.753 254.25 171.546C253.517 171.345 252.93 171.03 252.488 170.601C252.047 170.172 251.728 169.671 251.53 169.098C251.332 168.524 251.234 167.907 251.237 167.247C251.237 166.6 251.324 165.934 251.498 165.249Z" fill="white"/>
<path d="M247.527 177.854C248.042 176.495 248.767 175.45 249.7 174.72C250.641 174.007 251.715 173.602 252.922 173.504C254.129 173.405 255.381 173.602 256.677 174.094C257.986 174.591 259.06 175.277 259.898 176.152C260.736 177.026 261.262 178.046 261.475 179.212C261.702 180.382 261.557 181.647 261.041 183.006C260.521 184.378 259.796 185.423 258.868 186.14C257.94 186.858 256.872 187.266 255.665 187.364C254.458 187.462 253.2 187.263 251.891 186.766C250.594 186.274 249.527 185.591 248.689 184.716C247.851 183.842 247.319 182.819 247.092 181.649C246.861 180.491 247.006 179.226 247.527 177.854ZM249.334 178.562C248.955 179.56 248.876 180.464 249.096 181.275C249.316 182.086 249.743 182.783 250.378 183.367C251.012 183.95 251.766 184.407 252.639 184.739C253.299 184.99 253.962 185.141 254.627 185.194C255.287 185.259 255.914 185.204 256.508 185.03C257.101 184.856 257.633 184.544 258.103 184.095C258.573 183.646 258.948 183.053 259.227 182.317C259.601 181.332 259.68 180.428 259.465 179.604C259.245 178.793 258.82 178.09 258.19 177.494C257.561 176.898 256.803 176.432 255.918 176.096C255.045 175.765 254.178 175.607 253.316 175.622C252.45 175.65 251.665 175.894 250.962 176.355C250.255 176.829 249.712 177.564 249.334 178.562Z" fill="white"/>
<path d="M244.936 184.936L249.097 192.292L257.453 191.524L256.274 193.82L249.98 194.253L253.294 199.622L252.142 201.865L247.944 194.669L239.489 195.544L240.659 193.266L247.044 192.7L243.812 187.125L244.936 184.936Z" fill="white"/>
<path d="M238.696 196.9L250.488 204.711L249.317 206.48L240.377 200.558L245.285 212.568L244.158 214.27L232.367 206.459L233.527 204.707L242.383 210.574L237.581 198.585L238.696 196.9Z" fill="white"/>
<path d="M230.728 208.772L241.428 218.022L239.466 220.292L231.113 218.546L234.077 226.53L232.167 228.74L221.467 219.49L222.853 217.885L231.707 225.539L228.432 216.784L229.034 216.087L238.195 218.03L229.341 210.376L230.728 208.772Z" fill="white"/>
<path d="M215.82 224.836L224.792 235.772L223.153 237.117L216.351 228.827L217.509 241.75L215.932 243.045L206.96 232.11L208.583 230.777L215.322 238.99L214.258 226.119L215.82 224.836Z" fill="white"/>
<path d="M204.617 233.808L212.253 245.715L210.468 246.86L207.109 241.622L201.148 245.446L204.507 250.684L202.723 251.829L195.087 239.922L196.872 238.777L200.101 243.813L206.062 239.988L202.832 234.953L204.617 233.808Z" fill="white"/>
<path d="M193.789 240.858L193.342 249.019L199.779 253.673L197.641 254.673L192.034 250.426L190.204 251.282L192.839 256.919L190.918 257.817L188.283 252.181L186.417 253.054L186.062 260.089L183.96 261.072L184.535 253.138L177.951 248.266L180.198 247.215L185.585 251.322L187.47 250.441L184.928 245.003L186.848 244.105L189.39 249.542L191.257 248.669L191.578 241.893L193.789 240.858Z" fill="white"/>
<path d="M176.687 248.529L180.952 262.017L178.93 262.656L175.697 252.431L171.968 264.858L170.023 265.474L165.758 251.986L167.761 251.352L170.964 261.483L174.761 249.138L176.687 248.529Z" fill="white"/>
<path d="M162.936 252.683L165.532 266.589L163.448 266.979L162.306 260.862L155.345 262.162L156.487 268.279L154.402 268.668L151.806 254.763L153.89 254.373L154.988 260.254L161.949 258.954L160.851 253.073L162.936 252.683Z" fill="white"/>
<path d="M148.778 255.15L149.705 269.266L147.589 269.405L146.886 258.703L140.303 269.884L138.267 270.017L137.34 255.902L139.436 255.764L140.132 266.366L146.762 255.283L148.778 255.15Z" fill="white"/>
<path d="M133.884 255.865L133.229 269.996L128.133 269.76C127.081 269.711 126.183 269.502 125.439 269.134C124.682 268.765 124.113 268.218 123.733 267.493C123.352 266.781 123.187 265.872 123.238 264.766C123.288 263.7 123.569 262.818 124.082 262.121C124.581 261.423 125.246 260.906 126.076 260.571C126.905 260.249 127.839 260.112 128.878 260.16L131.556 260.284L131.765 255.767L133.884 255.865ZM131.467 262.203L128.87 262.082C127.857 262.035 127.034 262.231 126.399 262.669C125.764 263.12 125.422 263.872 125.374 264.925C125.331 265.844 125.552 266.542 126.037 267.019C126.522 267.508 127.277 267.777 128.303 267.825L131.201 267.959L131.467 262.203Z" fill="white"/>
<path d="M121.888 255.203L119.718 269.181L117.622 268.856L119.267 258.258L110.407 267.736L108.391 267.422L110.561 253.444L112.636 253.766L111.007 264.265L119.891 254.893L121.888 255.203Z" fill="white"/>
<path d="M107.739 252.817L103.885 266.428L101.845 265.85L103.54 259.863L96.7266 257.933L95.0312 263.92L92.991 263.342L96.8452 249.731L98.8854 250.309L97.2554 256.065L104.069 257.996L105.699 252.239L107.739 252.817Z" fill="white"/>
<path d="M93.913 248.639L88.648 261.768L79.9961 258.297L80.7184 256.496L87.4023 259.177L91.945 247.849L93.913 248.639Z" fill="white"/>
<path d="M79.2252 242.148L72.2572 254.458L64.1452 249.864L65.1012 248.175L71.368 251.724L77.3799 241.103L79.2252 242.148Z" fill="white"/>
<path d="M71.0982 237.605L58.5819 246.086L56.3424 244.506L60.1455 229.878L62.0091 231.193L61.2219 234.115L66.7473 238.012L69.2346 236.29L71.0982 237.605ZM65.0798 239.162L60.6988 236.072L58.6348 243.65L65.0798 239.162Z" fill="white"/>
<path d="M55.6846 225.681C56.216 226.147 56.684 226.655 57.0886 227.205C57.4743 227.757 57.7572 228.324 57.9372 228.908C58.1172 229.492 58.1604 230.079 58.0669 230.672C57.9646 231.274 57.6816 231.86 57.218 232.429L55.6539 231.057C55.8789 230.739 55.999 230.41 56.0145 230.069C56.0299 229.728 55.9695 229.382 55.8331 229.032C55.688 228.691 55.4914 228.359 55.2434 228.035C54.9954 227.711 54.7159 227.413 54.4051 227.14C54.1645 226.929 53.8862 226.72 53.5703 226.514C53.2444 226.299 52.9033 226.142 52.5471 226.042C52.191 225.943 51.8315 225.938 51.4689 226.028C51.1062 226.118 50.7622 226.348 50.4368 226.72C50.129 227.071 49.943 227.404 49.8786 227.72C49.8055 228.046 49.8309 228.361 49.9547 228.665C50.0698 228.979 50.2601 229.288 50.5257 229.592C50.7813 229.887 51.0846 230.189 51.4355 230.496L52.8041 231.697L51.5906 233.081L50.7033 232.303C50.3724 232.012 50.0302 231.765 49.6766 231.562C49.3131 231.349 48.9632 231.202 48.6271 231.12C48.2822 231.048 47.9472 231.056 47.6222 231.143C47.2971 231.231 47.0071 231.42 46.7521 231.711C46.3652 232.152 46.1853 232.58 46.2124 232.994C46.2395 233.408 46.379 233.805 46.6307 234.186C46.8824 234.566 47.1737 234.902 47.5046 235.192C47.8956 235.535 48.315 235.805 48.7626 236.003C49.2002 236.192 49.6305 236.267 50.0533 236.23C50.4573 236.194 50.8088 236.006 51.1078 235.665L52.6869 237.05C52.2548 237.523 51.799 237.85 51.3196 238.033C50.8401 238.216 50.3583 238.29 49.8741 238.255C49.371 238.222 48.8869 238.117 48.4216 237.939C47.9564 237.762 47.5263 237.544 47.1315 237.287C46.7366 237.029 46.3937 236.772 46.103 236.517C45.6518 236.122 45.2596 235.689 44.9264 235.219C44.5845 234.759 44.3398 234.27 44.1923 233.75C44.0349 233.222 44.0141 232.689 44.1302 232.152C44.2462 231.615 44.5285 231.091 44.9769 230.579C45.1968 230.329 45.4649 230.094 45.7813 229.874C46.0889 229.665 46.4623 229.523 46.9015 229.447C47.3218 229.372 47.8343 229.404 48.4388 229.544C47.9503 228.867 47.7567 228.148 47.8579 227.385C47.9492 226.613 48.2718 225.911 48.8257 225.28C49.337 224.717 49.8838 224.336 50.4661 224.137C51.0485 223.938 51.6401 223.881 52.2409 223.964C52.8417 224.048 53.4356 224.24 54.0223 224.542C54.5991 224.835 55.1532 225.215 55.6846 225.681Z" fill="white"/>
<path d="M46.2522 216.412C47.2304 217.487 47.8336 218.606 48.0619 219.769C48.2713 220.931 48.1465 222.072 47.6876 223.193C47.2287 224.314 46.4863 225.341 45.4603 226.275C44.4245 227.217 43.3272 227.864 42.1682 228.216C41.0093 228.567 39.862 228.574 38.7261 228.237C37.5804 227.909 36.5185 227.207 35.5403 226.132C34.5532 225.046 33.9499 223.927 33.7306 222.774C33.5114 221.621 33.6312 220.484 34.0901 219.363C34.549 218.243 35.2964 217.211 36.3322 216.268C37.3581 215.335 38.4506 214.692 39.6095 214.341C40.7684 213.99 41.9207 213.978 43.0664 214.306C44.2031 214.625 45.265 215.326 46.2522 216.412ZM44.8034 217.703C44.0855 216.914 43.3152 216.433 42.4925 216.262C41.6698 216.091 40.8548 216.156 40.0475 216.458C39.2403 216.76 38.4914 217.225 37.8008 217.853C37.278 218.329 36.8426 218.852 36.4948 219.421C36.1379 219.98 35.9026 220.563 35.7889 221.172C35.6752 221.78 35.7122 222.396 35.8999 223.018C36.0876 223.641 36.4462 224.243 36.9757 224.826C37.6846 225.605 38.4549 226.085 39.2866 226.266C40.1093 226.437 40.9287 226.377 41.745 226.085C42.5612 225.793 43.3196 225.329 44.02 224.691C44.7105 224.063 45.244 223.361 45.6205 222.586C45.9881 221.8 46.1255 220.99 46.0328 220.155C45.9311 219.31 45.5213 218.492 44.8034 217.703Z" fill="white"/>
<path d="M41.1532 210.928L32.7127 211.329L29.6337 219.136L28.1157 217.049L30.5654 211.234L24.2795 211.774L22.7968 209.735L31.1109 209.229L34.1398 201.285L35.646 203.356L33.2743 209.312L39.7058 208.938L41.1532 210.928Z" fill="white"/>
<path d="M33.3316 200.007L21.05 207.022L19.9985 205.18L29.3096 199.862L16.3778 198.838L15.366 197.066L27.6476 190.051L28.6891 191.875L19.4649 197.144L32.3297 198.252L33.3316 200.007Z" fill="white"/>
<path d="M26.326 187.535L13.2393 192.9L12.1015 190.122L17.4356 183.46L8.97622 182.494L7.86872 179.791L20.9554 174.427L21.7595 176.39L10.931 180.828L20.2194 181.865L20.5683 182.716L14.6935 190.011L25.5219 185.573L26.326 187.535Z" fill="white"/>
<path d="M18.7557 166.994L4.93899 170.015L4.4862 167.943L14.9611 165.653L2.92703 160.808L2.49132 158.815L16.3081 155.794L16.7566 157.846L6.37938 160.115L18.3243 165.02L18.7557 166.994Z" fill="white"/>
<path d="M15.8576 153.028L1.78028 154.39L1.57619 152.279L7.7686 151.68L7.08702 144.63L0.894601 145.229L0.69051 143.118L14.7678 141.756L14.9719 143.867L9.01841 144.443L9.7 151.493L15.6535 150.917L15.8576 153.028Z" fill="white"/>
<path d="M14.4762 139.554L7.429 135.417L0.34375 139.008L0.434826 136.649L6.77807 133.61L6.85603 131.591L0.639362 131.351L0.721177 129.231L6.93784 129.471L7.01734 127.412L0.928028 123.873L1.01756 121.554L7.80411 125.7L15.1508 122.079L15.055 124.559L8.93709 127.466L8.85681 129.545L14.8536 129.777L14.7718 131.896L8.775 131.665L8.6955 133.724L14.5703 137.115L14.4762 139.554Z" fill="white"/>
<path d="M15.4531 120.846L1.5125 118.462L1.86987 116.371L12.4387 118.179L3.10045 109.173L3.44433 107.161L17.385 109.545L17.031 111.616L6.56071 109.825L15.7937 118.854L15.4531 120.846Z" fill="white"/>
<path d="M17.9381 107.033L4.37507 103.023L4.97606 100.99L10.9422 102.753L12.9494 95.9606L6.98317 94.1969L7.58417 92.1629L21.1472 96.1724L20.5462 98.2064L14.8102 96.5107L12.8031 103.303L18.5391 104.999L17.9381 107.033Z" fill="white"/>
<path d="M22.1287 93.3292L9.14443 87.7214L9.98501 85.7742L19.8288 90.0257L12.8795 79.0694L13.6883 77.1957L26.6725 82.8035L25.8399 84.7323L16.0879 80.5205L22.9296 91.4739L22.1287 93.3292Z" fill="white"/>
<path d="M28.0972 80.0251L15.8156 73.0103L18.3452 68.5795C18.8676 67.6644 19.4621 66.9594 20.1285 66.4645C20.8016 65.9581 21.5476 65.7006 22.3664 65.692C23.1736 65.6769 24.0578 65.9439 25.019 66.4929C25.9455 67.022 26.6024 67.6737 26.9897 68.4479C27.3836 69.2106 27.541 70.0378 27.4618 70.9296C27.3711 71.8148 27.0679 72.7091 26.552 73.6126L25.2228 75.9409L29.1487 78.1833L28.0972 80.0251ZM23.5551 74.9884L24.8447 72.7296C25.3473 71.8493 25.548 71.0269 25.4469 70.2626C25.3342 69.4916 24.8204 68.8448 23.9055 68.3223C23.1064 67.8659 22.3843 67.7453 21.7393 67.9606C21.0826 68.1692 20.4997 68.7195 19.9905 69.6115L18.5522 72.1309L23.5551 74.9884Z" fill="white"/>
<path d="M34.1371 69.5827L22.7 61.2612L23.9473 59.546L32.6182 65.8548L28.2425 53.6401L29.4427 51.9897L40.8799 60.3112L39.6443 62.0101L31.0543 55.7602L35.3256 67.9484L34.1371 69.5827Z" fill="white"/>
<path d="M42.3908 58.3971L31.9986 48.8019L33.4369 47.2434L38.0083 51.4642L42.8116 46.2596L38.2402 42.0388L39.6784 40.4804L50.0706 50.0755L48.6324 51.634L44.2374 47.576L39.4341 52.7807L43.8291 56.8386L42.3908 58.3971Z" fill="white"/>
<path d="M52.4832 47.7782L43.1578 37.1428L50.1662 30.9948L51.4456 32.454L46.0314 37.2035L54.0774 46.3797L52.4832 47.7782Z" fill="white"/>
<path d="M65.219 37.3199L57.4093 25.526L65.1812 20.3773L66.2527 21.9954L60.2487 25.973L66.9869 36.1487L65.219 37.3199Z" fill="white"/>
<path d="M72.7695 32.1938L70.8918 17.1895L73.3155 15.91L84.6228 25.9365L82.6059 27.0012L80.3601 24.974L74.3804 28.1307L74.7863 31.1291L72.7695 32.1938ZM74.1126 26.1228L78.8539 23.6198L73.0379 18.3417L74.1126 26.1228Z" fill="white"/>
<path d="M90.0496 23.9473C89.3935 24.2105 88.7288 24.3982 88.0553 24.5103C87.3892 24.605 86.7552 24.6007 86.1534 24.4972C85.5515 24.3937 85.0077 24.1664 84.522 23.8151C84.0313 23.4514 83.637 22.9341 83.3392 22.2631L85.2701 21.4884C85.4512 21.8326 85.6905 22.0887 85.9878 22.2569C86.2851 22.425 86.6208 22.5275 86.9948 22.5643C87.3638 22.5887 87.7488 22.5636 88.15 22.4889C88.5511 22.4142 88.9435 22.2999 89.3272 22.146C89.6243 22.0268 89.9361 21.8729 90.2629 21.6844C90.602 21.4908 90.8964 21.2577 91.1463 20.985C91.3962 20.7123 91.563 20.3938 91.6469 20.0296C91.7307 19.6654 91.6808 19.2543 91.4971 18.7962C91.3234 18.3629 91.1101 18.0461 90.8573 17.8457C90.5995 17.6329 90.3072 17.513 89.9803 17.4861C89.6484 17.4468 89.2869 17.4768 88.8957 17.5763C88.5169 17.6708 88.1109 17.8049 87.6777 17.9787L85.9881 18.6565L85.303 16.948L86.3984 16.5086C86.8069 16.3447 87.1819 16.1511 87.5234 15.9279C87.8773 15.6997 88.1668 15.4542 88.3919 15.1914C88.6121 14.9162 88.7567 14.6139 88.8257 14.2844C88.8947 13.9549 88.8573 13.6106 88.7133 13.2516C88.4948 12.7068 88.1949 12.3529 87.8133 12.1898C87.4318 12.0267 87.0145 11.9713 86.5613 12.0238C86.1082 12.0762 85.6774 12.1844 85.2689 12.3482C84.7862 12.5419 84.3555 12.7937 83.9769 13.1037C83.6107 13.4087 83.3485 13.7582 83.1904 14.1522C83.0397 14.5289 83.0487 14.9277 83.2175 15.3486L81.2681 16.1307C81.0421 15.5315 80.9562 14.9767 81.0102 14.4664C81.0642 13.9561 81.216 13.4927 81.4658 13.0764C81.7229 12.6426 82.0358 12.2584 82.4045 11.9237C82.7732 11.5889 83.1617 11.3037 83.5701 11.068C83.9785 10.8323 84.3622 10.6424 84.7211 10.4984C85.2781 10.275 85.8414 10.1209 86.4109 10.0361C86.9754 9.93896 87.5227 9.94216 88.0528 10.0457C88.5952 10.1443 89.0796 10.3667 89.5058 10.7131C89.9321 11.0595 90.2718 11.5484 90.525 12.1798C90.6492 12.4893 90.7374 12.8348 90.7898 13.2162C90.8372 13.5852 90.7954 13.9828 90.6646 14.409C90.5412 14.8178 90.2803 15.2602 89.882 15.7362C90.7066 15.6066 91.4361 15.7595 92.0704 16.1948C92.7172 16.6252 93.197 17.2304 93.5097 18.0103C93.7803 18.721 93.8726 19.381 93.7865 19.9905C93.7004 20.5999 93.4842 21.1537 93.138 21.6519C92.7918 22.1501 92.3514 22.5927 91.8168 22.9796C91.2947 23.3616 90.7056 23.6841 90.0496 23.9473Z" fill="white"/>
<path d="M102.519 19.6904C101.117 20.076 99.8462 20.1074 98.7063 19.7847C97.5757 19.4455 96.6146 18.8176 95.8231 17.901C95.0316 16.9843 94.4519 15.8572 94.084 14.5196C93.7126 13.1691 93.6327 11.8976 93.8441 10.705C94.0556 9.51236 94.5686 8.4858 95.3831 7.6253C96.1941 6.75194 97.3004 6.12245 98.702 5.73683C100.116 5.34767 101.387 5.31624 102.514 5.64253C103.641 5.96883 104.601 6.59031 105.392 7.50697C106.184 8.42364 106.765 9.5572 107.137 10.9077C107.504 12.2452 107.583 13.5103 107.371 14.703C107.16 15.8956 106.648 16.9286 105.837 17.8019C105.039 18.6717 103.933 19.3012 102.519 19.6904ZM102.023 17.8137C103.052 17.5307 103.829 17.0611 104.354 16.4048C104.879 15.7485 105.189 14.992 105.286 14.1354C105.382 13.2788 105.306 12.4004 105.059 11.5001C104.871 10.8184 104.603 10.1937 104.253 9.62585C103.916 9.05449 103.502 8.5804 103.011 8.20359C102.52 7.82677 101.955 7.58115 101.315 7.46672C100.675 7.35229 99.9753 7.39944 99.2166 7.60817C98.2008 7.88766 97.424 8.35732 96.8862 9.01716C96.3613 9.67346 96.0443 10.4317 95.935 11.2918C95.8258 12.1519 95.8967 13.0386 96.1478 13.9518C96.3954 14.8521 96.7796 15.6456 97.3004 16.3324C97.8341 17.0156 98.4943 17.505 99.281 17.8004C100.08 18.0923 100.995 18.0968 102.023 17.8137Z" fill="white"/>
<path d="M110.19 17.4775L113.692 9.78585L108.158 3.47726L110.708 3.08129L114.759 7.91935L117.153 2.0806L119.643 1.69384L116.293 9.32135L121.971 15.648L119.441 16.0409L115.229 11.2076L112.621 17.0999L110.19 17.4775Z" fill="white"/>
<path d="M123.091 15.4988L122.436 1.36782L124.554 1.26964L125.051 11.9828L131.848 0.931568L133.886 0.837092L134.541 14.9681L132.443 15.0654L131.951 4.45211L125.109 15.4053L123.091 15.4988Z" fill="white"/>
<path d="M137.942 14.8798L139.141 0.784546L142.13 1.0389L145.624 8.82632L150.342 1.73753L153.253 1.9851L152.054 16.0804L149.941 15.9006L150.933 4.23764L145.773 12.0319L144.856 11.9539L141.047 3.39657L140.055 15.0596L137.942 14.8798Z" fill="white"/>
<path d="M159.674 17.428L163.269 3.7466L165.32 4.28579L162.594 14.6581L172.381 6.14246L174.355 6.66131L170.759 20.3427L168.728 19.8086L171.428 9.53304L161.628 17.9418L159.674 17.428Z" fill="white"/>
<path d="M173.641 21.2255L178.857 8.07644L180.828 8.85862L178.533 14.6427L185.115 17.2549L187.41 11.4708L189.381 12.253L184.165 25.402L182.194 24.6199L184.4 19.0589L177.818 16.4468L175.612 22.0077L173.641 21.2255Z" fill="white"/>
<path d="M186.089 26.0393L192.981 21.6482L193.011 13.7035L195.07 14.8592L194.886 21.8917L196.647 22.8808L199.693 17.4545L201.542 18.4926L198.497 23.919L200.293 24.9277L206.217 21.1173L208.24 22.2533L201.458 26.4079L201.335 34.5989L199.172 33.3845L199.371 26.6125L197.557 25.594L194.619 30.8284L192.77 29.7903L195.707 24.5559L193.911 23.5471L188.217 27.2342L186.089 26.0393Z" fill="white"/>
<path d="M201.81 35.0847L210.254 23.7368L211.955 25.0032L205.553 33.6064L217.812 29.3637L219.449 30.5823L211.005 41.9302L209.32 40.6758L215.662 32.1528L203.43 36.2913L201.81 35.0847Z" fill="white"/>
<path d="M213.52 43.981L223.263 33.727L224.8 35.1881L220.514 39.6987L225.647 44.5782L229.933 40.0676L231.47 41.5287L221.727 51.7827L220.19 50.3216L224.311 45.985L219.178 41.1055L215.057 45.4421L213.52 43.981Z" fill="white"/>
<path d="M224.041 54.1985L234.941 45.1845L236.292 46.819L228.028 53.6529L240.944 52.4475L242.245 54.0204L231.345 63.0345L230.006 61.4154L238.193 54.6452L225.328 55.756L224.041 54.1985Z" fill="white"/>
<path d="M233.095 65.4759L244.915 57.7077L247.716 61.9718C248.295 62.8525 248.654 63.7022 248.792 64.5207C248.938 65.3504 248.83 66.1322 248.466 66.866C248.113 67.5925 247.475 68.2597 246.55 68.8677C245.658 69.4537 244.779 69.7438 243.914 69.738C243.056 69.7434 242.247 69.5086 241.488 69.0337C240.741 68.5514 240.081 67.8755 239.51 67.006L238.038 64.7653L234.26 67.2485L233.095 65.4759ZM239.643 63.7105L241.071 65.8843C241.628 66.7316 242.269 67.2834 242.996 67.5398C243.734 67.7889 244.544 67.6242 245.424 67.0455C246.193 66.5401 246.628 65.951 246.729 65.2783C246.841 64.5983 246.615 63.8291 246.051 62.9707L244.458 60.5461L239.643 63.7105Z" fill="white"/>
<path d="M239.365 75.0777L251.945 68.6142L252.914 70.5008L243.376 75.401L256.25 76.9971L257.182 78.8125L244.602 85.276L243.642 83.4072L253.091 78.5527L240.288 76.8753L239.365 75.0777Z" fill="white"/>
<path d="M246.021 88.4234L259.299 83.5533L260.029 85.5446L254.188 87.6869L256.626 94.337L262.467 92.1947L263.197 94.186L249.919 99.0561L249.189 97.0648L254.804 95.0052L252.366 88.355L246.751 90.4147L246.021 88.4234Z" fill="white"/>
<path d="M250.777 102.074L264.495 98.6335L266.762 107.678L264.88 108.15L263.129 101.163L251.292 104.131L250.777 102.074Z" fill="white"/>
</svg>
