<svg width="203" height="203" viewBox="0 0 203 203" fill="none" xmlns="http://www.w3.org/2000/svg">
<path d="M191.681 102.078L202.293 102.529L201.996 109.525L200.54 109.463L200.769 104.058L191.613 103.669L191.681 102.078Z" fill="white"/>
<path d="M191.438 109.142L201.382 114.623L201.089 116.66L190.008 119.108L190.251 117.412L192.474 116.942L193.195 111.914L191.194 110.838L191.438 109.142ZM194.533 112.638L193.961 116.624L199.735 115.419L194.533 112.638Z" fill="white"/>
<path d="M188.716 123.632C188.847 123.117 189.028 122.631 189.258 122.173C189.496 121.727 189.779 121.344 190.109 121.025C190.438 120.706 190.817 120.477 191.245 120.338C191.683 120.201 192.171 120.191 192.71 120.308L192.324 121.822C192.035 121.78 191.774 121.811 191.54 121.917C191.307 122.023 191.096 122.181 190.908 122.392C190.73 122.605 190.574 122.849 190.442 123.126C190.309 123.402 190.205 123.691 190.128 123.992C190.069 124.225 190.024 124.482 189.994 124.764C189.961 125.055 189.972 125.337 190.026 125.61C190.081 125.882 190.2 126.124 190.384 126.336C190.567 126.549 190.839 126.701 191.198 126.792C191.538 126.879 191.824 126.89 192.058 126.825C192.301 126.763 192.503 126.639 192.664 126.452C192.835 126.268 192.977 126.036 193.09 125.754C193.201 125.483 193.299 125.177 193.386 124.837L193.723 123.512L195.062 123.854L194.844 124.713C194.762 125.033 194.713 125.346 194.697 125.652C194.679 125.968 194.7 126.252 194.759 126.505C194.828 126.761 194.948 126.983 195.117 127.17C195.286 127.358 195.511 127.488 195.793 127.56C196.22 127.669 196.567 127.643 196.835 127.484C197.103 127.325 197.322 127.096 197.491 126.798C197.66 126.5 197.785 126.191 197.866 125.871C197.963 125.492 198.001 125.119 197.981 124.752C197.958 124.395 197.862 124.081 197.693 123.811C197.532 123.552 197.286 123.381 196.956 123.297L197.346 121.768C197.809 121.896 198.183 122.09 198.469 122.349C198.754 122.608 198.968 122.905 199.11 123.241C199.259 123.589 199.353 123.949 199.393 124.321C199.432 124.693 199.433 125.055 199.395 125.407C199.357 125.759 199.302 126.076 199.231 126.358C199.119 126.795 198.963 127.205 198.762 127.588C198.571 127.973 198.327 128.304 198.029 128.579C197.729 128.865 197.38 129.06 196.981 129.165C196.582 129.27 196.135 129.26 195.64 129.133C195.397 129.072 195.149 128.972 194.894 128.835C194.65 128.7 194.427 128.499 194.227 128.231C194.033 127.975 193.881 127.62 193.769 127.168C193.482 127.726 193.066 128.1 192.521 128.292C191.974 128.494 191.394 128.517 190.783 128.361C190.232 128.21 189.791 127.974 189.46 127.652C189.128 127.329 188.888 126.953 188.74 126.522C188.591 126.092 188.518 125.628 188.52 125.133C188.52 124.647 188.585 124.146 188.716 123.632Z" fill="white"/>
<path d="M185.733 133.099C186.12 132.078 186.665 131.293 187.365 130.745C188.072 130.21 188.879 129.905 189.785 129.831C190.691 129.757 191.632 129.905 192.605 130.275C193.589 130.648 194.395 131.163 195.024 131.82C195.653 132.477 196.048 133.243 196.209 134.118C196.379 134.997 196.27 135.947 195.883 136.968C195.492 137.998 194.948 138.783 194.251 139.322C193.553 139.861 192.752 140.167 191.845 140.241C190.939 140.315 189.994 140.165 189.011 139.792C188.037 139.422 187.235 138.909 186.606 138.252C185.977 137.595 185.577 136.827 185.407 135.949C185.234 135.079 185.342 134.129 185.733 133.099ZM187.09 133.63C186.806 134.379 186.746 135.059 186.912 135.668C187.077 136.277 187.398 136.801 187.874 137.239C188.351 137.677 188.917 138.02 189.572 138.269C190.069 138.457 190.566 138.571 191.066 138.611C191.561 138.66 192.032 138.619 192.478 138.488C192.924 138.357 193.324 138.123 193.677 137.786C194.03 137.448 194.311 137.003 194.521 136.451C194.801 135.711 194.861 135.031 194.699 134.413C194.534 133.804 194.215 133.275 193.742 132.828C193.269 132.381 192.7 132.031 192.035 131.778C191.38 131.529 190.728 131.411 190.081 131.422C189.43 131.443 188.841 131.627 188.314 131.973C187.782 132.328 187.375 132.881 187.09 133.63Z" fill="white"/>
<path d="M183.788 138.417L186.913 143.942L193.188 143.365L192.302 145.089L187.575 145.414L190.065 149.447L189.2 151.131L186.047 145.727L179.697 146.384L180.575 144.673L185.371 144.248L182.944 140.061L183.788 138.417Z" fill="white"/>
<path d="M179.102 147.402L187.957 153.269L187.078 154.597L180.364 150.149L184.05 159.17L183.203 160.448L174.348 154.581L175.219 153.266L181.87 157.672L178.264 148.668L179.102 147.402Z" fill="white"/>
<path d="M173.117 156.318L181.153 163.265L179.679 164.971L173.406 163.659L175.632 169.655L174.198 171.315L166.162 164.368L167.203 163.163L173.852 168.911L171.393 162.336L171.844 161.813L178.725 163.272L172.075 157.524L173.117 156.318Z" fill="white"/>
<path d="M161.921 168.383L168.659 176.596L167.428 177.606L162.32 171.38L163.19 181.086L162.005 182.058L155.267 173.846L156.486 172.845L161.547 179.013L160.748 169.346L161.921 168.383Z" fill="white"/>
<path d="M153.507 175.121L159.242 184.063L157.901 184.923L155.379 180.99L150.902 183.862L153.425 187.795L152.084 188.655L146.35 179.713L147.69 178.853L150.115 182.635L154.592 179.763L152.167 175.981L153.507 175.121Z" fill="white"/>
<path d="M145.375 180.416L145.039 186.545L149.874 190.04L148.268 190.791L144.057 187.602L142.683 188.245L144.662 192.478L143.219 193.153L141.24 188.919L139.838 189.575L139.572 194.859L137.993 195.597L138.425 189.639L133.48 185.979L135.168 185.19L139.214 188.274L140.629 187.612L138.72 183.529L140.163 182.854L142.072 186.938L143.473 186.282L143.714 181.193L145.375 180.416Z" fill="white"/>
<path d="M132.531 186.177L135.734 196.307L134.216 196.787L131.788 189.107L128.987 198.441L127.526 198.903L124.324 188.773L125.828 188.297L128.233 195.905L131.085 186.635L132.531 186.177Z" fill="white"/>
<path d="M122.204 189.297L124.154 199.74L122.588 200.033L121.73 195.439L116.503 196.416L117.36 201.01L115.795 201.302L113.845 190.859L115.41 190.566L116.235 194.983L121.463 194.006L120.638 189.589L122.204 189.297Z" fill="white"/>
<path d="M111.571 191.149L112.267 201.751L110.678 201.855L110.15 193.818L105.206 202.215L103.677 202.315L102.981 191.714L104.555 191.61L105.078 199.573L110.057 191.249L111.571 191.149Z" fill="white"/>
<path d="M100.385 191.686L99.8932 202.299L96.0664 202.122C95.276 202.085 94.6014 201.928 94.0427 201.652C93.474 201.375 93.0469 200.964 92.7613 200.419C92.4753 199.884 92.3515 199.202 92.39 198.371C92.4271 197.57 92.6382 196.908 93.0234 196.385C93.3986 195.86 93.8979 195.472 94.5212 195.22C95.144 194.979 95.8456 194.876 96.626 194.912L98.637 195.005L98.7942 191.613L100.385 191.686ZM98.5702 196.446L96.6192 196.356C95.8589 196.32 95.2405 196.467 94.764 196.796C94.2871 197.135 94.0303 197.7 93.9937 198.49C93.9617 199.181 94.1279 199.705 94.4923 200.063C94.8563 200.431 95.4235 200.633 96.1938 200.668L98.3699 200.769L98.5702 196.446Z" fill="white"/>
<path d="M91.3756 191.189L89.7461 201.687L88.1725 201.443L89.4078 193.484L82.7538 200.601L81.2395 200.366L82.869 189.868L84.4278 190.11L83.204 197.995L89.8762 190.956L91.3756 191.189Z" fill="white"/>
<path d="M80.7498 189.398L77.8552 199.62L76.323 199.185L77.5963 194.689L72.4792 193.239L71.206 197.736L69.6737 197.302L72.5683 187.08L74.1006 187.514L72.8764 191.837L77.9934 193.286L79.2176 188.963L80.7498 189.398Z" fill="white"/>
<path d="M70.3662 186.259L66.4121 196.12L59.9143 193.513L60.4568 192.16L65.4765 194.174L68.8881 185.666L70.3662 186.259Z" fill="white"/>
<path d="M59.3353 181.384L54.1023 190.63L48.0099 187.18L48.7279 185.911L53.4344 188.576L57.9495 180.6L59.3353 181.384Z" fill="white"/>
<path d="M53.2318 177.973L43.8318 184.342L42.1498 183.156L45.0061 172.17L46.4057 173.157L45.8145 175.351L49.9642 178.279L51.8322 176.985L53.2318 177.973ZM48.7119 179.142L45.4216 176.821L43.8715 182.513L48.7119 179.142Z" fill="white"/>
<path d="M41.6558 169.017C42.0549 169.368 42.4064 169.749 42.7103 170.162C43 170.576 43.2124 171.003 43.3476 171.441C43.4828 171.879 43.5152 172.321 43.445 172.766C43.3682 173.218 43.1557 173.658 42.8075 174.085L41.6328 173.055C41.8018 172.817 41.892 172.569 41.9036 172.313C41.9152 172.057 41.8698 171.797 41.7674 171.534C41.6584 171.278 41.5108 171.029 41.3245 170.786C41.1382 170.542 40.9284 170.318 40.695 170.113C40.5142 169.955 40.3052 169.798 40.068 169.643C39.8232 169.482 39.5671 169.364 39.2996 169.289C39.0321 169.214 38.7621 169.211 38.4898 169.278C38.2174 169.346 37.959 169.519 37.7147 169.798C37.4835 170.061 37.3438 170.312 37.2955 170.549C37.2405 170.794 37.2596 171.031 37.3526 171.259C37.439 171.494 37.582 171.726 37.7814 171.955C37.9734 172.176 38.2011 172.403 38.4647 172.634L39.4925 173.536L38.5812 174.575L37.9148 173.991C37.6663 173.773 37.4093 173.587 37.1438 173.434C36.8707 173.275 36.608 173.164 36.3555 173.102C36.0965 173.048 35.8449 173.054 35.6008 173.12C35.3567 173.186 35.1389 173.328 34.9474 173.546C34.6568 173.877 34.5217 174.199 34.5421 174.51C34.5624 174.821 34.6671 175.119 34.8562 175.405C35.0452 175.691 35.264 175.943 35.5125 176.161C35.8062 176.418 36.1211 176.621 36.4573 176.769C36.786 176.911 37.1091 176.968 37.4266 176.94C37.73 176.913 37.994 176.772 38.2186 176.516L39.4045 177.556C39.08 177.911 38.7377 178.157 38.3776 178.294C38.0176 178.431 37.6557 178.487 37.292 178.461C36.9142 178.436 36.5506 178.357 36.2012 178.224C35.8518 178.09 35.5289 177.927 35.2323 177.734C34.9357 177.54 34.6782 177.347 34.4599 177.156C34.121 176.859 33.8265 176.534 33.5763 176.181C33.3194 175.836 33.1357 175.468 33.0249 175.078C32.9067 174.681 32.8911 174.281 32.9783 173.877C33.0654 173.474 33.2774 173.08 33.6142 172.696C33.7793 172.508 33.9807 172.332 34.2183 172.167C34.4493 172.01 34.7297 171.903 35.0596 171.846C35.3753 171.789 35.7601 171.814 36.2141 171.919C35.8473 171.411 35.7018 170.87 35.7779 170.297C35.8464 169.718 36.0887 169.191 36.5047 168.716C36.8887 168.293 37.2993 168.007 37.7367 167.858C38.174 167.709 38.6183 167.665 39.0696 167.728C39.5208 167.791 39.9668 167.936 40.4075 168.162C40.8406 168.382 41.2568 168.667 41.6558 169.017Z" fill="white"/>
<path d="M34.5719 162.056C35.3066 162.864 35.7596 163.704 35.931 164.578C36.0883 165.45 35.9946 166.307 35.65 167.149C35.3053 167.991 34.7477 168.763 33.9772 169.464C33.1993 170.171 32.3752 170.657 31.5048 170.921C30.6344 171.185 29.7727 171.19 28.9197 170.937C28.0593 170.691 27.2617 170.164 26.5271 169.356C25.7857 168.541 25.3327 167.7 25.168 166.834C25.0033 165.969 25.0933 165.115 25.438 164.273C25.7826 163.431 26.3439 162.656 27.1218 161.949C27.8923 161.247 28.7128 160.765 29.5831 160.501C30.4535 160.237 31.3189 160.229 32.1793 160.475C33.033 160.714 33.8306 161.241 34.5719 162.056ZM33.4839 163.026C32.9447 162.433 32.3662 162.072 31.7483 161.944C31.1304 161.815 30.5184 161.864 29.9121 162.091C29.3058 162.318 28.7434 162.667 28.2248 163.139C27.8321 163.496 27.5052 163.888 27.2439 164.316C26.9759 164.736 26.7992 165.174 26.7138 165.631C26.6284 166.088 26.6562 166.55 26.7971 167.018C26.9381 167.486 27.2074 167.938 27.6051 168.375C28.1375 168.961 28.716 169.321 29.3406 169.457C29.9585 169.586 30.5739 169.54 31.1869 169.321C31.7999 169.102 32.3695 168.753 32.8955 168.274C33.4141 167.802 33.8148 167.275 34.0975 166.693C34.3736 166.103 34.4768 165.495 34.4072 164.867C34.3308 164.233 34.0231 163.619 33.4839 163.026Z" fill="white"/>
<path d="M30.7425 157.938L24.4035 158.239L22.0911 164.102L20.9511 162.535L22.7908 158.167L18.07 158.573L16.9565 157.042L23.2005 156.662L25.4753 150.695L26.6065 152.251L24.8253 156.724L29.6555 156.443L30.7425 157.938Z" fill="white"/>
<path d="M24.8683 149.736L15.6445 155.004L14.8548 153.621L21.8477 149.627L12.1356 148.858L11.3757 147.527L20.5995 142.259L21.3817 143.629L14.4541 147.586L24.1158 148.418L24.8683 149.736Z" fill="white"/>
<path d="M19.607 140.369L9.77861 144.398L8.92406 142.312L12.93 137.309L6.57691 136.584L5.74516 134.554L15.5735 130.525L16.1774 131.999L8.04502 135.332L15.0208 136.111L15.2828 136.75L10.8707 142.229L19.0031 138.895L19.607 140.369Z" fill="white"/>
<path d="M13.9215 124.943L3.54487 127.211L3.20481 125.655L11.0717 123.935L2.03385 120.297L1.70662 118.799L12.0833 116.531L12.4201 118.072L4.62663 119.776L13.5975 123.46L13.9215 124.943Z" fill="white"/>
<path d="M11.7449 114.454L1.17261 115.477L1.01934 113.891L5.66997 113.441L5.15808 108.146L0.50745 108.596L0.354174 107.011L10.9265 105.988L11.0798 107.574L6.6086 108.006L7.12049 113.301L11.5917 112.869L11.7449 114.454Z" fill="white"/>
<path d="M10.7075 104.334L5.41491 101.228L0.09375 103.924L0.16215 102.153L4.92606 99.8703L4.9846 98.3538L0.315761 98.1734L0.377205 96.5818L5.04605 96.7621L5.10575 95.2155L0.532555 92.5575L0.599796 90.8157L5.69663 93.9299L11.2141 91.2106L11.1422 93.0726L6.54752 95.2561L6.48724 96.8177L10.9909 96.9917L10.9295 98.5834L6.42579 98.4094L6.36609 99.956L10.7782 102.502L10.7075 104.334Z" fill="white"/>
<path d="M11.4412 90.2843L0.971505 88.4938L1.2399 86.9237L9.17733 88.2812L2.16409 81.5173L2.42235 80.0065L12.8921 81.797L12.6262 83.3523L4.76281 82.0075L11.6969 88.7883L11.4412 90.2843Z" fill="white"/>
<path d="M13.3074 79.9104L3.12135 76.8993L3.57271 75.3717L8.05344 76.6963L9.56081 71.5949L5.08009 70.2703L5.53145 68.7428L15.7175 71.754L15.2662 73.2815L10.9583 72.008L9.45096 77.1094L13.7588 78.3829L13.3074 79.9104Z" fill="white"/>
<path d="M16.4547 69.6186L6.70324 65.4071L7.33453 63.9447L14.7274 67.1376L9.50832 58.9093L10.1158 57.5021L19.8672 61.7136L19.2419 63.1622L11.918 59.9991L17.0562 68.2253L16.4547 69.6186Z" fill="white"/>
<path d="M20.9372 59.627L11.7135 54.3587L13.6132 51.0312C14.0055 50.3439 14.452 49.8144 14.9525 49.4427C15.458 49.0624 16.0182 48.869 16.6332 48.8626C17.2394 48.8512 17.9035 49.0517 18.6254 49.464C19.3212 49.8614 19.8145 50.3509 20.1054 50.9323C20.4012 51.5051 20.5194 52.1263 20.46 52.7961C20.3919 53.4609 20.1641 54.1326 19.7767 54.8111L18.7784 56.5597L21.7269 58.2438L20.9372 59.627ZM17.526 55.8444L18.4945 54.148C18.8719 53.4868 19.0227 52.8692 18.9467 52.2951C18.8621 51.7161 18.4762 51.2304 17.7891 50.8379C17.189 50.4952 16.6467 50.4046 16.1622 50.5663C15.6691 50.723 15.2313 51.1363 14.8489 51.8062L13.7686 53.6983L17.526 55.8444Z" fill="white"/>
<path d="M25.4733 51.7845L16.8838 45.5349L17.8205 44.2468L24.3325 48.9848L21.0463 39.8113L21.9477 38.5718L30.5372 44.8214L29.6093 46.0974L23.158 41.4036L26.3659 50.5572L25.4733 51.7845Z" fill="white"/>
<path d="M31.672 43.3839L23.8672 36.1777L24.9474 35.0073L28.3806 38.1772L31.9879 34.2684L28.5547 31.0985L29.6349 29.9281L37.4397 37.1343L36.3595 38.3047L33.0588 35.2571L29.4514 39.1659L32.7521 42.2135L31.672 43.3839Z" fill="white"/>
<path d="M39.2515 35.4089L32.2479 27.4215L37.5114 22.8043L38.4723 23.9001L34.4061 27.4671L40.4488 34.3586L39.2515 35.4089Z" fill="white"/>
<path d="M48.8164 27.5545L42.9512 18.6971L48.788 14.8303L49.5927 16.0455L45.0836 19.0328L50.1441 26.675L48.8164 27.5545Z" fill="white"/>
<path d="M54.487 23.7047L53.0768 12.4362L54.8971 11.4753L63.389 19.0053L61.8743 19.8049L60.1877 18.2825L55.6968 20.6532L56.0017 22.9051L54.487 23.7047ZM55.4957 19.1452L59.0565 17.2655L54.6885 13.3015L55.4957 19.1452Z" fill="white"/>
<path d="M67.4646 17.5114C66.972 17.7091 66.4727 17.85 65.9669 17.9342C65.4667 18.0054 64.9906 18.0021 64.5385 17.9244C64.0865 17.8467 63.6781 17.6759 63.3133 17.4121C62.9448 17.139 62.6487 16.7505 62.4251 16.2466L63.8752 15.6648C64.0112 15.9232 64.1909 16.1156 64.4142 16.2419C64.6375 16.3682 64.8896 16.4451 65.1704 16.4728C65.4476 16.4911 65.7368 16.4722 66.038 16.4161C66.3393 16.3601 66.634 16.2742 66.9221 16.1586C67.1452 16.0691 67.3795 15.9535 67.6248 15.8119C67.8795 15.6666 68.1007 15.4915 68.2883 15.2867C68.476 15.0819 68.6013 14.8427 68.6643 14.5692C68.7272 14.2957 68.6898 13.9869 68.5518 13.6429C68.4213 13.3174 68.2611 13.0795 68.0713 12.929C67.8777 12.7692 67.6581 12.6791 67.4126 12.6589C67.1634 12.6294 66.8919 12.652 66.5981 12.7267C66.3136 12.7976 66.0087 12.8984 65.6833 13.0289L64.4144 13.538L63.8999 12.2548L64.7226 11.9248C65.0293 11.8017 65.311 11.6563 65.5675 11.4887C65.8333 11.3173 66.0507 11.1329 66.2197 10.9356C66.3851 10.7289 66.4937 10.5018 66.5455 10.2544C66.5974 10.0069 66.5692 9.74836 66.4611 9.47872C66.297 9.06961 66.0717 8.8038 65.7852 8.68129C65.4987 8.55878 65.1852 8.51722 64.8449 8.55661C64.5046 8.596 64.1811 8.67723 63.8743 8.8003C63.5118 8.94574 63.1883 9.13487 62.904 9.36767C62.6289 9.59675 62.432 9.85924 62.3133 10.1551C62.2001 10.438 62.2069 10.7375 62.3337 11.0536L60.8696 11.641C60.6999 11.191 60.6353 10.7743 60.6759 10.3911C60.7164 10.0078 60.8305 9.65984 61.0181 9.34713C61.2112 9.0214 61.4462 8.73283 61.7231 8.48143C61.9999 8.23003 62.2917 8.01582 62.5984 7.8388C62.9052 7.66178 63.1933 7.5192 63.4629 7.41105C63.8812 7.24322 64.3042 7.12748 64.7319 7.06383C65.1559 6.99088 65.5669 6.99328 65.965 7.07103C66.3724 7.14506 66.7362 7.31214 67.0563 7.57228C67.3764 7.83242 67.6316 8.19959 67.8217 8.67378C67.915 8.90623 67.9812 9.16568 68.0206 9.45213C68.0562 9.72928 68.0248 10.0279 67.9266 10.3479C67.8339 10.655 67.638 10.9872 67.3389 11.3447C67.9581 11.2474 68.5059 11.3622 68.9824 11.6891C69.4681 12.0124 69.8284 12.4669 70.0633 13.0527C70.2665 13.5864 70.3358 14.0821 70.2712 14.5398C70.2065 14.9975 70.0442 15.4134 69.7841 15.7875C69.5241 16.1617 69.1934 16.4941 68.7919 16.7847C68.3997 17.0715 67.9573 17.3138 67.4646 17.5114Z" fill="white"/>
<path d="M76.8291 14.3144C75.7765 14.604 74.8222 14.6276 73.966 14.3852C73.1169 14.1305 72.3951 13.6589 71.8007 12.9705C71.2062 12.2821 70.7709 11.4356 70.4946 10.431C70.2157 9.41679 70.1557 8.46184 70.3145 7.56616C70.4733 6.67049 70.8585 5.89952 71.4703 5.25327C72.0794 4.59736 72.9102 4.1246 73.9628 3.83499C75.0251 3.54272 75.9795 3.51912 76.8259 3.76417C77.6724 4.00922 78.3929 4.47597 78.9873 5.1644C79.5817 5.85284 80.0184 6.70416 80.2973 7.71838C80.5736 8.72294 80.6323 9.67306 80.4735 10.5687C80.3147 11.4644 79.9308 12.2402 79.3217 12.8961C78.7223 13.5494 77.8914 14.0221 76.8291 14.3144ZM76.4571 12.905C77.2297 12.6924 77.8131 12.3397 78.2073 11.8468C78.6015 11.3539 78.8348 10.7858 78.9072 10.1425C78.9796 9.49918 78.9228 8.83944 78.7369 8.1633C78.5961 7.65136 78.3944 7.18217 78.1317 6.75572C77.8786 6.32662 77.5677 5.97057 77.1991 5.68757C76.8304 5.40458 76.4057 5.22011 75.925 5.13417C75.4443 5.04823 74.9191 5.08365 74.3493 5.24041C73.5864 5.45031 73.003 5.80303 72.5991 6.29858C72.2049 6.79148 71.9668 7.36092 71.8847 8.00689C71.8027 8.65287 71.856 9.31876 72.0446 10.0046C72.2305 10.6807 72.5191 11.2767 72.9102 11.7925C73.311 12.3056 73.8068 12.6731 74.3976 12.895C74.9981 13.1142 75.6846 13.1176 76.4571 12.905Z" fill="white"/>
<path d="M82.5903 12.6525L85.2209 6.87589L81.0647 2.13801L82.9798 1.84062L86.022 5.47411L87.8195 1.08909L89.6901 0.798618L87.1736 6.52704L91.4384 11.2785L89.5381 11.5736L86.3749 7.94367L84.4163 12.3689L82.5903 12.6525Z" fill="white"/>
<path d="M92.2793 11.1665L91.7876 0.553776L93.3784 0.48004L93.7512 8.52586L98.8561 0.226139L100.387 0.155186L100.879 10.7679L99.3028 10.8409L98.9335 2.87014L93.7951 11.0962L92.2793 11.1665Z" fill="white"/>
<path d="M103.433 10.7016L104.333 0.115723L106.578 0.306748L109.202 6.15526L112.746 0.83143L114.931 1.01736L114.031 11.6032L112.444 11.4682L113.189 2.70907L109.314 8.5627L108.626 8.50412L105.764 2.07741L105.02 10.8366L103.433 10.7016Z" fill="white"/>
<path d="M119.754 12.6153L122.454 2.34028L123.994 2.74523L121.947 10.5351L129.298 4.13963L130.78 4.52929L128.079 14.8043L126.554 14.4032L128.582 6.68602L121.221 13.0011L119.754 12.6153Z" fill="white"/>
<path d="M130.243 15.4673L134.161 5.59208L135.641 6.17952L133.918 10.5235L138.861 12.4853L140.584 8.14132L142.064 8.72876L138.147 18.604L136.667 18.0165L138.324 13.8402L133.38 11.8784L131.724 16.0547L130.243 15.4673Z" fill="white"/>
<path d="M139.592 19.0826L144.768 15.7847L144.791 9.81816L146.337 10.6861L146.199 15.9676L147.522 16.7105L149.809 12.6352L151.197 13.4148L148.911 17.4901L150.26 18.2477L154.709 15.386L156.228 16.2392L151.135 19.3594L151.042 25.511L149.418 24.599L149.567 19.5131L148.205 18.7481L145.999 22.6793L144.61 21.8996L146.816 17.9685L145.467 17.2109L141.191 19.9799L139.592 19.0826Z" fill="white"/>
<path d="M151.399 25.8759L157.741 17.3534L159.018 18.3044L154.21 24.7656L163.417 21.5793L164.646 22.4944L158.304 31.0169L157.039 30.0748L161.802 23.6739L152.616 26.7821L151.399 25.8759Z" fill="white"/>
<path d="M160.194 32.5571L167.511 24.8562L168.665 25.9535L165.446 29.341L169.301 33.0057L172.52 29.6181L173.675 30.7154L166.357 38.4164L165.203 37.3191L168.298 34.0622L164.442 30.3976L161.348 33.6545L160.194 32.5571Z" fill="white"/>
<path d="M168.095 40.2307L176.281 33.461L177.296 34.6886L171.089 39.8209L180.79 38.9157L181.766 40.097L173.58 46.8667L172.575 45.6507L178.723 40.5662L169.062 41.4004L168.095 40.2307Z" fill="white"/>
<path d="M174.895 48.7003L183.772 42.8662L185.876 46.0686C186.31 46.73 186.579 47.3681 186.684 47.9829C186.793 48.606 186.712 49.1931 186.439 49.7442C186.174 50.2898 185.694 50.791 184.999 51.2476C184.33 51.6877 183.67 51.9055 183.02 51.9012C182.375 51.9052 181.768 51.7289 181.198 51.3722C180.637 51.0101 180.142 50.5024 179.713 49.8494L178.607 48.1666L175.77 50.0315L174.895 48.7003ZM179.812 47.3744L180.885 49.007C181.303 49.6433 181.785 50.0577 182.331 50.2503C182.885 50.4374 183.493 50.3136 184.154 49.879C184.732 49.4995 185.058 49.0571 185.134 48.5519C185.218 48.0412 185.048 47.4635 184.625 46.8188L183.428 44.9978L179.812 47.3744Z" fill="white"/>
<path d="M179.603 55.9114L189.051 51.0572L189.779 52.474L182.616 56.1542L192.285 57.3529L192.985 58.7163L183.537 63.5705L182.816 62.167L189.912 58.5212L180.297 57.2614L179.603 55.9114Z" fill="white"/>
<path d="M184.602 65.9343L194.575 62.2768L195.123 63.7723L190.736 65.3812L192.567 70.3755L196.954 68.7666L197.502 70.2621L187.53 73.9196L186.981 72.4242L191.199 70.8773L189.368 65.883L185.15 67.4298L184.602 65.9343Z" fill="white"/>
<path d="M188.174 76.186L198.477 73.6023L200.179 80.3946L198.766 80.7491L197.451 75.5018L188.561 77.731L188.174 76.186Z" fill="white"/>
</svg>
