<svg width="270" height="270" viewBox="0 0 270 270" fill="none" xmlns="http://www.w3.org/2000/svg">
<path d="M255.446 136.331L269.576 136.931L269.181 146.247L267.242 146.164L267.548 138.968L255.356 138.45L255.446 136.331Z" fill="white"/>
<path d="M255.122 145.737L268.363 153.034L267.974 155.748L253.219 159.007L253.542 156.749L256.502 156.123L257.462 149.428L254.798 147.995L255.122 145.737ZM259.244 150.392L258.483 155.7L266.17 154.094L259.244 150.392Z" fill="white"/>
<path d="M251.498 165.031C251.673 164.345 251.913 163.698 252.22 163.088C252.537 162.494 252.914 161.984 253.353 161.559C253.791 161.134 254.296 160.829 254.866 160.644C255.449 160.462 256.099 160.449 256.816 160.604L256.303 162.621C255.918 162.564 255.57 162.606 255.259 162.747C254.948 162.888 254.667 163.099 254.417 163.379C254.179 163.663 253.973 163.989 253.796 164.357C253.62 164.725 253.481 165.109 253.379 165.51C253.3 165.82 253.24 166.163 253.199 166.538C253.156 166.926 253.17 167.301 253.243 167.664C253.316 168.026 253.474 168.349 253.719 168.632C253.963 168.914 254.325 169.116 254.803 169.238C255.255 169.354 255.637 169.368 255.948 169.282C256.272 169.2 256.541 169.034 256.755 168.786C256.983 168.541 257.172 168.231 257.322 167.857C257.47 167.495 257.601 167.088 257.716 166.636L258.165 164.871L259.949 165.326L259.657 166.47C259.549 166.896 259.484 167.313 259.463 167.721C259.438 168.141 259.466 168.52 259.545 168.857C259.637 169.197 259.796 169.492 260.021 169.742C260.247 169.992 260.547 170.165 260.921 170.26C261.49 170.405 261.953 170.372 262.309 170.16C262.666 169.948 262.957 169.644 263.182 169.247C263.407 168.85 263.574 168.438 263.682 168.011C263.811 167.507 263.862 167.011 263.835 166.522C263.804 166.047 263.677 165.629 263.452 165.268C263.237 164.925 262.91 164.697 262.47 164.585L262.989 162.549C263.606 162.72 264.104 162.978 264.484 163.322C264.865 163.667 265.149 164.063 265.338 164.51C265.536 164.974 265.662 165.453 265.715 165.948C265.768 166.444 265.769 166.926 265.718 167.394C265.667 167.863 265.594 168.285 265.499 168.66C265.351 169.242 265.143 169.788 264.875 170.298C264.621 170.811 264.295 171.251 263.899 171.618C263.5 171.998 263.034 172.258 262.503 172.398C261.972 172.538 261.377 172.524 260.718 172.356C260.395 172.274 260.064 172.141 259.725 171.958C259.399 171.779 259.103 171.511 258.836 171.154C258.579 170.813 258.375 170.341 258.226 169.739C257.844 170.481 257.291 170.98 256.565 171.236C255.836 171.504 255.064 171.535 254.25 171.327C253.517 171.127 252.93 170.812 252.488 170.383C252.047 169.954 251.728 169.453 251.53 168.879C251.332 168.306 251.234 167.689 251.237 167.029C251.237 166.382 251.324 165.716 251.498 165.031Z" fill="white"/>
<path d="M247.527 177.636C248.042 176.277 248.767 175.232 249.7 174.502C250.641 173.789 251.715 173.383 252.922 173.285C254.129 173.187 255.381 173.384 256.677 173.876C257.986 174.373 259.06 175.059 259.898 175.933C260.736 176.808 261.262 177.828 261.475 178.993C261.702 180.163 261.557 181.428 261.041 182.788C260.521 184.159 259.796 185.204 258.868 185.922C257.94 186.639 256.872 187.047 255.665 187.146C254.458 187.244 253.2 187.045 251.891 186.548C250.594 186.055 249.527 185.372 248.689 184.498C247.851 183.623 247.319 182.601 247.092 181.43C246.861 180.273 247.006 179.008 247.527 177.636ZM249.334 178.343C248.955 179.341 248.876 180.245 249.096 181.057C249.316 181.868 249.743 182.565 250.378 183.148C251.012 183.732 251.766 184.189 252.639 184.52C253.299 184.771 253.962 184.923 254.627 184.975C255.287 185.04 255.914 184.986 256.508 184.812C257.101 184.638 257.633 184.326 258.103 183.877C258.573 183.427 258.948 182.835 259.227 182.099C259.601 181.114 259.68 180.209 259.465 179.386C259.245 178.574 258.82 177.871 258.19 177.275C257.561 176.68 256.803 176.214 255.918 175.878C255.045 175.546 254.178 175.388 253.316 175.404C252.45 175.431 251.665 175.676 250.962 176.137C250.255 176.61 249.712 177.346 249.334 178.343Z" fill="white"/>
<path d="M244.936 184.718L249.097 192.074L257.453 191.306L256.274 193.602L249.98 194.034L253.294 199.404L252.142 201.646L247.944 194.451L239.489 195.325L240.659 193.047L247.044 192.481L243.812 186.907L244.936 184.718Z" fill="white"/>
<path d="M238.696 196.681L250.488 204.493L249.317 206.261L240.377 200.339L245.285 212.35L244.158 214.051L232.367 206.24L233.527 204.488L242.383 210.355L237.581 198.366L238.696 196.681Z" fill="white"/>
<path d="M230.728 208.553L241.428 217.803L239.466 220.074L231.113 218.328L234.077 226.311L232.167 228.521L221.467 219.271L222.853 217.667L231.707 225.32L228.432 216.565L229.034 215.869L238.195 217.812L229.341 210.158L230.728 208.553Z" fill="white"/>
<path d="M215.82 224.618L224.792 235.553L223.153 236.899L216.351 228.608L217.509 241.532L215.932 242.826L206.96 231.891L208.583 230.559L215.322 238.771L214.258 225.9L215.82 224.618Z" fill="white"/>
<path d="M204.617 233.589L212.253 245.496L210.468 246.641L207.109 241.404L201.148 245.228L204.507 250.466L202.723 251.611L195.087 239.704L196.872 238.558L200.101 243.594L206.062 239.77L202.832 234.734L204.617 233.589Z" fill="white"/>
<path d="M193.789 240.64L193.342 248.801L199.779 253.454L197.641 254.454L192.034 250.208L190.204 251.064L192.839 256.7L190.918 257.599L188.283 251.962L186.417 252.835L186.062 259.87L183.96 260.854L184.535 252.92L177.951 248.048L180.198 246.997L185.585 251.103L187.47 250.222L184.928 244.785L186.848 243.886L189.39 249.324L191.257 248.451L191.578 241.674L193.789 240.64Z" fill="white"/>
<path d="M176.687 248.311L180.952 261.798L178.93 262.438L175.697 252.212L171.968 264.64L170.023 265.255L165.758 251.767L167.761 251.134L170.964 261.264L174.761 248.92L176.687 248.311Z" fill="white"/>
<path d="M162.936 252.465L165.532 266.371L163.448 266.76L162.306 260.643L155.345 261.944L156.487 268.06L154.402 268.45L151.806 254.544L153.89 254.155L154.988 260.036L161.949 258.735L160.851 252.854L162.936 252.465Z" fill="white"/>
<path d="M148.778 254.932L149.705 269.047L147.589 269.186L146.886 258.485L140.303 269.665L138.267 269.799L137.34 255.683L139.436 255.545L140.132 266.147L146.762 255.064L148.778 254.932Z" fill="white"/>
<path d="M133.884 255.646L133.229 269.777L128.133 269.541C127.081 269.492 126.183 269.284 125.439 268.916C124.682 268.547 124.113 268 123.733 267.274C123.352 266.562 123.187 265.653 123.238 264.547C123.288 263.481 123.569 262.6 124.082 261.902C124.581 261.204 125.246 260.688 126.076 260.352C126.905 260.03 127.839 259.893 128.878 259.941L131.556 260.065L131.765 255.548L133.884 255.646ZM131.467 261.984L128.87 261.864C127.857 261.817 127.034 262.012 126.399 262.45C125.764 262.902 125.422 263.654 125.374 264.706C125.331 265.626 125.552 266.324 126.037 266.8C126.522 267.29 127.277 267.559 128.303 267.606L131.201 267.741L131.467 261.984Z" fill="white"/>
<path d="M121.888 254.984L119.718 268.963L117.622 268.637L119.267 258.04L110.407 267.517L108.391 267.204L110.561 253.225L112.636 253.548L111.007 264.046L119.891 254.674L121.888 254.984Z" fill="white"/>
<path d="M107.739 252.599L103.885 266.21L101.845 265.632L103.54 259.644L96.7266 257.714L95.0312 263.701L92.991 263.123L96.8452 249.513L98.8854 250.091L97.2554 255.847L104.069 257.777L105.699 252.021L107.739 252.599Z" fill="white"/>
<path d="M93.913 248.42L88.648 261.55L79.9961 258.079L80.7184 256.277L87.4023 258.959L91.945 247.631L93.913 248.42Z" fill="white"/>
<path d="M79.2252 241.929L72.2572 254.239L64.1452 249.646L65.1012 247.957L71.368 251.506L77.3799 240.884L79.2252 241.929Z" fill="white"/>
<path d="M71.0982 237.387L58.5819 245.868L56.3424 244.288L60.1455 229.66L62.0091 230.975L61.2219 233.896L66.7473 237.794L69.2346 236.072L71.0982 237.387ZM65.0798 238.944L60.6988 235.853L58.6348 243.432L65.0798 238.944Z" fill="white"/>
<path d="M55.6846 225.462C56.216 225.929 56.684 226.437 57.0886 226.987C57.4743 227.538 57.7572 228.106 57.9372 228.689C58.1172 229.273 58.1604 229.861 58.0669 230.453C57.9646 231.055 57.6816 231.641 57.218 232.21L55.6539 230.838C55.8789 230.521 55.999 230.192 56.0145 229.85C56.0299 229.509 55.9695 229.163 55.8331 228.813C55.688 228.473 55.4914 228.141 55.2434 227.817C54.9954 227.493 54.7159 227.194 54.4051 226.922C54.1645 226.71 53.8862 226.502 53.5703 226.296C53.2444 226.081 52.9033 225.923 52.5471 225.824C52.191 225.724 51.8315 225.72 51.4689 225.81C51.1062 225.899 50.7622 226.13 50.4368 226.501C50.129 226.852 49.943 227.186 49.8786 227.502C49.8055 227.828 49.8309 228.143 49.9547 228.447C50.0698 228.761 50.2601 229.069 50.5257 229.373C50.7813 229.669 51.0846 229.97 51.4355 230.278L52.8041 231.479L51.5906 232.863L50.7033 232.084C50.3724 231.794 50.0302 231.547 49.6766 231.343C49.3131 231.131 48.9632 230.984 48.6271 230.902C48.2822 230.83 47.9472 230.837 47.6222 230.925C47.2971 231.012 47.0071 231.201 46.7521 231.492C46.3652 231.934 46.1853 232.361 46.2124 232.775C46.2395 233.19 46.379 233.587 46.6307 233.967C46.8824 234.348 47.1737 234.683 47.5046 234.973C47.8956 235.316 48.315 235.587 48.7626 235.784C49.2002 235.973 49.6305 236.049 50.0533 236.012C50.4573 235.976 50.8088 235.787 51.1078 235.446L52.6869 236.832C52.2548 237.304 51.799 237.632 51.3196 237.814C50.8401 237.997 50.3583 238.071 49.8741 238.037C49.371 238.004 48.8869 237.898 48.4216 237.721C47.9564 237.543 47.5263 237.326 47.1315 237.068C46.7366 236.81 46.3937 236.554 46.103 236.299C45.6518 235.903 45.2596 235.47 44.9264 235.001C44.5845 234.541 44.3398 234.051 44.1923 233.532C44.0349 233.003 44.0141 232.47 44.1302 231.934C44.2462 231.397 44.5285 230.872 44.9769 230.361C45.1968 230.11 45.4649 229.875 45.7813 229.656C46.0889 229.447 46.4623 229.304 46.9015 229.228C47.3218 229.153 47.8343 229.186 48.4388 229.326C47.9503 228.649 47.7567 227.929 47.8579 227.166C47.9492 226.395 48.2718 225.693 48.8257 225.061C49.337 224.498 49.8838 224.117 50.4661 223.919C51.0485 223.72 51.6401 223.662 52.2409 223.746C52.8417 223.829 53.4356 224.022 54.0223 224.324C54.5991 224.617 55.1532 224.996 55.6846 225.462Z" fill="white"/>
<path d="M46.2522 216.193C47.2304 217.269 47.8336 218.388 48.0619 219.551C48.2713 220.713 48.1465 221.854 47.6876 222.975C47.2287 224.096 46.4863 225.123 45.4603 226.056C44.4245 226.999 43.3272 227.646 42.1682 227.997C41.0093 228.348 39.862 228.355 38.7261 228.018C37.5804 227.69 36.5185 226.989 35.5403 225.913C34.5532 224.828 33.9499 223.709 33.7306 222.556C33.5114 221.403 33.6312 220.266 34.0901 219.145C34.549 218.024 35.2964 216.992 36.3322 216.05C37.3581 215.116 38.4506 214.474 39.6095 214.123C40.7684 213.771 41.9207 213.76 43.0664 214.088C44.2031 214.406 45.265 215.108 46.2522 216.193ZM44.8034 217.484C44.0855 216.695 43.3152 216.215 42.4925 216.044C41.6698 215.873 40.8548 215.938 40.0475 216.24C39.2403 216.541 38.4914 217.007 37.8008 217.635C37.278 218.111 36.8426 218.633 36.4948 219.202C36.1379 219.761 35.9026 220.345 35.7889 220.953C35.6752 221.562 35.7122 222.177 35.8999 222.8C36.0876 223.423 36.4462 224.025 36.9757 224.607C37.6846 225.387 38.4549 225.867 39.2866 226.048C40.1093 226.219 40.9287 226.159 41.745 225.867C42.5612 225.575 43.3196 225.11 44.02 224.473C44.7105 223.844 45.244 223.143 45.6205 222.367C45.9881 221.582 46.1255 220.772 46.0328 219.936C45.9311 219.091 45.5213 218.274 44.8034 217.484Z" fill="white"/>
<path d="M41.1532 210.71L32.7127 211.111L29.6337 218.918L28.1157 216.831L30.5654 211.015L24.2795 211.556L22.7968 209.517L31.1109 209.01L34.1398 201.066L35.646 203.137L33.2743 209.094L39.7058 208.72L41.1532 210.71Z" fill="white"/>
<path d="M33.3316 199.789L21.05 206.803L19.9985 204.962L29.3096 199.643L16.3778 198.62L15.366 196.847L27.6476 189.832L28.6891 191.657L19.4649 196.925L32.3297 198.034L33.3316 199.789Z" fill="white"/>
<path d="M26.326 187.317L13.2393 192.681L12.1015 189.904L17.4356 183.241L8.97622 182.276L7.86872 179.573L20.9554 174.209L21.7595 176.171L10.931 180.61L20.2194 181.646L20.5683 182.498L14.6935 189.793L25.5219 185.354L26.326 187.317Z" fill="white"/>
<path d="M18.7557 166.776L4.93899 169.797L4.4862 167.725L14.9611 165.434L2.92703 160.59L2.49132 158.596L16.3081 155.575L16.7566 157.628L6.37938 159.896L18.3243 164.802L18.7557 166.776Z" fill="white"/>
<path d="M15.8576 152.81L1.78028 154.171L1.57619 152.06L7.7686 151.461L7.08702 144.411L0.894601 145.01L0.69051 142.899L14.7678 141.538L14.9719 143.649L9.01841 144.224L9.7 151.275L15.6535 150.699L15.8576 152.81Z" fill="white"/>
<path d="M14.4762 139.335L7.429 135.199L0.34375 138.79L0.434826 136.43L6.77807 133.391L6.85603 131.372L0.639362 131.132L0.721177 129.013L6.93784 129.253L7.01734 127.193L0.928028 123.654L1.01756 121.335L7.80411 125.482L15.1508 121.861L15.055 124.34L8.93709 127.247L8.85681 129.327L14.8536 129.558L14.7718 131.678L8.775 131.446L8.6955 133.506L14.5703 136.896L14.4762 139.335Z" fill="white"/>
<path d="M15.4531 120.627L1.5125 118.243L1.86987 116.153L12.4387 117.96L3.10045 108.954L3.44433 106.942L17.385 109.326L17.031 111.397L6.56071 109.607L15.7937 118.635L15.4531 120.627Z" fill="white"/>
<path d="M17.9381 106.814L4.37507 102.805L4.97606 100.771L10.9422 102.535L12.9494 95.7421L6.98317 93.9784L7.58417 91.9444L21.1472 95.9539L20.5462 97.9878L14.8102 96.2922L12.8031 103.085L18.5391 104.78L17.9381 106.814Z" fill="white"/>
<path d="M22.1287 93.1107L9.14443 87.5029L9.98501 85.5557L19.8288 89.8072L12.8795 78.8509L13.6883 76.9772L26.6725 82.585L25.8399 84.5138L16.0879 80.302L22.9296 91.2554L22.1287 93.1107Z" fill="white"/>
<path d="M28.0972 79.8066L15.8156 72.7918L18.3452 68.361C18.8676 67.4459 19.4621 66.7409 20.1285 66.246C20.8016 65.7396 21.5476 65.4821 22.3664 65.4735C23.1736 65.4584 24.0578 65.7254 25.019 66.2744C25.9455 66.8035 26.6024 67.4552 26.9897 68.2294C27.3836 68.9921 27.541 69.8193 27.4618 70.7111C27.3711 71.5963 27.0679 72.4906 26.552 73.3941L25.2228 75.7224L29.1487 77.9648L28.0972 79.8066ZM23.5551 74.7699L24.8447 72.5111C25.3473 71.6308 25.548 70.8084 25.4469 70.0441C25.3342 69.2731 24.8204 68.6263 23.9055 68.1038C23.1064 67.6474 22.3843 67.5268 21.7393 67.7421C21.0826 67.9507 20.4997 68.501 19.9905 69.393L18.5522 71.9124L23.5551 74.7699Z" fill="white"/>
<path d="M34.1371 69.3642L22.7 61.0427L23.9473 59.3275L32.6182 65.6363L28.2425 53.4216L29.4427 51.7712L40.8799 60.0926L39.6443 61.7916L31.0543 55.5417L35.3256 67.7299L34.1371 69.3642Z" fill="white"/>
<path d="M42.3908 58.1786L31.9986 48.5834L33.4369 47.0249L38.0083 51.2457L42.8116 46.0411L38.2402 41.8203L39.6784 40.2618L50.0706 49.857L48.6324 51.4155L44.2374 47.3575L39.4341 52.5622L43.8291 56.6201L42.3908 58.1786Z" fill="white"/>
<path d="M52.4832 47.5597L43.1578 36.9243L50.1662 30.7763L51.4456 32.2355L46.0314 36.985L54.0774 46.1612L52.4832 47.5597Z" fill="white"/>
<path d="M65.219 37.1014L57.4093 25.3075L65.1812 20.1588L66.2527 21.7769L60.2487 25.7545L66.9869 35.9302L65.219 37.1014Z" fill="white"/>
<path d="M72.7695 31.9752L70.8918 16.971L73.3155 15.6915L84.6228 25.718L82.6059 26.7826L80.3601 24.7555L74.3804 27.9122L74.7863 30.9106L72.7695 31.9752ZM74.1126 25.9042L78.8539 23.4013L73.0379 18.1232L74.1126 25.9042Z" fill="white"/>
<path d="M90.0496 23.7288C89.3935 23.992 88.7288 24.1796 88.0553 24.2918C87.3892 24.3865 86.7552 24.3822 86.1534 24.2787C85.5515 24.1752 85.0077 23.9479 84.522 23.5966C84.0313 23.2329 83.637 22.7156 83.3392 22.0446L85.2701 21.2699C85.4512 21.6141 85.6905 21.8702 85.9878 22.0384C86.2851 22.2065 86.6208 22.309 86.9948 22.3458C87.3638 22.3702 87.7488 22.3451 88.15 22.2704C88.5511 22.1957 88.9435 22.0814 89.3272 21.9275C89.6243 21.8083 89.9361 21.6544 90.2629 21.4659C90.602 21.2723 90.8964 21.0392 91.1463 20.7665C91.3962 20.4938 91.563 20.1753 91.6469 19.8111C91.7307 19.4469 91.6808 19.0358 91.4971 18.5777C91.3234 18.1444 91.1101 17.8276 90.8573 17.6272C90.5995 17.4144 90.3072 17.2945 89.9803 17.2676C89.6484 17.2283 89.2869 17.2583 88.8957 17.3578C88.5169 17.4523 88.1109 17.5864 87.6777 17.7602L85.9881 18.438L85.303 16.7295L86.3984 16.2901C86.8069 16.1262 87.1819 15.9326 87.5234 15.7094C87.8773 15.4812 88.1668 15.2357 88.3919 14.9729C88.6121 14.6977 88.7567 14.3954 88.8257 14.0659C88.8947 13.7364 88.8573 13.3921 88.7133 13.0331C88.4948 12.4883 88.1949 12.1344 87.8133 11.9713C87.4318 11.8082 87.0145 11.7528 86.5613 11.8053C86.1082 11.8577 85.6774 11.9659 85.2689 12.1297C84.7862 12.3234 84.3555 12.5752 83.9769 12.8852C83.6107 13.1902 83.3485 13.5397 83.1904 13.9337C83.0397 14.3104 83.0487 14.7092 83.2175 15.1301L81.2681 15.9122C81.0421 15.313 80.9562 14.7582 81.0102 14.2479C81.0642 13.7376 81.216 13.2742 81.4658 12.8579C81.7229 12.4241 82.0358 12.0399 82.4045 11.7052C82.7732 11.3704 83.1617 11.0852 83.5701 10.8495C83.9785 10.6138 84.3622 10.4239 84.7211 10.2799C85.2781 10.0565 85.8414 9.90235 86.4109 9.8176C86.9754 9.72046 87.5227 9.72365 88.0528 9.82719C88.5952 9.92576 89.0796 10.1482 89.5058 10.4946C89.9321 10.841 90.2718 11.3299 90.525 11.9613C90.6492 12.2708 90.7374 12.6163 90.7898 12.9977C90.8372 13.3667 90.7954 13.7643 90.6646 14.1905C90.5412 14.5993 90.2803 15.0417 89.882 15.5177C90.7066 15.3881 91.4361 15.541 92.0704 15.9763C92.7172 16.4067 93.197 17.0119 93.5097 17.7918C93.7803 18.5025 93.8726 19.1625 93.7865 19.772C93.7004 20.3814 93.4842 20.9352 93.138 21.4334C92.7918 21.9316 92.3514 22.3742 91.8168 22.7611C91.2947 23.1431 90.7056 23.4656 90.0496 23.7288Z" fill="white"/>
<path d="M102.519 19.4719C101.117 19.8575 99.8462 19.8889 98.7063 19.5662C97.5757 19.227 96.6146 18.5991 95.8231 17.6825C95.0316 16.7658 94.4519 15.6387 94.084 14.3011C93.7126 12.9506 93.6327 11.6791 93.8441 10.4865C94.0556 9.29385 94.5686 8.26729 95.3831 7.40679C96.1941 6.53343 97.3004 5.90394 98.702 5.51832C100.116 5.12917 101.387 5.09773 102.514 5.42403C103.641 5.75032 104.601 6.3718 105.392 7.28847C106.184 8.20513 106.765 9.33869 107.137 10.6891C107.504 12.0267 107.583 13.2918 107.371 14.4845C107.16 15.6771 106.648 16.7101 105.837 17.5834C105.039 18.4532 103.933 19.0827 102.519 19.4719ZM102.023 17.5952C103.052 17.3122 103.829 16.8426 104.354 16.1863C104.879 15.53 105.189 14.7735 105.286 13.9169C105.382 13.0603 105.306 12.1819 105.059 11.2816C104.871 10.5999 104.603 9.97516 104.253 9.40734C103.916 8.83598 103.502 8.3619 103.011 7.98508C102.52 7.60826 101.955 7.36264 101.315 7.24821C100.675 7.13379 99.9753 7.18094 99.2166 7.38967C98.2008 7.66915 97.424 8.13881 96.8862 8.79865C96.3613 9.45496 96.0443 10.2132 95.935 11.0733C95.8258 11.9334 95.8967 12.8201 96.1478 13.7332C96.3954 14.6336 96.7796 15.4271 97.3004 16.1139C97.8341 16.7971 98.4943 17.2865 99.281 17.5819C100.08 17.8738 100.995 17.8783 102.023 17.5952Z" fill="white"/>
<path d="M110.19 17.259L113.692 9.56735L108.158 3.25876L110.708 2.86278L114.759 7.70085L117.153 1.8621L119.643 1.47533L116.293 9.10285L121.971 15.4295L119.441 15.8224L115.229 10.9891L112.621 16.8814L110.19 17.259Z" fill="white"/>
<path d="M123.091 15.2803L122.436 1.14932L124.554 1.05114L125.051 11.7643L131.848 0.713062L133.886 0.618586L134.541 14.7496L132.443 14.8469L131.951 4.2336L125.109 15.1868L123.091 15.2803Z" fill="white"/>
<path d="M137.942 14.6613L139.141 0.56604L142.13 0.820394L145.624 8.60781L150.342 1.51902L153.253 1.76659L152.054 15.8619L149.941 15.6821L150.933 4.01913L145.773 11.8134L144.856 11.7354L141.047 3.17807L140.055 14.8411L137.942 14.6613Z" fill="white"/>
<path d="M159.674 17.2095L163.269 3.52809L165.32 4.06729L162.594 14.4396L172.381 5.92395L174.355 6.4428L170.759 20.1242L168.728 19.5901L171.428 9.31453L161.628 17.7233L159.674 17.2095Z" fill="white"/>
<path d="M173.641 21.007L178.857 7.85793L180.828 8.64011L178.533 14.4242L185.115 17.0364L187.41 11.2523L189.381 12.0345L184.165 25.1835L182.194 24.4013L184.4 18.8404L177.818 16.2282L175.612 21.7892L173.641 21.007Z" fill="white"/>
<path d="M186.089 25.8208L192.981 21.4297L193.011 13.485L195.07 14.6407L194.886 21.6732L196.647 22.6623L199.693 17.236L201.542 18.2741L198.497 23.7005L200.293 24.7092L206.217 20.8988L208.24 22.0348L201.458 26.1894L201.335 34.3804L199.172 33.166L199.371 26.394L197.557 25.3755L194.619 30.6099L192.77 29.5718L195.707 24.3374L193.911 23.3286L188.217 27.0157L186.089 25.8208Z" fill="white"/>
<path d="M201.81 34.8662L210.254 23.5183L211.955 24.7847L205.553 33.3879L217.812 29.1452L219.449 30.3638L211.005 41.7117L209.32 40.4573L215.662 31.9343L203.43 36.0728L201.81 34.8662Z" fill="white"/>
<path d="M213.52 43.7625L223.263 33.5085L224.8 34.9696L220.514 39.4802L225.647 44.3597L229.933 39.8491L231.47 41.3102L221.727 51.5642L220.19 50.1031L224.311 45.7665L219.178 40.887L215.057 45.2236L213.52 43.7625Z" fill="white"/>
<path d="M224.041 53.98L234.941 44.966L236.292 46.6005L228.028 53.4344L240.944 52.229L242.245 53.8019L231.345 62.816L230.006 61.1968L238.193 54.4267L225.328 55.5375L224.041 53.98Z" fill="white"/>
<path d="M233.095 65.2574L244.915 57.4892L247.716 61.7533C248.295 62.634 248.654 63.4836 248.792 64.3022C248.938 65.1319 248.83 65.9137 248.466 66.6475C248.113 67.374 247.475 68.0412 246.55 68.6492C245.658 69.2352 244.779 69.5253 243.914 69.5195C243.056 69.5249 242.247 69.2901 241.488 68.8152C240.741 68.3329 240.081 67.657 239.51 66.7875L238.038 64.5468L234.26 67.0299L233.095 65.2574ZM239.643 63.492L241.071 65.6658C241.628 66.5131 242.269 67.0649 242.996 67.3213C243.734 67.5704 244.544 67.4056 245.424 66.827C246.193 66.3215 246.628 65.7325 246.729 65.0598C246.841 64.3798 246.615 63.6106 246.051 62.7522L244.458 60.3275L239.643 63.492Z" fill="white"/>
<path d="M239.365 74.8592L251.945 68.3957L252.914 70.2823L243.376 75.1825L256.25 76.7786L257.182 78.594L244.602 85.0575L243.642 83.1887L253.091 78.3342L240.288 76.6568L239.365 74.8592Z" fill="white"/>
<path d="M246.021 88.2049L259.299 83.3348L260.029 85.3261L254.188 87.4684L256.626 94.1185L262.467 91.9762L263.197 93.9675L249.919 98.8376L249.189 96.8463L254.804 94.7867L252.366 88.1365L246.751 90.1962L246.021 88.2049Z" fill="white"/>
<path d="M250.777 101.855L264.495 98.415L266.762 107.459L264.88 107.931L263.129 100.944L251.292 103.912L250.777 101.855Z" fill="white"/>
</svg>
