<svg width="60" height="60" viewBox="0 0 60 60" fill="none" xmlns="http://www.w3.org/2000/svg">
<path d="M45.225 25.925C47.5883 26.8061 49.6912 28.2688 51.3394 30.178C52.9875 32.0872 54.1277 34.3811 54.6544 36.8477C55.181 39.3142 55.0773 41.8738 54.3526 44.2896C53.628 46.7054 52.3059 48.8996 50.5086 50.669C48.7113 52.4385 46.4968 53.7262 44.07 54.4131C41.6431 55.0999 39.0823 55.1637 36.6242 54.5986C34.1662 54.0335 31.8903 52.8577 30.0071 51.18C28.1239 49.5023 26.6941 47.3767 25.85 45M17.5 15H20V25M41.775 34.7L43.525 36.475L36.475 43.525M35 20C35 28.2843 28.2843 35 20 35C11.7157 35 5 28.2843 5 20C5 11.7157 11.7157 5 20 5C28.2843 5 35 11.7157 35 20Z" stroke="white" stroke-width="3" stroke-linecap="round" stroke-linejoin="round"/>
</svg>
