<svg width="61" height="60" viewBox="0 0 61 60" fill="none" xmlns="http://www.w3.org/2000/svg">
<path d="M51.6677 29.2499V29.8712L52.1071 30.3105L55.2946 33.498C55.3999 33.6033 55.4198 33.6745 55.4234 33.6925C55.4255 33.7027 55.4262 33.7131 55.424 33.7282C55.4218 33.7437 55.4147 33.7769 55.3886 33.8291L55.315 33.9763L55.2896 34.0777C55.2725 34.0857 55.2482 34.0952 55.2159 34.1036C55.1661 34.1167 55.1068 34.1249 55.0427 34.1249H6.29275C6.22871 34.1249 6.16937 34.1167 6.11961 34.1036C6.08731 34.0952 6.06296 34.0857 6.04586 34.0777L6.02053 33.9763L5.94689 33.8291C5.92084 33.7769 5.91368 33.7437 5.91147 33.7282C5.90932 33.7131 5.91002 33.7027 5.91206 33.6925C5.91566 33.6745 5.93561 33.6033 6.04091 33.498L9.22841 30.3105L9.66775 29.8712V29.2499V26.2499C9.66775 21.4954 11.2065 17.2106 13.924 13.5771L16.0757 23.188C16.4205 24.8672 17.8255 25.8749 19.4178 25.8749H19.4188H19.4199H19.421H19.4221H19.4232H19.4243H19.4253H19.4264H19.4275H19.4285H19.4296H19.4306H19.4317H19.4327H19.4338H19.4348H19.4358H19.4368H19.4379H19.4389H19.4399H19.4409H19.4419H19.4429H19.4439H19.4449H19.4459H19.4469H19.4479H19.4489H19.4498H19.4508H19.4518H19.4527H19.4537H19.4547H19.4556H19.4566H19.4575H19.4584H19.4594H19.4603H19.4612H19.4622H19.4631H19.464H19.4649H19.4659H19.4668H19.4677H19.4686H19.4695H19.4704H19.4713H19.4722H19.473H19.4739H19.4748H19.4757H19.4765H19.4774H19.4783H19.4791H19.48H19.4809H19.4817H19.4826H19.4834H19.4843H19.4851H19.4859H19.4868H19.4876H19.4884H19.4893H19.4901H19.4909H19.4917H19.4925H19.4933H19.4941H19.495H19.4958H19.4966H19.4973H19.4981H19.4989H19.4997H19.5005H19.5013H19.5021H19.5028H19.5036H19.5044H19.5052H19.5059H19.5067H19.5074H19.5082H19.509H19.5097H19.5105H19.5112H19.5119H19.5127H19.5134H19.5142H19.5149H19.5156H19.5164H19.5171H19.5178H19.5185H19.5192H19.52H19.5207H19.5214H19.5221H19.5228H19.5235H19.5242H19.5249H19.5256H19.5263H19.527H19.5277H19.5284H19.5291H19.5298H19.5304H19.5311H19.5318H19.5325H19.5332H19.5338H19.5345H19.5352H19.5358H19.5365H19.5372H19.5378H19.5385H19.5391H19.5398H19.5405H19.5411H19.5418H19.5424H19.5431H19.5437H19.5443H19.545H19.5456H19.5463H19.5469H19.5475H19.5482H19.5488H19.5494H19.55H19.5507H19.5513H19.5519H19.5525H19.5532H19.5538H19.5544H19.555H19.5556H19.5562H19.5568H19.5575H19.5581H19.5587H19.5593H19.5599H19.5605H19.5611H19.5617H19.5623H19.5629H19.5635H19.5641H19.5647H19.5653H19.5658H19.5664H19.567H19.5676H19.5682H19.5688H19.5694H19.5699H19.5705H19.5711H19.5717H19.5723H19.5728H19.5734H19.574H19.5746H19.5751H19.5757H19.5763H19.5769H19.5774H19.578H19.5786H19.5791H19.5797H19.5803H19.5808H19.5814H19.582H19.5825H19.5831H19.5837H19.5842H19.5848H19.5853H19.5859H19.5865H19.587H19.5876H19.5881H19.5887H19.5893H19.5898H19.5904H19.5909H19.5915H19.592H19.5926H19.5931H19.5937H19.5942H19.5948H19.5953H19.5959H19.5965H19.597H19.5976H19.5981H19.5987H19.5992H19.5998H19.6003H19.6009H19.6014H19.602H19.6025H19.6031H19.6036H19.6042H19.6047H19.6053H19.6058H19.6064H19.6069H19.6074H19.608H19.6085H19.6091H19.6096H19.6102H19.6107H19.6113H19.6118H19.6124H19.6129H19.6135H19.6141H19.6146H19.6152H19.6157H19.6163H19.6168H19.6174H19.6179H19.6185H19.619H19.6196H19.6201H19.6207H19.6213H19.6218H19.6224H19.6229H19.6235H19.624H19.6246H19.6252H19.6257H19.6263H19.6268H19.6274H19.628H19.6285H19.6291H19.6297H19.6302H19.6308H19.6314H19.6319H19.6325H19.6331H19.6336H19.6342H19.6348H19.6354H19.6359H19.6365H19.6371H19.6377H19.6382H19.6388H19.6394H19.64H19.6406H19.6411H19.6417H19.6423H19.6429H19.6435H19.6441H19.6447H19.6453H19.6458H19.6464H19.647H19.6476H19.6482H19.6488H19.6494H19.65H19.6506H19.6512H19.6518H19.6524H19.6531H19.6537H19.6543H19.6549H19.6555H19.6561H19.6567H19.6573H19.658H19.6586H19.6592H19.6598H19.6605H19.6611H19.6617H19.6623H19.663H19.6636H19.6642H19.6649H19.6655H19.6662H19.6668H19.6675H19.6681H19.6687H19.6694H19.67H19.6707H19.6714H19.672H19.6727H19.6733H19.674H19.6747H19.6753H19.676H19.6767H19.6773H19.678H19.6787H19.6794H19.6801H19.6807H19.6814H19.6821H19.6828H19.6835H19.6842H19.6849H19.6856H19.6863H19.687H19.6877H19.6884H19.6891H19.6898H19.6905H19.6913H19.692H19.6927H19.6934H19.6941H19.6949H19.6956H19.6963H19.6971H19.6978H19.6986H19.6993H19.7001H19.7008H19.7016H19.7023H19.7031H19.7038H19.7046H19.7054H19.7061H19.7069H19.7077H19.7084H19.7092H19.71H19.7108H19.7116H19.7124H19.7132H19.714H19.7147H19.7156H19.7164H19.7172H19.718H19.7188H19.7196H19.7204H19.7212H19.7221H19.7229H19.7237H19.7246H19.7254H19.7262H19.7271H19.7279H19.7288H19.7296H19.7305H19.7314H19.7322H19.7331H19.734H19.7348H19.7357H19.7366H19.7375H19.7384H19.7392H19.7401H19.741H19.7419H19.7428H19.7437H19.7447H19.7456H19.7465H19.7474H19.7483H19.7493H19.7502H19.7511H19.7521H19.753H19.7539H19.7549H19.7559H19.7568H19.7578H19.7587H19.7597H19.7607H19.7616H19.7626H19.7636H19.7646H19.7656H19.7666H19.7676H19.7686H19.7696H19.7706H19.7716H19.7726H19.7737H19.7747H19.7757H19.7767H19.7778H19.7788H19.7799H19.7809H19.782H19.783H19.7841H19.7852H19.7862H19.7873H19.7884H19.7895H19.7906H19.7917H19.7928H19.9169L20.0393 25.8545C22.1535 25.5021 23.0851 23.4383 22.7636 21.8307L22.7601 21.8133L22.7563 21.796L19.0828 5.44892C19.1281 5.40588 19.2075 5.34458 19.3386 5.27902C26.4163 1.74016 35.1067 1.74016 42.1844 5.27902L42.2424 5.308C42.2529 5.32669 42.2626 5.34741 42.2708 5.36853L38.5792 21.796L38.5754 21.8133L38.5719 21.8307C38.3825 22.7778 38.6764 23.6936 39.1228 24.3632C39.5692 25.0328 40.3014 25.6563 41.2486 25.8458L41.3942 25.8749H41.5427H41.5438H41.5449H41.546H41.5471H41.5482H41.5493H41.5503H41.5514H41.5525H41.5535H41.5546H41.5556H41.5567H41.5577H41.5588H41.5598H41.5608H41.5618H41.5629H41.5639H41.5649H41.5659H41.5669H41.5679H41.5689H41.5699H41.5709H41.5719H41.5729H41.5739H41.5748H41.5758H41.5768H41.5777H41.5787H41.5796H41.5806H41.5816H41.5825H41.5834H41.5844H41.5853H41.5862H41.5872H41.5881H41.589H41.5899H41.5908H41.5918H41.5927H41.5936H41.5945H41.5954H41.5963H41.5971H41.598H41.5989H41.5998H41.6007H41.6015H41.6024H41.6033H41.6041H41.605H41.6059H41.6067H41.6076H41.6084H41.6093H41.6101H41.6109H41.6118H41.6126H41.6134H41.6143H41.6151H41.6159H41.6167H41.6175H41.6183H41.6191H41.6199H41.6208H41.6215H41.6223H41.6231H41.6239H41.6247H41.6255H41.6263H41.6271H41.6278H41.6286H41.6294H41.6301H41.6309H41.6317H41.6324H41.6332H41.6339H41.6347H41.6354H41.6362H41.6369H41.6377H41.6384H41.6392H41.6399H41.6406H41.6414H41.6421H41.6428H41.6435H41.6442H41.645H41.6457H41.6464H41.6471H41.6478H41.6485H41.6492H41.6499H41.6506H41.6513H41.652H41.6527H41.6534H41.6541H41.6548H41.6554H41.6561H41.6568H41.6575H41.6582H41.6588H41.6595H41.6602H41.6608H41.6615H41.6622H41.6628H41.6635H41.6641H41.6648H41.6655H41.6661H41.6668H41.6674H41.668H41.6687H41.6693H41.67H41.6706H41.6713H41.6719H41.6725H41.6732H41.6738H41.6744H41.675H41.6757H41.6763H41.6769H41.6775H41.6782H41.6788H41.6794H41.68H41.6806H41.6812H41.6818H41.6824H41.6831H41.6837H41.6843H41.6849H41.6855H41.6861H41.6867H41.6873H41.6879H41.6885H41.6891H41.6897H41.6902H41.6908H41.6914H41.692H41.6926H41.6932H41.6938H41.6944H41.6949H41.6955H41.6961H41.6967H41.6973H41.6978H41.6984H41.699H41.6996H41.7001H41.7007H41.7013H41.7019H41.7024H41.703H41.7036H41.7041H41.7047H41.7053H41.7058H41.7064H41.707H41.7075H41.7081H41.7087H41.7092H41.7098H41.7103H41.7109H41.7115H41.712H41.7126H41.7131H41.7137H41.7142H41.7148H41.7154H41.7159H41.7165H41.717H41.7176H41.7181H41.7187H41.7192H41.7198H41.7203H41.7209H41.7214H41.722H41.7225H41.7231H41.7237H41.7242H41.7248H41.7253H41.7259H41.7264H41.727H41.7275H41.7281H41.7286H41.7291H41.7297H41.7302H41.7308H41.7313H41.7319H41.7324H41.733H41.7335H41.7341H41.7346H41.7352H41.7357H41.7363H41.7368H41.7374H41.7379H41.7385H41.739H41.7396H41.7402H41.7407H41.7413H41.7418H41.7424H41.7429H41.7435H41.744H41.7446H41.7451H41.7457H41.7462H41.7468H41.7474H41.7479H41.7485H41.749H41.7496H41.7502H41.7507H41.7513H41.7518H41.7524H41.753H41.7535H41.7541H41.7547H41.7552H41.7558H41.7564H41.7569H41.7575H41.7581H41.7586H41.7592H41.7598H41.7603H41.7609H41.7615H41.7621H41.7627H41.7632H41.7638H41.7644H41.765H41.7656H41.7661H41.7667H41.7673H41.7679H41.7685H41.7691H41.7697H41.7702H41.7708H41.7714H41.772H41.7726H41.7732H41.7738H41.7744H41.775H41.7756H41.7762H41.7768H41.7774H41.778H41.7787H41.7793H41.7799H41.7805H41.7811H41.7817H41.7823H41.783H41.7836H41.7842H41.7848H41.7855H41.7861H41.7867H41.7873H41.788H41.7886H41.7892H41.7899H41.7905H41.7912H41.7918H41.7924H41.7931H41.7937H41.7944H41.795H41.7957H41.7964H41.797H41.7977H41.7983H41.799H41.7997H41.8003H41.801H41.8017H41.8023H41.803H41.8037H41.8044H41.805H41.8057H41.8064H41.8071H41.8078H41.8085H41.8092H41.8099H41.8106H41.8113H41.812H41.8127H41.8134H41.8141H41.8148H41.8155H41.8162H41.817H41.8177H41.8184H41.8191H41.8199H41.8206H41.8213H41.8221H41.8228H41.8236H41.8243H41.825H41.8258H41.8265H41.8273H41.8281H41.8288H41.8296H41.8303H41.8311H41.8319H41.8327H41.8334H41.8342H41.835H41.8358H41.8366H41.8374H41.8382H41.8389H41.8397H41.8405H41.8414H41.8422H41.843H41.8438H41.8446H41.8454H41.8462H41.8471H41.8479H41.8487H41.8496H41.8504H41.8512H41.8521H41.8529H41.8538H41.8546H41.8555H41.8563H41.8572H41.8581H41.859H41.8598H41.8607H41.8616H41.8625H41.8633H41.8642H41.8651H41.866H41.8669H41.8678H41.8687H41.8696H41.8706H41.8715H41.8724H41.8733H41.8743H41.8752H41.8761H41.8771H41.878H41.8789H41.8799H41.8808H41.8818H41.8828H41.8837H41.8847H41.8857H41.8866H41.8876H41.8886H41.8896H41.8906H41.8916H41.8926H41.8936H41.8946H41.8956H41.8966H41.8976H41.8987H41.8997H41.9007H41.9017H41.9028H41.9038H41.9049H41.9059H41.907H41.908H41.9091H41.9102H41.9112H41.9123H41.9134H41.9145H41.9156H41.9167H41.9177C43.51 25.8749 44.915 24.8672 45.2598 23.188L47.4115 13.5771C50.129 17.2106 51.6677 21.4954 51.6677 26.2499V29.2499Z" stroke="#215B94" stroke-width="3"/>
<path d="M15.0763 45.0809L15.0693 45.0459L15.0607 45.0113C14.7079 43.6001 14.543 42.4123 14.543 41.2501C14.543 41.1552 14.5535 41.0369 14.5738 40.8751H21.6836C21.674 40.9999 21.668 41.1265 21.668 41.2501C21.668 46.2035 25.7145 50.2501 30.668 50.2501C35.6214 50.2501 39.668 46.2035 39.668 41.2501C39.668 41.2267 39.668 41.2021 39.668 41.1764C39.6682 41.0407 39.6685 40.8741 39.6638 40.6876H46.7904C46.7923 40.8059 46.793 40.931 46.793 41.0626C46.793 42.2494 46.6213 43.6096 46.2882 44.7755L46.2715 44.8339L46.2596 44.8934C46.2432 44.9756 46.181 45.0841 46.0805 45.1595C46.0109 45.2117 45.9692 45.2161 45.9594 45.2162L45.9213 45.2086L45.8801 45.2027C43.8447 44.9119 42.1839 46.079 41.3817 47.4159C40.534 48.8288 40.5047 50.8152 41.6646 52.2875C41.7559 52.4138 41.7573 52.4903 41.7562 52.5107L41.7562 52.5111C41.7555 52.5235 41.7514 52.6003 41.6272 52.7315C39.7585 54.4232 37.6008 55.7492 35.327 56.4376H35.3265H35.3254H35.3243H35.3232H35.3221H35.321H35.3199H35.3188H35.3177H35.3166H35.3155H35.3144H35.3134H35.3123H35.3112H35.3101H35.309H35.3079H35.3068H35.3057H35.3046H35.3035H35.3024H35.3013H35.3002H35.2991H35.298H35.2969H35.2958H35.2947H35.2936H35.2925H35.2914H35.2903H35.2892H35.2881H35.287H35.2859H35.2848H35.2837H35.2826H35.2815H35.2804H35.2793H35.2782H35.2771H35.276H35.2749H35.2738H35.2727H35.2716H35.2705H35.2694H35.2683H35.2672H35.2661H35.265H35.2639H35.2628H35.2617H35.2606H35.2595H35.2584H35.2573H35.2562H35.2551H35.254H35.2529H35.2518H35.2507H35.2496H35.2485H35.2474H35.2463H35.2452H35.2441H35.243H35.2419H35.2408H35.2397H35.2386H35.2375H35.2364H35.2353H35.2342H35.2331H35.232H35.231H35.2299H35.2288H35.2277H35.2266H35.2255H35.2244H35.2233H35.2222H35.2211H35.22H35.2189H35.2178H35.2167H35.2156H35.2145H35.2134H35.2123H35.2112H35.2101H35.209H35.2079H35.2068H35.2057H35.2046H35.2035H35.2024H35.2013H35.2002H35.1991H35.198H35.1969H35.1958H35.1947H35.1936H35.1925H35.1914H35.1903H35.1892H35.1881H35.187H35.1859H35.1848H35.1837H35.1826H35.1815H35.1804H35.1793H35.1782H35.1771H35.176H35.1749H35.1738H35.1727H35.1716H35.1705H35.1694H35.1683H35.1672H35.1661H35.165H35.1639H35.1628H35.1617H35.1606H35.1595H35.1584H35.1573H35.1562H35.1551H35.154H35.1529H35.1518H35.1508H35.1497H35.1486H35.1475H35.1464H35.1453H35.1442H35.1431H35.142H35.1409H35.1398H35.1387H35.1376H35.1365H35.1354H35.1343H35.1332H35.1321H35.131H35.1299H35.1288H35.1277H35.1266H35.1255H35.1244H35.1233H35.1222H35.1211H35.12H35.1189H35.1178H35.1167H35.1156H35.1145H35.1134H35.1123H35.1112H35.1101H35.109H35.1079H35.1068H35.1057H35.1046H35.1035H35.1024H35.1013H35.1002H35.0991H35.098H35.0969H35.0958H35.0947H35.0936H35.0925H35.0914H35.0903H35.0892H35.0881H35.087H35.0859H35.0848H35.0837H35.0826H35.0815H35.0804H35.0793H35.0782H35.0771H35.076H35.0749H35.0738H35.0727H35.0716H35.0706H35.0695H35.0684H35.0673H35.0662H35.0651H35.064H35.0629H35.0618H35.0607H35.0596H35.0585H35.0574H35.0563H35.0552H35.0541H35.053H35.0519H35.0508H35.0497H35.0486H35.0475H35.0464H35.0453H35.0442H35.0431H35.042H35.0409H35.0398H35.0387H35.0376H35.0365H35.0354H35.0343H35.0332H35.0321H35.031H35.0299H35.0288H35.0277H35.0266H35.0255H35.0244H35.0233H35.0222H35.0211H35.02H35.0189H35.0178H35.0167H35.0156H35.0145H35.0134H35.0123H35.0112H35.0101H35.009H35.0079H35.0068H35.0057H35.0046H35.0035H35.0024H35.0013H35.0002H34.9991H34.998H34.9969H34.9958H34.9947H34.9936H34.9925H34.9914H34.9904H34.9893H34.9882H34.9871H34.986H34.9849H34.9838H34.9827H34.9816H34.9805C34.8715 56.4376 34.8385 56.4153 34.829 56.4089L34.8281 56.4083C34.8127 56.398 34.7517 56.3527 34.6708 56.2099C34.0421 54.5143 32.3619 53.4376 30.668 53.4376C28.951 53.4376 27.248 54.5438 26.64 56.2795C26.5971 56.374 26.5449 56.414 26.4902 56.4398C26.4217 56.472 26.3013 56.4998 26.135 56.4751C23.802 55.7943 21.5874 54.4394 19.677 52.7027L19.6246 52.6551L19.5853 52.6256C19.5833 52.6172 19.5809 52.6039 19.58 52.5853C19.5754 52.499 19.6051 52.3816 19.6724 52.2862C20.1793 51.6444 20.5543 50.8651 20.6311 49.9816C20.7104 49.0692 20.4601 48.1717 19.916 47.3556C18.9141 45.8526 17.2519 44.9029 15.4214 45.208L15.3975 45.212L15.3738 45.2167C15.2835 45.2348 15.2039 45.2147 15.1505 45.1812C15.1026 45.1513 15.0838 45.1185 15.0763 45.0809ZM45.9571 45.2161C45.9571 45.216 45.9577 45.2161 45.9588 45.2162L45.9571 45.2161Z" stroke="#215B94" stroke-width="3"/>
</svg>
