<svg width="61" height="60" viewBox="0 0 61 60" fill="none" xmlns="http://www.w3.org/2000/svg">
<path d="M27.832 42.5L32.832 47.5C33.3245 47.9925 33.9091 48.3831 34.5525 48.6496C35.196 48.9162 35.8856 49.0533 36.582 49.0533C37.2785 49.0533 37.9681 48.9162 38.6115 48.6496C39.2549 48.3831 39.8396 47.9925 40.332 47.5C40.8245 47.0076 41.2151 46.4229 41.4816 45.7795C41.7482 45.1361 41.8853 44.4465 41.8853 43.75C41.8853 43.0536 41.7482 42.364 41.4816 41.7206C41.2151 41.0771 40.8245 40.4925 40.332 40M35.332 35L41.582 41.25C42.5766 42.2446 43.9255 42.8033 45.332 42.8033C46.7386 42.8033 48.0875 42.2446 49.082 41.25C50.0766 40.2555 50.6353 38.9066 50.6353 37.5C50.6353 36.0935 50.0766 34.7446 49.082 33.75L39.382 24.05C37.9758 22.6455 36.0695 21.8566 34.082 21.8566C32.0945 21.8566 30.1883 22.6455 28.782 24.05L26.582 26.25C25.5875 27.2446 24.2386 27.8033 22.832 27.8033C21.4255 27.8033 20.0766 27.2446 19.082 26.25C18.0875 25.2555 17.5287 23.9066 17.5287 22.5C17.5287 21.0935 18.0875 19.7446 19.082 18.75L26.107 11.725C28.3876 9.4504 31.3618 8.00142 34.5586 7.60747C37.7555 7.21352 40.9924 7.89712 43.757 9.55004L44.932 10.25C45.9965 10.8925 47.2621 11.1153 48.482 10.875L52.832 10M52.832 7.50004L55.332 35H50.332M7.83203 7.50004L5.33203 35L21.582 51.25C22.5766 52.2446 23.9255 52.8033 25.332 52.8033C26.7386 52.8033 28.0875 52.2446 29.082 51.25C30.0766 50.2555 30.6353 48.9066 30.6353 47.5C30.6353 46.0935 30.0766 44.7446 29.082 43.75M7.83203 10H27.832" stroke="white" stroke-width="3" stroke-linecap="round" stroke-linejoin="round"/>
</svg>
