<svg width="60" height="60" viewBox="0 0 60 60" fill="none" xmlns="http://www.w3.org/2000/svg">
<path d="M25 12.5L30 7.5M20 40L40 20M30 52.5L35 47.5M41.25 47.5C44.7018 47.5 47.5 44.7018 47.5 41.25C47.5 37.7982 44.7018 35 41.25 35C37.7982 35 35 37.7982 35 41.25C35 44.7018 37.7982 47.5 41.25 47.5ZM18.75 25C22.2018 25 25 22.2018 25 18.75C25 15.2982 22.2018 12.5 18.75 12.5C15.2982 12.5 12.5 15.2982 12.5 18.75C12.5 22.2018 15.2982 25 18.75 25ZM13.75 52.5C17.2018 52.5 20 49.7018 20 46.25C20 42.7982 17.2018 40 13.75 40C10.2982 40 7.5 42.7982 7.5 46.25C7.5 49.7018 10.2982 52.5 13.75 52.5ZM46.25 20C49.7018 20 52.5 17.2018 52.5 13.75C52.5 10.2982 49.7018 7.5 46.25 7.5C42.7982 7.5 40 10.2982 40 13.75C40 17.2018 42.7982 20 46.25 20Z" stroke="#215B94" stroke-width="3" stroke-linecap="round" stroke-linejoin="round"/>
</svg>
