<svg width="60" height="60" viewBox="0 0 60 60" fill="none" xmlns="http://www.w3.org/2000/svg">
<path d="M17.5 25V55M37.5 14.7L35 25H49.575C50.3512 25 51.1168 25.1807 51.8111 25.5279C52.5053 25.875 53.1093 26.379 53.575 27C54.0407 27.621 54.3555 28.3419 54.4943 29.1056C54.6332 29.8693 54.5923 30.6548 54.375 31.4L48.55 51.4C48.2471 52.4386 47.6155 53.3509 46.75 54C45.8845 54.6491 44.8319 55 43.75 55H10C8.67392 55 7.40215 54.4732 6.46447 53.5355C5.52678 52.5979 5 51.3261 5 50V30C5 28.6739 5.52678 27.4021 6.46447 26.4645C7.40215 25.5268 8.67392 25 10 25H16.9C17.8302 24.9995 18.7418 24.7395 19.5324 24.2493C20.3229 23.7591 20.9611 23.058 21.375 22.225L30 5C31.1789 5.0146 32.3393 5.29542 33.3945 5.82149C34.4497 6.34756 35.3723 7.10527 36.0935 8.03801C36.8147 8.97075 37.3158 10.0544 37.5593 11.208C37.8029 12.3616 37.7826 13.5553 37.5 14.7Z" stroke="#215B94" stroke-width="3" stroke-linecap="round" stroke-linejoin="round"/>
</svg>
