<svg width="212" height="212" viewBox="0 0 212 212" fill="none" xmlns="http://www.w3.org/2000/svg">
<path d="M106.001 127.2C117.709 127.2 127.201 117.708 127.201 106C127.201 94.2916 117.709 84.8 106.001 84.8C94.2923 84.8 84.8008 94.2916 84.8008 106C84.8008 117.708 94.2923 127.2 106.001 127.2Z" fill="url(#paint0_linear_1835_16030)"/>
<path fill-rule="evenodd" clip-rule="evenodd" d="M89.0094 42.9083C87.5831 41.8333 86.2809 40.6018 85.1292 39.2395C74.7275 53.2724 65.7175 72.1033 59.9436 93.6531C46.3069 144.546 55.8807 191.329 81.327 198.148C106.773 204.966 138.456 169.237 152.093 118.344C165.73 67.4515 156.156 20.6676 130.71 13.8492C128.709 13.3132 126.67 13.0401 124.604 13.0167C125.473 14.7196 126.145 16.5409 126.586 18.4499C127.524 18.5555 128.442 18.7286 129.338 18.9687C139.077 21.5783 147.122 32.3387 150.865 50.6314C154.537 68.5767 153.625 92.1484 146.973 116.973C140.322 141.796 129.326 162.666 117.173 176.371C104.785 190.342 92.4379 195.638 82.6987 193.029C72.9594 190.419 64.915 179.658 61.1717 161.366C57.4993 143.42 58.4114 119.848 65.0629 95.0247C70.6269 74.2593 79.2309 56.2605 89.0094 42.9083Z" fill="url(#paint1_linear_1835_16030)"/>
<path fill-rule="evenodd" clip-rule="evenodd" d="M95.0406 146.955C70.217 140.303 49.3471 129.307 35.642 117.154C21.6717 104.766 16.3751 92.4194 18.9848 82.6801C21.5944 72.9408 32.3548 64.8965 50.6476 61.1531C68.593 57.4807 92.1648 58.3928 116.988 65.0443C141.813 71.6958 162.682 82.6917 176.388 94.8446C190.358 107.233 195.654 119.58 193.044 129.32C192.791 130.268 192.459 131.199 192.051 132.113C193.531 133.248 194.874 134.553 196.051 135.998C196.959 134.315 197.667 132.545 198.164 130.691C204.982 105.245 169.253 73.5614 118.361 59.9251C67.4679 46.2884 20.6837 55.8621 13.8654 81.3084C7.04706 106.755 42.7764 138.438 93.6689 152.075C115.697 157.977 136.955 159.531 154.536 157.332C154.079 155.652 153.8 153.898 153.723 152.092C136.972 154.162 116.473 152.698 95.0406 146.955Z" fill="url(#paint2_linear_1835_16030)"/>
<path d="M103.352 37.1C110.669 37.1 116.602 31.1677 116.602 23.85C116.602 16.5322 110.669 10.6 103.352 10.6C96.0338 10.6 90.1016 16.5322 90.1016 23.85C90.1016 31.1677 96.0338 37.1 103.352 37.1Z" fill="url(#paint3_linear_1835_16030)"/>
<path d="M177.551 164.3C184.869 164.3 190.801 158.368 190.801 151.05C190.801 143.732 184.869 137.8 177.551 137.8C170.233 137.8 164.301 143.732 164.301 151.05C164.301 158.368 170.233 164.3 177.551 164.3Z" fill="url(#paint4_linear_1835_16030)"/>
<defs>
<linearGradient id="paint0_linear_1835_16030" x1="84.8008" y1="84.8" x2="135.186" y2="96.5539" gradientUnits="userSpaceOnUse">
<stop stop-color="#005A87"/>
<stop offset="1" stop-color="#8FB2FF"/>
</linearGradient>
<linearGradient id="paint1_linear_1835_16030" x1="53.7344" y1="13.0167" x2="182.541" y2="29.9126" gradientUnits="userSpaceOnUse">
<stop stop-color="#005A87"/>
<stop offset="1" stop-color="#8FB2FF"/>
</linearGradient>
<linearGradient id="paint2_linear_1835_16030" x1="13.0313" y1="53.7158" x2="211.83" y2="136.192" gradientUnits="userSpaceOnUse">
<stop stop-color="#005A87"/>
<stop offset="1" stop-color="#8FB2FF"/>
</linearGradient>
<linearGradient id="paint3_linear_1835_16030" x1="90.1016" y1="10.6" x2="121.592" y2="17.9461" gradientUnits="userSpaceOnUse">
<stop stop-color="#005A87"/>
<stop offset="1" stop-color="#8FB2FF"/>
</linearGradient>
<linearGradient id="paint4_linear_1835_16030" x1="164.301" y1="137.8" x2="195.791" y2="145.146" gradientUnits="userSpaceOnUse">
<stop stop-color="#005A87"/>
<stop offset="1" stop-color="#8FB2FF"/>
</linearGradient>
</defs>
</svg>
