<svg width="85" height="34" viewBox="0 0 85 34" fill="none" xmlns="http://www.w3.org/2000/svg">
<path d="M5.59375 33.2612C3.89062 33.2612 2.63281 32.9487 1.82031 32.3237C1.02344 31.6987 0.625 30.9409 0.625 30.0502C0.625 29.3627 0.867188 28.8705 1.35156 28.5737C1.83594 28.2612 2.32031 28.1049 2.80469 28.1049C3.07031 28.1049 3.32812 28.1909 3.57812 28.3627C3.84375 28.5346 3.97656 28.808 3.97656 29.183C3.97656 29.4799 3.84375 29.7534 3.57812 30.0034C3.32812 30.2377 3.03125 30.3549 2.6875 30.3549C2.48438 30.3549 2.28125 30.3393 2.07812 30.308C1.89062 30.2768 1.71875 30.2065 1.5625 30.0971V30.2377C1.5625 30.9252 1.89062 31.4955 2.54688 31.9487C3.21875 32.3862 4.13281 32.6049 5.28906 32.6049C6.32031 32.6049 7.30469 32.4252 8.24219 32.0659C9.17969 31.7065 10.2031 31.0268 11.3125 30.0268C12.4375 29.0112 13.7812 27.5424 15.3438 25.6205C16.9062 23.6987 18.8281 21.1674 21.1094 18.0268C23.6094 14.5268 26.1172 11.6596 28.6328 9.42523C31.1484 7.19086 33.7266 5.19867 36.3672 3.44867C36.5234 3.35492 36.6719 3.26898 36.8125 3.19086C36.9688 3.09711 37.125 3.01117 37.2812 2.93304C36.3281 2.29242 35.1328 1.81586 33.6953 1.50336C32.2734 1.19086 30.6797 1.03461 28.9141 1.03461C26.1953 1.03461 23.6172 1.47211 21.1797 2.34711C18.7422 3.22211 16.5938 4.35492 14.7344 5.74554C12.875 7.13617 11.4219 8.63617 10.375 10.2455C9.34375 11.8393 8.85156 13.3705 8.89844 14.8393C8.92969 15.683 9.14062 16.3549 9.53125 16.8549C9.9375 17.3549 10.4141 17.7143 10.9609 17.933C11.5234 18.1518 12.0547 18.2612 12.5547 18.2612C13.6797 18.2612 14.8125 17.9174 15.9531 17.2299C17.0938 16.5268 18.1797 15.6362 19.2109 14.558C20.2578 13.4643 21.1953 12.308 22.0234 11.0893C22.8516 9.85492 23.5234 8.69867 24.0391 7.62054C24.5547 6.54242 24.8438 5.67523 24.9062 5.01898C24.9688 4.48773 25.0859 4.22211 25.2578 4.22211C25.4141 4.22211 25.4922 4.47211 25.4922 4.97211C25.5391 6.34711 25.2734 7.83929 24.6953 9.44867C24.1172 11.0424 23.2578 12.558 22.1172 13.9955C20.9922 15.433 19.6172 16.6049 17.9922 17.5112C16.3672 18.4174 14.5391 18.8705 12.5078 18.8705C11.4922 18.8705 10.5078 18.519 9.55469 17.8159C8.61719 17.0971 8.13281 16.144 8.10156 14.9565C8.05469 13.4096 8.4375 11.9174 9.25 10.4799C10.0625 9.02679 11.1875 7.69086 12.625 6.47211C14.0625 5.25336 15.6953 4.19086 17.5234 3.28461C19.3672 2.36273 21.2969 1.65179 23.3125 1.15179C25.3281 0.636169 27.3125 0.378357 29.2656 0.378357C32.8594 0.378357 35.7734 1.09711 38.0078 2.53461C39.2109 1.92523 40.25 1.47992 41.125 1.19867C42 0.917419 42.6562 0.776794 43.0938 0.776794C43.3906 0.776794 43.5469 0.854919 43.5625 1.01117C43.5625 1.19867 43.3438 1.32367 42.9062 1.38617C41.7031 1.63617 40.3516 2.22211 38.8516 3.14398C40.6641 4.61273 41.6172 6.49554 41.7109 8.79242C41.7734 10.1049 41.4141 11.4096 40.6328 12.7065C39.8516 13.9877 38.7266 15.1518 37.2578 16.1987C35.8047 17.2299 34.0859 18.0424 32.1016 18.6362C32.5547 19.1049 32.7891 19.7143 32.8047 20.4643C32.8516 21.1674 32.7734 21.8784 32.5703 22.5971C32.3672 23.3002 31.9219 24.1284 31.2344 25.0815C30.5469 26.019 29.5 27.1909 28.0938 28.5971C27.5625 29.0502 27.2031 29.4721 27.0156 29.8627C26.8281 30.2377 26.7422 30.5815 26.7578 30.894C26.7578 31.3627 26.9297 31.769 27.2734 32.1127C27.6172 32.4409 28.2656 32.6049 29.2188 32.6049C30.4688 32.6049 31.7734 32.144 33.1328 31.2221C34.5078 30.3002 35.7891 29.0346 36.9766 27.4252C38.1641 25.8159 39.1016 23.9955 39.7891 21.9643C39.9141 21.4955 40.0234 21.2612 40.1172 21.2612C40.3984 21.2612 40.5391 21.4877 40.5391 21.9409C40.5547 23.3002 40.1875 24.6518 39.4375 25.9955C38.6875 27.3237 37.7188 28.5346 36.5312 29.6284C35.3438 30.7221 34.0859 31.6049 32.7578 32.2768C31.4453 32.933 30.2266 33.2612 29.1016 33.2612C27.8359 33.2612 26.8594 32.9955 26.1719 32.4643C25.4844 31.9174 25.125 31.2221 25.0938 30.3784C25.0625 29.2221 25.25 28.183 25.6562 27.2612C26.0625 26.3393 26.5859 25.4955 27.2266 24.7299C27.8672 23.9643 28.5078 23.2534 29.1484 22.5971C29.9766 21.9096 30.5078 21.3393 30.7422 20.8862C30.9766 20.433 31.0859 19.9877 31.0703 19.5502C31.0703 19.3315 31.0234 19.1284 30.9297 18.9409C30.5391 19.0346 30.1641 19.1049 29.8047 19.1518C29.4453 19.183 29.1094 19.1987 28.7969 19.1987C28.125 19.1987 27.6172 19.1127 27.2734 18.9409C26.9297 18.7534 26.75 18.5424 26.7344 18.308C26.7188 18.1205 26.8594 17.9409 27.1562 17.769C27.4688 17.5815 27.9219 17.4877 28.5156 17.4877C29.0312 17.4877 29.5312 17.5346 30.0156 17.6284C30.5156 17.7065 30.9609 17.8549 31.3516 18.0737C32.4297 17.6205 33.4688 16.9643 34.4688 16.1049C35.4688 15.2455 36.3594 14.2768 37.1406 13.1987C37.9375 12.1205 38.5547 11.0268 38.9922 9.91742C39.4453 8.80804 39.6562 7.77679 39.625 6.82367C39.5781 5.57367 39.0859 4.50336 38.1484 3.61273C36.2891 4.87836 34.3359 6.61273 32.2891 8.81586C30.2422 11.0034 28.2266 13.5424 26.2422 16.433C23.2109 20.683 20.4453 24.0346 17.9453 26.4877C15.4609 28.9409 13.2031 30.683 11.1719 31.7143C9.14062 32.7455 7.28125 33.2612 5.59375 33.2612ZM28.6797 18.6596C29.2266 18.6596 29.7969 18.5737 30.3906 18.4018C29.9531 18.1518 29.3281 18.0268 28.5156 18.0268C27.8906 18.0268 27.5781 18.1049 27.5781 18.2612C27.5781 18.3237 27.6719 18.4096 27.8594 18.519C28.0469 18.6127 28.3203 18.6596 28.6797 18.6596ZM46.75 33.2612C45.0469 33.2612 43.7891 32.9487 42.9766 32.3237C42.1797 31.6987 41.7812 30.9409 41.7812 30.0502C41.7812 29.3627 42.0234 28.8705 42.5078 28.5737C42.9922 28.2612 43.4766 28.1049 43.9609 28.1049C44.2266 28.1049 44.4844 28.1909 44.7344 28.3627C45 28.5346 45.1328 28.808 45.1328 29.183C45.1328 29.4799 45 29.7534 44.7344 30.0034C44.4844 30.2377 44.1875 30.3549 43.8438 30.3549C43.6406 30.3549 43.4375 30.3393 43.2344 30.308C43.0469 30.2768 42.875 30.2065 42.7188 30.0971V30.2377C42.7188 30.9252 43.0469 31.4955 43.7031 31.9487C44.375 32.3862 45.2891 32.6049 46.4453 32.6049C47.4766 32.6049 48.4609 32.4252 49.3984 32.0659C50.3359 31.7065 51.3594 31.0268 52.4688 30.0268C53.5938 29.0112 54.9375 27.5424 56.5 25.6205C58.0625 23.6987 59.9844 21.1674 62.2656 18.0268C64.7656 14.5268 67.2734 11.6596 69.7891 9.42523C72.3047 7.19086 74.8828 5.19867 77.5234 3.44867C77.6797 3.35492 77.8281 3.26898 77.9688 3.19086C78.125 3.09711 78.2812 3.01117 78.4375 2.93304C77.4844 2.29242 76.2891 1.81586 74.8516 1.50336C73.4297 1.19086 71.8359 1.03461 70.0703 1.03461C67.3516 1.03461 64.7734 1.47211 62.3359 2.34711C59.8984 3.22211 57.75 4.35492 55.8906 5.74554C54.0312 7.13617 52.5781 8.63617 51.5312 10.2455C50.5 11.8393 50.0078 13.3705 50.0547 14.8393C50.0859 15.683 50.2969 16.3549 50.6875 16.8549C51.0938 17.3549 51.5703 17.7143 52.1172 17.933C52.6797 18.1518 53.2109 18.2612 53.7109 18.2612C54.8359 18.2612 55.9688 17.9174 57.1094 17.2299C58.25 16.5268 59.3359 15.6362 60.3672 14.558C61.4141 13.4643 62.3516 12.308 63.1797 11.0893C64.0078 9.85492 64.6797 8.69867 65.1953 7.62054C65.7109 6.54242 66 5.67523 66.0625 5.01898C66.125 4.48773 66.2422 4.22211 66.4141 4.22211C66.5703 4.22211 66.6484 4.47211 66.6484 4.97211C66.6953 6.34711 66.4297 7.83929 65.8516 9.44867C65.2734 11.0424 64.4141 12.558 63.2734 13.9955C62.1484 15.433 60.7734 16.6049 59.1484 17.5112C57.5234 18.4174 55.6953 18.8705 53.6641 18.8705C52.6484 18.8705 51.6641 18.519 50.7109 17.8159C49.7734 17.0971 49.2891 16.144 49.2578 14.9565C49.2109 13.4096 49.5938 11.9174 50.4062 10.4799C51.2188 9.02679 52.3438 7.69086 53.7812 6.47211C55.2188 5.25336 56.8516 4.19086 58.6797 3.28461C60.5234 2.36273 62.4531 1.65179 64.4688 1.15179C66.4844 0.636169 68.4688 0.378357 70.4219 0.378357C74.0156 0.378357 76.9297 1.09711 79.1641 2.53461C80.3672 1.92523 81.4062 1.47992 82.2812 1.19867C83.1562 0.917419 83.8125 0.776794 84.25 0.776794C84.5469 0.776794 84.7031 0.854919 84.7188 1.01117C84.7188 1.19867 84.5 1.32367 84.0625 1.38617C82.8594 1.63617 81.5078 2.22211 80.0078 3.14398C81.8203 4.61273 82.7734 6.49554 82.8672 8.79242C82.9297 10.1049 82.5703 11.4096 81.7891 12.7065C81.0078 13.9877 79.8828 15.1518 78.4141 16.1987C76.9609 17.2299 75.2422 18.0424 73.2578 18.6362C73.7109 19.1049 73.9453 19.7143 73.9609 20.4643C74.0078 21.1674 73.9297 21.8784 73.7266 22.5971C73.5234 23.3002 73.0781 24.1284 72.3906 25.0815C71.7031 26.019 70.6562 27.1909 69.25 28.5971C68.7188 29.0502 68.3594 29.4721 68.1719 29.8627C67.9844 30.2377 67.8984 30.5815 67.9141 30.894C67.9141 31.3627 68.0859 31.769 68.4297 32.1127C68.7734 32.4409 69.4219 32.6049 70.375 32.6049C71.625 32.6049 72.9297 32.144 74.2891 31.2221C75.6641 30.3002 76.9453 29.0346 78.1328 27.4252C79.3203 25.8159 80.2578 23.9955 80.9453 21.9643C81.0703 21.4955 81.1797 21.2612 81.2734 21.2612C81.5547 21.2612 81.6953 21.4877 81.6953 21.9409C81.7109 23.3002 81.3438 24.6518 80.5938 25.9955C79.8438 27.3237 78.875 28.5346 77.6875 29.6284C76.5 30.7221 75.2422 31.6049 73.9141 32.2768C72.6016 32.933 71.3828 33.2612 70.2578 33.2612C68.9922 33.2612 68.0156 32.9955 67.3281 32.4643C66.6406 31.9174 66.2812 31.2221 66.25 30.3784C66.2188 29.2221 66.4062 28.183 66.8125 27.2612C67.2188 26.3393 67.7422 25.4955 68.3828 24.7299C69.0234 23.9643 69.6641 23.2534 70.3047 22.5971C71.1328 21.9096 71.6641 21.3393 71.8984 20.8862C72.1328 20.433 72.2422 19.9877 72.2266 19.5502C72.2266 19.3315 72.1797 19.1284 72.0859 18.9409C71.6953 19.0346 71.3203 19.1049 70.9609 19.1518C70.6016 19.183 70.2656 19.1987 69.9531 19.1987C69.2812 19.1987 68.7734 19.1127 68.4297 18.9409C68.0859 18.7534 67.9062 18.5424 67.8906 18.308C67.875 18.1205 68.0156 17.9409 68.3125 17.769C68.625 17.5815 69.0781 17.4877 69.6719 17.4877C70.1875 17.4877 70.6875 17.5346 71.1719 17.6284C71.6719 17.7065 72.1172 17.8549 72.5078 18.0737C73.5859 17.6205 74.625 16.9643 75.625 16.1049C76.625 15.2455 77.5156 14.2768 78.2969 13.1987C79.0938 12.1205 79.7109 11.0268 80.1484 9.91742C80.6016 8.80804 80.8125 7.77679 80.7812 6.82367C80.7344 5.57367 80.2422 4.50336 79.3047 3.61273C77.4453 4.87836 75.4922 6.61273 73.4453 8.81586C71.3984 11.0034 69.3828 13.5424 67.3984 16.433C64.3672 20.683 61.6016 24.0346 59.1016 26.4877C56.6172 28.9409 54.3594 30.683 52.3281 31.7143C50.2969 32.7455 48.4375 33.2612 46.75 33.2612ZM69.8359 18.6596C70.3828 18.6596 70.9531 18.5737 71.5469 18.4018C71.1094 18.1518 70.4844 18.0268 69.6719 18.0268C69.0469 18.0268 68.7344 18.1049 68.7344 18.2612C68.7344 18.3237 68.8281 18.4096 69.0156 18.519C69.2031 18.6127 69.4766 18.6596 69.8359 18.6596Z" fill="black" fill-opacity="0.49"/>
</svg>
